G04 #@! TF.GenerationSoftware,KiCad,Pcbnew,(5.1.2-1)-1*
G04 #@! TF.CreationDate,2020-02-23T09:00:00-05:00*
G04 #@! TF.ProjectId,IO_Board,494f5f42-6f61-4726-942e-6b696361645f,rev?*
G04 #@! TF.SameCoordinates,Original*
G04 #@! TF.FileFunction,Copper,L2,Bot*
G04 #@! TF.FilePolarity,Positive*
%FSLAX46Y46*%
G04 Gerber Fmt 4.6, Leading zero omitted, Abs format (unit mm)*
G04 Created by KiCad (PCBNEW (5.1.2-1)-1) date 2020-02-23 09:00:00*
%MOMM*%
%LPD*%
G04 APERTURE LIST*
%ADD10R,1.800000X1.800000*%
%ADD11C,1.800000*%
%ADD12O,1.700000X1.700000*%
%ADD13R,1.700000X1.700000*%
%ADD14C,1.699260*%
%ADD15R,1.699260X1.699260*%
%ADD16C,1.600000*%
%ADD17C,0.800000*%
%ADD18C,0.304800*%
%ADD19C,0.254000*%
G04 APERTURE END LIST*
D10*
X55880000Y-58420000D03*
D11*
X58420000Y-58420000D03*
X66040000Y-58420000D03*
D10*
X63500000Y-58420000D03*
X86360000Y-58420000D03*
D11*
X88900000Y-58420000D03*
X96520000Y-58420000D03*
D10*
X93980000Y-58420000D03*
X71120000Y-58420000D03*
D11*
X73660000Y-58420000D03*
X81280000Y-58420000D03*
D10*
X78740000Y-58420000D03*
X101600000Y-58420000D03*
D11*
X104140000Y-58420000D03*
X111760000Y-58420000D03*
D10*
X109220000Y-58420000D03*
D12*
X43180000Y-46990000D03*
X40640000Y-46990000D03*
X38100000Y-46990000D03*
D13*
X35560000Y-46990000D03*
X45720000Y-46990000D03*
D12*
X48260000Y-46990000D03*
X50800000Y-46990000D03*
X53340000Y-46990000D03*
X66040000Y-41910000D03*
X63500000Y-41910000D03*
X60960000Y-41910000D03*
X58420000Y-41910000D03*
D13*
X55880000Y-41910000D03*
X71120000Y-41910000D03*
D12*
X73660000Y-41910000D03*
X76200000Y-41910000D03*
X78740000Y-41910000D03*
X81280000Y-41910000D03*
X96520000Y-41910000D03*
X93980000Y-41910000D03*
X91440000Y-41910000D03*
X88900000Y-41910000D03*
D13*
X86360000Y-41910000D03*
X101600000Y-41910000D03*
D12*
X104140000Y-41910000D03*
X106680000Y-41910000D03*
X109220000Y-41910000D03*
X111760000Y-41910000D03*
D13*
X114300000Y-46990000D03*
D12*
X116840000Y-46990000D03*
X119380000Y-46990000D03*
X121920000Y-46990000D03*
X132080000Y-46990000D03*
X129540000Y-46990000D03*
X127000000Y-46990000D03*
D13*
X124460000Y-46990000D03*
X119380000Y-41910000D03*
D12*
X121920000Y-41910000D03*
X124460000Y-41910000D03*
X127000000Y-41910000D03*
D14*
X63500000Y-68580000D03*
X60960000Y-68580000D03*
X58420000Y-68580000D03*
X73660000Y-68580000D03*
X76200000Y-68580000D03*
X78740000Y-68580000D03*
X93980000Y-68580000D03*
X91440000Y-68580000D03*
X88900000Y-68580000D03*
X104140000Y-68580000D03*
X106680000Y-68580000D03*
X109220000Y-68580000D03*
D15*
X35560000Y-58420000D03*
D14*
X40640000Y-58420000D03*
X50800000Y-58420000D03*
D15*
X45720000Y-58420000D03*
X116840000Y-58420000D03*
D14*
X121920000Y-58420000D03*
X132080000Y-58420000D03*
D15*
X127000000Y-58420000D03*
X35560000Y-68580000D03*
D14*
X40640000Y-68580000D03*
X50800000Y-68580000D03*
D15*
X45720000Y-68580000D03*
X116840000Y-68580000D03*
D14*
X121920000Y-68580000D03*
X132080000Y-68580000D03*
D15*
X127000000Y-68580000D03*
D16*
X57150000Y-46990000D03*
X57150000Y-52070000D03*
X64770000Y-52070000D03*
X64770000Y-46990000D03*
X87630000Y-46990000D03*
X87630000Y-52070000D03*
X95250000Y-52070000D03*
X95250000Y-46990000D03*
X72390000Y-46990000D03*
X72390000Y-52070000D03*
X80010000Y-52070000D03*
X80010000Y-46990000D03*
X102870000Y-46990000D03*
X102870000Y-52070000D03*
X110490000Y-52070000D03*
X110490000Y-46990000D03*
D17*
X71628000Y-44704000D03*
X61849000Y-52324000D03*
X62230000Y-47371000D03*
X60960000Y-51435000D03*
X60960000Y-47371000D03*
X59944000Y-52197000D03*
X59309000Y-47371000D03*
X105392401Y-50690599D03*
X105392401Y-47642599D03*
X106680000Y-47625000D03*
X106680000Y-51181000D03*
X107967599Y-51036401D03*
X107967599Y-47769599D03*
X126873000Y-52578000D03*
X113284000Y-51054000D03*
X125730000Y-51816000D03*
X112522000Y-49784000D03*
X124587000Y-50800000D03*
X109982000Y-44196000D03*
D18*
X72193685Y-44704000D02*
X71628000Y-44704000D01*
X77724000Y-44704000D02*
X72193685Y-44704000D01*
X80010000Y-46990000D02*
X77724000Y-44704000D01*
X61849000Y-52324000D02*
X61849000Y-48133000D01*
X62230000Y-47752000D02*
X62230000Y-47371000D01*
X61849000Y-48133000D02*
X62230000Y-47752000D01*
X60960000Y-51435000D02*
X60960000Y-47371000D01*
X59944000Y-52197000D02*
X59309000Y-51562000D01*
X59309000Y-51562000D02*
X59309000Y-47371000D01*
X105392401Y-50690599D02*
X105392401Y-47642599D01*
X106680000Y-47625000D02*
X106680000Y-48190685D01*
X106680000Y-48190685D02*
X106680000Y-51181000D01*
X107967599Y-51036401D02*
X107967599Y-47769599D01*
X110490000Y-48121370D02*
X110490000Y-46990000D01*
X110490000Y-49657000D02*
X110490000Y-48121370D01*
X126120599Y-53330401D02*
X114163401Y-53330401D01*
X114163401Y-53330401D02*
X110490000Y-49657000D01*
X126873000Y-52578000D02*
X126120599Y-53330401D01*
X125164315Y-51816000D02*
X125730000Y-51816000D01*
X114046000Y-51816000D02*
X125164315Y-51816000D01*
X113284000Y-51054000D02*
X114046000Y-51816000D01*
X124187001Y-50400001D02*
X124587000Y-50800000D01*
X112522000Y-49784000D02*
X123571000Y-49784000D01*
X123571000Y-49784000D02*
X124187001Y-50400001D01*
X90424000Y-44196000D02*
X87630000Y-46990000D01*
X109982000Y-44196000D02*
X90424000Y-44196000D01*
D19*
G36*
X132944001Y-45778007D02*
G01*
X132909014Y-45749294D01*
X132651034Y-45611401D01*
X132371111Y-45526487D01*
X132152950Y-45505000D01*
X132007050Y-45505000D01*
X131788889Y-45526487D01*
X131508966Y-45611401D01*
X131250986Y-45749294D01*
X131024866Y-45934866D01*
X130839294Y-46160986D01*
X130810000Y-46215791D01*
X130780706Y-46160986D01*
X130595134Y-45934866D01*
X130369014Y-45749294D01*
X130111034Y-45611401D01*
X129831111Y-45526487D01*
X129612950Y-45505000D01*
X129467050Y-45505000D01*
X129248889Y-45526487D01*
X128968966Y-45611401D01*
X128710986Y-45749294D01*
X128484866Y-45934866D01*
X128299294Y-46160986D01*
X128270000Y-46215791D01*
X128240706Y-46160986D01*
X128055134Y-45934866D01*
X127829014Y-45749294D01*
X127571034Y-45611401D01*
X127291111Y-45526487D01*
X127072950Y-45505000D01*
X126927050Y-45505000D01*
X126708889Y-45526487D01*
X126428966Y-45611401D01*
X126170986Y-45749294D01*
X125944866Y-45934866D01*
X125920393Y-45964687D01*
X125899502Y-45895820D01*
X125840537Y-45785506D01*
X125761185Y-45688815D01*
X125664494Y-45609463D01*
X125554180Y-45550498D01*
X125434482Y-45514188D01*
X125310000Y-45501928D01*
X123610000Y-45501928D01*
X123485518Y-45514188D01*
X123365820Y-45550498D01*
X123255506Y-45609463D01*
X123158815Y-45688815D01*
X123079463Y-45785506D01*
X123020498Y-45895820D01*
X122999607Y-45964687D01*
X122975134Y-45934866D01*
X122749014Y-45749294D01*
X122491034Y-45611401D01*
X122211111Y-45526487D01*
X121992950Y-45505000D01*
X121847050Y-45505000D01*
X121628889Y-45526487D01*
X121348966Y-45611401D01*
X121090986Y-45749294D01*
X120864866Y-45934866D01*
X120679294Y-46160986D01*
X120650000Y-46215791D01*
X120620706Y-46160986D01*
X120435134Y-45934866D01*
X120209014Y-45749294D01*
X119951034Y-45611401D01*
X119671111Y-45526487D01*
X119452950Y-45505000D01*
X119307050Y-45505000D01*
X119088889Y-45526487D01*
X118808966Y-45611401D01*
X118550986Y-45749294D01*
X118324866Y-45934866D01*
X118139294Y-46160986D01*
X118110000Y-46215791D01*
X118080706Y-46160986D01*
X117895134Y-45934866D01*
X117669014Y-45749294D01*
X117411034Y-45611401D01*
X117131111Y-45526487D01*
X116912950Y-45505000D01*
X116767050Y-45505000D01*
X116548889Y-45526487D01*
X116268966Y-45611401D01*
X116010986Y-45749294D01*
X115784866Y-45934866D01*
X115760393Y-45964687D01*
X115739502Y-45895820D01*
X115680537Y-45785506D01*
X115601185Y-45688815D01*
X115504494Y-45609463D01*
X115394180Y-45550498D01*
X115274482Y-45514188D01*
X115150000Y-45501928D01*
X113450000Y-45501928D01*
X113325518Y-45514188D01*
X113205820Y-45550498D01*
X113095506Y-45609463D01*
X112998815Y-45688815D01*
X112919463Y-45785506D01*
X112860498Y-45895820D01*
X112824188Y-46015518D01*
X112811928Y-46140000D01*
X112811928Y-47840000D01*
X112824188Y-47964482D01*
X112860498Y-48084180D01*
X112919463Y-48194494D01*
X112998815Y-48291185D01*
X113095506Y-48370537D01*
X113205820Y-48429502D01*
X113325518Y-48465812D01*
X113450000Y-48478072D01*
X115150000Y-48478072D01*
X115274482Y-48465812D01*
X115394180Y-48429502D01*
X115504494Y-48370537D01*
X115601185Y-48291185D01*
X115680537Y-48194494D01*
X115739502Y-48084180D01*
X115760393Y-48015313D01*
X115784866Y-48045134D01*
X116010986Y-48230706D01*
X116268966Y-48368599D01*
X116548889Y-48453513D01*
X116767050Y-48475000D01*
X116912950Y-48475000D01*
X117131111Y-48453513D01*
X117411034Y-48368599D01*
X117669014Y-48230706D01*
X117895134Y-48045134D01*
X118080706Y-47819014D01*
X118110000Y-47764209D01*
X118139294Y-47819014D01*
X118324866Y-48045134D01*
X118550986Y-48230706D01*
X118808966Y-48368599D01*
X119088889Y-48453513D01*
X119307050Y-48475000D01*
X119452950Y-48475000D01*
X119671111Y-48453513D01*
X119951034Y-48368599D01*
X120209014Y-48230706D01*
X120435134Y-48045134D01*
X120620706Y-47819014D01*
X120650000Y-47764209D01*
X120679294Y-47819014D01*
X120864866Y-48045134D01*
X121090986Y-48230706D01*
X121348966Y-48368599D01*
X121628889Y-48453513D01*
X121847050Y-48475000D01*
X121992950Y-48475000D01*
X122211111Y-48453513D01*
X122491034Y-48368599D01*
X122749014Y-48230706D01*
X122975134Y-48045134D01*
X122999607Y-48015313D01*
X123020498Y-48084180D01*
X123079463Y-48194494D01*
X123158815Y-48291185D01*
X123255506Y-48370537D01*
X123365820Y-48429502D01*
X123485518Y-48465812D01*
X123610000Y-48478072D01*
X125310000Y-48478072D01*
X125434482Y-48465812D01*
X125554180Y-48429502D01*
X125664494Y-48370537D01*
X125761185Y-48291185D01*
X125840537Y-48194494D01*
X125899502Y-48084180D01*
X125920393Y-48015313D01*
X125944866Y-48045134D01*
X126170986Y-48230706D01*
X126428966Y-48368599D01*
X126708889Y-48453513D01*
X126927050Y-48475000D01*
X127072950Y-48475000D01*
X127291111Y-48453513D01*
X127571034Y-48368599D01*
X127829014Y-48230706D01*
X128055134Y-48045134D01*
X128240706Y-47819014D01*
X128270000Y-47764209D01*
X128299294Y-47819014D01*
X128484866Y-48045134D01*
X128710986Y-48230706D01*
X128968966Y-48368599D01*
X129248889Y-48453513D01*
X129467050Y-48475000D01*
X129612950Y-48475000D01*
X129831111Y-48453513D01*
X130111034Y-48368599D01*
X130369014Y-48230706D01*
X130595134Y-48045134D01*
X130780706Y-47819014D01*
X130810000Y-47764209D01*
X130839294Y-47819014D01*
X131024866Y-48045134D01*
X131250986Y-48230706D01*
X131508966Y-48368599D01*
X131788889Y-48453513D01*
X132007050Y-48475000D01*
X132152950Y-48475000D01*
X132371111Y-48453513D01*
X132651034Y-48368599D01*
X132909014Y-48230706D01*
X132944001Y-48201993D01*
X132944000Y-57376392D01*
X132928527Y-57391865D01*
X132850937Y-57142831D01*
X132586960Y-57016969D01*
X132303501Y-56945025D01*
X132011453Y-56929763D01*
X131722039Y-56971770D01*
X131446381Y-57069432D01*
X131309063Y-57142831D01*
X131231472Y-57391867D01*
X132080000Y-58240395D01*
X132094143Y-58226253D01*
X132273748Y-58405858D01*
X132259605Y-58420000D01*
X132273748Y-58434143D01*
X132094143Y-58613748D01*
X132080000Y-58599605D01*
X131231472Y-59448133D01*
X131309063Y-59697169D01*
X131573040Y-59823031D01*
X131856499Y-59894975D01*
X132148547Y-59910237D01*
X132437961Y-59868230D01*
X132713619Y-59770568D01*
X132850937Y-59697169D01*
X132928527Y-59448135D01*
X132944000Y-59463608D01*
X132944000Y-67536392D01*
X132928527Y-67551865D01*
X132850937Y-67302831D01*
X132586960Y-67176969D01*
X132303501Y-67105025D01*
X132011453Y-67089763D01*
X131722039Y-67131770D01*
X131446381Y-67229432D01*
X131309063Y-67302831D01*
X131231472Y-67551867D01*
X132080000Y-68400395D01*
X132094143Y-68386253D01*
X132273748Y-68565858D01*
X132259605Y-68580000D01*
X132273748Y-68594143D01*
X132094143Y-68773748D01*
X132080000Y-68759605D01*
X131231472Y-69608133D01*
X131309063Y-69857169D01*
X131573040Y-69983031D01*
X131856499Y-70054975D01*
X132148547Y-70070237D01*
X132437961Y-70028230D01*
X132713619Y-69930568D01*
X132850937Y-69857169D01*
X132928527Y-69608135D01*
X132944000Y-69623608D01*
X132944000Y-78080000D01*
X34696000Y-78080000D01*
X34696000Y-75050698D01*
X35105400Y-75050698D01*
X35105400Y-75520502D01*
X35197054Y-75981279D01*
X35376840Y-76415321D01*
X35637850Y-76805949D01*
X35970051Y-77138150D01*
X36360679Y-77399160D01*
X36794721Y-77578946D01*
X37255498Y-77670600D01*
X37725302Y-77670600D01*
X38186079Y-77578946D01*
X38620121Y-77399160D01*
X39010749Y-77138150D01*
X39342950Y-76805949D01*
X39603960Y-76415321D01*
X39783746Y-75981279D01*
X39875400Y-75520502D01*
X39875400Y-75050698D01*
X127663000Y-75050698D01*
X127663000Y-75520502D01*
X127754654Y-75981279D01*
X127934440Y-76415321D01*
X128195450Y-76805949D01*
X128527651Y-77138150D01*
X128918279Y-77399160D01*
X129352321Y-77578946D01*
X129813098Y-77670600D01*
X130282902Y-77670600D01*
X130743679Y-77578946D01*
X131177721Y-77399160D01*
X131568349Y-77138150D01*
X131900550Y-76805949D01*
X132161560Y-76415321D01*
X132341346Y-75981279D01*
X132433000Y-75520502D01*
X132433000Y-75050698D01*
X132341346Y-74589921D01*
X132161560Y-74155879D01*
X131900550Y-73765251D01*
X131568349Y-73433050D01*
X131177721Y-73172040D01*
X130743679Y-72992254D01*
X130282902Y-72900600D01*
X129813098Y-72900600D01*
X129352321Y-72992254D01*
X128918279Y-73172040D01*
X128527651Y-73433050D01*
X128195450Y-73765251D01*
X127934440Y-74155879D01*
X127754654Y-74589921D01*
X127663000Y-75050698D01*
X39875400Y-75050698D01*
X39783746Y-74589921D01*
X39603960Y-74155879D01*
X39342950Y-73765251D01*
X39010749Y-73433050D01*
X38620121Y-73172040D01*
X38186079Y-72992254D01*
X37725302Y-72900600D01*
X37255498Y-72900600D01*
X36794721Y-72992254D01*
X36360679Y-73172040D01*
X35970051Y-73433050D01*
X35637850Y-73765251D01*
X35376840Y-74155879D01*
X35197054Y-74589921D01*
X35105400Y-75050698D01*
X34696000Y-75050698D01*
X34696000Y-70066287D01*
X34710370Y-70067702D01*
X36409630Y-70067702D01*
X36534112Y-70055442D01*
X36653810Y-70019132D01*
X36764124Y-69960167D01*
X36860815Y-69880815D01*
X36940167Y-69784124D01*
X36999132Y-69673810D01*
X37019054Y-69608133D01*
X39791472Y-69608133D01*
X39869063Y-69857169D01*
X40133040Y-69983031D01*
X40416499Y-70054975D01*
X40708547Y-70070237D01*
X40997961Y-70028230D01*
X41273619Y-69930568D01*
X41410937Y-69857169D01*
X41488528Y-69608133D01*
X40640000Y-68759605D01*
X39791472Y-69608133D01*
X37019054Y-69608133D01*
X37035442Y-69554112D01*
X37047702Y-69429630D01*
X37047702Y-68648547D01*
X39149763Y-68648547D01*
X39191770Y-68937961D01*
X39289432Y-69213619D01*
X39362831Y-69350937D01*
X39611867Y-69428528D01*
X40460395Y-68580000D01*
X40819605Y-68580000D01*
X41668133Y-69428528D01*
X41917169Y-69350937D01*
X42043031Y-69086960D01*
X42114975Y-68803501D01*
X42130237Y-68511453D01*
X42088230Y-68222039D01*
X41990568Y-67946381D01*
X41917169Y-67809063D01*
X41668133Y-67731472D01*
X40819605Y-68580000D01*
X40460395Y-68580000D01*
X39611867Y-67731472D01*
X39362831Y-67809063D01*
X39236969Y-68073040D01*
X39165025Y-68356499D01*
X39149763Y-68648547D01*
X37047702Y-68648547D01*
X37047702Y-67730370D01*
X37035442Y-67605888D01*
X37019055Y-67551867D01*
X39791472Y-67551867D01*
X40640000Y-68400395D01*
X41310025Y-67730370D01*
X44232298Y-67730370D01*
X44232298Y-69429630D01*
X44244558Y-69554112D01*
X44280868Y-69673810D01*
X44339833Y-69784124D01*
X44419185Y-69880815D01*
X44515876Y-69960167D01*
X44626190Y-70019132D01*
X44745888Y-70055442D01*
X44870370Y-70067702D01*
X46569630Y-70067702D01*
X46694112Y-70055442D01*
X46813810Y-70019132D01*
X46924124Y-69960167D01*
X47020815Y-69880815D01*
X47100167Y-69784124D01*
X47159132Y-69673810D01*
X47179054Y-69608133D01*
X49951472Y-69608133D01*
X50029063Y-69857169D01*
X50293040Y-69983031D01*
X50576499Y-70054975D01*
X50868547Y-70070237D01*
X51157961Y-70028230D01*
X51433619Y-69930568D01*
X51570937Y-69857169D01*
X51648528Y-69608133D01*
X50800000Y-68759605D01*
X49951472Y-69608133D01*
X47179054Y-69608133D01*
X47195442Y-69554112D01*
X47207702Y-69429630D01*
X47207702Y-68648547D01*
X49309763Y-68648547D01*
X49351770Y-68937961D01*
X49449432Y-69213619D01*
X49522831Y-69350937D01*
X49771867Y-69428528D01*
X50620395Y-68580000D01*
X50979605Y-68580000D01*
X51828133Y-69428528D01*
X52077169Y-69350937D01*
X52203031Y-69086960D01*
X52274975Y-68803501D01*
X52290237Y-68511453D01*
X52278963Y-68433777D01*
X56935370Y-68433777D01*
X56935370Y-68726223D01*
X56992424Y-69013050D01*
X57104338Y-69283236D01*
X57266813Y-69526396D01*
X57473604Y-69733187D01*
X57716764Y-69895662D01*
X57986950Y-70007576D01*
X58273777Y-70064630D01*
X58566223Y-70064630D01*
X58853050Y-70007576D01*
X59123236Y-69895662D01*
X59366396Y-69733187D01*
X59573187Y-69526396D01*
X59690000Y-69351574D01*
X59806813Y-69526396D01*
X60013604Y-69733187D01*
X60256764Y-69895662D01*
X60526950Y-70007576D01*
X60813777Y-70064630D01*
X61106223Y-70064630D01*
X61393050Y-70007576D01*
X61663236Y-69895662D01*
X61906396Y-69733187D01*
X62113187Y-69526396D01*
X62230000Y-69351574D01*
X62346813Y-69526396D01*
X62553604Y-69733187D01*
X62796764Y-69895662D01*
X63066950Y-70007576D01*
X63353777Y-70064630D01*
X63646223Y-70064630D01*
X63933050Y-70007576D01*
X64203236Y-69895662D01*
X64446396Y-69733187D01*
X64653187Y-69526396D01*
X64815662Y-69283236D01*
X64927576Y-69013050D01*
X64984630Y-68726223D01*
X64984630Y-68433777D01*
X72175370Y-68433777D01*
X72175370Y-68726223D01*
X72232424Y-69013050D01*
X72344338Y-69283236D01*
X72506813Y-69526396D01*
X72713604Y-69733187D01*
X72956764Y-69895662D01*
X73226950Y-70007576D01*
X73513777Y-70064630D01*
X73806223Y-70064630D01*
X74093050Y-70007576D01*
X74363236Y-69895662D01*
X74606396Y-69733187D01*
X74813187Y-69526396D01*
X74930000Y-69351574D01*
X75046813Y-69526396D01*
X75253604Y-69733187D01*
X75496764Y-69895662D01*
X75766950Y-70007576D01*
X76053777Y-70064630D01*
X76346223Y-70064630D01*
X76633050Y-70007576D01*
X76903236Y-69895662D01*
X77146396Y-69733187D01*
X77353187Y-69526396D01*
X77470000Y-69351574D01*
X77586813Y-69526396D01*
X77793604Y-69733187D01*
X78036764Y-69895662D01*
X78306950Y-70007576D01*
X78593777Y-70064630D01*
X78886223Y-70064630D01*
X79173050Y-70007576D01*
X79443236Y-69895662D01*
X79686396Y-69733187D01*
X79893187Y-69526396D01*
X80055662Y-69283236D01*
X80167576Y-69013050D01*
X80224630Y-68726223D01*
X80224630Y-68433777D01*
X87415370Y-68433777D01*
X87415370Y-68726223D01*
X87472424Y-69013050D01*
X87584338Y-69283236D01*
X87746813Y-69526396D01*
X87953604Y-69733187D01*
X88196764Y-69895662D01*
X88466950Y-70007576D01*
X88753777Y-70064630D01*
X89046223Y-70064630D01*
X89333050Y-70007576D01*
X89603236Y-69895662D01*
X89846396Y-69733187D01*
X90053187Y-69526396D01*
X90170000Y-69351574D01*
X90286813Y-69526396D01*
X90493604Y-69733187D01*
X90736764Y-69895662D01*
X91006950Y-70007576D01*
X91293777Y-70064630D01*
X91586223Y-70064630D01*
X91873050Y-70007576D01*
X92143236Y-69895662D01*
X92386396Y-69733187D01*
X92593187Y-69526396D01*
X92710000Y-69351574D01*
X92826813Y-69526396D01*
X93033604Y-69733187D01*
X93276764Y-69895662D01*
X93546950Y-70007576D01*
X93833777Y-70064630D01*
X94126223Y-70064630D01*
X94413050Y-70007576D01*
X94683236Y-69895662D01*
X94926396Y-69733187D01*
X95133187Y-69526396D01*
X95295662Y-69283236D01*
X95407576Y-69013050D01*
X95464630Y-68726223D01*
X95464630Y-68433777D01*
X102655370Y-68433777D01*
X102655370Y-68726223D01*
X102712424Y-69013050D01*
X102824338Y-69283236D01*
X102986813Y-69526396D01*
X103193604Y-69733187D01*
X103436764Y-69895662D01*
X103706950Y-70007576D01*
X103993777Y-70064630D01*
X104286223Y-70064630D01*
X104573050Y-70007576D01*
X104843236Y-69895662D01*
X105086396Y-69733187D01*
X105293187Y-69526396D01*
X105410000Y-69351574D01*
X105526813Y-69526396D01*
X105733604Y-69733187D01*
X105976764Y-69895662D01*
X106246950Y-70007576D01*
X106533777Y-70064630D01*
X106826223Y-70064630D01*
X107113050Y-70007576D01*
X107383236Y-69895662D01*
X107626396Y-69733187D01*
X107833187Y-69526396D01*
X107950000Y-69351574D01*
X108066813Y-69526396D01*
X108273604Y-69733187D01*
X108516764Y-69895662D01*
X108786950Y-70007576D01*
X109073777Y-70064630D01*
X109366223Y-70064630D01*
X109653050Y-70007576D01*
X109923236Y-69895662D01*
X110166396Y-69733187D01*
X110373187Y-69526396D01*
X110535662Y-69283236D01*
X110647576Y-69013050D01*
X110704630Y-68726223D01*
X110704630Y-68433777D01*
X110647576Y-68146950D01*
X110535662Y-67876764D01*
X110437845Y-67730370D01*
X115352298Y-67730370D01*
X115352298Y-69429630D01*
X115364558Y-69554112D01*
X115400868Y-69673810D01*
X115459833Y-69784124D01*
X115539185Y-69880815D01*
X115635876Y-69960167D01*
X115746190Y-70019132D01*
X115865888Y-70055442D01*
X115990370Y-70067702D01*
X117689630Y-70067702D01*
X117814112Y-70055442D01*
X117933810Y-70019132D01*
X118044124Y-69960167D01*
X118140815Y-69880815D01*
X118220167Y-69784124D01*
X118279132Y-69673810D01*
X118299054Y-69608133D01*
X121071472Y-69608133D01*
X121149063Y-69857169D01*
X121413040Y-69983031D01*
X121696499Y-70054975D01*
X121988547Y-70070237D01*
X122277961Y-70028230D01*
X122553619Y-69930568D01*
X122690937Y-69857169D01*
X122768528Y-69608133D01*
X121920000Y-68759605D01*
X121071472Y-69608133D01*
X118299054Y-69608133D01*
X118315442Y-69554112D01*
X118327702Y-69429630D01*
X118327702Y-68648547D01*
X120429763Y-68648547D01*
X120471770Y-68937961D01*
X120569432Y-69213619D01*
X120642831Y-69350937D01*
X120891867Y-69428528D01*
X121740395Y-68580000D01*
X122099605Y-68580000D01*
X122948133Y-69428528D01*
X123197169Y-69350937D01*
X123323031Y-69086960D01*
X123394975Y-68803501D01*
X123410237Y-68511453D01*
X123368230Y-68222039D01*
X123270568Y-67946381D01*
X123197169Y-67809063D01*
X122948133Y-67731472D01*
X122099605Y-68580000D01*
X121740395Y-68580000D01*
X120891867Y-67731472D01*
X120642831Y-67809063D01*
X120516969Y-68073040D01*
X120445025Y-68356499D01*
X120429763Y-68648547D01*
X118327702Y-68648547D01*
X118327702Y-67730370D01*
X118315442Y-67605888D01*
X118299055Y-67551867D01*
X121071472Y-67551867D01*
X121920000Y-68400395D01*
X122590025Y-67730370D01*
X125512298Y-67730370D01*
X125512298Y-69429630D01*
X125524558Y-69554112D01*
X125560868Y-69673810D01*
X125619833Y-69784124D01*
X125699185Y-69880815D01*
X125795876Y-69960167D01*
X125906190Y-70019132D01*
X126025888Y-70055442D01*
X126150370Y-70067702D01*
X127849630Y-70067702D01*
X127974112Y-70055442D01*
X128093810Y-70019132D01*
X128204124Y-69960167D01*
X128300815Y-69880815D01*
X128380167Y-69784124D01*
X128439132Y-69673810D01*
X128475442Y-69554112D01*
X128487702Y-69429630D01*
X128487702Y-68648547D01*
X130589763Y-68648547D01*
X130631770Y-68937961D01*
X130729432Y-69213619D01*
X130802831Y-69350937D01*
X131051867Y-69428528D01*
X131900395Y-68580000D01*
X131051867Y-67731472D01*
X130802831Y-67809063D01*
X130676969Y-68073040D01*
X130605025Y-68356499D01*
X130589763Y-68648547D01*
X128487702Y-68648547D01*
X128487702Y-67730370D01*
X128475442Y-67605888D01*
X128439132Y-67486190D01*
X128380167Y-67375876D01*
X128300815Y-67279185D01*
X128204124Y-67199833D01*
X128093810Y-67140868D01*
X127974112Y-67104558D01*
X127849630Y-67092298D01*
X126150370Y-67092298D01*
X126025888Y-67104558D01*
X125906190Y-67140868D01*
X125795876Y-67199833D01*
X125699185Y-67279185D01*
X125619833Y-67375876D01*
X125560868Y-67486190D01*
X125524558Y-67605888D01*
X125512298Y-67730370D01*
X122590025Y-67730370D01*
X122768528Y-67551867D01*
X122690937Y-67302831D01*
X122426960Y-67176969D01*
X122143501Y-67105025D01*
X121851453Y-67089763D01*
X121562039Y-67131770D01*
X121286381Y-67229432D01*
X121149063Y-67302831D01*
X121071472Y-67551867D01*
X118299055Y-67551867D01*
X118279132Y-67486190D01*
X118220167Y-67375876D01*
X118140815Y-67279185D01*
X118044124Y-67199833D01*
X117933810Y-67140868D01*
X117814112Y-67104558D01*
X117689630Y-67092298D01*
X115990370Y-67092298D01*
X115865888Y-67104558D01*
X115746190Y-67140868D01*
X115635876Y-67199833D01*
X115539185Y-67279185D01*
X115459833Y-67375876D01*
X115400868Y-67486190D01*
X115364558Y-67605888D01*
X115352298Y-67730370D01*
X110437845Y-67730370D01*
X110373187Y-67633604D01*
X110166396Y-67426813D01*
X109923236Y-67264338D01*
X109653050Y-67152424D01*
X109366223Y-67095370D01*
X109073777Y-67095370D01*
X108786950Y-67152424D01*
X108516764Y-67264338D01*
X108273604Y-67426813D01*
X108066813Y-67633604D01*
X107950000Y-67808426D01*
X107833187Y-67633604D01*
X107626396Y-67426813D01*
X107383236Y-67264338D01*
X107113050Y-67152424D01*
X106826223Y-67095370D01*
X106533777Y-67095370D01*
X106246950Y-67152424D01*
X105976764Y-67264338D01*
X105733604Y-67426813D01*
X105526813Y-67633604D01*
X105410000Y-67808426D01*
X105293187Y-67633604D01*
X105086396Y-67426813D01*
X104843236Y-67264338D01*
X104573050Y-67152424D01*
X104286223Y-67095370D01*
X103993777Y-67095370D01*
X103706950Y-67152424D01*
X103436764Y-67264338D01*
X103193604Y-67426813D01*
X102986813Y-67633604D01*
X102824338Y-67876764D01*
X102712424Y-68146950D01*
X102655370Y-68433777D01*
X95464630Y-68433777D01*
X95407576Y-68146950D01*
X95295662Y-67876764D01*
X95133187Y-67633604D01*
X94926396Y-67426813D01*
X94683236Y-67264338D01*
X94413050Y-67152424D01*
X94126223Y-67095370D01*
X93833777Y-67095370D01*
X93546950Y-67152424D01*
X93276764Y-67264338D01*
X93033604Y-67426813D01*
X92826813Y-67633604D01*
X92710000Y-67808426D01*
X92593187Y-67633604D01*
X92386396Y-67426813D01*
X92143236Y-67264338D01*
X91873050Y-67152424D01*
X91586223Y-67095370D01*
X91293777Y-67095370D01*
X91006950Y-67152424D01*
X90736764Y-67264338D01*
X90493604Y-67426813D01*
X90286813Y-67633604D01*
X90170000Y-67808426D01*
X90053187Y-67633604D01*
X89846396Y-67426813D01*
X89603236Y-67264338D01*
X89333050Y-67152424D01*
X89046223Y-67095370D01*
X88753777Y-67095370D01*
X88466950Y-67152424D01*
X88196764Y-67264338D01*
X87953604Y-67426813D01*
X87746813Y-67633604D01*
X87584338Y-67876764D01*
X87472424Y-68146950D01*
X87415370Y-68433777D01*
X80224630Y-68433777D01*
X80167576Y-68146950D01*
X80055662Y-67876764D01*
X79893187Y-67633604D01*
X79686396Y-67426813D01*
X79443236Y-67264338D01*
X79173050Y-67152424D01*
X78886223Y-67095370D01*
X78593777Y-67095370D01*
X78306950Y-67152424D01*
X78036764Y-67264338D01*
X77793604Y-67426813D01*
X77586813Y-67633604D01*
X77470000Y-67808426D01*
X77353187Y-67633604D01*
X77146396Y-67426813D01*
X76903236Y-67264338D01*
X76633050Y-67152424D01*
X76346223Y-67095370D01*
X76053777Y-67095370D01*
X75766950Y-67152424D01*
X75496764Y-67264338D01*
X75253604Y-67426813D01*
X75046813Y-67633604D01*
X74930000Y-67808426D01*
X74813187Y-67633604D01*
X74606396Y-67426813D01*
X74363236Y-67264338D01*
X74093050Y-67152424D01*
X73806223Y-67095370D01*
X73513777Y-67095370D01*
X73226950Y-67152424D01*
X72956764Y-67264338D01*
X72713604Y-67426813D01*
X72506813Y-67633604D01*
X72344338Y-67876764D01*
X72232424Y-68146950D01*
X72175370Y-68433777D01*
X64984630Y-68433777D01*
X64927576Y-68146950D01*
X64815662Y-67876764D01*
X64653187Y-67633604D01*
X64446396Y-67426813D01*
X64203236Y-67264338D01*
X63933050Y-67152424D01*
X63646223Y-67095370D01*
X63353777Y-67095370D01*
X63066950Y-67152424D01*
X62796764Y-67264338D01*
X62553604Y-67426813D01*
X62346813Y-67633604D01*
X62230000Y-67808426D01*
X62113187Y-67633604D01*
X61906396Y-67426813D01*
X61663236Y-67264338D01*
X61393050Y-67152424D01*
X61106223Y-67095370D01*
X60813777Y-67095370D01*
X60526950Y-67152424D01*
X60256764Y-67264338D01*
X60013604Y-67426813D01*
X59806813Y-67633604D01*
X59690000Y-67808426D01*
X59573187Y-67633604D01*
X59366396Y-67426813D01*
X59123236Y-67264338D01*
X58853050Y-67152424D01*
X58566223Y-67095370D01*
X58273777Y-67095370D01*
X57986950Y-67152424D01*
X57716764Y-67264338D01*
X57473604Y-67426813D01*
X57266813Y-67633604D01*
X57104338Y-67876764D01*
X56992424Y-68146950D01*
X56935370Y-68433777D01*
X52278963Y-68433777D01*
X52248230Y-68222039D01*
X52150568Y-67946381D01*
X52077169Y-67809063D01*
X51828133Y-67731472D01*
X50979605Y-68580000D01*
X50620395Y-68580000D01*
X49771867Y-67731472D01*
X49522831Y-67809063D01*
X49396969Y-68073040D01*
X49325025Y-68356499D01*
X49309763Y-68648547D01*
X47207702Y-68648547D01*
X47207702Y-67730370D01*
X47195442Y-67605888D01*
X47179055Y-67551867D01*
X49951472Y-67551867D01*
X50800000Y-68400395D01*
X51648528Y-67551867D01*
X51570937Y-67302831D01*
X51306960Y-67176969D01*
X51023501Y-67105025D01*
X50731453Y-67089763D01*
X50442039Y-67131770D01*
X50166381Y-67229432D01*
X50029063Y-67302831D01*
X49951472Y-67551867D01*
X47179055Y-67551867D01*
X47159132Y-67486190D01*
X47100167Y-67375876D01*
X47020815Y-67279185D01*
X46924124Y-67199833D01*
X46813810Y-67140868D01*
X46694112Y-67104558D01*
X46569630Y-67092298D01*
X44870370Y-67092298D01*
X44745888Y-67104558D01*
X44626190Y-67140868D01*
X44515876Y-67199833D01*
X44419185Y-67279185D01*
X44339833Y-67375876D01*
X44280868Y-67486190D01*
X44244558Y-67605888D01*
X44232298Y-67730370D01*
X41310025Y-67730370D01*
X41488528Y-67551867D01*
X41410937Y-67302831D01*
X41146960Y-67176969D01*
X40863501Y-67105025D01*
X40571453Y-67089763D01*
X40282039Y-67131770D01*
X40006381Y-67229432D01*
X39869063Y-67302831D01*
X39791472Y-67551867D01*
X37019055Y-67551867D01*
X36999132Y-67486190D01*
X36940167Y-67375876D01*
X36860815Y-67279185D01*
X36764124Y-67199833D01*
X36653810Y-67140868D01*
X36534112Y-67104558D01*
X36409630Y-67092298D01*
X34710370Y-67092298D01*
X34696000Y-67093713D01*
X34696000Y-59906287D01*
X34710370Y-59907702D01*
X36409630Y-59907702D01*
X36534112Y-59895442D01*
X36653810Y-59859132D01*
X36764124Y-59800167D01*
X36860815Y-59720815D01*
X36940167Y-59624124D01*
X36999132Y-59513810D01*
X37019054Y-59448133D01*
X39791472Y-59448133D01*
X39869063Y-59697169D01*
X40133040Y-59823031D01*
X40416499Y-59894975D01*
X40708547Y-59910237D01*
X40997961Y-59868230D01*
X41273619Y-59770568D01*
X41410937Y-59697169D01*
X41488528Y-59448133D01*
X40640000Y-58599605D01*
X39791472Y-59448133D01*
X37019054Y-59448133D01*
X37035442Y-59394112D01*
X37047702Y-59269630D01*
X37047702Y-58488547D01*
X39149763Y-58488547D01*
X39191770Y-58777961D01*
X39289432Y-59053619D01*
X39362831Y-59190937D01*
X39611867Y-59268528D01*
X40460395Y-58420000D01*
X40819605Y-58420000D01*
X41668133Y-59268528D01*
X41917169Y-59190937D01*
X42043031Y-58926960D01*
X42114975Y-58643501D01*
X42130237Y-58351453D01*
X42088230Y-58062039D01*
X41990568Y-57786381D01*
X41917169Y-57649063D01*
X41668133Y-57571472D01*
X40819605Y-58420000D01*
X40460395Y-58420000D01*
X39611867Y-57571472D01*
X39362831Y-57649063D01*
X39236969Y-57913040D01*
X39165025Y-58196499D01*
X39149763Y-58488547D01*
X37047702Y-58488547D01*
X37047702Y-57570370D01*
X37035442Y-57445888D01*
X37019055Y-57391867D01*
X39791472Y-57391867D01*
X40640000Y-58240395D01*
X41310025Y-57570370D01*
X44232298Y-57570370D01*
X44232298Y-59269630D01*
X44244558Y-59394112D01*
X44280868Y-59513810D01*
X44339833Y-59624124D01*
X44419185Y-59720815D01*
X44515876Y-59800167D01*
X44626190Y-59859132D01*
X44745888Y-59895442D01*
X44870370Y-59907702D01*
X46569630Y-59907702D01*
X46694112Y-59895442D01*
X46813810Y-59859132D01*
X46924124Y-59800167D01*
X47020815Y-59720815D01*
X47100167Y-59624124D01*
X47159132Y-59513810D01*
X47179054Y-59448133D01*
X49951472Y-59448133D01*
X50029063Y-59697169D01*
X50293040Y-59823031D01*
X50576499Y-59894975D01*
X50868547Y-59910237D01*
X51157961Y-59868230D01*
X51433619Y-59770568D01*
X51570937Y-59697169D01*
X51648528Y-59448133D01*
X51520395Y-59320000D01*
X54341928Y-59320000D01*
X54354188Y-59444482D01*
X54390498Y-59564180D01*
X54449463Y-59674494D01*
X54528815Y-59771185D01*
X54625506Y-59850537D01*
X54735820Y-59909502D01*
X54855518Y-59945812D01*
X54980000Y-59958072D01*
X55594250Y-59955000D01*
X55753000Y-59796250D01*
X55753000Y-58547000D01*
X54503750Y-58547000D01*
X54345000Y-58705750D01*
X54341928Y-59320000D01*
X51520395Y-59320000D01*
X50800000Y-58599605D01*
X49951472Y-59448133D01*
X47179054Y-59448133D01*
X47195442Y-59394112D01*
X47207702Y-59269630D01*
X47207702Y-58488547D01*
X49309763Y-58488547D01*
X49351770Y-58777961D01*
X49449432Y-59053619D01*
X49522831Y-59190937D01*
X49771867Y-59268528D01*
X50620395Y-58420000D01*
X50979605Y-58420000D01*
X51828133Y-59268528D01*
X52077169Y-59190937D01*
X52203031Y-58926960D01*
X52274975Y-58643501D01*
X52290237Y-58351453D01*
X52248230Y-58062039D01*
X52150568Y-57786381D01*
X52077169Y-57649063D01*
X51828133Y-57571472D01*
X50979605Y-58420000D01*
X50620395Y-58420000D01*
X49771867Y-57571472D01*
X49522831Y-57649063D01*
X49396969Y-57913040D01*
X49325025Y-58196499D01*
X49309763Y-58488547D01*
X47207702Y-58488547D01*
X47207702Y-57570370D01*
X47195442Y-57445888D01*
X47179055Y-57391867D01*
X49951472Y-57391867D01*
X50800000Y-58240395D01*
X51520395Y-57520000D01*
X54341928Y-57520000D01*
X54345000Y-58134250D01*
X54503750Y-58293000D01*
X55753000Y-58293000D01*
X55753000Y-57043750D01*
X56007000Y-57043750D01*
X56007000Y-58293000D01*
X56027000Y-58293000D01*
X56027000Y-58547000D01*
X56007000Y-58547000D01*
X56007000Y-59796250D01*
X56165750Y-59955000D01*
X56780000Y-59958072D01*
X56904482Y-59945812D01*
X57024180Y-59909502D01*
X57134494Y-59850537D01*
X57231185Y-59771185D01*
X57310537Y-59674494D01*
X57369502Y-59564180D01*
X57375056Y-59545873D01*
X57441495Y-59612312D01*
X57692905Y-59780299D01*
X57972257Y-59896011D01*
X58268816Y-59955000D01*
X58571184Y-59955000D01*
X58867743Y-59896011D01*
X59147095Y-59780299D01*
X59398505Y-59612312D01*
X59612312Y-59398505D01*
X59664767Y-59320000D01*
X61961928Y-59320000D01*
X61974188Y-59444482D01*
X62010498Y-59564180D01*
X62069463Y-59674494D01*
X62148815Y-59771185D01*
X62245506Y-59850537D01*
X62355820Y-59909502D01*
X62475518Y-59945812D01*
X62600000Y-59958072D01*
X63214250Y-59955000D01*
X63373000Y-59796250D01*
X63373000Y-58547000D01*
X62123750Y-58547000D01*
X61965000Y-58705750D01*
X61961928Y-59320000D01*
X59664767Y-59320000D01*
X59780299Y-59147095D01*
X59896011Y-58867743D01*
X59955000Y-58571184D01*
X59955000Y-58268816D01*
X59896011Y-57972257D01*
X59780299Y-57692905D01*
X59664768Y-57520000D01*
X61961928Y-57520000D01*
X61965000Y-58134250D01*
X62123750Y-58293000D01*
X63373000Y-58293000D01*
X63373000Y-57043750D01*
X63627000Y-57043750D01*
X63627000Y-58293000D01*
X63647000Y-58293000D01*
X63647000Y-58547000D01*
X63627000Y-58547000D01*
X63627000Y-59796250D01*
X63785750Y-59955000D01*
X64400000Y-59958072D01*
X64524482Y-59945812D01*
X64644180Y-59909502D01*
X64754494Y-59850537D01*
X64851185Y-59771185D01*
X64930537Y-59674494D01*
X64989502Y-59564180D01*
X64995056Y-59545873D01*
X65061495Y-59612312D01*
X65312905Y-59780299D01*
X65592257Y-59896011D01*
X65888816Y-59955000D01*
X66191184Y-59955000D01*
X66487743Y-59896011D01*
X66767095Y-59780299D01*
X67018505Y-59612312D01*
X67232312Y-59398505D01*
X67284767Y-59320000D01*
X69581928Y-59320000D01*
X69594188Y-59444482D01*
X69630498Y-59564180D01*
X69689463Y-59674494D01*
X69768815Y-59771185D01*
X69865506Y-59850537D01*
X69975820Y-59909502D01*
X70095518Y-59945812D01*
X70220000Y-59958072D01*
X70834250Y-59955000D01*
X70993000Y-59796250D01*
X70993000Y-58547000D01*
X69743750Y-58547000D01*
X69585000Y-58705750D01*
X69581928Y-59320000D01*
X67284767Y-59320000D01*
X67400299Y-59147095D01*
X67516011Y-58867743D01*
X67575000Y-58571184D01*
X67575000Y-58268816D01*
X67516011Y-57972257D01*
X67400299Y-57692905D01*
X67284768Y-57520000D01*
X69581928Y-57520000D01*
X69585000Y-58134250D01*
X69743750Y-58293000D01*
X70993000Y-58293000D01*
X70993000Y-57043750D01*
X71247000Y-57043750D01*
X71247000Y-58293000D01*
X71267000Y-58293000D01*
X71267000Y-58547000D01*
X71247000Y-58547000D01*
X71247000Y-59796250D01*
X71405750Y-59955000D01*
X72020000Y-59958072D01*
X72144482Y-59945812D01*
X72264180Y-59909502D01*
X72374494Y-59850537D01*
X72471185Y-59771185D01*
X72550537Y-59674494D01*
X72609502Y-59564180D01*
X72615056Y-59545873D01*
X72681495Y-59612312D01*
X72932905Y-59780299D01*
X73212257Y-59896011D01*
X73508816Y-59955000D01*
X73811184Y-59955000D01*
X74107743Y-59896011D01*
X74387095Y-59780299D01*
X74638505Y-59612312D01*
X74852312Y-59398505D01*
X74904767Y-59320000D01*
X77201928Y-59320000D01*
X77214188Y-59444482D01*
X77250498Y-59564180D01*
X77309463Y-59674494D01*
X77388815Y-59771185D01*
X77485506Y-59850537D01*
X77595820Y-59909502D01*
X77715518Y-59945812D01*
X77840000Y-59958072D01*
X78454250Y-59955000D01*
X78613000Y-59796250D01*
X78613000Y-58547000D01*
X77363750Y-58547000D01*
X77205000Y-58705750D01*
X77201928Y-59320000D01*
X74904767Y-59320000D01*
X75020299Y-59147095D01*
X75136011Y-58867743D01*
X75195000Y-58571184D01*
X75195000Y-58268816D01*
X75136011Y-57972257D01*
X75020299Y-57692905D01*
X74904768Y-57520000D01*
X77201928Y-57520000D01*
X77205000Y-58134250D01*
X77363750Y-58293000D01*
X78613000Y-58293000D01*
X78613000Y-57043750D01*
X78867000Y-57043750D01*
X78867000Y-58293000D01*
X78887000Y-58293000D01*
X78887000Y-58547000D01*
X78867000Y-58547000D01*
X78867000Y-59796250D01*
X79025750Y-59955000D01*
X79640000Y-59958072D01*
X79764482Y-59945812D01*
X79884180Y-59909502D01*
X79994494Y-59850537D01*
X80091185Y-59771185D01*
X80170537Y-59674494D01*
X80229502Y-59564180D01*
X80235056Y-59545873D01*
X80301495Y-59612312D01*
X80552905Y-59780299D01*
X80832257Y-59896011D01*
X81128816Y-59955000D01*
X81431184Y-59955000D01*
X81727743Y-59896011D01*
X82007095Y-59780299D01*
X82258505Y-59612312D01*
X82472312Y-59398505D01*
X82524767Y-59320000D01*
X84821928Y-59320000D01*
X84834188Y-59444482D01*
X84870498Y-59564180D01*
X84929463Y-59674494D01*
X85008815Y-59771185D01*
X85105506Y-59850537D01*
X85215820Y-59909502D01*
X85335518Y-59945812D01*
X85460000Y-59958072D01*
X86074250Y-59955000D01*
X86233000Y-59796250D01*
X86233000Y-58547000D01*
X84983750Y-58547000D01*
X84825000Y-58705750D01*
X84821928Y-59320000D01*
X82524767Y-59320000D01*
X82640299Y-59147095D01*
X82756011Y-58867743D01*
X82815000Y-58571184D01*
X82815000Y-58268816D01*
X82756011Y-57972257D01*
X82640299Y-57692905D01*
X82524768Y-57520000D01*
X84821928Y-57520000D01*
X84825000Y-58134250D01*
X84983750Y-58293000D01*
X86233000Y-58293000D01*
X86233000Y-57043750D01*
X86487000Y-57043750D01*
X86487000Y-58293000D01*
X86507000Y-58293000D01*
X86507000Y-58547000D01*
X86487000Y-58547000D01*
X86487000Y-59796250D01*
X86645750Y-59955000D01*
X87260000Y-59958072D01*
X87384482Y-59945812D01*
X87504180Y-59909502D01*
X87614494Y-59850537D01*
X87711185Y-59771185D01*
X87790537Y-59674494D01*
X87849502Y-59564180D01*
X87855056Y-59545873D01*
X87921495Y-59612312D01*
X88172905Y-59780299D01*
X88452257Y-59896011D01*
X88748816Y-59955000D01*
X89051184Y-59955000D01*
X89347743Y-59896011D01*
X89627095Y-59780299D01*
X89878505Y-59612312D01*
X90092312Y-59398505D01*
X90144767Y-59320000D01*
X92441928Y-59320000D01*
X92454188Y-59444482D01*
X92490498Y-59564180D01*
X92549463Y-59674494D01*
X92628815Y-59771185D01*
X92725506Y-59850537D01*
X92835820Y-59909502D01*
X92955518Y-59945812D01*
X93080000Y-59958072D01*
X93694250Y-59955000D01*
X93853000Y-59796250D01*
X93853000Y-58547000D01*
X92603750Y-58547000D01*
X92445000Y-58705750D01*
X92441928Y-59320000D01*
X90144767Y-59320000D01*
X90260299Y-59147095D01*
X90376011Y-58867743D01*
X90435000Y-58571184D01*
X90435000Y-58268816D01*
X90376011Y-57972257D01*
X90260299Y-57692905D01*
X90144768Y-57520000D01*
X92441928Y-57520000D01*
X92445000Y-58134250D01*
X92603750Y-58293000D01*
X93853000Y-58293000D01*
X93853000Y-57043750D01*
X94107000Y-57043750D01*
X94107000Y-58293000D01*
X94127000Y-58293000D01*
X94127000Y-58547000D01*
X94107000Y-58547000D01*
X94107000Y-59796250D01*
X94265750Y-59955000D01*
X94880000Y-59958072D01*
X95004482Y-59945812D01*
X95124180Y-59909502D01*
X95234494Y-59850537D01*
X95331185Y-59771185D01*
X95410537Y-59674494D01*
X95469502Y-59564180D01*
X95475056Y-59545873D01*
X95541495Y-59612312D01*
X95792905Y-59780299D01*
X96072257Y-59896011D01*
X96368816Y-59955000D01*
X96671184Y-59955000D01*
X96967743Y-59896011D01*
X97247095Y-59780299D01*
X97498505Y-59612312D01*
X97712312Y-59398505D01*
X97764767Y-59320000D01*
X100061928Y-59320000D01*
X100074188Y-59444482D01*
X100110498Y-59564180D01*
X100169463Y-59674494D01*
X100248815Y-59771185D01*
X100345506Y-59850537D01*
X100455820Y-59909502D01*
X100575518Y-59945812D01*
X100700000Y-59958072D01*
X101314250Y-59955000D01*
X101473000Y-59796250D01*
X101473000Y-58547000D01*
X100223750Y-58547000D01*
X100065000Y-58705750D01*
X100061928Y-59320000D01*
X97764767Y-59320000D01*
X97880299Y-59147095D01*
X97996011Y-58867743D01*
X98055000Y-58571184D01*
X98055000Y-58268816D01*
X97996011Y-57972257D01*
X97880299Y-57692905D01*
X97764768Y-57520000D01*
X100061928Y-57520000D01*
X100065000Y-58134250D01*
X100223750Y-58293000D01*
X101473000Y-58293000D01*
X101473000Y-57043750D01*
X101727000Y-57043750D01*
X101727000Y-58293000D01*
X101747000Y-58293000D01*
X101747000Y-58547000D01*
X101727000Y-58547000D01*
X101727000Y-59796250D01*
X101885750Y-59955000D01*
X102500000Y-59958072D01*
X102624482Y-59945812D01*
X102744180Y-59909502D01*
X102854494Y-59850537D01*
X102951185Y-59771185D01*
X103030537Y-59674494D01*
X103089502Y-59564180D01*
X103095056Y-59545873D01*
X103161495Y-59612312D01*
X103412905Y-59780299D01*
X103692257Y-59896011D01*
X103988816Y-59955000D01*
X104291184Y-59955000D01*
X104587743Y-59896011D01*
X104867095Y-59780299D01*
X105118505Y-59612312D01*
X105332312Y-59398505D01*
X105384767Y-59320000D01*
X107681928Y-59320000D01*
X107694188Y-59444482D01*
X107730498Y-59564180D01*
X107789463Y-59674494D01*
X107868815Y-59771185D01*
X107965506Y-59850537D01*
X108075820Y-59909502D01*
X108195518Y-59945812D01*
X108320000Y-59958072D01*
X108934250Y-59955000D01*
X109093000Y-59796250D01*
X109093000Y-58547000D01*
X107843750Y-58547000D01*
X107685000Y-58705750D01*
X107681928Y-59320000D01*
X105384767Y-59320000D01*
X105500299Y-59147095D01*
X105616011Y-58867743D01*
X105675000Y-58571184D01*
X105675000Y-58268816D01*
X105616011Y-57972257D01*
X105500299Y-57692905D01*
X105384768Y-57520000D01*
X107681928Y-57520000D01*
X107685000Y-58134250D01*
X107843750Y-58293000D01*
X109093000Y-58293000D01*
X109093000Y-57043750D01*
X109347000Y-57043750D01*
X109347000Y-58293000D01*
X109367000Y-58293000D01*
X109367000Y-58547000D01*
X109347000Y-58547000D01*
X109347000Y-59796250D01*
X109505750Y-59955000D01*
X110120000Y-59958072D01*
X110244482Y-59945812D01*
X110364180Y-59909502D01*
X110474494Y-59850537D01*
X110571185Y-59771185D01*
X110650537Y-59674494D01*
X110709502Y-59564180D01*
X110715056Y-59545873D01*
X110781495Y-59612312D01*
X111032905Y-59780299D01*
X111312257Y-59896011D01*
X111608816Y-59955000D01*
X111911184Y-59955000D01*
X112207743Y-59896011D01*
X112487095Y-59780299D01*
X112738505Y-59612312D01*
X112952312Y-59398505D01*
X113120299Y-59147095D01*
X113236011Y-58867743D01*
X113295000Y-58571184D01*
X113295000Y-58268816D01*
X113236011Y-57972257D01*
X113120299Y-57692905D01*
X113038424Y-57570370D01*
X115352298Y-57570370D01*
X115352298Y-59269630D01*
X115364558Y-59394112D01*
X115400868Y-59513810D01*
X115459833Y-59624124D01*
X115539185Y-59720815D01*
X115635876Y-59800167D01*
X115746190Y-59859132D01*
X115865888Y-59895442D01*
X115990370Y-59907702D01*
X117689630Y-59907702D01*
X117814112Y-59895442D01*
X117933810Y-59859132D01*
X118044124Y-59800167D01*
X118140815Y-59720815D01*
X118220167Y-59624124D01*
X118279132Y-59513810D01*
X118299054Y-59448133D01*
X121071472Y-59448133D01*
X121149063Y-59697169D01*
X121413040Y-59823031D01*
X121696499Y-59894975D01*
X121988547Y-59910237D01*
X122277961Y-59868230D01*
X122553619Y-59770568D01*
X122690937Y-59697169D01*
X122768528Y-59448133D01*
X121920000Y-58599605D01*
X121071472Y-59448133D01*
X118299054Y-59448133D01*
X118315442Y-59394112D01*
X118327702Y-59269630D01*
X118327702Y-58488547D01*
X120429763Y-58488547D01*
X120471770Y-58777961D01*
X120569432Y-59053619D01*
X120642831Y-59190937D01*
X120891867Y-59268528D01*
X121740395Y-58420000D01*
X122099605Y-58420000D01*
X122948133Y-59268528D01*
X123197169Y-59190937D01*
X123323031Y-58926960D01*
X123394975Y-58643501D01*
X123410237Y-58351453D01*
X123368230Y-58062039D01*
X123270568Y-57786381D01*
X123197169Y-57649063D01*
X122948133Y-57571472D01*
X122099605Y-58420000D01*
X121740395Y-58420000D01*
X120891867Y-57571472D01*
X120642831Y-57649063D01*
X120516969Y-57913040D01*
X120445025Y-58196499D01*
X120429763Y-58488547D01*
X118327702Y-58488547D01*
X118327702Y-57570370D01*
X118315442Y-57445888D01*
X118299055Y-57391867D01*
X121071472Y-57391867D01*
X121920000Y-58240395D01*
X122590025Y-57570370D01*
X125512298Y-57570370D01*
X125512298Y-59269630D01*
X125524558Y-59394112D01*
X125560868Y-59513810D01*
X125619833Y-59624124D01*
X125699185Y-59720815D01*
X125795876Y-59800167D01*
X125906190Y-59859132D01*
X126025888Y-59895442D01*
X126150370Y-59907702D01*
X127849630Y-59907702D01*
X127974112Y-59895442D01*
X128093810Y-59859132D01*
X128204124Y-59800167D01*
X128300815Y-59720815D01*
X128380167Y-59624124D01*
X128439132Y-59513810D01*
X128475442Y-59394112D01*
X128487702Y-59269630D01*
X128487702Y-58488547D01*
X130589763Y-58488547D01*
X130631770Y-58777961D01*
X130729432Y-59053619D01*
X130802831Y-59190937D01*
X131051867Y-59268528D01*
X131900395Y-58420000D01*
X131051867Y-57571472D01*
X130802831Y-57649063D01*
X130676969Y-57913040D01*
X130605025Y-58196499D01*
X130589763Y-58488547D01*
X128487702Y-58488547D01*
X128487702Y-57570370D01*
X128475442Y-57445888D01*
X128439132Y-57326190D01*
X128380167Y-57215876D01*
X128300815Y-57119185D01*
X128204124Y-57039833D01*
X128093810Y-56980868D01*
X127974112Y-56944558D01*
X127849630Y-56932298D01*
X126150370Y-56932298D01*
X126025888Y-56944558D01*
X125906190Y-56980868D01*
X125795876Y-57039833D01*
X125699185Y-57119185D01*
X125619833Y-57215876D01*
X125560868Y-57326190D01*
X125524558Y-57445888D01*
X125512298Y-57570370D01*
X122590025Y-57570370D01*
X122768528Y-57391867D01*
X122690937Y-57142831D01*
X122426960Y-57016969D01*
X122143501Y-56945025D01*
X121851453Y-56929763D01*
X121562039Y-56971770D01*
X121286381Y-57069432D01*
X121149063Y-57142831D01*
X121071472Y-57391867D01*
X118299055Y-57391867D01*
X118279132Y-57326190D01*
X118220167Y-57215876D01*
X118140815Y-57119185D01*
X118044124Y-57039833D01*
X117933810Y-56980868D01*
X117814112Y-56944558D01*
X117689630Y-56932298D01*
X115990370Y-56932298D01*
X115865888Y-56944558D01*
X115746190Y-56980868D01*
X115635876Y-57039833D01*
X115539185Y-57119185D01*
X115459833Y-57215876D01*
X115400868Y-57326190D01*
X115364558Y-57445888D01*
X115352298Y-57570370D01*
X113038424Y-57570370D01*
X112952312Y-57441495D01*
X112738505Y-57227688D01*
X112487095Y-57059701D01*
X112207743Y-56943989D01*
X111911184Y-56885000D01*
X111608816Y-56885000D01*
X111312257Y-56943989D01*
X111032905Y-57059701D01*
X110781495Y-57227688D01*
X110715056Y-57294127D01*
X110709502Y-57275820D01*
X110650537Y-57165506D01*
X110571185Y-57068815D01*
X110474494Y-56989463D01*
X110364180Y-56930498D01*
X110244482Y-56894188D01*
X110120000Y-56881928D01*
X109505750Y-56885000D01*
X109347000Y-57043750D01*
X109093000Y-57043750D01*
X108934250Y-56885000D01*
X108320000Y-56881928D01*
X108195518Y-56894188D01*
X108075820Y-56930498D01*
X107965506Y-56989463D01*
X107868815Y-57068815D01*
X107789463Y-57165506D01*
X107730498Y-57275820D01*
X107694188Y-57395518D01*
X107681928Y-57520000D01*
X105384768Y-57520000D01*
X105332312Y-57441495D01*
X105118505Y-57227688D01*
X104867095Y-57059701D01*
X104587743Y-56943989D01*
X104291184Y-56885000D01*
X103988816Y-56885000D01*
X103692257Y-56943989D01*
X103412905Y-57059701D01*
X103161495Y-57227688D01*
X103095056Y-57294127D01*
X103089502Y-57275820D01*
X103030537Y-57165506D01*
X102951185Y-57068815D01*
X102854494Y-56989463D01*
X102744180Y-56930498D01*
X102624482Y-56894188D01*
X102500000Y-56881928D01*
X101885750Y-56885000D01*
X101727000Y-57043750D01*
X101473000Y-57043750D01*
X101314250Y-56885000D01*
X100700000Y-56881928D01*
X100575518Y-56894188D01*
X100455820Y-56930498D01*
X100345506Y-56989463D01*
X100248815Y-57068815D01*
X100169463Y-57165506D01*
X100110498Y-57275820D01*
X100074188Y-57395518D01*
X100061928Y-57520000D01*
X97764768Y-57520000D01*
X97712312Y-57441495D01*
X97498505Y-57227688D01*
X97247095Y-57059701D01*
X96967743Y-56943989D01*
X96671184Y-56885000D01*
X96368816Y-56885000D01*
X96072257Y-56943989D01*
X95792905Y-57059701D01*
X95541495Y-57227688D01*
X95475056Y-57294127D01*
X95469502Y-57275820D01*
X95410537Y-57165506D01*
X95331185Y-57068815D01*
X95234494Y-56989463D01*
X95124180Y-56930498D01*
X95004482Y-56894188D01*
X94880000Y-56881928D01*
X94265750Y-56885000D01*
X94107000Y-57043750D01*
X93853000Y-57043750D01*
X93694250Y-56885000D01*
X93080000Y-56881928D01*
X92955518Y-56894188D01*
X92835820Y-56930498D01*
X92725506Y-56989463D01*
X92628815Y-57068815D01*
X92549463Y-57165506D01*
X92490498Y-57275820D01*
X92454188Y-57395518D01*
X92441928Y-57520000D01*
X90144768Y-57520000D01*
X90092312Y-57441495D01*
X89878505Y-57227688D01*
X89627095Y-57059701D01*
X89347743Y-56943989D01*
X89051184Y-56885000D01*
X88748816Y-56885000D01*
X88452257Y-56943989D01*
X88172905Y-57059701D01*
X87921495Y-57227688D01*
X87855056Y-57294127D01*
X87849502Y-57275820D01*
X87790537Y-57165506D01*
X87711185Y-57068815D01*
X87614494Y-56989463D01*
X87504180Y-56930498D01*
X87384482Y-56894188D01*
X87260000Y-56881928D01*
X86645750Y-56885000D01*
X86487000Y-57043750D01*
X86233000Y-57043750D01*
X86074250Y-56885000D01*
X85460000Y-56881928D01*
X85335518Y-56894188D01*
X85215820Y-56930498D01*
X85105506Y-56989463D01*
X85008815Y-57068815D01*
X84929463Y-57165506D01*
X84870498Y-57275820D01*
X84834188Y-57395518D01*
X84821928Y-57520000D01*
X82524768Y-57520000D01*
X82472312Y-57441495D01*
X82258505Y-57227688D01*
X82007095Y-57059701D01*
X81727743Y-56943989D01*
X81431184Y-56885000D01*
X81128816Y-56885000D01*
X80832257Y-56943989D01*
X80552905Y-57059701D01*
X80301495Y-57227688D01*
X80235056Y-57294127D01*
X80229502Y-57275820D01*
X80170537Y-57165506D01*
X80091185Y-57068815D01*
X79994494Y-56989463D01*
X79884180Y-56930498D01*
X79764482Y-56894188D01*
X79640000Y-56881928D01*
X79025750Y-56885000D01*
X78867000Y-57043750D01*
X78613000Y-57043750D01*
X78454250Y-56885000D01*
X77840000Y-56881928D01*
X77715518Y-56894188D01*
X77595820Y-56930498D01*
X77485506Y-56989463D01*
X77388815Y-57068815D01*
X77309463Y-57165506D01*
X77250498Y-57275820D01*
X77214188Y-57395518D01*
X77201928Y-57520000D01*
X74904768Y-57520000D01*
X74852312Y-57441495D01*
X74638505Y-57227688D01*
X74387095Y-57059701D01*
X74107743Y-56943989D01*
X73811184Y-56885000D01*
X73508816Y-56885000D01*
X73212257Y-56943989D01*
X72932905Y-57059701D01*
X72681495Y-57227688D01*
X72615056Y-57294127D01*
X72609502Y-57275820D01*
X72550537Y-57165506D01*
X72471185Y-57068815D01*
X72374494Y-56989463D01*
X72264180Y-56930498D01*
X72144482Y-56894188D01*
X72020000Y-56881928D01*
X71405750Y-56885000D01*
X71247000Y-57043750D01*
X70993000Y-57043750D01*
X70834250Y-56885000D01*
X70220000Y-56881928D01*
X70095518Y-56894188D01*
X69975820Y-56930498D01*
X69865506Y-56989463D01*
X69768815Y-57068815D01*
X69689463Y-57165506D01*
X69630498Y-57275820D01*
X69594188Y-57395518D01*
X69581928Y-57520000D01*
X67284768Y-57520000D01*
X67232312Y-57441495D01*
X67018505Y-57227688D01*
X66767095Y-57059701D01*
X66487743Y-56943989D01*
X66191184Y-56885000D01*
X65888816Y-56885000D01*
X65592257Y-56943989D01*
X65312905Y-57059701D01*
X65061495Y-57227688D01*
X64995056Y-57294127D01*
X64989502Y-57275820D01*
X64930537Y-57165506D01*
X64851185Y-57068815D01*
X64754494Y-56989463D01*
X64644180Y-56930498D01*
X64524482Y-56894188D01*
X64400000Y-56881928D01*
X63785750Y-56885000D01*
X63627000Y-57043750D01*
X63373000Y-57043750D01*
X63214250Y-56885000D01*
X62600000Y-56881928D01*
X62475518Y-56894188D01*
X62355820Y-56930498D01*
X62245506Y-56989463D01*
X62148815Y-57068815D01*
X62069463Y-57165506D01*
X62010498Y-57275820D01*
X61974188Y-57395518D01*
X61961928Y-57520000D01*
X59664768Y-57520000D01*
X59612312Y-57441495D01*
X59398505Y-57227688D01*
X59147095Y-57059701D01*
X58867743Y-56943989D01*
X58571184Y-56885000D01*
X58268816Y-56885000D01*
X57972257Y-56943989D01*
X57692905Y-57059701D01*
X57441495Y-57227688D01*
X57375056Y-57294127D01*
X57369502Y-57275820D01*
X57310537Y-57165506D01*
X57231185Y-57068815D01*
X57134494Y-56989463D01*
X57024180Y-56930498D01*
X56904482Y-56894188D01*
X56780000Y-56881928D01*
X56165750Y-56885000D01*
X56007000Y-57043750D01*
X55753000Y-57043750D01*
X55594250Y-56885000D01*
X54980000Y-56881928D01*
X54855518Y-56894188D01*
X54735820Y-56930498D01*
X54625506Y-56989463D01*
X54528815Y-57068815D01*
X54449463Y-57165506D01*
X54390498Y-57275820D01*
X54354188Y-57395518D01*
X54341928Y-57520000D01*
X51520395Y-57520000D01*
X51648528Y-57391867D01*
X51570937Y-57142831D01*
X51306960Y-57016969D01*
X51023501Y-56945025D01*
X50731453Y-56929763D01*
X50442039Y-56971770D01*
X50166381Y-57069432D01*
X50029063Y-57142831D01*
X49951472Y-57391867D01*
X47179055Y-57391867D01*
X47159132Y-57326190D01*
X47100167Y-57215876D01*
X47020815Y-57119185D01*
X46924124Y-57039833D01*
X46813810Y-56980868D01*
X46694112Y-56944558D01*
X46569630Y-56932298D01*
X44870370Y-56932298D01*
X44745888Y-56944558D01*
X44626190Y-56980868D01*
X44515876Y-57039833D01*
X44419185Y-57119185D01*
X44339833Y-57215876D01*
X44280868Y-57326190D01*
X44244558Y-57445888D01*
X44232298Y-57570370D01*
X41310025Y-57570370D01*
X41488528Y-57391867D01*
X41410937Y-57142831D01*
X41146960Y-57016969D01*
X40863501Y-56945025D01*
X40571453Y-56929763D01*
X40282039Y-56971770D01*
X40006381Y-57069432D01*
X39869063Y-57142831D01*
X39791472Y-57391867D01*
X37019055Y-57391867D01*
X36999132Y-57326190D01*
X36940167Y-57215876D01*
X36860815Y-57119185D01*
X36764124Y-57039833D01*
X36653810Y-56980868D01*
X36534112Y-56944558D01*
X36409630Y-56932298D01*
X34710370Y-56932298D01*
X34696000Y-56933713D01*
X34696000Y-48476693D01*
X34710000Y-48478072D01*
X36410000Y-48478072D01*
X36534482Y-48465812D01*
X36654180Y-48429502D01*
X36764494Y-48370537D01*
X36861185Y-48291185D01*
X36940537Y-48194494D01*
X36999502Y-48084180D01*
X37020393Y-48015313D01*
X37044866Y-48045134D01*
X37270986Y-48230706D01*
X37528966Y-48368599D01*
X37808889Y-48453513D01*
X38027050Y-48475000D01*
X38172950Y-48475000D01*
X38391111Y-48453513D01*
X38671034Y-48368599D01*
X38929014Y-48230706D01*
X39155134Y-48045134D01*
X39340706Y-47819014D01*
X39370000Y-47764209D01*
X39399294Y-47819014D01*
X39584866Y-48045134D01*
X39810986Y-48230706D01*
X40068966Y-48368599D01*
X40348889Y-48453513D01*
X40567050Y-48475000D01*
X40712950Y-48475000D01*
X40931111Y-48453513D01*
X41211034Y-48368599D01*
X41469014Y-48230706D01*
X41695134Y-48045134D01*
X41880706Y-47819014D01*
X41910000Y-47764209D01*
X41939294Y-47819014D01*
X42124866Y-48045134D01*
X42350986Y-48230706D01*
X42608966Y-48368599D01*
X42888889Y-48453513D01*
X43107050Y-48475000D01*
X43252950Y-48475000D01*
X43471111Y-48453513D01*
X43751034Y-48368599D01*
X44009014Y-48230706D01*
X44235134Y-48045134D01*
X44259607Y-48015313D01*
X44280498Y-48084180D01*
X44339463Y-48194494D01*
X44418815Y-48291185D01*
X44515506Y-48370537D01*
X44625820Y-48429502D01*
X44745518Y-48465812D01*
X44870000Y-48478072D01*
X46570000Y-48478072D01*
X46694482Y-48465812D01*
X46814180Y-48429502D01*
X46924494Y-48370537D01*
X47021185Y-48291185D01*
X47100537Y-48194494D01*
X47159502Y-48084180D01*
X47180393Y-48015313D01*
X47204866Y-48045134D01*
X47430986Y-48230706D01*
X47688966Y-48368599D01*
X47968889Y-48453513D01*
X48187050Y-48475000D01*
X48332950Y-48475000D01*
X48551111Y-48453513D01*
X48831034Y-48368599D01*
X49089014Y-48230706D01*
X49315134Y-48045134D01*
X49500706Y-47819014D01*
X49530000Y-47764209D01*
X49559294Y-47819014D01*
X49744866Y-48045134D01*
X49970986Y-48230706D01*
X50228966Y-48368599D01*
X50508889Y-48453513D01*
X50727050Y-48475000D01*
X50872950Y-48475000D01*
X51091111Y-48453513D01*
X51371034Y-48368599D01*
X51629014Y-48230706D01*
X51855134Y-48045134D01*
X52040706Y-47819014D01*
X52070000Y-47764209D01*
X52099294Y-47819014D01*
X52284866Y-48045134D01*
X52510986Y-48230706D01*
X52768966Y-48368599D01*
X53048889Y-48453513D01*
X53267050Y-48475000D01*
X53412950Y-48475000D01*
X53631111Y-48453513D01*
X53911034Y-48368599D01*
X54169014Y-48230706D01*
X54395134Y-48045134D01*
X54580706Y-47819014D01*
X54718599Y-47561034D01*
X54803513Y-47281111D01*
X54832185Y-46990000D01*
X54818265Y-46848665D01*
X55715000Y-46848665D01*
X55715000Y-47131335D01*
X55770147Y-47408574D01*
X55878320Y-47669727D01*
X56035363Y-47904759D01*
X56235241Y-48104637D01*
X56470273Y-48261680D01*
X56731426Y-48369853D01*
X57008665Y-48425000D01*
X57291335Y-48425000D01*
X57568574Y-48369853D01*
X57829727Y-48261680D01*
X58064759Y-48104637D01*
X58264637Y-47904759D01*
X58354257Y-47770633D01*
X58391795Y-47861256D01*
X58505063Y-48030774D01*
X58521601Y-48047312D01*
X58521600Y-51523337D01*
X58517792Y-51562000D01*
X58521600Y-51600663D01*
X58521600Y-51600672D01*
X58525584Y-51641119D01*
X58421680Y-51390273D01*
X58264637Y-51155241D01*
X58064759Y-50955363D01*
X57829727Y-50798320D01*
X57568574Y-50690147D01*
X57291335Y-50635000D01*
X57008665Y-50635000D01*
X56731426Y-50690147D01*
X56470273Y-50798320D01*
X56235241Y-50955363D01*
X56035363Y-51155241D01*
X55878320Y-51390273D01*
X55770147Y-51651426D01*
X55715000Y-51928665D01*
X55715000Y-52211335D01*
X55770147Y-52488574D01*
X55878320Y-52749727D01*
X56035363Y-52984759D01*
X56235241Y-53184637D01*
X56470273Y-53341680D01*
X56731426Y-53449853D01*
X57008665Y-53505000D01*
X57291335Y-53505000D01*
X57568574Y-53449853D01*
X57829727Y-53341680D01*
X58064759Y-53184637D01*
X58264637Y-52984759D01*
X58421680Y-52749727D01*
X58529853Y-52488574D01*
X58585000Y-52211335D01*
X58585000Y-51928665D01*
X58561387Y-51809957D01*
X58578018Y-51864782D01*
X58651134Y-52001571D01*
X58749531Y-52121469D01*
X58779577Y-52146127D01*
X58909000Y-52275551D01*
X58909000Y-52298939D01*
X58948774Y-52498898D01*
X59026795Y-52687256D01*
X59140063Y-52856774D01*
X59284226Y-53000937D01*
X59453744Y-53114205D01*
X59642102Y-53192226D01*
X59842061Y-53232000D01*
X60045939Y-53232000D01*
X60245898Y-53192226D01*
X60434256Y-53114205D01*
X60603774Y-53000937D01*
X60747937Y-52856774D01*
X60861205Y-52687256D01*
X60870197Y-52665547D01*
X60931795Y-52814256D01*
X61045063Y-52983774D01*
X61189226Y-53127937D01*
X61358744Y-53241205D01*
X61547102Y-53319226D01*
X61747061Y-53359000D01*
X61950939Y-53359000D01*
X62150898Y-53319226D01*
X62339256Y-53241205D01*
X62508774Y-53127937D01*
X62652937Y-52983774D01*
X62766205Y-52814256D01*
X62844226Y-52625898D01*
X62884000Y-52425939D01*
X62884000Y-52222061D01*
X62844226Y-52022102D01*
X62805523Y-51928665D01*
X63335000Y-51928665D01*
X63335000Y-52211335D01*
X63390147Y-52488574D01*
X63498320Y-52749727D01*
X63655363Y-52984759D01*
X63855241Y-53184637D01*
X64090273Y-53341680D01*
X64351426Y-53449853D01*
X64628665Y-53505000D01*
X64911335Y-53505000D01*
X65188574Y-53449853D01*
X65449727Y-53341680D01*
X65684759Y-53184637D01*
X65884637Y-52984759D01*
X66041680Y-52749727D01*
X66149853Y-52488574D01*
X66205000Y-52211335D01*
X66205000Y-51928665D01*
X70955000Y-51928665D01*
X70955000Y-52211335D01*
X71010147Y-52488574D01*
X71118320Y-52749727D01*
X71275363Y-52984759D01*
X71475241Y-53184637D01*
X71710273Y-53341680D01*
X71971426Y-53449853D01*
X72248665Y-53505000D01*
X72531335Y-53505000D01*
X72808574Y-53449853D01*
X73069727Y-53341680D01*
X73304759Y-53184637D01*
X73504637Y-52984759D01*
X73661680Y-52749727D01*
X73769853Y-52488574D01*
X73825000Y-52211335D01*
X73825000Y-51928665D01*
X78575000Y-51928665D01*
X78575000Y-52211335D01*
X78630147Y-52488574D01*
X78738320Y-52749727D01*
X78895363Y-52984759D01*
X79095241Y-53184637D01*
X79330273Y-53341680D01*
X79591426Y-53449853D01*
X79868665Y-53505000D01*
X80151335Y-53505000D01*
X80428574Y-53449853D01*
X80689727Y-53341680D01*
X80924759Y-53184637D01*
X81124637Y-52984759D01*
X81281680Y-52749727D01*
X81389853Y-52488574D01*
X81445000Y-52211335D01*
X81445000Y-51928665D01*
X86195000Y-51928665D01*
X86195000Y-52211335D01*
X86250147Y-52488574D01*
X86358320Y-52749727D01*
X86515363Y-52984759D01*
X86715241Y-53184637D01*
X86950273Y-53341680D01*
X87211426Y-53449853D01*
X87488665Y-53505000D01*
X87771335Y-53505000D01*
X88048574Y-53449853D01*
X88309727Y-53341680D01*
X88544759Y-53184637D01*
X88744637Y-52984759D01*
X88901680Y-52749727D01*
X89009853Y-52488574D01*
X89065000Y-52211335D01*
X89065000Y-51928665D01*
X93815000Y-51928665D01*
X93815000Y-52211335D01*
X93870147Y-52488574D01*
X93978320Y-52749727D01*
X94135363Y-52984759D01*
X94335241Y-53184637D01*
X94570273Y-53341680D01*
X94831426Y-53449853D01*
X95108665Y-53505000D01*
X95391335Y-53505000D01*
X95668574Y-53449853D01*
X95929727Y-53341680D01*
X96164759Y-53184637D01*
X96364637Y-52984759D01*
X96521680Y-52749727D01*
X96629853Y-52488574D01*
X96685000Y-52211335D01*
X96685000Y-51928665D01*
X101435000Y-51928665D01*
X101435000Y-52211335D01*
X101490147Y-52488574D01*
X101598320Y-52749727D01*
X101755363Y-52984759D01*
X101955241Y-53184637D01*
X102190273Y-53341680D01*
X102451426Y-53449853D01*
X102728665Y-53505000D01*
X103011335Y-53505000D01*
X103288574Y-53449853D01*
X103549727Y-53341680D01*
X103784759Y-53184637D01*
X103984637Y-52984759D01*
X104141680Y-52749727D01*
X104249853Y-52488574D01*
X104305000Y-52211335D01*
X104305000Y-51928665D01*
X104249853Y-51651426D01*
X104141680Y-51390273D01*
X103984637Y-51155241D01*
X103784759Y-50955363D01*
X103549727Y-50798320D01*
X103288574Y-50690147D01*
X103011335Y-50635000D01*
X102728665Y-50635000D01*
X102451426Y-50690147D01*
X102190273Y-50798320D01*
X101955241Y-50955363D01*
X101755363Y-51155241D01*
X101598320Y-51390273D01*
X101490147Y-51651426D01*
X101435000Y-51928665D01*
X96685000Y-51928665D01*
X96629853Y-51651426D01*
X96521680Y-51390273D01*
X96364637Y-51155241D01*
X96164759Y-50955363D01*
X95929727Y-50798320D01*
X95668574Y-50690147D01*
X95391335Y-50635000D01*
X95108665Y-50635000D01*
X94831426Y-50690147D01*
X94570273Y-50798320D01*
X94335241Y-50955363D01*
X94135363Y-51155241D01*
X93978320Y-51390273D01*
X93870147Y-51651426D01*
X93815000Y-51928665D01*
X89065000Y-51928665D01*
X89009853Y-51651426D01*
X88901680Y-51390273D01*
X88744637Y-51155241D01*
X88544759Y-50955363D01*
X88309727Y-50798320D01*
X88048574Y-50690147D01*
X87771335Y-50635000D01*
X87488665Y-50635000D01*
X87211426Y-50690147D01*
X86950273Y-50798320D01*
X86715241Y-50955363D01*
X86515363Y-51155241D01*
X86358320Y-51390273D01*
X86250147Y-51651426D01*
X86195000Y-51928665D01*
X81445000Y-51928665D01*
X81389853Y-51651426D01*
X81281680Y-51390273D01*
X81124637Y-51155241D01*
X80924759Y-50955363D01*
X80689727Y-50798320D01*
X80428574Y-50690147D01*
X80151335Y-50635000D01*
X79868665Y-50635000D01*
X79591426Y-50690147D01*
X79330273Y-50798320D01*
X79095241Y-50955363D01*
X78895363Y-51155241D01*
X78738320Y-51390273D01*
X78630147Y-51651426D01*
X78575000Y-51928665D01*
X73825000Y-51928665D01*
X73769853Y-51651426D01*
X73661680Y-51390273D01*
X73504637Y-51155241D01*
X73304759Y-50955363D01*
X73069727Y-50798320D01*
X72808574Y-50690147D01*
X72531335Y-50635000D01*
X72248665Y-50635000D01*
X71971426Y-50690147D01*
X71710273Y-50798320D01*
X71475241Y-50955363D01*
X71275363Y-51155241D01*
X71118320Y-51390273D01*
X71010147Y-51651426D01*
X70955000Y-51928665D01*
X66205000Y-51928665D01*
X66149853Y-51651426D01*
X66041680Y-51390273D01*
X65884637Y-51155241D01*
X65684759Y-50955363D01*
X65449727Y-50798320D01*
X65188574Y-50690147D01*
X64911335Y-50635000D01*
X64628665Y-50635000D01*
X64351426Y-50690147D01*
X64090273Y-50798320D01*
X63855241Y-50955363D01*
X63655363Y-51155241D01*
X63498320Y-51390273D01*
X63390147Y-51651426D01*
X63335000Y-51928665D01*
X62805523Y-51928665D01*
X62766205Y-51833744D01*
X62652937Y-51664226D01*
X62636400Y-51647689D01*
X62636400Y-48459151D01*
X62759428Y-48336123D01*
X62789469Y-48311469D01*
X62887866Y-48191572D01*
X62904777Y-48159934D01*
X63033937Y-48030774D01*
X63147205Y-47861256D01*
X63225226Y-47672898D01*
X63265000Y-47472939D01*
X63265000Y-47269061D01*
X63225226Y-47069102D01*
X63147205Y-46880744D01*
X63125771Y-46848665D01*
X63335000Y-46848665D01*
X63335000Y-47131335D01*
X63390147Y-47408574D01*
X63498320Y-47669727D01*
X63655363Y-47904759D01*
X63855241Y-48104637D01*
X64090273Y-48261680D01*
X64351426Y-48369853D01*
X64628665Y-48425000D01*
X64911335Y-48425000D01*
X65188574Y-48369853D01*
X65449727Y-48261680D01*
X65684759Y-48104637D01*
X65884637Y-47904759D01*
X66041680Y-47669727D01*
X66149853Y-47408574D01*
X66205000Y-47131335D01*
X66205000Y-46848665D01*
X66149853Y-46571426D01*
X66041680Y-46310273D01*
X65884637Y-46075241D01*
X65684759Y-45875363D01*
X65449727Y-45718320D01*
X65188574Y-45610147D01*
X64911335Y-45555000D01*
X64628665Y-45555000D01*
X64351426Y-45610147D01*
X64090273Y-45718320D01*
X63855241Y-45875363D01*
X63655363Y-46075241D01*
X63498320Y-46310273D01*
X63390147Y-46571426D01*
X63335000Y-46848665D01*
X63125771Y-46848665D01*
X63033937Y-46711226D01*
X62889774Y-46567063D01*
X62720256Y-46453795D01*
X62531898Y-46375774D01*
X62331939Y-46336000D01*
X62128061Y-46336000D01*
X61928102Y-46375774D01*
X61739744Y-46453795D01*
X61595000Y-46550510D01*
X61450256Y-46453795D01*
X61261898Y-46375774D01*
X61061939Y-46336000D01*
X60858061Y-46336000D01*
X60658102Y-46375774D01*
X60469744Y-46453795D01*
X60300226Y-46567063D01*
X60156063Y-46711226D01*
X60134500Y-46743497D01*
X60112937Y-46711226D01*
X59968774Y-46567063D01*
X59799256Y-46453795D01*
X59610898Y-46375774D01*
X59410939Y-46336000D01*
X59207061Y-46336000D01*
X59007102Y-46375774D01*
X58818744Y-46453795D01*
X58649226Y-46567063D01*
X58548935Y-46667354D01*
X58529853Y-46571426D01*
X58421680Y-46310273D01*
X58264637Y-46075241D01*
X58064759Y-45875363D01*
X57829727Y-45718320D01*
X57568574Y-45610147D01*
X57291335Y-45555000D01*
X57008665Y-45555000D01*
X56731426Y-45610147D01*
X56470273Y-45718320D01*
X56235241Y-45875363D01*
X56035363Y-46075241D01*
X55878320Y-46310273D01*
X55770147Y-46571426D01*
X55715000Y-46848665D01*
X54818265Y-46848665D01*
X54803513Y-46698889D01*
X54718599Y-46418966D01*
X54580706Y-46160986D01*
X54395134Y-45934866D01*
X54169014Y-45749294D01*
X53911034Y-45611401D01*
X53631111Y-45526487D01*
X53412950Y-45505000D01*
X53267050Y-45505000D01*
X53048889Y-45526487D01*
X52768966Y-45611401D01*
X52510986Y-45749294D01*
X52284866Y-45934866D01*
X52099294Y-46160986D01*
X52070000Y-46215791D01*
X52040706Y-46160986D01*
X51855134Y-45934866D01*
X51629014Y-45749294D01*
X51371034Y-45611401D01*
X51091111Y-45526487D01*
X50872950Y-45505000D01*
X50727050Y-45505000D01*
X50508889Y-45526487D01*
X50228966Y-45611401D01*
X49970986Y-45749294D01*
X49744866Y-45934866D01*
X49559294Y-46160986D01*
X49530000Y-46215791D01*
X49500706Y-46160986D01*
X49315134Y-45934866D01*
X49089014Y-45749294D01*
X48831034Y-45611401D01*
X48551111Y-45526487D01*
X48332950Y-45505000D01*
X48187050Y-45505000D01*
X47968889Y-45526487D01*
X47688966Y-45611401D01*
X47430986Y-45749294D01*
X47204866Y-45934866D01*
X47180393Y-45964687D01*
X47159502Y-45895820D01*
X47100537Y-45785506D01*
X47021185Y-45688815D01*
X46924494Y-45609463D01*
X46814180Y-45550498D01*
X46694482Y-45514188D01*
X46570000Y-45501928D01*
X44870000Y-45501928D01*
X44745518Y-45514188D01*
X44625820Y-45550498D01*
X44515506Y-45609463D01*
X44418815Y-45688815D01*
X44339463Y-45785506D01*
X44280498Y-45895820D01*
X44259607Y-45964687D01*
X44235134Y-45934866D01*
X44009014Y-45749294D01*
X43751034Y-45611401D01*
X43471111Y-45526487D01*
X43252950Y-45505000D01*
X43107050Y-45505000D01*
X42888889Y-45526487D01*
X42608966Y-45611401D01*
X42350986Y-45749294D01*
X42124866Y-45934866D01*
X41939294Y-46160986D01*
X41910000Y-46215791D01*
X41880706Y-46160986D01*
X41695134Y-45934866D01*
X41469014Y-45749294D01*
X41211034Y-45611401D01*
X40931111Y-45526487D01*
X40712950Y-45505000D01*
X40567050Y-45505000D01*
X40348889Y-45526487D01*
X40068966Y-45611401D01*
X39810986Y-45749294D01*
X39584866Y-45934866D01*
X39399294Y-46160986D01*
X39370000Y-46215791D01*
X39340706Y-46160986D01*
X39155134Y-45934866D01*
X38929014Y-45749294D01*
X38671034Y-45611401D01*
X38391111Y-45526487D01*
X38172950Y-45505000D01*
X38027050Y-45505000D01*
X37808889Y-45526487D01*
X37528966Y-45611401D01*
X37270986Y-45749294D01*
X37044866Y-45934866D01*
X37020393Y-45964687D01*
X36999502Y-45895820D01*
X36940537Y-45785506D01*
X36861185Y-45688815D01*
X36764494Y-45609463D01*
X36654180Y-45550498D01*
X36534482Y-45514188D01*
X36410000Y-45501928D01*
X34710000Y-45501928D01*
X34696000Y-45503307D01*
X34696000Y-44602061D01*
X70593000Y-44602061D01*
X70593000Y-44805939D01*
X70632774Y-45005898D01*
X70710795Y-45194256D01*
X70824063Y-45363774D01*
X70968226Y-45507937D01*
X71137744Y-45621205D01*
X71326102Y-45699226D01*
X71526061Y-45739000D01*
X71679323Y-45739000D01*
X71475241Y-45875363D01*
X71275363Y-46075241D01*
X71118320Y-46310273D01*
X71010147Y-46571426D01*
X70955000Y-46848665D01*
X70955000Y-47131335D01*
X71010147Y-47408574D01*
X71118320Y-47669727D01*
X71275363Y-47904759D01*
X71475241Y-48104637D01*
X71710273Y-48261680D01*
X71971426Y-48369853D01*
X72248665Y-48425000D01*
X72531335Y-48425000D01*
X72808574Y-48369853D01*
X73069727Y-48261680D01*
X73304759Y-48104637D01*
X73504637Y-47904759D01*
X73661680Y-47669727D01*
X73769853Y-47408574D01*
X73825000Y-47131335D01*
X73825000Y-46848665D01*
X73769853Y-46571426D01*
X73661680Y-46310273D01*
X73504637Y-46075241D01*
X73304759Y-45875363D01*
X73069727Y-45718320D01*
X72808574Y-45610147D01*
X72531335Y-45555000D01*
X72248665Y-45555000D01*
X72204060Y-45563873D01*
X72287774Y-45507937D01*
X72304311Y-45491400D01*
X77397850Y-45491400D01*
X78604883Y-46698434D01*
X78575000Y-46848665D01*
X78575000Y-47131335D01*
X78630147Y-47408574D01*
X78738320Y-47669727D01*
X78895363Y-47904759D01*
X79095241Y-48104637D01*
X79330273Y-48261680D01*
X79591426Y-48369853D01*
X79868665Y-48425000D01*
X80151335Y-48425000D01*
X80428574Y-48369853D01*
X80689727Y-48261680D01*
X80924759Y-48104637D01*
X81124637Y-47904759D01*
X81281680Y-47669727D01*
X81389853Y-47408574D01*
X81445000Y-47131335D01*
X81445000Y-46848665D01*
X86195000Y-46848665D01*
X86195000Y-47131335D01*
X86250147Y-47408574D01*
X86358320Y-47669727D01*
X86515363Y-47904759D01*
X86715241Y-48104637D01*
X86950273Y-48261680D01*
X87211426Y-48369853D01*
X87488665Y-48425000D01*
X87771335Y-48425000D01*
X88048574Y-48369853D01*
X88309727Y-48261680D01*
X88544759Y-48104637D01*
X88744637Y-47904759D01*
X88901680Y-47669727D01*
X89009853Y-47408574D01*
X89065000Y-47131335D01*
X89065000Y-46848665D01*
X93815000Y-46848665D01*
X93815000Y-47131335D01*
X93870147Y-47408574D01*
X93978320Y-47669727D01*
X94135363Y-47904759D01*
X94335241Y-48104637D01*
X94570273Y-48261680D01*
X94831426Y-48369853D01*
X95108665Y-48425000D01*
X95391335Y-48425000D01*
X95668574Y-48369853D01*
X95929727Y-48261680D01*
X96164759Y-48104637D01*
X96364637Y-47904759D01*
X96521680Y-47669727D01*
X96629853Y-47408574D01*
X96685000Y-47131335D01*
X96685000Y-46848665D01*
X101435000Y-46848665D01*
X101435000Y-47131335D01*
X101490147Y-47408574D01*
X101598320Y-47669727D01*
X101755363Y-47904759D01*
X101955241Y-48104637D01*
X102190273Y-48261680D01*
X102451426Y-48369853D01*
X102728665Y-48425000D01*
X103011335Y-48425000D01*
X103288574Y-48369853D01*
X103549727Y-48261680D01*
X103784759Y-48104637D01*
X103984637Y-47904759D01*
X104141680Y-47669727D01*
X104195141Y-47540660D01*
X104357401Y-47540660D01*
X104357401Y-47744538D01*
X104397175Y-47944497D01*
X104475196Y-48132855D01*
X104588464Y-48302373D01*
X104605002Y-48318911D01*
X104605001Y-50014288D01*
X104588464Y-50030825D01*
X104475196Y-50200343D01*
X104397175Y-50388701D01*
X104357401Y-50588660D01*
X104357401Y-50792538D01*
X104397175Y-50992497D01*
X104475196Y-51180855D01*
X104588464Y-51350373D01*
X104732627Y-51494536D01*
X104902145Y-51607804D01*
X105090503Y-51685825D01*
X105290462Y-51725599D01*
X105494340Y-51725599D01*
X105694299Y-51685825D01*
X105757915Y-51659474D01*
X105762795Y-51671256D01*
X105876063Y-51840774D01*
X106020226Y-51984937D01*
X106189744Y-52098205D01*
X106378102Y-52176226D01*
X106578061Y-52216000D01*
X106781939Y-52216000D01*
X106981898Y-52176226D01*
X107170256Y-52098205D01*
X107339774Y-51984937D01*
X107413658Y-51911053D01*
X107477343Y-51953606D01*
X107665701Y-52031627D01*
X107865660Y-52071401D01*
X108069538Y-52071401D01*
X108269497Y-52031627D01*
X108457855Y-51953606D01*
X108627373Y-51840338D01*
X108771536Y-51696175D01*
X108884804Y-51526657D01*
X108962825Y-51338299D01*
X109002599Y-51138340D01*
X109002599Y-50934462D01*
X108962825Y-50734503D01*
X108884804Y-50546145D01*
X108771536Y-50376627D01*
X108754999Y-50360090D01*
X108754999Y-48445910D01*
X108771536Y-48429373D01*
X108884804Y-48259855D01*
X108962825Y-48071497D01*
X109002599Y-47871538D01*
X109002599Y-47667660D01*
X108962825Y-47467701D01*
X108884804Y-47279343D01*
X108771536Y-47109825D01*
X108627373Y-46965662D01*
X108457855Y-46852394D01*
X108448853Y-46848665D01*
X109055000Y-46848665D01*
X109055000Y-47131335D01*
X109110147Y-47408574D01*
X109218320Y-47669727D01*
X109375363Y-47904759D01*
X109575241Y-48104637D01*
X109702601Y-48189736D01*
X109702600Y-49618337D01*
X109698792Y-49657000D01*
X109702600Y-49695663D01*
X109702600Y-49695672D01*
X109713994Y-49811356D01*
X109759018Y-49959782D01*
X109832134Y-50096571D01*
X109930531Y-50216469D01*
X109960578Y-50241128D01*
X110354450Y-50635000D01*
X110348665Y-50635000D01*
X110071426Y-50690147D01*
X109810273Y-50798320D01*
X109575241Y-50955363D01*
X109375363Y-51155241D01*
X109218320Y-51390273D01*
X109110147Y-51651426D01*
X109055000Y-51928665D01*
X109055000Y-52211335D01*
X109110147Y-52488574D01*
X109218320Y-52749727D01*
X109375363Y-52984759D01*
X109575241Y-53184637D01*
X109810273Y-53341680D01*
X110071426Y-53449853D01*
X110348665Y-53505000D01*
X110631335Y-53505000D01*
X110908574Y-53449853D01*
X111169727Y-53341680D01*
X111404759Y-53184637D01*
X111604637Y-52984759D01*
X111761680Y-52749727D01*
X111869853Y-52488574D01*
X111925000Y-52211335D01*
X111925000Y-52205551D01*
X113579282Y-53859834D01*
X113603932Y-53889870D01*
X113633968Y-53914520D01*
X113633971Y-53914523D01*
X113723828Y-53988266D01*
X113723829Y-53988267D01*
X113860618Y-54061383D01*
X114009044Y-54106407D01*
X114124728Y-54117801D01*
X114124736Y-54117801D01*
X114163401Y-54121609D01*
X114202066Y-54117801D01*
X126081936Y-54117801D01*
X126120599Y-54121609D01*
X126159262Y-54117801D01*
X126159272Y-54117801D01*
X126274956Y-54106407D01*
X126423382Y-54061383D01*
X126560171Y-53988267D01*
X126680068Y-53889870D01*
X126704726Y-53859824D01*
X126951551Y-53613000D01*
X126974939Y-53613000D01*
X127174898Y-53573226D01*
X127363256Y-53495205D01*
X127532774Y-53381937D01*
X127676937Y-53237774D01*
X127790205Y-53068256D01*
X127868226Y-52879898D01*
X127908000Y-52679939D01*
X127908000Y-52476061D01*
X127868226Y-52276102D01*
X127790205Y-52087744D01*
X127676937Y-51918226D01*
X127532774Y-51774063D01*
X127363256Y-51660795D01*
X127174898Y-51582774D01*
X126974939Y-51543000D01*
X126771061Y-51543000D01*
X126732500Y-51550670D01*
X126725226Y-51514102D01*
X126647205Y-51325744D01*
X126533937Y-51156226D01*
X126389774Y-51012063D01*
X126220256Y-50898795D01*
X126031898Y-50820774D01*
X125831939Y-50781000D01*
X125628061Y-50781000D01*
X125622000Y-50782206D01*
X125622000Y-50698061D01*
X125582226Y-50498102D01*
X125504205Y-50309744D01*
X125390937Y-50140226D01*
X125246774Y-49996063D01*
X125077256Y-49882795D01*
X124888898Y-49804774D01*
X124688939Y-49765000D01*
X124665551Y-49765000D01*
X124155127Y-49254577D01*
X124130469Y-49224531D01*
X124010572Y-49126134D01*
X123873783Y-49053018D01*
X123725357Y-49007994D01*
X123609673Y-48996600D01*
X123609663Y-48996600D01*
X123571000Y-48992792D01*
X123532337Y-48996600D01*
X113198311Y-48996600D01*
X113181774Y-48980063D01*
X113012256Y-48866795D01*
X112823898Y-48788774D01*
X112623939Y-48749000D01*
X112420061Y-48749000D01*
X112220102Y-48788774D01*
X112031744Y-48866795D01*
X111862226Y-48980063D01*
X111718063Y-49124226D01*
X111604795Y-49293744D01*
X111526774Y-49482102D01*
X111510495Y-49563944D01*
X111277400Y-49330850D01*
X111277400Y-48189735D01*
X111404759Y-48104637D01*
X111604637Y-47904759D01*
X111761680Y-47669727D01*
X111869853Y-47408574D01*
X111925000Y-47131335D01*
X111925000Y-46848665D01*
X111869853Y-46571426D01*
X111761680Y-46310273D01*
X111604637Y-46075241D01*
X111404759Y-45875363D01*
X111169727Y-45718320D01*
X110908574Y-45610147D01*
X110631335Y-45555000D01*
X110348665Y-45555000D01*
X110071426Y-45610147D01*
X109810273Y-45718320D01*
X109575241Y-45875363D01*
X109375363Y-46075241D01*
X109218320Y-46310273D01*
X109110147Y-46571426D01*
X109055000Y-46848665D01*
X108448853Y-46848665D01*
X108269497Y-46774373D01*
X108069538Y-46734599D01*
X107865660Y-46734599D01*
X107665701Y-46774373D01*
X107477343Y-46852394D01*
X107413658Y-46894947D01*
X107339774Y-46821063D01*
X107170256Y-46707795D01*
X106981898Y-46629774D01*
X106781939Y-46590000D01*
X106578061Y-46590000D01*
X106378102Y-46629774D01*
X106189744Y-46707795D01*
X106023031Y-46819189D01*
X105882657Y-46725394D01*
X105694299Y-46647373D01*
X105494340Y-46607599D01*
X105290462Y-46607599D01*
X105090503Y-46647373D01*
X104902145Y-46725394D01*
X104732627Y-46838662D01*
X104588464Y-46982825D01*
X104475196Y-47152343D01*
X104397175Y-47340701D01*
X104357401Y-47540660D01*
X104195141Y-47540660D01*
X104249853Y-47408574D01*
X104305000Y-47131335D01*
X104305000Y-46848665D01*
X104249853Y-46571426D01*
X104141680Y-46310273D01*
X103984637Y-46075241D01*
X103784759Y-45875363D01*
X103549727Y-45718320D01*
X103288574Y-45610147D01*
X103011335Y-45555000D01*
X102728665Y-45555000D01*
X102451426Y-45610147D01*
X102190273Y-45718320D01*
X101955241Y-45875363D01*
X101755363Y-46075241D01*
X101598320Y-46310273D01*
X101490147Y-46571426D01*
X101435000Y-46848665D01*
X96685000Y-46848665D01*
X96629853Y-46571426D01*
X96521680Y-46310273D01*
X96364637Y-46075241D01*
X96164759Y-45875363D01*
X95929727Y-45718320D01*
X95668574Y-45610147D01*
X95391335Y-45555000D01*
X95108665Y-45555000D01*
X94831426Y-45610147D01*
X94570273Y-45718320D01*
X94335241Y-45875363D01*
X94135363Y-46075241D01*
X93978320Y-46310273D01*
X93870147Y-46571426D01*
X93815000Y-46848665D01*
X89065000Y-46848665D01*
X89035117Y-46698434D01*
X90750152Y-44983400D01*
X109305689Y-44983400D01*
X109322226Y-44999937D01*
X109491744Y-45113205D01*
X109680102Y-45191226D01*
X109880061Y-45231000D01*
X110083939Y-45231000D01*
X110283898Y-45191226D01*
X110472256Y-45113205D01*
X110641774Y-44999937D01*
X110785937Y-44855774D01*
X110899205Y-44686256D01*
X110977226Y-44497898D01*
X111017000Y-44297939D01*
X111017000Y-44094061D01*
X110977226Y-43894102D01*
X110899205Y-43705744D01*
X110785937Y-43536226D01*
X110641774Y-43392063D01*
X110472256Y-43278795D01*
X110283898Y-43200774D01*
X110083939Y-43161000D01*
X110029755Y-43161000D01*
X110049014Y-43150706D01*
X110275134Y-42965134D01*
X110460706Y-42739014D01*
X110490000Y-42684209D01*
X110519294Y-42739014D01*
X110704866Y-42965134D01*
X110930986Y-43150706D01*
X111188966Y-43288599D01*
X111468889Y-43373513D01*
X111687050Y-43395000D01*
X111832950Y-43395000D01*
X112051111Y-43373513D01*
X112331034Y-43288599D01*
X112589014Y-43150706D01*
X112815134Y-42965134D01*
X113000706Y-42739014D01*
X113138599Y-42481034D01*
X113223513Y-42201111D01*
X113252185Y-41910000D01*
X113223513Y-41618889D01*
X113138599Y-41338966D01*
X113000706Y-41080986D01*
X112983484Y-41060000D01*
X117891928Y-41060000D01*
X117891928Y-42760000D01*
X117904188Y-42884482D01*
X117940498Y-43004180D01*
X117999463Y-43114494D01*
X118078815Y-43211185D01*
X118175506Y-43290537D01*
X118285820Y-43349502D01*
X118405518Y-43385812D01*
X118530000Y-43398072D01*
X120230000Y-43398072D01*
X120354482Y-43385812D01*
X120474180Y-43349502D01*
X120584494Y-43290537D01*
X120681185Y-43211185D01*
X120760537Y-43114494D01*
X120819502Y-43004180D01*
X120840393Y-42935313D01*
X120864866Y-42965134D01*
X121090986Y-43150706D01*
X121348966Y-43288599D01*
X121628889Y-43373513D01*
X121847050Y-43395000D01*
X121992950Y-43395000D01*
X122211111Y-43373513D01*
X122491034Y-43288599D01*
X122749014Y-43150706D01*
X122975134Y-42965134D01*
X123160706Y-42739014D01*
X123195201Y-42674477D01*
X123264822Y-42791355D01*
X123459731Y-43007588D01*
X123693080Y-43181641D01*
X123955901Y-43306825D01*
X124103110Y-43351476D01*
X124333000Y-43230155D01*
X124333000Y-42037000D01*
X124587000Y-42037000D01*
X124587000Y-43230155D01*
X124816890Y-43351476D01*
X124964099Y-43306825D01*
X125226920Y-43181641D01*
X125460269Y-43007588D01*
X125655178Y-42791355D01*
X125730000Y-42665745D01*
X125804822Y-42791355D01*
X125999731Y-43007588D01*
X126233080Y-43181641D01*
X126495901Y-43306825D01*
X126643110Y-43351476D01*
X126873000Y-43230155D01*
X126873000Y-42037000D01*
X127127000Y-42037000D01*
X127127000Y-43230155D01*
X127356890Y-43351476D01*
X127504099Y-43306825D01*
X127766920Y-43181641D01*
X128000269Y-43007588D01*
X128195178Y-42791355D01*
X128344157Y-42541252D01*
X128441481Y-42266891D01*
X128320814Y-42037000D01*
X127127000Y-42037000D01*
X126873000Y-42037000D01*
X124587000Y-42037000D01*
X124333000Y-42037000D01*
X124313000Y-42037000D01*
X124313000Y-41783000D01*
X124333000Y-41783000D01*
X124333000Y-40589845D01*
X124587000Y-40589845D01*
X124587000Y-41783000D01*
X126873000Y-41783000D01*
X126873000Y-40589845D01*
X127127000Y-40589845D01*
X127127000Y-41783000D01*
X128320814Y-41783000D01*
X128441481Y-41553109D01*
X128344157Y-41278748D01*
X128195178Y-41028645D01*
X128000269Y-40812412D01*
X127766920Y-40638359D01*
X127504099Y-40513175D01*
X127356890Y-40468524D01*
X127127000Y-40589845D01*
X126873000Y-40589845D01*
X126643110Y-40468524D01*
X126495901Y-40513175D01*
X126233080Y-40638359D01*
X125999731Y-40812412D01*
X125804822Y-41028645D01*
X125730000Y-41154255D01*
X125655178Y-41028645D01*
X125460269Y-40812412D01*
X125226920Y-40638359D01*
X124964099Y-40513175D01*
X124816890Y-40468524D01*
X124587000Y-40589845D01*
X124333000Y-40589845D01*
X124103110Y-40468524D01*
X123955901Y-40513175D01*
X123693080Y-40638359D01*
X123459731Y-40812412D01*
X123264822Y-41028645D01*
X123195201Y-41145523D01*
X123160706Y-41080986D01*
X122975134Y-40854866D01*
X122749014Y-40669294D01*
X122491034Y-40531401D01*
X122211111Y-40446487D01*
X121992950Y-40425000D01*
X121847050Y-40425000D01*
X121628889Y-40446487D01*
X121348966Y-40531401D01*
X121090986Y-40669294D01*
X120864866Y-40854866D01*
X120840393Y-40884687D01*
X120819502Y-40815820D01*
X120760537Y-40705506D01*
X120681185Y-40608815D01*
X120584494Y-40529463D01*
X120474180Y-40470498D01*
X120354482Y-40434188D01*
X120230000Y-40421928D01*
X118530000Y-40421928D01*
X118405518Y-40434188D01*
X118285820Y-40470498D01*
X118175506Y-40529463D01*
X118078815Y-40608815D01*
X117999463Y-40705506D01*
X117940498Y-40815820D01*
X117904188Y-40935518D01*
X117891928Y-41060000D01*
X112983484Y-41060000D01*
X112815134Y-40854866D01*
X112589014Y-40669294D01*
X112331034Y-40531401D01*
X112051111Y-40446487D01*
X111832950Y-40425000D01*
X111687050Y-40425000D01*
X111468889Y-40446487D01*
X111188966Y-40531401D01*
X110930986Y-40669294D01*
X110704866Y-40854866D01*
X110519294Y-41080986D01*
X110490000Y-41135791D01*
X110460706Y-41080986D01*
X110275134Y-40854866D01*
X110049014Y-40669294D01*
X109791034Y-40531401D01*
X109511111Y-40446487D01*
X109292950Y-40425000D01*
X109147050Y-40425000D01*
X108928889Y-40446487D01*
X108648966Y-40531401D01*
X108390986Y-40669294D01*
X108164866Y-40854866D01*
X107979294Y-41080986D01*
X107950000Y-41135791D01*
X107920706Y-41080986D01*
X107735134Y-40854866D01*
X107509014Y-40669294D01*
X107251034Y-40531401D01*
X106971111Y-40446487D01*
X106752950Y-40425000D01*
X106607050Y-40425000D01*
X106388889Y-40446487D01*
X106108966Y-40531401D01*
X105850986Y-40669294D01*
X105624866Y-40854866D01*
X105439294Y-41080986D01*
X105410000Y-41135791D01*
X105380706Y-41080986D01*
X105195134Y-40854866D01*
X104969014Y-40669294D01*
X104711034Y-40531401D01*
X104431111Y-40446487D01*
X104212950Y-40425000D01*
X104067050Y-40425000D01*
X103848889Y-40446487D01*
X103568966Y-40531401D01*
X103310986Y-40669294D01*
X103084866Y-40854866D01*
X103060393Y-40884687D01*
X103039502Y-40815820D01*
X102980537Y-40705506D01*
X102901185Y-40608815D01*
X102804494Y-40529463D01*
X102694180Y-40470498D01*
X102574482Y-40434188D01*
X102450000Y-40421928D01*
X101885750Y-40425000D01*
X101727000Y-40583750D01*
X101727000Y-41783000D01*
X101747000Y-41783000D01*
X101747000Y-42037000D01*
X101727000Y-42037000D01*
X101727000Y-43236250D01*
X101885750Y-43395000D01*
X102450000Y-43398072D01*
X102574482Y-43385812D01*
X102694180Y-43349502D01*
X102804494Y-43290537D01*
X102901185Y-43211185D01*
X102980537Y-43114494D01*
X103039502Y-43004180D01*
X103060393Y-42935313D01*
X103084866Y-42965134D01*
X103310986Y-43150706D01*
X103568966Y-43288599D01*
X103848889Y-43373513D01*
X104067050Y-43395000D01*
X104212950Y-43395000D01*
X104431111Y-43373513D01*
X104711034Y-43288599D01*
X104969014Y-43150706D01*
X105195134Y-42965134D01*
X105380706Y-42739014D01*
X105410000Y-42684209D01*
X105439294Y-42739014D01*
X105624866Y-42965134D01*
X105850986Y-43150706D01*
X106108966Y-43288599D01*
X106388889Y-43373513D01*
X106607050Y-43395000D01*
X106752950Y-43395000D01*
X106971111Y-43373513D01*
X107251034Y-43288599D01*
X107509014Y-43150706D01*
X107735134Y-42965134D01*
X107920706Y-42739014D01*
X107950000Y-42684209D01*
X107979294Y-42739014D01*
X108164866Y-42965134D01*
X108390986Y-43150706D01*
X108648966Y-43288599D01*
X108928889Y-43373513D01*
X109147050Y-43395000D01*
X109292950Y-43395000D01*
X109322167Y-43392122D01*
X109305689Y-43408600D01*
X90462665Y-43408600D01*
X90424000Y-43404792D01*
X90385335Y-43408600D01*
X90385327Y-43408600D01*
X90269643Y-43419994D01*
X90121217Y-43465018D01*
X89984427Y-43538134D01*
X89894570Y-43611878D01*
X89894567Y-43611881D01*
X89864531Y-43636531D01*
X89839881Y-43666567D01*
X87921566Y-45584883D01*
X87771335Y-45555000D01*
X87488665Y-45555000D01*
X87211426Y-45610147D01*
X86950273Y-45718320D01*
X86715241Y-45875363D01*
X86515363Y-46075241D01*
X86358320Y-46310273D01*
X86250147Y-46571426D01*
X86195000Y-46848665D01*
X81445000Y-46848665D01*
X81389853Y-46571426D01*
X81281680Y-46310273D01*
X81124637Y-46075241D01*
X80924759Y-45875363D01*
X80689727Y-45718320D01*
X80428574Y-45610147D01*
X80151335Y-45555000D01*
X79868665Y-45555000D01*
X79718434Y-45584883D01*
X78308128Y-44174577D01*
X78283469Y-44144531D01*
X78163572Y-44046134D01*
X78026783Y-43973018D01*
X77878357Y-43927994D01*
X77762673Y-43916600D01*
X77762663Y-43916600D01*
X77724000Y-43912792D01*
X77685337Y-43916600D01*
X72304311Y-43916600D01*
X72287774Y-43900063D01*
X72118256Y-43786795D01*
X71929898Y-43708774D01*
X71729939Y-43669000D01*
X71526061Y-43669000D01*
X71326102Y-43708774D01*
X71137744Y-43786795D01*
X70968226Y-43900063D01*
X70824063Y-44044226D01*
X70710795Y-44213744D01*
X70632774Y-44402102D01*
X70593000Y-44602061D01*
X34696000Y-44602061D01*
X34696000Y-42760000D01*
X54391928Y-42760000D01*
X54404188Y-42884482D01*
X54440498Y-43004180D01*
X54499463Y-43114494D01*
X54578815Y-43211185D01*
X54675506Y-43290537D01*
X54785820Y-43349502D01*
X54905518Y-43385812D01*
X55030000Y-43398072D01*
X55594250Y-43395000D01*
X55753000Y-43236250D01*
X55753000Y-42037000D01*
X54553750Y-42037000D01*
X54395000Y-42195750D01*
X54391928Y-42760000D01*
X34696000Y-42760000D01*
X34696000Y-41060000D01*
X54391928Y-41060000D01*
X54395000Y-41624250D01*
X54553750Y-41783000D01*
X55753000Y-41783000D01*
X55753000Y-40583750D01*
X56007000Y-40583750D01*
X56007000Y-41783000D01*
X56027000Y-41783000D01*
X56027000Y-42037000D01*
X56007000Y-42037000D01*
X56007000Y-43236250D01*
X56165750Y-43395000D01*
X56730000Y-43398072D01*
X56854482Y-43385812D01*
X56974180Y-43349502D01*
X57084494Y-43290537D01*
X57181185Y-43211185D01*
X57260537Y-43114494D01*
X57319502Y-43004180D01*
X57340393Y-42935313D01*
X57364866Y-42965134D01*
X57590986Y-43150706D01*
X57848966Y-43288599D01*
X58128889Y-43373513D01*
X58347050Y-43395000D01*
X58492950Y-43395000D01*
X58711111Y-43373513D01*
X58991034Y-43288599D01*
X59249014Y-43150706D01*
X59475134Y-42965134D01*
X59660706Y-42739014D01*
X59690000Y-42684209D01*
X59719294Y-42739014D01*
X59904866Y-42965134D01*
X60130986Y-43150706D01*
X60388966Y-43288599D01*
X60668889Y-43373513D01*
X60887050Y-43395000D01*
X61032950Y-43395000D01*
X61251111Y-43373513D01*
X61531034Y-43288599D01*
X61789014Y-43150706D01*
X62015134Y-42965134D01*
X62200706Y-42739014D01*
X62230000Y-42684209D01*
X62259294Y-42739014D01*
X62444866Y-42965134D01*
X62670986Y-43150706D01*
X62928966Y-43288599D01*
X63208889Y-43373513D01*
X63427050Y-43395000D01*
X63572950Y-43395000D01*
X63791111Y-43373513D01*
X64071034Y-43288599D01*
X64329014Y-43150706D01*
X64555134Y-42965134D01*
X64740706Y-42739014D01*
X64770000Y-42684209D01*
X64799294Y-42739014D01*
X64984866Y-42965134D01*
X65210986Y-43150706D01*
X65468966Y-43288599D01*
X65748889Y-43373513D01*
X65967050Y-43395000D01*
X66112950Y-43395000D01*
X66331111Y-43373513D01*
X66611034Y-43288599D01*
X66869014Y-43150706D01*
X67095134Y-42965134D01*
X67263483Y-42760000D01*
X69631928Y-42760000D01*
X69644188Y-42884482D01*
X69680498Y-43004180D01*
X69739463Y-43114494D01*
X69818815Y-43211185D01*
X69915506Y-43290537D01*
X70025820Y-43349502D01*
X70145518Y-43385812D01*
X70270000Y-43398072D01*
X70834250Y-43395000D01*
X70993000Y-43236250D01*
X70993000Y-42037000D01*
X69793750Y-42037000D01*
X69635000Y-42195750D01*
X69631928Y-42760000D01*
X67263483Y-42760000D01*
X67280706Y-42739014D01*
X67418599Y-42481034D01*
X67503513Y-42201111D01*
X67532185Y-41910000D01*
X67503513Y-41618889D01*
X67418599Y-41338966D01*
X67280706Y-41080986D01*
X67263484Y-41060000D01*
X69631928Y-41060000D01*
X69635000Y-41624250D01*
X69793750Y-41783000D01*
X70993000Y-41783000D01*
X70993000Y-40583750D01*
X71247000Y-40583750D01*
X71247000Y-41783000D01*
X71267000Y-41783000D01*
X71267000Y-42037000D01*
X71247000Y-42037000D01*
X71247000Y-43236250D01*
X71405750Y-43395000D01*
X71970000Y-43398072D01*
X72094482Y-43385812D01*
X72214180Y-43349502D01*
X72324494Y-43290537D01*
X72421185Y-43211185D01*
X72500537Y-43114494D01*
X72559502Y-43004180D01*
X72580393Y-42935313D01*
X72604866Y-42965134D01*
X72830986Y-43150706D01*
X73088966Y-43288599D01*
X73368889Y-43373513D01*
X73587050Y-43395000D01*
X73732950Y-43395000D01*
X73951111Y-43373513D01*
X74231034Y-43288599D01*
X74489014Y-43150706D01*
X74715134Y-42965134D01*
X74900706Y-42739014D01*
X74930000Y-42684209D01*
X74959294Y-42739014D01*
X75144866Y-42965134D01*
X75370986Y-43150706D01*
X75628966Y-43288599D01*
X75908889Y-43373513D01*
X76127050Y-43395000D01*
X76272950Y-43395000D01*
X76491111Y-43373513D01*
X76771034Y-43288599D01*
X77029014Y-43150706D01*
X77255134Y-42965134D01*
X77440706Y-42739014D01*
X77470000Y-42684209D01*
X77499294Y-42739014D01*
X77684866Y-42965134D01*
X77910986Y-43150706D01*
X78168966Y-43288599D01*
X78448889Y-43373513D01*
X78667050Y-43395000D01*
X78812950Y-43395000D01*
X79031111Y-43373513D01*
X79311034Y-43288599D01*
X79569014Y-43150706D01*
X79795134Y-42965134D01*
X79980706Y-42739014D01*
X80010000Y-42684209D01*
X80039294Y-42739014D01*
X80224866Y-42965134D01*
X80450986Y-43150706D01*
X80708966Y-43288599D01*
X80988889Y-43373513D01*
X81207050Y-43395000D01*
X81352950Y-43395000D01*
X81571111Y-43373513D01*
X81851034Y-43288599D01*
X82109014Y-43150706D01*
X82335134Y-42965134D01*
X82503483Y-42760000D01*
X84871928Y-42760000D01*
X84884188Y-42884482D01*
X84920498Y-43004180D01*
X84979463Y-43114494D01*
X85058815Y-43211185D01*
X85155506Y-43290537D01*
X85265820Y-43349502D01*
X85385518Y-43385812D01*
X85510000Y-43398072D01*
X86074250Y-43395000D01*
X86233000Y-43236250D01*
X86233000Y-42037000D01*
X85033750Y-42037000D01*
X84875000Y-42195750D01*
X84871928Y-42760000D01*
X82503483Y-42760000D01*
X82520706Y-42739014D01*
X82658599Y-42481034D01*
X82743513Y-42201111D01*
X82772185Y-41910000D01*
X82743513Y-41618889D01*
X82658599Y-41338966D01*
X82520706Y-41080986D01*
X82503484Y-41060000D01*
X84871928Y-41060000D01*
X84875000Y-41624250D01*
X85033750Y-41783000D01*
X86233000Y-41783000D01*
X86233000Y-40583750D01*
X86487000Y-40583750D01*
X86487000Y-41783000D01*
X86507000Y-41783000D01*
X86507000Y-42037000D01*
X86487000Y-42037000D01*
X86487000Y-43236250D01*
X86645750Y-43395000D01*
X87210000Y-43398072D01*
X87334482Y-43385812D01*
X87454180Y-43349502D01*
X87564494Y-43290537D01*
X87661185Y-43211185D01*
X87740537Y-43114494D01*
X87799502Y-43004180D01*
X87820393Y-42935313D01*
X87844866Y-42965134D01*
X88070986Y-43150706D01*
X88328966Y-43288599D01*
X88608889Y-43373513D01*
X88827050Y-43395000D01*
X88972950Y-43395000D01*
X89191111Y-43373513D01*
X89471034Y-43288599D01*
X89729014Y-43150706D01*
X89955134Y-42965134D01*
X90140706Y-42739014D01*
X90170000Y-42684209D01*
X90199294Y-42739014D01*
X90384866Y-42965134D01*
X90610986Y-43150706D01*
X90868966Y-43288599D01*
X91148889Y-43373513D01*
X91367050Y-43395000D01*
X91512950Y-43395000D01*
X91731111Y-43373513D01*
X92011034Y-43288599D01*
X92269014Y-43150706D01*
X92495134Y-42965134D01*
X92680706Y-42739014D01*
X92710000Y-42684209D01*
X92739294Y-42739014D01*
X92924866Y-42965134D01*
X93150986Y-43150706D01*
X93408966Y-43288599D01*
X93688889Y-43373513D01*
X93907050Y-43395000D01*
X94052950Y-43395000D01*
X94271111Y-43373513D01*
X94551034Y-43288599D01*
X94809014Y-43150706D01*
X95035134Y-42965134D01*
X95220706Y-42739014D01*
X95250000Y-42684209D01*
X95279294Y-42739014D01*
X95464866Y-42965134D01*
X95690986Y-43150706D01*
X95948966Y-43288599D01*
X96228889Y-43373513D01*
X96447050Y-43395000D01*
X96592950Y-43395000D01*
X96811111Y-43373513D01*
X97091034Y-43288599D01*
X97349014Y-43150706D01*
X97575134Y-42965134D01*
X97743483Y-42760000D01*
X100111928Y-42760000D01*
X100124188Y-42884482D01*
X100160498Y-43004180D01*
X100219463Y-43114494D01*
X100298815Y-43211185D01*
X100395506Y-43290537D01*
X100505820Y-43349502D01*
X100625518Y-43385812D01*
X100750000Y-43398072D01*
X101314250Y-43395000D01*
X101473000Y-43236250D01*
X101473000Y-42037000D01*
X100273750Y-42037000D01*
X100115000Y-42195750D01*
X100111928Y-42760000D01*
X97743483Y-42760000D01*
X97760706Y-42739014D01*
X97898599Y-42481034D01*
X97983513Y-42201111D01*
X98012185Y-41910000D01*
X97983513Y-41618889D01*
X97898599Y-41338966D01*
X97760706Y-41080986D01*
X97743484Y-41060000D01*
X100111928Y-41060000D01*
X100115000Y-41624250D01*
X100273750Y-41783000D01*
X101473000Y-41783000D01*
X101473000Y-40583750D01*
X101314250Y-40425000D01*
X100750000Y-40421928D01*
X100625518Y-40434188D01*
X100505820Y-40470498D01*
X100395506Y-40529463D01*
X100298815Y-40608815D01*
X100219463Y-40705506D01*
X100160498Y-40815820D01*
X100124188Y-40935518D01*
X100111928Y-41060000D01*
X97743484Y-41060000D01*
X97575134Y-40854866D01*
X97349014Y-40669294D01*
X97091034Y-40531401D01*
X96811111Y-40446487D01*
X96592950Y-40425000D01*
X96447050Y-40425000D01*
X96228889Y-40446487D01*
X95948966Y-40531401D01*
X95690986Y-40669294D01*
X95464866Y-40854866D01*
X95279294Y-41080986D01*
X95250000Y-41135791D01*
X95220706Y-41080986D01*
X95035134Y-40854866D01*
X94809014Y-40669294D01*
X94551034Y-40531401D01*
X94271111Y-40446487D01*
X94052950Y-40425000D01*
X93907050Y-40425000D01*
X93688889Y-40446487D01*
X93408966Y-40531401D01*
X93150986Y-40669294D01*
X92924866Y-40854866D01*
X92739294Y-41080986D01*
X92710000Y-41135791D01*
X92680706Y-41080986D01*
X92495134Y-40854866D01*
X92269014Y-40669294D01*
X92011034Y-40531401D01*
X91731111Y-40446487D01*
X91512950Y-40425000D01*
X91367050Y-40425000D01*
X91148889Y-40446487D01*
X90868966Y-40531401D01*
X90610986Y-40669294D01*
X90384866Y-40854866D01*
X90199294Y-41080986D01*
X90170000Y-41135791D01*
X90140706Y-41080986D01*
X89955134Y-40854866D01*
X89729014Y-40669294D01*
X89471034Y-40531401D01*
X89191111Y-40446487D01*
X88972950Y-40425000D01*
X88827050Y-40425000D01*
X88608889Y-40446487D01*
X88328966Y-40531401D01*
X88070986Y-40669294D01*
X87844866Y-40854866D01*
X87820393Y-40884687D01*
X87799502Y-40815820D01*
X87740537Y-40705506D01*
X87661185Y-40608815D01*
X87564494Y-40529463D01*
X87454180Y-40470498D01*
X87334482Y-40434188D01*
X87210000Y-40421928D01*
X86645750Y-40425000D01*
X86487000Y-40583750D01*
X86233000Y-40583750D01*
X86074250Y-40425000D01*
X85510000Y-40421928D01*
X85385518Y-40434188D01*
X85265820Y-40470498D01*
X85155506Y-40529463D01*
X85058815Y-40608815D01*
X84979463Y-40705506D01*
X84920498Y-40815820D01*
X84884188Y-40935518D01*
X84871928Y-41060000D01*
X82503484Y-41060000D01*
X82335134Y-40854866D01*
X82109014Y-40669294D01*
X81851034Y-40531401D01*
X81571111Y-40446487D01*
X81352950Y-40425000D01*
X81207050Y-40425000D01*
X80988889Y-40446487D01*
X80708966Y-40531401D01*
X80450986Y-40669294D01*
X80224866Y-40854866D01*
X80039294Y-41080986D01*
X80010000Y-41135791D01*
X79980706Y-41080986D01*
X79795134Y-40854866D01*
X79569014Y-40669294D01*
X79311034Y-40531401D01*
X79031111Y-40446487D01*
X78812950Y-40425000D01*
X78667050Y-40425000D01*
X78448889Y-40446487D01*
X78168966Y-40531401D01*
X77910986Y-40669294D01*
X77684866Y-40854866D01*
X77499294Y-41080986D01*
X77470000Y-41135791D01*
X77440706Y-41080986D01*
X77255134Y-40854866D01*
X77029014Y-40669294D01*
X76771034Y-40531401D01*
X76491111Y-40446487D01*
X76272950Y-40425000D01*
X76127050Y-40425000D01*
X75908889Y-40446487D01*
X75628966Y-40531401D01*
X75370986Y-40669294D01*
X75144866Y-40854866D01*
X74959294Y-41080986D01*
X74930000Y-41135791D01*
X74900706Y-41080986D01*
X74715134Y-40854866D01*
X74489014Y-40669294D01*
X74231034Y-40531401D01*
X73951111Y-40446487D01*
X73732950Y-40425000D01*
X73587050Y-40425000D01*
X73368889Y-40446487D01*
X73088966Y-40531401D01*
X72830986Y-40669294D01*
X72604866Y-40854866D01*
X72580393Y-40884687D01*
X72559502Y-40815820D01*
X72500537Y-40705506D01*
X72421185Y-40608815D01*
X72324494Y-40529463D01*
X72214180Y-40470498D01*
X72094482Y-40434188D01*
X71970000Y-40421928D01*
X71405750Y-40425000D01*
X71247000Y-40583750D01*
X70993000Y-40583750D01*
X70834250Y-40425000D01*
X70270000Y-40421928D01*
X70145518Y-40434188D01*
X70025820Y-40470498D01*
X69915506Y-40529463D01*
X69818815Y-40608815D01*
X69739463Y-40705506D01*
X69680498Y-40815820D01*
X69644188Y-40935518D01*
X69631928Y-41060000D01*
X67263484Y-41060000D01*
X67095134Y-40854866D01*
X66869014Y-40669294D01*
X66611034Y-40531401D01*
X66331111Y-40446487D01*
X66112950Y-40425000D01*
X65967050Y-40425000D01*
X65748889Y-40446487D01*
X65468966Y-40531401D01*
X65210986Y-40669294D01*
X64984866Y-40854866D01*
X64799294Y-41080986D01*
X64770000Y-41135791D01*
X64740706Y-41080986D01*
X64555134Y-40854866D01*
X64329014Y-40669294D01*
X64071034Y-40531401D01*
X63791111Y-40446487D01*
X63572950Y-40425000D01*
X63427050Y-40425000D01*
X63208889Y-40446487D01*
X62928966Y-40531401D01*
X62670986Y-40669294D01*
X62444866Y-40854866D01*
X62259294Y-41080986D01*
X62230000Y-41135791D01*
X62200706Y-41080986D01*
X62015134Y-40854866D01*
X61789014Y-40669294D01*
X61531034Y-40531401D01*
X61251111Y-40446487D01*
X61032950Y-40425000D01*
X60887050Y-40425000D01*
X60668889Y-40446487D01*
X60388966Y-40531401D01*
X60130986Y-40669294D01*
X59904866Y-40854866D01*
X59719294Y-41080986D01*
X59690000Y-41135791D01*
X59660706Y-41080986D01*
X59475134Y-40854866D01*
X59249014Y-40669294D01*
X58991034Y-40531401D01*
X58711111Y-40446487D01*
X58492950Y-40425000D01*
X58347050Y-40425000D01*
X58128889Y-40446487D01*
X57848966Y-40531401D01*
X57590986Y-40669294D01*
X57364866Y-40854866D01*
X57340393Y-40884687D01*
X57319502Y-40815820D01*
X57260537Y-40705506D01*
X57181185Y-40608815D01*
X57084494Y-40529463D01*
X56974180Y-40470498D01*
X56854482Y-40434188D01*
X56730000Y-40421928D01*
X56165750Y-40425000D01*
X56007000Y-40583750D01*
X55753000Y-40583750D01*
X55594250Y-40425000D01*
X55030000Y-40421928D01*
X54905518Y-40434188D01*
X54785820Y-40470498D01*
X54675506Y-40529463D01*
X54578815Y-40608815D01*
X54499463Y-40705506D01*
X54440498Y-40815820D01*
X54404188Y-40935518D01*
X54391928Y-41060000D01*
X34696000Y-41060000D01*
X34696000Y-37966698D01*
X35105400Y-37966698D01*
X35105400Y-38436502D01*
X35197054Y-38897279D01*
X35376840Y-39331321D01*
X35637850Y-39721949D01*
X35970051Y-40054150D01*
X36360679Y-40315160D01*
X36794721Y-40494946D01*
X37255498Y-40586600D01*
X37725302Y-40586600D01*
X38186079Y-40494946D01*
X38620121Y-40315160D01*
X39010749Y-40054150D01*
X39342950Y-39721949D01*
X39603960Y-39331321D01*
X39783746Y-38897279D01*
X39875400Y-38436502D01*
X39875400Y-37966698D01*
X39855191Y-37865098D01*
X127663000Y-37865098D01*
X127663000Y-38334902D01*
X127754654Y-38795679D01*
X127934440Y-39229721D01*
X128195450Y-39620349D01*
X128527651Y-39952550D01*
X128918279Y-40213560D01*
X129352321Y-40393346D01*
X129813098Y-40485000D01*
X130282902Y-40485000D01*
X130743679Y-40393346D01*
X131177721Y-40213560D01*
X131568349Y-39952550D01*
X131900550Y-39620349D01*
X132161560Y-39229721D01*
X132341346Y-38795679D01*
X132433000Y-38334902D01*
X132433000Y-37865098D01*
X132341346Y-37404321D01*
X132161560Y-36970279D01*
X131900550Y-36579651D01*
X131568349Y-36247450D01*
X131177721Y-35986440D01*
X130743679Y-35806654D01*
X130282902Y-35715000D01*
X129813098Y-35715000D01*
X129352321Y-35806654D01*
X128918279Y-35986440D01*
X128527651Y-36247450D01*
X128195450Y-36579651D01*
X127934440Y-36970279D01*
X127754654Y-37404321D01*
X127663000Y-37865098D01*
X39855191Y-37865098D01*
X39783746Y-37505921D01*
X39603960Y-37071879D01*
X39342950Y-36681251D01*
X39010749Y-36349050D01*
X38620121Y-36088040D01*
X38186079Y-35908254D01*
X37725302Y-35816600D01*
X37255498Y-35816600D01*
X36794721Y-35908254D01*
X36360679Y-36088040D01*
X35970051Y-36349050D01*
X35637850Y-36681251D01*
X35376840Y-37071879D01*
X35197054Y-37505921D01*
X35105400Y-37966698D01*
X34696000Y-37966698D01*
X34696000Y-35204000D01*
X132944001Y-35204000D01*
X132944001Y-45778007D01*
X132944001Y-45778007D01*
G37*
X132944001Y-45778007D02*
X132909014Y-45749294D01*
X132651034Y-45611401D01*
X132371111Y-45526487D01*
X132152950Y-45505000D01*
X132007050Y-45505000D01*
X131788889Y-45526487D01*
X131508966Y-45611401D01*
X131250986Y-45749294D01*
X131024866Y-45934866D01*
X130839294Y-46160986D01*
X130810000Y-46215791D01*
X130780706Y-46160986D01*
X130595134Y-45934866D01*
X130369014Y-45749294D01*
X130111034Y-45611401D01*
X129831111Y-45526487D01*
X129612950Y-45505000D01*
X129467050Y-45505000D01*
X129248889Y-45526487D01*
X128968966Y-45611401D01*
X128710986Y-45749294D01*
X128484866Y-45934866D01*
X128299294Y-46160986D01*
X128270000Y-46215791D01*
X128240706Y-46160986D01*
X128055134Y-45934866D01*
X127829014Y-45749294D01*
X127571034Y-45611401D01*
X127291111Y-45526487D01*
X127072950Y-45505000D01*
X126927050Y-45505000D01*
X126708889Y-45526487D01*
X126428966Y-45611401D01*
X126170986Y-45749294D01*
X125944866Y-45934866D01*
X125920393Y-45964687D01*
X125899502Y-45895820D01*
X125840537Y-45785506D01*
X125761185Y-45688815D01*
X125664494Y-45609463D01*
X125554180Y-45550498D01*
X125434482Y-45514188D01*
X125310000Y-45501928D01*
X123610000Y-45501928D01*
X123485518Y-45514188D01*
X123365820Y-45550498D01*
X123255506Y-45609463D01*
X123158815Y-45688815D01*
X123079463Y-45785506D01*
X123020498Y-45895820D01*
X122999607Y-45964687D01*
X122975134Y-45934866D01*
X122749014Y-45749294D01*
X122491034Y-45611401D01*
X122211111Y-45526487D01*
X121992950Y-45505000D01*
X121847050Y-45505000D01*
X121628889Y-45526487D01*
X121348966Y-45611401D01*
X121090986Y-45749294D01*
X120864866Y-45934866D01*
X120679294Y-46160986D01*
X120650000Y-46215791D01*
X120620706Y-46160986D01*
X120435134Y-45934866D01*
X120209014Y-45749294D01*
X119951034Y-45611401D01*
X119671111Y-45526487D01*
X119452950Y-45505000D01*
X119307050Y-45505000D01*
X119088889Y-45526487D01*
X118808966Y-45611401D01*
X118550986Y-45749294D01*
X118324866Y-45934866D01*
X118139294Y-46160986D01*
X118110000Y-46215791D01*
X118080706Y-46160986D01*
X117895134Y-45934866D01*
X117669014Y-45749294D01*
X117411034Y-45611401D01*
X117131111Y-45526487D01*
X116912950Y-45505000D01*
X116767050Y-45505000D01*
X116548889Y-45526487D01*
X116268966Y-45611401D01*
X116010986Y-45749294D01*
X115784866Y-45934866D01*
X115760393Y-45964687D01*
X115739502Y-45895820D01*
X115680537Y-45785506D01*
X115601185Y-45688815D01*
X115504494Y-45609463D01*
X115394180Y-45550498D01*
X115274482Y-45514188D01*
X115150000Y-45501928D01*
X113450000Y-45501928D01*
X113325518Y-45514188D01*
X113205820Y-45550498D01*
X113095506Y-45609463D01*
X112998815Y-45688815D01*
X112919463Y-45785506D01*
X112860498Y-45895820D01*
X112824188Y-46015518D01*
X112811928Y-46140000D01*
X112811928Y-47840000D01*
X112824188Y-47964482D01*
X112860498Y-48084180D01*
X112919463Y-48194494D01*
X112998815Y-48291185D01*
X113095506Y-48370537D01*
X113205820Y-48429502D01*
X113325518Y-48465812D01*
X113450000Y-48478072D01*
X115150000Y-48478072D01*
X115274482Y-48465812D01*
X115394180Y-48429502D01*
X115504494Y-48370537D01*
X115601185Y-48291185D01*
X115680537Y-48194494D01*
X115739502Y-48084180D01*
X115760393Y-48015313D01*
X115784866Y-48045134D01*
X116010986Y-48230706D01*
X116268966Y-48368599D01*
X116548889Y-48453513D01*
X116767050Y-48475000D01*
X116912950Y-48475000D01*
X117131111Y-48453513D01*
X117411034Y-48368599D01*
X117669014Y-48230706D01*
X117895134Y-48045134D01*
X118080706Y-47819014D01*
X118110000Y-47764209D01*
X118139294Y-47819014D01*
X118324866Y-48045134D01*
X118550986Y-48230706D01*
X118808966Y-48368599D01*
X119088889Y-48453513D01*
X119307050Y-48475000D01*
X119452950Y-48475000D01*
X119671111Y-48453513D01*
X119951034Y-48368599D01*
X120209014Y-48230706D01*
X120435134Y-48045134D01*
X120620706Y-47819014D01*
X120650000Y-47764209D01*
X120679294Y-47819014D01*
X120864866Y-48045134D01*
X121090986Y-48230706D01*
X121348966Y-48368599D01*
X121628889Y-48453513D01*
X121847050Y-48475000D01*
X121992950Y-48475000D01*
X122211111Y-48453513D01*
X122491034Y-48368599D01*
X122749014Y-48230706D01*
X122975134Y-48045134D01*
X122999607Y-48015313D01*
X123020498Y-48084180D01*
X123079463Y-48194494D01*
X123158815Y-48291185D01*
X123255506Y-48370537D01*
X123365820Y-48429502D01*
X123485518Y-48465812D01*
X123610000Y-48478072D01*
X125310000Y-48478072D01*
X125434482Y-48465812D01*
X125554180Y-48429502D01*
X125664494Y-48370537D01*
X125761185Y-48291185D01*
X125840537Y-48194494D01*
X125899502Y-48084180D01*
X125920393Y-48015313D01*
X125944866Y-48045134D01*
X126170986Y-48230706D01*
X126428966Y-48368599D01*
X126708889Y-48453513D01*
X126927050Y-48475000D01*
X127072950Y-48475000D01*
X127291111Y-48453513D01*
X127571034Y-48368599D01*
X127829014Y-48230706D01*
X128055134Y-48045134D01*
X128240706Y-47819014D01*
X128270000Y-47764209D01*
X128299294Y-47819014D01*
X128484866Y-48045134D01*
X128710986Y-48230706D01*
X128968966Y-48368599D01*
X129248889Y-48453513D01*
X129467050Y-48475000D01*
X129612950Y-48475000D01*
X129831111Y-48453513D01*
X130111034Y-48368599D01*
X130369014Y-48230706D01*
X130595134Y-48045134D01*
X130780706Y-47819014D01*
X130810000Y-47764209D01*
X130839294Y-47819014D01*
X131024866Y-48045134D01*
X131250986Y-48230706D01*
X131508966Y-48368599D01*
X131788889Y-48453513D01*
X132007050Y-48475000D01*
X132152950Y-48475000D01*
X132371111Y-48453513D01*
X132651034Y-48368599D01*
X132909014Y-48230706D01*
X132944001Y-48201993D01*
X132944000Y-57376392D01*
X132928527Y-57391865D01*
X132850937Y-57142831D01*
X132586960Y-57016969D01*
X132303501Y-56945025D01*
X132011453Y-56929763D01*
X131722039Y-56971770D01*
X131446381Y-57069432D01*
X131309063Y-57142831D01*
X131231472Y-57391867D01*
X132080000Y-58240395D01*
X132094143Y-58226253D01*
X132273748Y-58405858D01*
X132259605Y-58420000D01*
X132273748Y-58434143D01*
X132094143Y-58613748D01*
X132080000Y-58599605D01*
X131231472Y-59448133D01*
X131309063Y-59697169D01*
X131573040Y-59823031D01*
X131856499Y-59894975D01*
X132148547Y-59910237D01*
X132437961Y-59868230D01*
X132713619Y-59770568D01*
X132850937Y-59697169D01*
X132928527Y-59448135D01*
X132944000Y-59463608D01*
X132944000Y-67536392D01*
X132928527Y-67551865D01*
X132850937Y-67302831D01*
X132586960Y-67176969D01*
X132303501Y-67105025D01*
X132011453Y-67089763D01*
X131722039Y-67131770D01*
X131446381Y-67229432D01*
X131309063Y-67302831D01*
X131231472Y-67551867D01*
X132080000Y-68400395D01*
X132094143Y-68386253D01*
X132273748Y-68565858D01*
X132259605Y-68580000D01*
X132273748Y-68594143D01*
X132094143Y-68773748D01*
X132080000Y-68759605D01*
X131231472Y-69608133D01*
X131309063Y-69857169D01*
X131573040Y-69983031D01*
X131856499Y-70054975D01*
X132148547Y-70070237D01*
X132437961Y-70028230D01*
X132713619Y-69930568D01*
X132850937Y-69857169D01*
X132928527Y-69608135D01*
X132944000Y-69623608D01*
X132944000Y-78080000D01*
X34696000Y-78080000D01*
X34696000Y-75050698D01*
X35105400Y-75050698D01*
X35105400Y-75520502D01*
X35197054Y-75981279D01*
X35376840Y-76415321D01*
X35637850Y-76805949D01*
X35970051Y-77138150D01*
X36360679Y-77399160D01*
X36794721Y-77578946D01*
X37255498Y-77670600D01*
X37725302Y-77670600D01*
X38186079Y-77578946D01*
X38620121Y-77399160D01*
X39010749Y-77138150D01*
X39342950Y-76805949D01*
X39603960Y-76415321D01*
X39783746Y-75981279D01*
X39875400Y-75520502D01*
X39875400Y-75050698D01*
X127663000Y-75050698D01*
X127663000Y-75520502D01*
X127754654Y-75981279D01*
X127934440Y-76415321D01*
X128195450Y-76805949D01*
X128527651Y-77138150D01*
X128918279Y-77399160D01*
X129352321Y-77578946D01*
X129813098Y-77670600D01*
X130282902Y-77670600D01*
X130743679Y-77578946D01*
X131177721Y-77399160D01*
X131568349Y-77138150D01*
X131900550Y-76805949D01*
X132161560Y-76415321D01*
X132341346Y-75981279D01*
X132433000Y-75520502D01*
X132433000Y-75050698D01*
X132341346Y-74589921D01*
X132161560Y-74155879D01*
X131900550Y-73765251D01*
X131568349Y-73433050D01*
X131177721Y-73172040D01*
X130743679Y-72992254D01*
X130282902Y-72900600D01*
X129813098Y-72900600D01*
X129352321Y-72992254D01*
X128918279Y-73172040D01*
X128527651Y-73433050D01*
X128195450Y-73765251D01*
X127934440Y-74155879D01*
X127754654Y-74589921D01*
X127663000Y-75050698D01*
X39875400Y-75050698D01*
X39783746Y-74589921D01*
X39603960Y-74155879D01*
X39342950Y-73765251D01*
X39010749Y-73433050D01*
X38620121Y-73172040D01*
X38186079Y-72992254D01*
X37725302Y-72900600D01*
X37255498Y-72900600D01*
X36794721Y-72992254D01*
X36360679Y-73172040D01*
X35970051Y-73433050D01*
X35637850Y-73765251D01*
X35376840Y-74155879D01*
X35197054Y-74589921D01*
X35105400Y-75050698D01*
X34696000Y-75050698D01*
X34696000Y-70066287D01*
X34710370Y-70067702D01*
X36409630Y-70067702D01*
X36534112Y-70055442D01*
X36653810Y-70019132D01*
X36764124Y-69960167D01*
X36860815Y-69880815D01*
X36940167Y-69784124D01*
X36999132Y-69673810D01*
X37019054Y-69608133D01*
X39791472Y-69608133D01*
X39869063Y-69857169D01*
X40133040Y-69983031D01*
X40416499Y-70054975D01*
X40708547Y-70070237D01*
X40997961Y-70028230D01*
X41273619Y-69930568D01*
X41410937Y-69857169D01*
X41488528Y-69608133D01*
X40640000Y-68759605D01*
X39791472Y-69608133D01*
X37019054Y-69608133D01*
X37035442Y-69554112D01*
X37047702Y-69429630D01*
X37047702Y-68648547D01*
X39149763Y-68648547D01*
X39191770Y-68937961D01*
X39289432Y-69213619D01*
X39362831Y-69350937D01*
X39611867Y-69428528D01*
X40460395Y-68580000D01*
X40819605Y-68580000D01*
X41668133Y-69428528D01*
X41917169Y-69350937D01*
X42043031Y-69086960D01*
X42114975Y-68803501D01*
X42130237Y-68511453D01*
X42088230Y-68222039D01*
X41990568Y-67946381D01*
X41917169Y-67809063D01*
X41668133Y-67731472D01*
X40819605Y-68580000D01*
X40460395Y-68580000D01*
X39611867Y-67731472D01*
X39362831Y-67809063D01*
X39236969Y-68073040D01*
X39165025Y-68356499D01*
X39149763Y-68648547D01*
X37047702Y-68648547D01*
X37047702Y-67730370D01*
X37035442Y-67605888D01*
X37019055Y-67551867D01*
X39791472Y-67551867D01*
X40640000Y-68400395D01*
X41310025Y-67730370D01*
X44232298Y-67730370D01*
X44232298Y-69429630D01*
X44244558Y-69554112D01*
X44280868Y-69673810D01*
X44339833Y-69784124D01*
X44419185Y-69880815D01*
X44515876Y-69960167D01*
X44626190Y-70019132D01*
X44745888Y-70055442D01*
X44870370Y-70067702D01*
X46569630Y-70067702D01*
X46694112Y-70055442D01*
X46813810Y-70019132D01*
X46924124Y-69960167D01*
X47020815Y-69880815D01*
X47100167Y-69784124D01*
X47159132Y-69673810D01*
X47179054Y-69608133D01*
X49951472Y-69608133D01*
X50029063Y-69857169D01*
X50293040Y-69983031D01*
X50576499Y-70054975D01*
X50868547Y-70070237D01*
X51157961Y-70028230D01*
X51433619Y-69930568D01*
X51570937Y-69857169D01*
X51648528Y-69608133D01*
X50800000Y-68759605D01*
X49951472Y-69608133D01*
X47179054Y-69608133D01*
X47195442Y-69554112D01*
X47207702Y-69429630D01*
X47207702Y-68648547D01*
X49309763Y-68648547D01*
X49351770Y-68937961D01*
X49449432Y-69213619D01*
X49522831Y-69350937D01*
X49771867Y-69428528D01*
X50620395Y-68580000D01*
X50979605Y-68580000D01*
X51828133Y-69428528D01*
X52077169Y-69350937D01*
X52203031Y-69086960D01*
X52274975Y-68803501D01*
X52290237Y-68511453D01*
X52278963Y-68433777D01*
X56935370Y-68433777D01*
X56935370Y-68726223D01*
X56992424Y-69013050D01*
X57104338Y-69283236D01*
X57266813Y-69526396D01*
X57473604Y-69733187D01*
X57716764Y-69895662D01*
X57986950Y-70007576D01*
X58273777Y-70064630D01*
X58566223Y-70064630D01*
X58853050Y-70007576D01*
X59123236Y-69895662D01*
X59366396Y-69733187D01*
X59573187Y-69526396D01*
X59690000Y-69351574D01*
X59806813Y-69526396D01*
X60013604Y-69733187D01*
X60256764Y-69895662D01*
X60526950Y-70007576D01*
X60813777Y-70064630D01*
X61106223Y-70064630D01*
X61393050Y-70007576D01*
X61663236Y-69895662D01*
X61906396Y-69733187D01*
X62113187Y-69526396D01*
X62230000Y-69351574D01*
X62346813Y-69526396D01*
X62553604Y-69733187D01*
X62796764Y-69895662D01*
X63066950Y-70007576D01*
X63353777Y-70064630D01*
X63646223Y-70064630D01*
X63933050Y-70007576D01*
X64203236Y-69895662D01*
X64446396Y-69733187D01*
X64653187Y-69526396D01*
X64815662Y-69283236D01*
X64927576Y-69013050D01*
X64984630Y-68726223D01*
X64984630Y-68433777D01*
X72175370Y-68433777D01*
X72175370Y-68726223D01*
X72232424Y-69013050D01*
X72344338Y-69283236D01*
X72506813Y-69526396D01*
X72713604Y-69733187D01*
X72956764Y-69895662D01*
X73226950Y-70007576D01*
X73513777Y-70064630D01*
X73806223Y-70064630D01*
X74093050Y-70007576D01*
X74363236Y-69895662D01*
X74606396Y-69733187D01*
X74813187Y-69526396D01*
X74930000Y-69351574D01*
X75046813Y-69526396D01*
X75253604Y-69733187D01*
X75496764Y-69895662D01*
X75766950Y-70007576D01*
X76053777Y-70064630D01*
X76346223Y-70064630D01*
X76633050Y-70007576D01*
X76903236Y-69895662D01*
X77146396Y-69733187D01*
X77353187Y-69526396D01*
X77470000Y-69351574D01*
X77586813Y-69526396D01*
X77793604Y-69733187D01*
X78036764Y-69895662D01*
X78306950Y-70007576D01*
X78593777Y-70064630D01*
X78886223Y-70064630D01*
X79173050Y-70007576D01*
X79443236Y-69895662D01*
X79686396Y-69733187D01*
X79893187Y-69526396D01*
X80055662Y-69283236D01*
X80167576Y-69013050D01*
X80224630Y-68726223D01*
X80224630Y-68433777D01*
X87415370Y-68433777D01*
X87415370Y-68726223D01*
X87472424Y-69013050D01*
X87584338Y-69283236D01*
X87746813Y-69526396D01*
X87953604Y-69733187D01*
X88196764Y-69895662D01*
X88466950Y-70007576D01*
X88753777Y-70064630D01*
X89046223Y-70064630D01*
X89333050Y-70007576D01*
X89603236Y-69895662D01*
X89846396Y-69733187D01*
X90053187Y-69526396D01*
X90170000Y-69351574D01*
X90286813Y-69526396D01*
X90493604Y-69733187D01*
X90736764Y-69895662D01*
X91006950Y-70007576D01*
X91293777Y-70064630D01*
X91586223Y-70064630D01*
X91873050Y-70007576D01*
X92143236Y-69895662D01*
X92386396Y-69733187D01*
X92593187Y-69526396D01*
X92710000Y-69351574D01*
X92826813Y-69526396D01*
X93033604Y-69733187D01*
X93276764Y-69895662D01*
X93546950Y-70007576D01*
X93833777Y-70064630D01*
X94126223Y-70064630D01*
X94413050Y-70007576D01*
X94683236Y-69895662D01*
X94926396Y-69733187D01*
X95133187Y-69526396D01*
X95295662Y-69283236D01*
X95407576Y-69013050D01*
X95464630Y-68726223D01*
X95464630Y-68433777D01*
X102655370Y-68433777D01*
X102655370Y-68726223D01*
X102712424Y-69013050D01*
X102824338Y-69283236D01*
X102986813Y-69526396D01*
X103193604Y-69733187D01*
X103436764Y-69895662D01*
X103706950Y-70007576D01*
X103993777Y-70064630D01*
X104286223Y-70064630D01*
X104573050Y-70007576D01*
X104843236Y-69895662D01*
X105086396Y-69733187D01*
X105293187Y-69526396D01*
X105410000Y-69351574D01*
X105526813Y-69526396D01*
X105733604Y-69733187D01*
X105976764Y-69895662D01*
X106246950Y-70007576D01*
X106533777Y-70064630D01*
X106826223Y-70064630D01*
X107113050Y-70007576D01*
X107383236Y-69895662D01*
X107626396Y-69733187D01*
X107833187Y-69526396D01*
X107950000Y-69351574D01*
X108066813Y-69526396D01*
X108273604Y-69733187D01*
X108516764Y-69895662D01*
X108786950Y-70007576D01*
X109073777Y-70064630D01*
X109366223Y-70064630D01*
X109653050Y-70007576D01*
X109923236Y-69895662D01*
X110166396Y-69733187D01*
X110373187Y-69526396D01*
X110535662Y-69283236D01*
X110647576Y-69013050D01*
X110704630Y-68726223D01*
X110704630Y-68433777D01*
X110647576Y-68146950D01*
X110535662Y-67876764D01*
X110437845Y-67730370D01*
X115352298Y-67730370D01*
X115352298Y-69429630D01*
X115364558Y-69554112D01*
X115400868Y-69673810D01*
X115459833Y-69784124D01*
X115539185Y-69880815D01*
X115635876Y-69960167D01*
X115746190Y-70019132D01*
X115865888Y-70055442D01*
X115990370Y-70067702D01*
X117689630Y-70067702D01*
X117814112Y-70055442D01*
X117933810Y-70019132D01*
X118044124Y-69960167D01*
X118140815Y-69880815D01*
X118220167Y-69784124D01*
X118279132Y-69673810D01*
X118299054Y-69608133D01*
X121071472Y-69608133D01*
X121149063Y-69857169D01*
X121413040Y-69983031D01*
X121696499Y-70054975D01*
X121988547Y-70070237D01*
X122277961Y-70028230D01*
X122553619Y-69930568D01*
X122690937Y-69857169D01*
X122768528Y-69608133D01*
X121920000Y-68759605D01*
X121071472Y-69608133D01*
X118299054Y-69608133D01*
X118315442Y-69554112D01*
X118327702Y-69429630D01*
X118327702Y-68648547D01*
X120429763Y-68648547D01*
X120471770Y-68937961D01*
X120569432Y-69213619D01*
X120642831Y-69350937D01*
X120891867Y-69428528D01*
X121740395Y-68580000D01*
X122099605Y-68580000D01*
X122948133Y-69428528D01*
X123197169Y-69350937D01*
X123323031Y-69086960D01*
X123394975Y-68803501D01*
X123410237Y-68511453D01*
X123368230Y-68222039D01*
X123270568Y-67946381D01*
X123197169Y-67809063D01*
X122948133Y-67731472D01*
X122099605Y-68580000D01*
X121740395Y-68580000D01*
X120891867Y-67731472D01*
X120642831Y-67809063D01*
X120516969Y-68073040D01*
X120445025Y-68356499D01*
X120429763Y-68648547D01*
X118327702Y-68648547D01*
X118327702Y-67730370D01*
X118315442Y-67605888D01*
X118299055Y-67551867D01*
X121071472Y-67551867D01*
X121920000Y-68400395D01*
X122590025Y-67730370D01*
X125512298Y-67730370D01*
X125512298Y-69429630D01*
X125524558Y-69554112D01*
X125560868Y-69673810D01*
X125619833Y-69784124D01*
X125699185Y-69880815D01*
X125795876Y-69960167D01*
X125906190Y-70019132D01*
X126025888Y-70055442D01*
X126150370Y-70067702D01*
X127849630Y-70067702D01*
X127974112Y-70055442D01*
X128093810Y-70019132D01*
X128204124Y-69960167D01*
X128300815Y-69880815D01*
X128380167Y-69784124D01*
X128439132Y-69673810D01*
X128475442Y-69554112D01*
X128487702Y-69429630D01*
X128487702Y-68648547D01*
X130589763Y-68648547D01*
X130631770Y-68937961D01*
X130729432Y-69213619D01*
X130802831Y-69350937D01*
X131051867Y-69428528D01*
X131900395Y-68580000D01*
X131051867Y-67731472D01*
X130802831Y-67809063D01*
X130676969Y-68073040D01*
X130605025Y-68356499D01*
X130589763Y-68648547D01*
X128487702Y-68648547D01*
X128487702Y-67730370D01*
X128475442Y-67605888D01*
X128439132Y-67486190D01*
X128380167Y-67375876D01*
X128300815Y-67279185D01*
X128204124Y-67199833D01*
X128093810Y-67140868D01*
X127974112Y-67104558D01*
X127849630Y-67092298D01*
X126150370Y-67092298D01*
X126025888Y-67104558D01*
X125906190Y-67140868D01*
X125795876Y-67199833D01*
X125699185Y-67279185D01*
X125619833Y-67375876D01*
X125560868Y-67486190D01*
X125524558Y-67605888D01*
X125512298Y-67730370D01*
X122590025Y-67730370D01*
X122768528Y-67551867D01*
X122690937Y-67302831D01*
X122426960Y-67176969D01*
X122143501Y-67105025D01*
X121851453Y-67089763D01*
X121562039Y-67131770D01*
X121286381Y-67229432D01*
X121149063Y-67302831D01*
X121071472Y-67551867D01*
X118299055Y-67551867D01*
X118279132Y-67486190D01*
X118220167Y-67375876D01*
X118140815Y-67279185D01*
X118044124Y-67199833D01*
X117933810Y-67140868D01*
X117814112Y-67104558D01*
X117689630Y-67092298D01*
X115990370Y-67092298D01*
X115865888Y-67104558D01*
X115746190Y-67140868D01*
X115635876Y-67199833D01*
X115539185Y-67279185D01*
X115459833Y-67375876D01*
X115400868Y-67486190D01*
X115364558Y-67605888D01*
X115352298Y-67730370D01*
X110437845Y-67730370D01*
X110373187Y-67633604D01*
X110166396Y-67426813D01*
X109923236Y-67264338D01*
X109653050Y-67152424D01*
X109366223Y-67095370D01*
X109073777Y-67095370D01*
X108786950Y-67152424D01*
X108516764Y-67264338D01*
X108273604Y-67426813D01*
X108066813Y-67633604D01*
X107950000Y-67808426D01*
X107833187Y-67633604D01*
X107626396Y-67426813D01*
X107383236Y-67264338D01*
X107113050Y-67152424D01*
X106826223Y-67095370D01*
X106533777Y-67095370D01*
X106246950Y-67152424D01*
X105976764Y-67264338D01*
X105733604Y-67426813D01*
X105526813Y-67633604D01*
X105410000Y-67808426D01*
X105293187Y-67633604D01*
X105086396Y-67426813D01*
X104843236Y-67264338D01*
X104573050Y-67152424D01*
X104286223Y-67095370D01*
X103993777Y-67095370D01*
X103706950Y-67152424D01*
X103436764Y-67264338D01*
X103193604Y-67426813D01*
X102986813Y-67633604D01*
X102824338Y-67876764D01*
X102712424Y-68146950D01*
X102655370Y-68433777D01*
X95464630Y-68433777D01*
X95407576Y-68146950D01*
X95295662Y-67876764D01*
X95133187Y-67633604D01*
X94926396Y-67426813D01*
X94683236Y-67264338D01*
X94413050Y-67152424D01*
X94126223Y-67095370D01*
X93833777Y-67095370D01*
X93546950Y-67152424D01*
X93276764Y-67264338D01*
X93033604Y-67426813D01*
X92826813Y-67633604D01*
X92710000Y-67808426D01*
X92593187Y-67633604D01*
X92386396Y-67426813D01*
X92143236Y-67264338D01*
X91873050Y-67152424D01*
X91586223Y-67095370D01*
X91293777Y-67095370D01*
X91006950Y-67152424D01*
X90736764Y-67264338D01*
X90493604Y-67426813D01*
X90286813Y-67633604D01*
X90170000Y-67808426D01*
X90053187Y-67633604D01*
X89846396Y-67426813D01*
X89603236Y-67264338D01*
X89333050Y-67152424D01*
X89046223Y-67095370D01*
X88753777Y-67095370D01*
X88466950Y-67152424D01*
X88196764Y-67264338D01*
X87953604Y-67426813D01*
X87746813Y-67633604D01*
X87584338Y-67876764D01*
X87472424Y-68146950D01*
X87415370Y-68433777D01*
X80224630Y-68433777D01*
X80167576Y-68146950D01*
X80055662Y-67876764D01*
X79893187Y-67633604D01*
X79686396Y-67426813D01*
X79443236Y-67264338D01*
X79173050Y-67152424D01*
X78886223Y-67095370D01*
X78593777Y-67095370D01*
X78306950Y-67152424D01*
X78036764Y-67264338D01*
X77793604Y-67426813D01*
X77586813Y-67633604D01*
X77470000Y-67808426D01*
X77353187Y-67633604D01*
X77146396Y-67426813D01*
X76903236Y-67264338D01*
X76633050Y-67152424D01*
X76346223Y-67095370D01*
X76053777Y-67095370D01*
X75766950Y-67152424D01*
X75496764Y-67264338D01*
X75253604Y-67426813D01*
X75046813Y-67633604D01*
X74930000Y-67808426D01*
X74813187Y-67633604D01*
X74606396Y-67426813D01*
X74363236Y-67264338D01*
X74093050Y-67152424D01*
X73806223Y-67095370D01*
X73513777Y-67095370D01*
X73226950Y-67152424D01*
X72956764Y-67264338D01*
X72713604Y-67426813D01*
X72506813Y-67633604D01*
X72344338Y-67876764D01*
X72232424Y-68146950D01*
X72175370Y-68433777D01*
X64984630Y-68433777D01*
X64927576Y-68146950D01*
X64815662Y-67876764D01*
X64653187Y-67633604D01*
X64446396Y-67426813D01*
X64203236Y-67264338D01*
X63933050Y-67152424D01*
X63646223Y-67095370D01*
X63353777Y-67095370D01*
X63066950Y-67152424D01*
X62796764Y-67264338D01*
X62553604Y-67426813D01*
X62346813Y-67633604D01*
X62230000Y-67808426D01*
X62113187Y-67633604D01*
X61906396Y-67426813D01*
X61663236Y-67264338D01*
X61393050Y-67152424D01*
X61106223Y-67095370D01*
X60813777Y-67095370D01*
X60526950Y-67152424D01*
X60256764Y-67264338D01*
X60013604Y-67426813D01*
X59806813Y-67633604D01*
X59690000Y-67808426D01*
X59573187Y-67633604D01*
X59366396Y-67426813D01*
X59123236Y-67264338D01*
X58853050Y-67152424D01*
X58566223Y-67095370D01*
X58273777Y-67095370D01*
X57986950Y-67152424D01*
X57716764Y-67264338D01*
X57473604Y-67426813D01*
X57266813Y-67633604D01*
X57104338Y-67876764D01*
X56992424Y-68146950D01*
X56935370Y-68433777D01*
X52278963Y-68433777D01*
X52248230Y-68222039D01*
X52150568Y-67946381D01*
X52077169Y-67809063D01*
X51828133Y-67731472D01*
X50979605Y-68580000D01*
X50620395Y-68580000D01*
X49771867Y-67731472D01*
X49522831Y-67809063D01*
X49396969Y-68073040D01*
X49325025Y-68356499D01*
X49309763Y-68648547D01*
X47207702Y-68648547D01*
X47207702Y-67730370D01*
X47195442Y-67605888D01*
X47179055Y-67551867D01*
X49951472Y-67551867D01*
X50800000Y-68400395D01*
X51648528Y-67551867D01*
X51570937Y-67302831D01*
X51306960Y-67176969D01*
X51023501Y-67105025D01*
X50731453Y-67089763D01*
X50442039Y-67131770D01*
X50166381Y-67229432D01*
X50029063Y-67302831D01*
X49951472Y-67551867D01*
X47179055Y-67551867D01*
X47159132Y-67486190D01*
X47100167Y-67375876D01*
X47020815Y-67279185D01*
X46924124Y-67199833D01*
X46813810Y-67140868D01*
X46694112Y-67104558D01*
X46569630Y-67092298D01*
X44870370Y-67092298D01*
X44745888Y-67104558D01*
X44626190Y-67140868D01*
X44515876Y-67199833D01*
X44419185Y-67279185D01*
X44339833Y-67375876D01*
X44280868Y-67486190D01*
X44244558Y-67605888D01*
X44232298Y-67730370D01*
X41310025Y-67730370D01*
X41488528Y-67551867D01*
X41410937Y-67302831D01*
X41146960Y-67176969D01*
X40863501Y-67105025D01*
X40571453Y-67089763D01*
X40282039Y-67131770D01*
X40006381Y-67229432D01*
X39869063Y-67302831D01*
X39791472Y-67551867D01*
X37019055Y-67551867D01*
X36999132Y-67486190D01*
X36940167Y-67375876D01*
X36860815Y-67279185D01*
X36764124Y-67199833D01*
X36653810Y-67140868D01*
X36534112Y-67104558D01*
X36409630Y-67092298D01*
X34710370Y-67092298D01*
X34696000Y-67093713D01*
X34696000Y-59906287D01*
X34710370Y-59907702D01*
X36409630Y-59907702D01*
X36534112Y-59895442D01*
X36653810Y-59859132D01*
X36764124Y-59800167D01*
X36860815Y-59720815D01*
X36940167Y-59624124D01*
X36999132Y-59513810D01*
X37019054Y-59448133D01*
X39791472Y-59448133D01*
X39869063Y-59697169D01*
X40133040Y-59823031D01*
X40416499Y-59894975D01*
X40708547Y-59910237D01*
X40997961Y-59868230D01*
X41273619Y-59770568D01*
X41410937Y-59697169D01*
X41488528Y-59448133D01*
X40640000Y-58599605D01*
X39791472Y-59448133D01*
X37019054Y-59448133D01*
X37035442Y-59394112D01*
X37047702Y-59269630D01*
X37047702Y-58488547D01*
X39149763Y-58488547D01*
X39191770Y-58777961D01*
X39289432Y-59053619D01*
X39362831Y-59190937D01*
X39611867Y-59268528D01*
X40460395Y-58420000D01*
X40819605Y-58420000D01*
X41668133Y-59268528D01*
X41917169Y-59190937D01*
X42043031Y-58926960D01*
X42114975Y-58643501D01*
X42130237Y-58351453D01*
X42088230Y-58062039D01*
X41990568Y-57786381D01*
X41917169Y-57649063D01*
X41668133Y-57571472D01*
X40819605Y-58420000D01*
X40460395Y-58420000D01*
X39611867Y-57571472D01*
X39362831Y-57649063D01*
X39236969Y-57913040D01*
X39165025Y-58196499D01*
X39149763Y-58488547D01*
X37047702Y-58488547D01*
X37047702Y-57570370D01*
X37035442Y-57445888D01*
X37019055Y-57391867D01*
X39791472Y-57391867D01*
X40640000Y-58240395D01*
X41310025Y-57570370D01*
X44232298Y-57570370D01*
X44232298Y-59269630D01*
X44244558Y-59394112D01*
X44280868Y-59513810D01*
X44339833Y-59624124D01*
X44419185Y-59720815D01*
X44515876Y-59800167D01*
X44626190Y-59859132D01*
X44745888Y-59895442D01*
X44870370Y-59907702D01*
X46569630Y-59907702D01*
X46694112Y-59895442D01*
X46813810Y-59859132D01*
X46924124Y-59800167D01*
X47020815Y-59720815D01*
X47100167Y-59624124D01*
X47159132Y-59513810D01*
X47179054Y-59448133D01*
X49951472Y-59448133D01*
X50029063Y-59697169D01*
X50293040Y-59823031D01*
X50576499Y-59894975D01*
X50868547Y-59910237D01*
X51157961Y-59868230D01*
X51433619Y-59770568D01*
X51570937Y-59697169D01*
X51648528Y-59448133D01*
X51520395Y-59320000D01*
X54341928Y-59320000D01*
X54354188Y-59444482D01*
X54390498Y-59564180D01*
X54449463Y-59674494D01*
X54528815Y-59771185D01*
X54625506Y-59850537D01*
X54735820Y-59909502D01*
X54855518Y-59945812D01*
X54980000Y-59958072D01*
X55594250Y-59955000D01*
X55753000Y-59796250D01*
X55753000Y-58547000D01*
X54503750Y-58547000D01*
X54345000Y-58705750D01*
X54341928Y-59320000D01*
X51520395Y-59320000D01*
X50800000Y-58599605D01*
X49951472Y-59448133D01*
X47179054Y-59448133D01*
X47195442Y-59394112D01*
X47207702Y-59269630D01*
X47207702Y-58488547D01*
X49309763Y-58488547D01*
X49351770Y-58777961D01*
X49449432Y-59053619D01*
X49522831Y-59190937D01*
X49771867Y-59268528D01*
X50620395Y-58420000D01*
X50979605Y-58420000D01*
X51828133Y-59268528D01*
X52077169Y-59190937D01*
X52203031Y-58926960D01*
X52274975Y-58643501D01*
X52290237Y-58351453D01*
X52248230Y-58062039D01*
X52150568Y-57786381D01*
X52077169Y-57649063D01*
X51828133Y-57571472D01*
X50979605Y-58420000D01*
X50620395Y-58420000D01*
X49771867Y-57571472D01*
X49522831Y-57649063D01*
X49396969Y-57913040D01*
X49325025Y-58196499D01*
X49309763Y-58488547D01*
X47207702Y-58488547D01*
X47207702Y-57570370D01*
X47195442Y-57445888D01*
X47179055Y-57391867D01*
X49951472Y-57391867D01*
X50800000Y-58240395D01*
X51520395Y-57520000D01*
X54341928Y-57520000D01*
X54345000Y-58134250D01*
X54503750Y-58293000D01*
X55753000Y-58293000D01*
X55753000Y-57043750D01*
X56007000Y-57043750D01*
X56007000Y-58293000D01*
X56027000Y-58293000D01*
X56027000Y-58547000D01*
X56007000Y-58547000D01*
X56007000Y-59796250D01*
X56165750Y-59955000D01*
X56780000Y-59958072D01*
X56904482Y-59945812D01*
X57024180Y-59909502D01*
X57134494Y-59850537D01*
X57231185Y-59771185D01*
X57310537Y-59674494D01*
X57369502Y-59564180D01*
X57375056Y-59545873D01*
X57441495Y-59612312D01*
X57692905Y-59780299D01*
X57972257Y-59896011D01*
X58268816Y-59955000D01*
X58571184Y-59955000D01*
X58867743Y-59896011D01*
X59147095Y-59780299D01*
X59398505Y-59612312D01*
X59612312Y-59398505D01*
X59664767Y-59320000D01*
X61961928Y-59320000D01*
X61974188Y-59444482D01*
X62010498Y-59564180D01*
X62069463Y-59674494D01*
X62148815Y-59771185D01*
X62245506Y-59850537D01*
X62355820Y-59909502D01*
X62475518Y-59945812D01*
X62600000Y-59958072D01*
X63214250Y-59955000D01*
X63373000Y-59796250D01*
X63373000Y-58547000D01*
X62123750Y-58547000D01*
X61965000Y-58705750D01*
X61961928Y-59320000D01*
X59664767Y-59320000D01*
X59780299Y-59147095D01*
X59896011Y-58867743D01*
X59955000Y-58571184D01*
X59955000Y-58268816D01*
X59896011Y-57972257D01*
X59780299Y-57692905D01*
X59664768Y-57520000D01*
X61961928Y-57520000D01*
X61965000Y-58134250D01*
X62123750Y-58293000D01*
X63373000Y-58293000D01*
X63373000Y-57043750D01*
X63627000Y-57043750D01*
X63627000Y-58293000D01*
X63647000Y-58293000D01*
X63647000Y-58547000D01*
X63627000Y-58547000D01*
X63627000Y-59796250D01*
X63785750Y-59955000D01*
X64400000Y-59958072D01*
X64524482Y-59945812D01*
X64644180Y-59909502D01*
X64754494Y-59850537D01*
X64851185Y-59771185D01*
X64930537Y-59674494D01*
X64989502Y-59564180D01*
X64995056Y-59545873D01*
X65061495Y-59612312D01*
X65312905Y-59780299D01*
X65592257Y-59896011D01*
X65888816Y-59955000D01*
X66191184Y-59955000D01*
X66487743Y-59896011D01*
X66767095Y-59780299D01*
X67018505Y-59612312D01*
X67232312Y-59398505D01*
X67284767Y-59320000D01*
X69581928Y-59320000D01*
X69594188Y-59444482D01*
X69630498Y-59564180D01*
X69689463Y-59674494D01*
X69768815Y-59771185D01*
X69865506Y-59850537D01*
X69975820Y-59909502D01*
X70095518Y-59945812D01*
X70220000Y-59958072D01*
X70834250Y-59955000D01*
X70993000Y-59796250D01*
X70993000Y-58547000D01*
X69743750Y-58547000D01*
X69585000Y-58705750D01*
X69581928Y-59320000D01*
X67284767Y-59320000D01*
X67400299Y-59147095D01*
X67516011Y-58867743D01*
X67575000Y-58571184D01*
X67575000Y-58268816D01*
X67516011Y-57972257D01*
X67400299Y-57692905D01*
X67284768Y-57520000D01*
X69581928Y-57520000D01*
X69585000Y-58134250D01*
X69743750Y-58293000D01*
X70993000Y-58293000D01*
X70993000Y-57043750D01*
X71247000Y-57043750D01*
X71247000Y-58293000D01*
X71267000Y-58293000D01*
X71267000Y-58547000D01*
X71247000Y-58547000D01*
X71247000Y-59796250D01*
X71405750Y-59955000D01*
X72020000Y-59958072D01*
X72144482Y-59945812D01*
X72264180Y-59909502D01*
X72374494Y-59850537D01*
X72471185Y-59771185D01*
X72550537Y-59674494D01*
X72609502Y-59564180D01*
X72615056Y-59545873D01*
X72681495Y-59612312D01*
X72932905Y-59780299D01*
X73212257Y-59896011D01*
X73508816Y-59955000D01*
X73811184Y-59955000D01*
X74107743Y-59896011D01*
X74387095Y-59780299D01*
X74638505Y-59612312D01*
X74852312Y-59398505D01*
X74904767Y-59320000D01*
X77201928Y-59320000D01*
X77214188Y-59444482D01*
X77250498Y-59564180D01*
X77309463Y-59674494D01*
X77388815Y-59771185D01*
X77485506Y-59850537D01*
X77595820Y-59909502D01*
X77715518Y-59945812D01*
X77840000Y-59958072D01*
X78454250Y-59955000D01*
X78613000Y-59796250D01*
X78613000Y-58547000D01*
X77363750Y-58547000D01*
X77205000Y-58705750D01*
X77201928Y-59320000D01*
X74904767Y-59320000D01*
X75020299Y-59147095D01*
X75136011Y-58867743D01*
X75195000Y-58571184D01*
X75195000Y-58268816D01*
X75136011Y-57972257D01*
X75020299Y-57692905D01*
X74904768Y-57520000D01*
X77201928Y-57520000D01*
X77205000Y-58134250D01*
X77363750Y-58293000D01*
X78613000Y-58293000D01*
X78613000Y-57043750D01*
X78867000Y-57043750D01*
X78867000Y-58293000D01*
X78887000Y-58293000D01*
X78887000Y-58547000D01*
X78867000Y-58547000D01*
X78867000Y-59796250D01*
X79025750Y-59955000D01*
X79640000Y-59958072D01*
X79764482Y-59945812D01*
X79884180Y-59909502D01*
X79994494Y-59850537D01*
X80091185Y-59771185D01*
X80170537Y-59674494D01*
X80229502Y-59564180D01*
X80235056Y-59545873D01*
X80301495Y-59612312D01*
X80552905Y-59780299D01*
X80832257Y-59896011D01*
X81128816Y-59955000D01*
X81431184Y-59955000D01*
X81727743Y-59896011D01*
X82007095Y-59780299D01*
X82258505Y-59612312D01*
X82472312Y-59398505D01*
X82524767Y-59320000D01*
X84821928Y-59320000D01*
X84834188Y-59444482D01*
X84870498Y-59564180D01*
X84929463Y-59674494D01*
X85008815Y-59771185D01*
X85105506Y-59850537D01*
X85215820Y-59909502D01*
X85335518Y-59945812D01*
X85460000Y-59958072D01*
X86074250Y-59955000D01*
X86233000Y-59796250D01*
X86233000Y-58547000D01*
X84983750Y-58547000D01*
X84825000Y-58705750D01*
X84821928Y-59320000D01*
X82524767Y-59320000D01*
X82640299Y-59147095D01*
X82756011Y-58867743D01*
X82815000Y-58571184D01*
X82815000Y-58268816D01*
X82756011Y-57972257D01*
X82640299Y-57692905D01*
X82524768Y-57520000D01*
X84821928Y-57520000D01*
X84825000Y-58134250D01*
X84983750Y-58293000D01*
X86233000Y-58293000D01*
X86233000Y-57043750D01*
X86487000Y-57043750D01*
X86487000Y-58293000D01*
X86507000Y-58293000D01*
X86507000Y-58547000D01*
X86487000Y-58547000D01*
X86487000Y-59796250D01*
X86645750Y-59955000D01*
X87260000Y-59958072D01*
X87384482Y-59945812D01*
X87504180Y-59909502D01*
X87614494Y-59850537D01*
X87711185Y-59771185D01*
X87790537Y-59674494D01*
X87849502Y-59564180D01*
X87855056Y-59545873D01*
X87921495Y-59612312D01*
X88172905Y-59780299D01*
X88452257Y-59896011D01*
X88748816Y-59955000D01*
X89051184Y-59955000D01*
X89347743Y-59896011D01*
X89627095Y-59780299D01*
X89878505Y-59612312D01*
X90092312Y-59398505D01*
X90144767Y-59320000D01*
X92441928Y-59320000D01*
X92454188Y-59444482D01*
X92490498Y-59564180D01*
X92549463Y-59674494D01*
X92628815Y-59771185D01*
X92725506Y-59850537D01*
X92835820Y-59909502D01*
X92955518Y-59945812D01*
X93080000Y-59958072D01*
X93694250Y-59955000D01*
X93853000Y-59796250D01*
X93853000Y-58547000D01*
X92603750Y-58547000D01*
X92445000Y-58705750D01*
X92441928Y-59320000D01*
X90144767Y-59320000D01*
X90260299Y-59147095D01*
X90376011Y-58867743D01*
X90435000Y-58571184D01*
X90435000Y-58268816D01*
X90376011Y-57972257D01*
X90260299Y-57692905D01*
X90144768Y-57520000D01*
X92441928Y-57520000D01*
X92445000Y-58134250D01*
X92603750Y-58293000D01*
X93853000Y-58293000D01*
X93853000Y-57043750D01*
X94107000Y-57043750D01*
X94107000Y-58293000D01*
X94127000Y-58293000D01*
X94127000Y-58547000D01*
X94107000Y-58547000D01*
X94107000Y-59796250D01*
X94265750Y-59955000D01*
X94880000Y-59958072D01*
X95004482Y-59945812D01*
X95124180Y-59909502D01*
X95234494Y-59850537D01*
X95331185Y-59771185D01*
X95410537Y-59674494D01*
X95469502Y-59564180D01*
X95475056Y-59545873D01*
X95541495Y-59612312D01*
X95792905Y-59780299D01*
X96072257Y-59896011D01*
X96368816Y-59955000D01*
X96671184Y-59955000D01*
X96967743Y-59896011D01*
X97247095Y-59780299D01*
X97498505Y-59612312D01*
X97712312Y-59398505D01*
X97764767Y-59320000D01*
X100061928Y-59320000D01*
X100074188Y-59444482D01*
X100110498Y-59564180D01*
X100169463Y-59674494D01*
X100248815Y-59771185D01*
X100345506Y-59850537D01*
X100455820Y-59909502D01*
X100575518Y-59945812D01*
X100700000Y-59958072D01*
X101314250Y-59955000D01*
X101473000Y-59796250D01*
X101473000Y-58547000D01*
X100223750Y-58547000D01*
X100065000Y-58705750D01*
X100061928Y-59320000D01*
X97764767Y-59320000D01*
X97880299Y-59147095D01*
X97996011Y-58867743D01*
X98055000Y-58571184D01*
X98055000Y-58268816D01*
X97996011Y-57972257D01*
X97880299Y-57692905D01*
X97764768Y-57520000D01*
X100061928Y-57520000D01*
X100065000Y-58134250D01*
X100223750Y-58293000D01*
X101473000Y-58293000D01*
X101473000Y-57043750D01*
X101727000Y-57043750D01*
X101727000Y-58293000D01*
X101747000Y-58293000D01*
X101747000Y-58547000D01*
X101727000Y-58547000D01*
X101727000Y-59796250D01*
X101885750Y-59955000D01*
X102500000Y-59958072D01*
X102624482Y-59945812D01*
X102744180Y-59909502D01*
X102854494Y-59850537D01*
X102951185Y-59771185D01*
X103030537Y-59674494D01*
X103089502Y-59564180D01*
X103095056Y-59545873D01*
X103161495Y-59612312D01*
X103412905Y-59780299D01*
X103692257Y-59896011D01*
X103988816Y-59955000D01*
X104291184Y-59955000D01*
X104587743Y-59896011D01*
X104867095Y-59780299D01*
X105118505Y-59612312D01*
X105332312Y-59398505D01*
X105384767Y-59320000D01*
X107681928Y-59320000D01*
X107694188Y-59444482D01*
X107730498Y-59564180D01*
X107789463Y-59674494D01*
X107868815Y-59771185D01*
X107965506Y-59850537D01*
X108075820Y-59909502D01*
X108195518Y-59945812D01*
X108320000Y-59958072D01*
X108934250Y-59955000D01*
X109093000Y-59796250D01*
X109093000Y-58547000D01*
X107843750Y-58547000D01*
X107685000Y-58705750D01*
X107681928Y-59320000D01*
X105384767Y-59320000D01*
X105500299Y-59147095D01*
X105616011Y-58867743D01*
X105675000Y-58571184D01*
X105675000Y-58268816D01*
X105616011Y-57972257D01*
X105500299Y-57692905D01*
X105384768Y-57520000D01*
X107681928Y-57520000D01*
X107685000Y-58134250D01*
X107843750Y-58293000D01*
X109093000Y-58293000D01*
X109093000Y-57043750D01*
X109347000Y-57043750D01*
X109347000Y-58293000D01*
X109367000Y-58293000D01*
X109367000Y-58547000D01*
X109347000Y-58547000D01*
X109347000Y-59796250D01*
X109505750Y-59955000D01*
X110120000Y-59958072D01*
X110244482Y-59945812D01*
X110364180Y-59909502D01*
X110474494Y-59850537D01*
X110571185Y-59771185D01*
X110650537Y-59674494D01*
X110709502Y-59564180D01*
X110715056Y-59545873D01*
X110781495Y-59612312D01*
X111032905Y-59780299D01*
X111312257Y-59896011D01*
X111608816Y-59955000D01*
X111911184Y-59955000D01*
X112207743Y-59896011D01*
X112487095Y-59780299D01*
X112738505Y-59612312D01*
X112952312Y-59398505D01*
X113120299Y-59147095D01*
X113236011Y-58867743D01*
X113295000Y-58571184D01*
X113295000Y-58268816D01*
X113236011Y-57972257D01*
X113120299Y-57692905D01*
X113038424Y-57570370D01*
X115352298Y-57570370D01*
X115352298Y-59269630D01*
X115364558Y-59394112D01*
X115400868Y-59513810D01*
X115459833Y-59624124D01*
X115539185Y-59720815D01*
X115635876Y-59800167D01*
X115746190Y-59859132D01*
X115865888Y-59895442D01*
X115990370Y-59907702D01*
X117689630Y-59907702D01*
X117814112Y-59895442D01*
X117933810Y-59859132D01*
X118044124Y-59800167D01*
X118140815Y-59720815D01*
X118220167Y-59624124D01*
X118279132Y-59513810D01*
X118299054Y-59448133D01*
X121071472Y-59448133D01*
X121149063Y-59697169D01*
X121413040Y-59823031D01*
X121696499Y-59894975D01*
X121988547Y-59910237D01*
X122277961Y-59868230D01*
X122553619Y-59770568D01*
X122690937Y-59697169D01*
X122768528Y-59448133D01*
X121920000Y-58599605D01*
X121071472Y-59448133D01*
X118299054Y-59448133D01*
X118315442Y-59394112D01*
X118327702Y-59269630D01*
X118327702Y-58488547D01*
X120429763Y-58488547D01*
X120471770Y-58777961D01*
X120569432Y-59053619D01*
X120642831Y-59190937D01*
X120891867Y-59268528D01*
X121740395Y-58420000D01*
X122099605Y-58420000D01*
X122948133Y-59268528D01*
X123197169Y-59190937D01*
X123323031Y-58926960D01*
X123394975Y-58643501D01*
X123410237Y-58351453D01*
X123368230Y-58062039D01*
X123270568Y-57786381D01*
X123197169Y-57649063D01*
X122948133Y-57571472D01*
X122099605Y-58420000D01*
X121740395Y-58420000D01*
X120891867Y-57571472D01*
X120642831Y-57649063D01*
X120516969Y-57913040D01*
X120445025Y-58196499D01*
X120429763Y-58488547D01*
X118327702Y-58488547D01*
X118327702Y-57570370D01*
X118315442Y-57445888D01*
X118299055Y-57391867D01*
X121071472Y-57391867D01*
X121920000Y-58240395D01*
X122590025Y-57570370D01*
X125512298Y-57570370D01*
X125512298Y-59269630D01*
X125524558Y-59394112D01*
X125560868Y-59513810D01*
X125619833Y-59624124D01*
X125699185Y-59720815D01*
X125795876Y-59800167D01*
X125906190Y-59859132D01*
X126025888Y-59895442D01*
X126150370Y-59907702D01*
X127849630Y-59907702D01*
X127974112Y-59895442D01*
X128093810Y-59859132D01*
X128204124Y-59800167D01*
X128300815Y-59720815D01*
X128380167Y-59624124D01*
X128439132Y-59513810D01*
X128475442Y-59394112D01*
X128487702Y-59269630D01*
X128487702Y-58488547D01*
X130589763Y-58488547D01*
X130631770Y-58777961D01*
X130729432Y-59053619D01*
X130802831Y-59190937D01*
X131051867Y-59268528D01*
X131900395Y-58420000D01*
X131051867Y-57571472D01*
X130802831Y-57649063D01*
X130676969Y-57913040D01*
X130605025Y-58196499D01*
X130589763Y-58488547D01*
X128487702Y-58488547D01*
X128487702Y-57570370D01*
X128475442Y-57445888D01*
X128439132Y-57326190D01*
X128380167Y-57215876D01*
X128300815Y-57119185D01*
X128204124Y-57039833D01*
X128093810Y-56980868D01*
X127974112Y-56944558D01*
X127849630Y-56932298D01*
X126150370Y-56932298D01*
X126025888Y-56944558D01*
X125906190Y-56980868D01*
X125795876Y-57039833D01*
X125699185Y-57119185D01*
X125619833Y-57215876D01*
X125560868Y-57326190D01*
X125524558Y-57445888D01*
X125512298Y-57570370D01*
X122590025Y-57570370D01*
X122768528Y-57391867D01*
X122690937Y-57142831D01*
X122426960Y-57016969D01*
X122143501Y-56945025D01*
X121851453Y-56929763D01*
X121562039Y-56971770D01*
X121286381Y-57069432D01*
X121149063Y-57142831D01*
X121071472Y-57391867D01*
X118299055Y-57391867D01*
X118279132Y-57326190D01*
X118220167Y-57215876D01*
X118140815Y-57119185D01*
X118044124Y-57039833D01*
X117933810Y-56980868D01*
X117814112Y-56944558D01*
X117689630Y-56932298D01*
X115990370Y-56932298D01*
X115865888Y-56944558D01*
X115746190Y-56980868D01*
X115635876Y-57039833D01*
X115539185Y-57119185D01*
X115459833Y-57215876D01*
X115400868Y-57326190D01*
X115364558Y-57445888D01*
X115352298Y-57570370D01*
X113038424Y-57570370D01*
X112952312Y-57441495D01*
X112738505Y-57227688D01*
X112487095Y-57059701D01*
X112207743Y-56943989D01*
X111911184Y-56885000D01*
X111608816Y-56885000D01*
X111312257Y-56943989D01*
X111032905Y-57059701D01*
X110781495Y-57227688D01*
X110715056Y-57294127D01*
X110709502Y-57275820D01*
X110650537Y-57165506D01*
X110571185Y-57068815D01*
X110474494Y-56989463D01*
X110364180Y-56930498D01*
X110244482Y-56894188D01*
X110120000Y-56881928D01*
X109505750Y-56885000D01*
X109347000Y-57043750D01*
X109093000Y-57043750D01*
X108934250Y-56885000D01*
X108320000Y-56881928D01*
X108195518Y-56894188D01*
X108075820Y-56930498D01*
X107965506Y-56989463D01*
X107868815Y-57068815D01*
X107789463Y-57165506D01*
X107730498Y-57275820D01*
X107694188Y-57395518D01*
X107681928Y-57520000D01*
X105384768Y-57520000D01*
X105332312Y-57441495D01*
X105118505Y-57227688D01*
X104867095Y-57059701D01*
X104587743Y-56943989D01*
X104291184Y-56885000D01*
X103988816Y-56885000D01*
X103692257Y-56943989D01*
X103412905Y-57059701D01*
X103161495Y-57227688D01*
X103095056Y-57294127D01*
X103089502Y-57275820D01*
X103030537Y-57165506D01*
X102951185Y-57068815D01*
X102854494Y-56989463D01*
X102744180Y-56930498D01*
X102624482Y-56894188D01*
X102500000Y-56881928D01*
X101885750Y-56885000D01*
X101727000Y-57043750D01*
X101473000Y-57043750D01*
X101314250Y-56885000D01*
X100700000Y-56881928D01*
X100575518Y-56894188D01*
X100455820Y-56930498D01*
X100345506Y-56989463D01*
X100248815Y-57068815D01*
X100169463Y-57165506D01*
X100110498Y-57275820D01*
X100074188Y-57395518D01*
X100061928Y-57520000D01*
X97764768Y-57520000D01*
X97712312Y-57441495D01*
X97498505Y-57227688D01*
X97247095Y-57059701D01*
X96967743Y-56943989D01*
X96671184Y-56885000D01*
X96368816Y-56885000D01*
X96072257Y-56943989D01*
X95792905Y-57059701D01*
X95541495Y-57227688D01*
X95475056Y-57294127D01*
X95469502Y-57275820D01*
X95410537Y-57165506D01*
X95331185Y-57068815D01*
X95234494Y-56989463D01*
X95124180Y-56930498D01*
X95004482Y-56894188D01*
X94880000Y-56881928D01*
X94265750Y-56885000D01*
X94107000Y-57043750D01*
X93853000Y-57043750D01*
X93694250Y-56885000D01*
X93080000Y-56881928D01*
X92955518Y-56894188D01*
X92835820Y-56930498D01*
X92725506Y-56989463D01*
X92628815Y-57068815D01*
X92549463Y-57165506D01*
X92490498Y-57275820D01*
X92454188Y-57395518D01*
X92441928Y-57520000D01*
X90144768Y-57520000D01*
X90092312Y-57441495D01*
X89878505Y-57227688D01*
X89627095Y-57059701D01*
X89347743Y-56943989D01*
X89051184Y-56885000D01*
X88748816Y-56885000D01*
X88452257Y-56943989D01*
X88172905Y-57059701D01*
X87921495Y-57227688D01*
X87855056Y-57294127D01*
X87849502Y-57275820D01*
X87790537Y-57165506D01*
X87711185Y-57068815D01*
X87614494Y-56989463D01*
X87504180Y-56930498D01*
X87384482Y-56894188D01*
X87260000Y-56881928D01*
X86645750Y-56885000D01*
X86487000Y-57043750D01*
X86233000Y-57043750D01*
X86074250Y-56885000D01*
X85460000Y-56881928D01*
X85335518Y-56894188D01*
X85215820Y-56930498D01*
X85105506Y-56989463D01*
X85008815Y-57068815D01*
X84929463Y-57165506D01*
X84870498Y-57275820D01*
X84834188Y-57395518D01*
X84821928Y-57520000D01*
X82524768Y-57520000D01*
X82472312Y-57441495D01*
X82258505Y-57227688D01*
X82007095Y-57059701D01*
X81727743Y-56943989D01*
X81431184Y-56885000D01*
X81128816Y-56885000D01*
X80832257Y-56943989D01*
X80552905Y-57059701D01*
X80301495Y-57227688D01*
X80235056Y-57294127D01*
X80229502Y-57275820D01*
X80170537Y-57165506D01*
X80091185Y-57068815D01*
X79994494Y-56989463D01*
X79884180Y-56930498D01*
X79764482Y-56894188D01*
X79640000Y-56881928D01*
X79025750Y-56885000D01*
X78867000Y-57043750D01*
X78613000Y-57043750D01*
X78454250Y-56885000D01*
X77840000Y-56881928D01*
X77715518Y-56894188D01*
X77595820Y-56930498D01*
X77485506Y-56989463D01*
X77388815Y-57068815D01*
X77309463Y-57165506D01*
X77250498Y-57275820D01*
X77214188Y-57395518D01*
X77201928Y-57520000D01*
X74904768Y-57520000D01*
X74852312Y-57441495D01*
X74638505Y-57227688D01*
X74387095Y-57059701D01*
X74107743Y-56943989D01*
X73811184Y-56885000D01*
X73508816Y-56885000D01*
X73212257Y-56943989D01*
X72932905Y-57059701D01*
X72681495Y-57227688D01*
X72615056Y-57294127D01*
X72609502Y-57275820D01*
X72550537Y-57165506D01*
X72471185Y-57068815D01*
X72374494Y-56989463D01*
X72264180Y-56930498D01*
X72144482Y-56894188D01*
X72020000Y-56881928D01*
X71405750Y-56885000D01*
X71247000Y-57043750D01*
X70993000Y-57043750D01*
X70834250Y-56885000D01*
X70220000Y-56881928D01*
X70095518Y-56894188D01*
X69975820Y-56930498D01*
X69865506Y-56989463D01*
X69768815Y-57068815D01*
X69689463Y-57165506D01*
X69630498Y-57275820D01*
X69594188Y-57395518D01*
X69581928Y-57520000D01*
X67284768Y-57520000D01*
X67232312Y-57441495D01*
X67018505Y-57227688D01*
X66767095Y-57059701D01*
X66487743Y-56943989D01*
X66191184Y-56885000D01*
X65888816Y-56885000D01*
X65592257Y-56943989D01*
X65312905Y-57059701D01*
X65061495Y-57227688D01*
X64995056Y-57294127D01*
X64989502Y-57275820D01*
X64930537Y-57165506D01*
X64851185Y-57068815D01*
X64754494Y-56989463D01*
X64644180Y-56930498D01*
X64524482Y-56894188D01*
X64400000Y-56881928D01*
X63785750Y-56885000D01*
X63627000Y-57043750D01*
X63373000Y-57043750D01*
X63214250Y-56885000D01*
X62600000Y-56881928D01*
X62475518Y-56894188D01*
X62355820Y-56930498D01*
X62245506Y-56989463D01*
X62148815Y-57068815D01*
X62069463Y-57165506D01*
X62010498Y-57275820D01*
X61974188Y-57395518D01*
X61961928Y-57520000D01*
X59664768Y-57520000D01*
X59612312Y-57441495D01*
X59398505Y-57227688D01*
X59147095Y-57059701D01*
X58867743Y-56943989D01*
X58571184Y-56885000D01*
X58268816Y-56885000D01*
X57972257Y-56943989D01*
X57692905Y-57059701D01*
X57441495Y-57227688D01*
X57375056Y-57294127D01*
X57369502Y-57275820D01*
X57310537Y-57165506D01*
X57231185Y-57068815D01*
X57134494Y-56989463D01*
X57024180Y-56930498D01*
X56904482Y-56894188D01*
X56780000Y-56881928D01*
X56165750Y-56885000D01*
X56007000Y-57043750D01*
X55753000Y-57043750D01*
X55594250Y-56885000D01*
X54980000Y-56881928D01*
X54855518Y-56894188D01*
X54735820Y-56930498D01*
X54625506Y-56989463D01*
X54528815Y-57068815D01*
X54449463Y-57165506D01*
X54390498Y-57275820D01*
X54354188Y-57395518D01*
X54341928Y-57520000D01*
X51520395Y-57520000D01*
X51648528Y-57391867D01*
X51570937Y-57142831D01*
X51306960Y-57016969D01*
X51023501Y-56945025D01*
X50731453Y-56929763D01*
X50442039Y-56971770D01*
X50166381Y-57069432D01*
X50029063Y-57142831D01*
X49951472Y-57391867D01*
X47179055Y-57391867D01*
X47159132Y-57326190D01*
X47100167Y-57215876D01*
X47020815Y-57119185D01*
X46924124Y-57039833D01*
X46813810Y-56980868D01*
X46694112Y-56944558D01*
X46569630Y-56932298D01*
X44870370Y-56932298D01*
X44745888Y-56944558D01*
X44626190Y-56980868D01*
X44515876Y-57039833D01*
X44419185Y-57119185D01*
X44339833Y-57215876D01*
X44280868Y-57326190D01*
X44244558Y-57445888D01*
X44232298Y-57570370D01*
X41310025Y-57570370D01*
X41488528Y-57391867D01*
X41410937Y-57142831D01*
X41146960Y-57016969D01*
X40863501Y-56945025D01*
X40571453Y-56929763D01*
X40282039Y-56971770D01*
X40006381Y-57069432D01*
X39869063Y-57142831D01*
X39791472Y-57391867D01*
X37019055Y-57391867D01*
X36999132Y-57326190D01*
X36940167Y-57215876D01*
X36860815Y-57119185D01*
X36764124Y-57039833D01*
X36653810Y-56980868D01*
X36534112Y-56944558D01*
X36409630Y-56932298D01*
X34710370Y-56932298D01*
X34696000Y-56933713D01*
X34696000Y-48476693D01*
X34710000Y-48478072D01*
X36410000Y-48478072D01*
X36534482Y-48465812D01*
X36654180Y-48429502D01*
X36764494Y-48370537D01*
X36861185Y-48291185D01*
X36940537Y-48194494D01*
X36999502Y-48084180D01*
X37020393Y-48015313D01*
X37044866Y-48045134D01*
X37270986Y-48230706D01*
X37528966Y-48368599D01*
X37808889Y-48453513D01*
X38027050Y-48475000D01*
X38172950Y-48475000D01*
X38391111Y-48453513D01*
X38671034Y-48368599D01*
X38929014Y-48230706D01*
X39155134Y-48045134D01*
X39340706Y-47819014D01*
X39370000Y-47764209D01*
X39399294Y-47819014D01*
X39584866Y-48045134D01*
X39810986Y-48230706D01*
X40068966Y-48368599D01*
X40348889Y-48453513D01*
X40567050Y-48475000D01*
X40712950Y-48475000D01*
X40931111Y-48453513D01*
X41211034Y-48368599D01*
X41469014Y-48230706D01*
X41695134Y-48045134D01*
X41880706Y-47819014D01*
X41910000Y-47764209D01*
X41939294Y-47819014D01*
X42124866Y-48045134D01*
X42350986Y-48230706D01*
X42608966Y-48368599D01*
X42888889Y-48453513D01*
X43107050Y-48475000D01*
X43252950Y-48475000D01*
X43471111Y-48453513D01*
X43751034Y-48368599D01*
X44009014Y-48230706D01*
X44235134Y-48045134D01*
X44259607Y-48015313D01*
X44280498Y-48084180D01*
X44339463Y-48194494D01*
X44418815Y-48291185D01*
X44515506Y-48370537D01*
X44625820Y-48429502D01*
X44745518Y-48465812D01*
X44870000Y-48478072D01*
X46570000Y-48478072D01*
X46694482Y-48465812D01*
X46814180Y-48429502D01*
X46924494Y-48370537D01*
X47021185Y-48291185D01*
X47100537Y-48194494D01*
X47159502Y-48084180D01*
X47180393Y-48015313D01*
X47204866Y-48045134D01*
X47430986Y-48230706D01*
X47688966Y-48368599D01*
X47968889Y-48453513D01*
X48187050Y-48475000D01*
X48332950Y-48475000D01*
X48551111Y-48453513D01*
X48831034Y-48368599D01*
X49089014Y-48230706D01*
X49315134Y-48045134D01*
X49500706Y-47819014D01*
X49530000Y-47764209D01*
X49559294Y-47819014D01*
X49744866Y-48045134D01*
X49970986Y-48230706D01*
X50228966Y-48368599D01*
X50508889Y-48453513D01*
X50727050Y-48475000D01*
X50872950Y-48475000D01*
X51091111Y-48453513D01*
X51371034Y-48368599D01*
X51629014Y-48230706D01*
X51855134Y-48045134D01*
X52040706Y-47819014D01*
X52070000Y-47764209D01*
X52099294Y-47819014D01*
X52284866Y-48045134D01*
X52510986Y-48230706D01*
X52768966Y-48368599D01*
X53048889Y-48453513D01*
X53267050Y-48475000D01*
X53412950Y-48475000D01*
X53631111Y-48453513D01*
X53911034Y-48368599D01*
X54169014Y-48230706D01*
X54395134Y-48045134D01*
X54580706Y-47819014D01*
X54718599Y-47561034D01*
X54803513Y-47281111D01*
X54832185Y-46990000D01*
X54818265Y-46848665D01*
X55715000Y-46848665D01*
X55715000Y-47131335D01*
X55770147Y-47408574D01*
X55878320Y-47669727D01*
X56035363Y-47904759D01*
X56235241Y-48104637D01*
X56470273Y-48261680D01*
X56731426Y-48369853D01*
X57008665Y-48425000D01*
X57291335Y-48425000D01*
X57568574Y-48369853D01*
X57829727Y-48261680D01*
X58064759Y-48104637D01*
X58264637Y-47904759D01*
X58354257Y-47770633D01*
X58391795Y-47861256D01*
X58505063Y-48030774D01*
X58521601Y-48047312D01*
X58521600Y-51523337D01*
X58517792Y-51562000D01*
X58521600Y-51600663D01*
X58521600Y-51600672D01*
X58525584Y-51641119D01*
X58421680Y-51390273D01*
X58264637Y-51155241D01*
X58064759Y-50955363D01*
X57829727Y-50798320D01*
X57568574Y-50690147D01*
X57291335Y-50635000D01*
X57008665Y-50635000D01*
X56731426Y-50690147D01*
X56470273Y-50798320D01*
X56235241Y-50955363D01*
X56035363Y-51155241D01*
X55878320Y-51390273D01*
X55770147Y-51651426D01*
X55715000Y-51928665D01*
X55715000Y-52211335D01*
X55770147Y-52488574D01*
X55878320Y-52749727D01*
X56035363Y-52984759D01*
X56235241Y-53184637D01*
X56470273Y-53341680D01*
X56731426Y-53449853D01*
X57008665Y-53505000D01*
X57291335Y-53505000D01*
X57568574Y-53449853D01*
X57829727Y-53341680D01*
X58064759Y-53184637D01*
X58264637Y-52984759D01*
X58421680Y-52749727D01*
X58529853Y-52488574D01*
X58585000Y-52211335D01*
X58585000Y-51928665D01*
X58561387Y-51809957D01*
X58578018Y-51864782D01*
X58651134Y-52001571D01*
X58749531Y-52121469D01*
X58779577Y-52146127D01*
X58909000Y-52275551D01*
X58909000Y-52298939D01*
X58948774Y-52498898D01*
X59026795Y-52687256D01*
X59140063Y-52856774D01*
X59284226Y-53000937D01*
X59453744Y-53114205D01*
X59642102Y-53192226D01*
X59842061Y-53232000D01*
X60045939Y-53232000D01*
X60245898Y-53192226D01*
X60434256Y-53114205D01*
X60603774Y-53000937D01*
X60747937Y-52856774D01*
X60861205Y-52687256D01*
X60870197Y-52665547D01*
X60931795Y-52814256D01*
X61045063Y-52983774D01*
X61189226Y-53127937D01*
X61358744Y-53241205D01*
X61547102Y-53319226D01*
X61747061Y-53359000D01*
X61950939Y-53359000D01*
X62150898Y-53319226D01*
X62339256Y-53241205D01*
X62508774Y-53127937D01*
X62652937Y-52983774D01*
X62766205Y-52814256D01*
X62844226Y-52625898D01*
X62884000Y-52425939D01*
X62884000Y-52222061D01*
X62844226Y-52022102D01*
X62805523Y-51928665D01*
X63335000Y-51928665D01*
X63335000Y-52211335D01*
X63390147Y-52488574D01*
X63498320Y-52749727D01*
X63655363Y-52984759D01*
X63855241Y-53184637D01*
X64090273Y-53341680D01*
X64351426Y-53449853D01*
X64628665Y-53505000D01*
X64911335Y-53505000D01*
X65188574Y-53449853D01*
X65449727Y-53341680D01*
X65684759Y-53184637D01*
X65884637Y-52984759D01*
X66041680Y-52749727D01*
X66149853Y-52488574D01*
X66205000Y-52211335D01*
X66205000Y-51928665D01*
X70955000Y-51928665D01*
X70955000Y-52211335D01*
X71010147Y-52488574D01*
X71118320Y-52749727D01*
X71275363Y-52984759D01*
X71475241Y-53184637D01*
X71710273Y-53341680D01*
X71971426Y-53449853D01*
X72248665Y-53505000D01*
X72531335Y-53505000D01*
X72808574Y-53449853D01*
X73069727Y-53341680D01*
X73304759Y-53184637D01*
X73504637Y-52984759D01*
X73661680Y-52749727D01*
X73769853Y-52488574D01*
X73825000Y-52211335D01*
X73825000Y-51928665D01*
X78575000Y-51928665D01*
X78575000Y-52211335D01*
X78630147Y-52488574D01*
X78738320Y-52749727D01*
X78895363Y-52984759D01*
X79095241Y-53184637D01*
X79330273Y-53341680D01*
X79591426Y-53449853D01*
X79868665Y-53505000D01*
X80151335Y-53505000D01*
X80428574Y-53449853D01*
X80689727Y-53341680D01*
X80924759Y-53184637D01*
X81124637Y-52984759D01*
X81281680Y-52749727D01*
X81389853Y-52488574D01*
X81445000Y-52211335D01*
X81445000Y-51928665D01*
X86195000Y-51928665D01*
X86195000Y-52211335D01*
X86250147Y-52488574D01*
X86358320Y-52749727D01*
X86515363Y-52984759D01*
X86715241Y-53184637D01*
X86950273Y-53341680D01*
X87211426Y-53449853D01*
X87488665Y-53505000D01*
X87771335Y-53505000D01*
X88048574Y-53449853D01*
X88309727Y-53341680D01*
X88544759Y-53184637D01*
X88744637Y-52984759D01*
X88901680Y-52749727D01*
X89009853Y-52488574D01*
X89065000Y-52211335D01*
X89065000Y-51928665D01*
X93815000Y-51928665D01*
X93815000Y-52211335D01*
X93870147Y-52488574D01*
X93978320Y-52749727D01*
X94135363Y-52984759D01*
X94335241Y-53184637D01*
X94570273Y-53341680D01*
X94831426Y-53449853D01*
X95108665Y-53505000D01*
X95391335Y-53505000D01*
X95668574Y-53449853D01*
X95929727Y-53341680D01*
X96164759Y-53184637D01*
X96364637Y-52984759D01*
X96521680Y-52749727D01*
X96629853Y-52488574D01*
X96685000Y-52211335D01*
X96685000Y-51928665D01*
X101435000Y-51928665D01*
X101435000Y-52211335D01*
X101490147Y-52488574D01*
X101598320Y-52749727D01*
X101755363Y-52984759D01*
X101955241Y-53184637D01*
X102190273Y-53341680D01*
X102451426Y-53449853D01*
X102728665Y-53505000D01*
X103011335Y-53505000D01*
X103288574Y-53449853D01*
X103549727Y-53341680D01*
X103784759Y-53184637D01*
X103984637Y-52984759D01*
X104141680Y-52749727D01*
X104249853Y-52488574D01*
X104305000Y-52211335D01*
X104305000Y-51928665D01*
X104249853Y-51651426D01*
X104141680Y-51390273D01*
X103984637Y-51155241D01*
X103784759Y-50955363D01*
X103549727Y-50798320D01*
X103288574Y-50690147D01*
X103011335Y-50635000D01*
X102728665Y-50635000D01*
X102451426Y-50690147D01*
X102190273Y-50798320D01*
X101955241Y-50955363D01*
X101755363Y-51155241D01*
X101598320Y-51390273D01*
X101490147Y-51651426D01*
X101435000Y-51928665D01*
X96685000Y-51928665D01*
X96629853Y-51651426D01*
X96521680Y-51390273D01*
X96364637Y-51155241D01*
X96164759Y-50955363D01*
X95929727Y-50798320D01*
X95668574Y-50690147D01*
X95391335Y-50635000D01*
X95108665Y-50635000D01*
X94831426Y-50690147D01*
X94570273Y-50798320D01*
X94335241Y-50955363D01*
X94135363Y-51155241D01*
X93978320Y-51390273D01*
X93870147Y-51651426D01*
X93815000Y-51928665D01*
X89065000Y-51928665D01*
X89009853Y-51651426D01*
X88901680Y-51390273D01*
X88744637Y-51155241D01*
X88544759Y-50955363D01*
X88309727Y-50798320D01*
X88048574Y-50690147D01*
X87771335Y-50635000D01*
X87488665Y-50635000D01*
X87211426Y-50690147D01*
X86950273Y-50798320D01*
X86715241Y-50955363D01*
X86515363Y-51155241D01*
X86358320Y-51390273D01*
X86250147Y-51651426D01*
X86195000Y-51928665D01*
X81445000Y-51928665D01*
X81389853Y-51651426D01*
X81281680Y-51390273D01*
X81124637Y-51155241D01*
X80924759Y-50955363D01*
X80689727Y-50798320D01*
X80428574Y-50690147D01*
X80151335Y-50635000D01*
X79868665Y-50635000D01*
X79591426Y-50690147D01*
X79330273Y-50798320D01*
X79095241Y-50955363D01*
X78895363Y-51155241D01*
X78738320Y-51390273D01*
X78630147Y-51651426D01*
X78575000Y-51928665D01*
X73825000Y-51928665D01*
X73769853Y-51651426D01*
X73661680Y-51390273D01*
X73504637Y-51155241D01*
X73304759Y-50955363D01*
X73069727Y-50798320D01*
X72808574Y-50690147D01*
X72531335Y-50635000D01*
X72248665Y-50635000D01*
X71971426Y-50690147D01*
X71710273Y-50798320D01*
X71475241Y-50955363D01*
X71275363Y-51155241D01*
X71118320Y-51390273D01*
X71010147Y-51651426D01*
X70955000Y-51928665D01*
X66205000Y-51928665D01*
X66149853Y-51651426D01*
X66041680Y-51390273D01*
X65884637Y-51155241D01*
X65684759Y-50955363D01*
X65449727Y-50798320D01*
X65188574Y-50690147D01*
X64911335Y-50635000D01*
X64628665Y-50635000D01*
X64351426Y-50690147D01*
X64090273Y-50798320D01*
X63855241Y-50955363D01*
X63655363Y-51155241D01*
X63498320Y-51390273D01*
X63390147Y-51651426D01*
X63335000Y-51928665D01*
X62805523Y-51928665D01*
X62766205Y-51833744D01*
X62652937Y-51664226D01*
X62636400Y-51647689D01*
X62636400Y-48459151D01*
X62759428Y-48336123D01*
X62789469Y-48311469D01*
X62887866Y-48191572D01*
X62904777Y-48159934D01*
X63033937Y-48030774D01*
X63147205Y-47861256D01*
X63225226Y-47672898D01*
X63265000Y-47472939D01*
X63265000Y-47269061D01*
X63225226Y-47069102D01*
X63147205Y-46880744D01*
X63125771Y-46848665D01*
X63335000Y-46848665D01*
X63335000Y-47131335D01*
X63390147Y-47408574D01*
X63498320Y-47669727D01*
X63655363Y-47904759D01*
X63855241Y-48104637D01*
X64090273Y-48261680D01*
X64351426Y-48369853D01*
X64628665Y-48425000D01*
X64911335Y-48425000D01*
X65188574Y-48369853D01*
X65449727Y-48261680D01*
X65684759Y-48104637D01*
X65884637Y-47904759D01*
X66041680Y-47669727D01*
X66149853Y-47408574D01*
X66205000Y-47131335D01*
X66205000Y-46848665D01*
X66149853Y-46571426D01*
X66041680Y-46310273D01*
X65884637Y-46075241D01*
X65684759Y-45875363D01*
X65449727Y-45718320D01*
X65188574Y-45610147D01*
X64911335Y-45555000D01*
X64628665Y-45555000D01*
X64351426Y-45610147D01*
X64090273Y-45718320D01*
X63855241Y-45875363D01*
X63655363Y-46075241D01*
X63498320Y-46310273D01*
X63390147Y-46571426D01*
X63335000Y-46848665D01*
X63125771Y-46848665D01*
X63033937Y-46711226D01*
X62889774Y-46567063D01*
X62720256Y-46453795D01*
X62531898Y-46375774D01*
X62331939Y-46336000D01*
X62128061Y-46336000D01*
X61928102Y-46375774D01*
X61739744Y-46453795D01*
X61595000Y-46550510D01*
X61450256Y-46453795D01*
X61261898Y-46375774D01*
X61061939Y-46336000D01*
X60858061Y-46336000D01*
X60658102Y-46375774D01*
X60469744Y-46453795D01*
X60300226Y-46567063D01*
X60156063Y-46711226D01*
X60134500Y-46743497D01*
X60112937Y-46711226D01*
X59968774Y-46567063D01*
X59799256Y-46453795D01*
X59610898Y-46375774D01*
X59410939Y-46336000D01*
X59207061Y-46336000D01*
X59007102Y-46375774D01*
X58818744Y-46453795D01*
X58649226Y-46567063D01*
X58548935Y-46667354D01*
X58529853Y-46571426D01*
X58421680Y-46310273D01*
X58264637Y-46075241D01*
X58064759Y-45875363D01*
X57829727Y-45718320D01*
X57568574Y-45610147D01*
X57291335Y-45555000D01*
X57008665Y-45555000D01*
X56731426Y-45610147D01*
X56470273Y-45718320D01*
X56235241Y-45875363D01*
X56035363Y-46075241D01*
X55878320Y-46310273D01*
X55770147Y-46571426D01*
X55715000Y-46848665D01*
X54818265Y-46848665D01*
X54803513Y-46698889D01*
X54718599Y-46418966D01*
X54580706Y-46160986D01*
X54395134Y-45934866D01*
X54169014Y-45749294D01*
X53911034Y-45611401D01*
X53631111Y-45526487D01*
X53412950Y-45505000D01*
X53267050Y-45505000D01*
X53048889Y-45526487D01*
X52768966Y-45611401D01*
X52510986Y-45749294D01*
X52284866Y-45934866D01*
X52099294Y-46160986D01*
X52070000Y-46215791D01*
X52040706Y-46160986D01*
X51855134Y-45934866D01*
X51629014Y-45749294D01*
X51371034Y-45611401D01*
X51091111Y-45526487D01*
X50872950Y-45505000D01*
X50727050Y-45505000D01*
X50508889Y-45526487D01*
X50228966Y-45611401D01*
X49970986Y-45749294D01*
X49744866Y-45934866D01*
X49559294Y-46160986D01*
X49530000Y-46215791D01*
X49500706Y-46160986D01*
X49315134Y-45934866D01*
X49089014Y-45749294D01*
X48831034Y-45611401D01*
X48551111Y-45526487D01*
X48332950Y-45505000D01*
X48187050Y-45505000D01*
X47968889Y-45526487D01*
X47688966Y-45611401D01*
X47430986Y-45749294D01*
X47204866Y-45934866D01*
X47180393Y-45964687D01*
X47159502Y-45895820D01*
X47100537Y-45785506D01*
X47021185Y-45688815D01*
X46924494Y-45609463D01*
X46814180Y-45550498D01*
X46694482Y-45514188D01*
X46570000Y-45501928D01*
X44870000Y-45501928D01*
X44745518Y-45514188D01*
X44625820Y-45550498D01*
X44515506Y-45609463D01*
X44418815Y-45688815D01*
X44339463Y-45785506D01*
X44280498Y-45895820D01*
X44259607Y-45964687D01*
X44235134Y-45934866D01*
X44009014Y-45749294D01*
X43751034Y-45611401D01*
X43471111Y-45526487D01*
X43252950Y-45505000D01*
X43107050Y-45505000D01*
X42888889Y-45526487D01*
X42608966Y-45611401D01*
X42350986Y-45749294D01*
X42124866Y-45934866D01*
X41939294Y-46160986D01*
X41910000Y-46215791D01*
X41880706Y-46160986D01*
X41695134Y-45934866D01*
X41469014Y-45749294D01*
X41211034Y-45611401D01*
X40931111Y-45526487D01*
X40712950Y-45505000D01*
X40567050Y-45505000D01*
X40348889Y-45526487D01*
X40068966Y-45611401D01*
X39810986Y-45749294D01*
X39584866Y-45934866D01*
X39399294Y-46160986D01*
X39370000Y-46215791D01*
X39340706Y-46160986D01*
X39155134Y-45934866D01*
X38929014Y-45749294D01*
X38671034Y-45611401D01*
X38391111Y-45526487D01*
X38172950Y-45505000D01*
X38027050Y-45505000D01*
X37808889Y-45526487D01*
X37528966Y-45611401D01*
X37270986Y-45749294D01*
X37044866Y-45934866D01*
X37020393Y-45964687D01*
X36999502Y-45895820D01*
X36940537Y-45785506D01*
X36861185Y-45688815D01*
X36764494Y-45609463D01*
X36654180Y-45550498D01*
X36534482Y-45514188D01*
X36410000Y-45501928D01*
X34710000Y-45501928D01*
X34696000Y-45503307D01*
X34696000Y-44602061D01*
X70593000Y-44602061D01*
X70593000Y-44805939D01*
X70632774Y-45005898D01*
X70710795Y-45194256D01*
X70824063Y-45363774D01*
X70968226Y-45507937D01*
X71137744Y-45621205D01*
X71326102Y-45699226D01*
X71526061Y-45739000D01*
X71679323Y-45739000D01*
X71475241Y-45875363D01*
X71275363Y-46075241D01*
X71118320Y-46310273D01*
X71010147Y-46571426D01*
X70955000Y-46848665D01*
X70955000Y-47131335D01*
X71010147Y-47408574D01*
X71118320Y-47669727D01*
X71275363Y-47904759D01*
X71475241Y-48104637D01*
X71710273Y-48261680D01*
X71971426Y-48369853D01*
X72248665Y-48425000D01*
X72531335Y-48425000D01*
X72808574Y-48369853D01*
X73069727Y-48261680D01*
X73304759Y-48104637D01*
X73504637Y-47904759D01*
X73661680Y-47669727D01*
X73769853Y-47408574D01*
X73825000Y-47131335D01*
X73825000Y-46848665D01*
X73769853Y-46571426D01*
X73661680Y-46310273D01*
X73504637Y-46075241D01*
X73304759Y-45875363D01*
X73069727Y-45718320D01*
X72808574Y-45610147D01*
X72531335Y-45555000D01*
X72248665Y-45555000D01*
X72204060Y-45563873D01*
X72287774Y-45507937D01*
X72304311Y-45491400D01*
X77397850Y-45491400D01*
X78604883Y-46698434D01*
X78575000Y-46848665D01*
X78575000Y-47131335D01*
X78630147Y-47408574D01*
X78738320Y-47669727D01*
X78895363Y-47904759D01*
X79095241Y-48104637D01*
X79330273Y-48261680D01*
X79591426Y-48369853D01*
X79868665Y-48425000D01*
X80151335Y-48425000D01*
X80428574Y-48369853D01*
X80689727Y-48261680D01*
X80924759Y-48104637D01*
X81124637Y-47904759D01*
X81281680Y-47669727D01*
X81389853Y-47408574D01*
X81445000Y-47131335D01*
X81445000Y-46848665D01*
X86195000Y-46848665D01*
X86195000Y-47131335D01*
X86250147Y-47408574D01*
X86358320Y-47669727D01*
X86515363Y-47904759D01*
X86715241Y-48104637D01*
X86950273Y-48261680D01*
X87211426Y-48369853D01*
X87488665Y-48425000D01*
X87771335Y-48425000D01*
X88048574Y-48369853D01*
X88309727Y-48261680D01*
X88544759Y-48104637D01*
X88744637Y-47904759D01*
X88901680Y-47669727D01*
X89009853Y-47408574D01*
X89065000Y-47131335D01*
X89065000Y-46848665D01*
X93815000Y-46848665D01*
X93815000Y-47131335D01*
X93870147Y-47408574D01*
X93978320Y-47669727D01*
X94135363Y-47904759D01*
X94335241Y-48104637D01*
X94570273Y-48261680D01*
X94831426Y-48369853D01*
X95108665Y-48425000D01*
X95391335Y-48425000D01*
X95668574Y-48369853D01*
X95929727Y-48261680D01*
X96164759Y-48104637D01*
X96364637Y-47904759D01*
X96521680Y-47669727D01*
X96629853Y-47408574D01*
X96685000Y-47131335D01*
X96685000Y-46848665D01*
X101435000Y-46848665D01*
X101435000Y-47131335D01*
X101490147Y-47408574D01*
X101598320Y-47669727D01*
X101755363Y-47904759D01*
X101955241Y-48104637D01*
X102190273Y-48261680D01*
X102451426Y-48369853D01*
X102728665Y-48425000D01*
X103011335Y-48425000D01*
X103288574Y-48369853D01*
X103549727Y-48261680D01*
X103784759Y-48104637D01*
X103984637Y-47904759D01*
X104141680Y-47669727D01*
X104195141Y-47540660D01*
X104357401Y-47540660D01*
X104357401Y-47744538D01*
X104397175Y-47944497D01*
X104475196Y-48132855D01*
X104588464Y-48302373D01*
X104605002Y-48318911D01*
X104605001Y-50014288D01*
X104588464Y-50030825D01*
X104475196Y-50200343D01*
X104397175Y-50388701D01*
X104357401Y-50588660D01*
X104357401Y-50792538D01*
X104397175Y-50992497D01*
X104475196Y-51180855D01*
X104588464Y-51350373D01*
X104732627Y-51494536D01*
X104902145Y-51607804D01*
X105090503Y-51685825D01*
X105290462Y-51725599D01*
X105494340Y-51725599D01*
X105694299Y-51685825D01*
X105757915Y-51659474D01*
X105762795Y-51671256D01*
X105876063Y-51840774D01*
X106020226Y-51984937D01*
X106189744Y-52098205D01*
X106378102Y-52176226D01*
X106578061Y-52216000D01*
X106781939Y-52216000D01*
X106981898Y-52176226D01*
X107170256Y-52098205D01*
X107339774Y-51984937D01*
X107413658Y-51911053D01*
X107477343Y-51953606D01*
X107665701Y-52031627D01*
X107865660Y-52071401D01*
X108069538Y-52071401D01*
X108269497Y-52031627D01*
X108457855Y-51953606D01*
X108627373Y-51840338D01*
X108771536Y-51696175D01*
X108884804Y-51526657D01*
X108962825Y-51338299D01*
X109002599Y-51138340D01*
X109002599Y-50934462D01*
X108962825Y-50734503D01*
X108884804Y-50546145D01*
X108771536Y-50376627D01*
X108754999Y-50360090D01*
X108754999Y-48445910D01*
X108771536Y-48429373D01*
X108884804Y-48259855D01*
X108962825Y-48071497D01*
X109002599Y-47871538D01*
X109002599Y-47667660D01*
X108962825Y-47467701D01*
X108884804Y-47279343D01*
X108771536Y-47109825D01*
X108627373Y-46965662D01*
X108457855Y-46852394D01*
X108448853Y-46848665D01*
X109055000Y-46848665D01*
X109055000Y-47131335D01*
X109110147Y-47408574D01*
X109218320Y-47669727D01*
X109375363Y-47904759D01*
X109575241Y-48104637D01*
X109702601Y-48189736D01*
X109702600Y-49618337D01*
X109698792Y-49657000D01*
X109702600Y-49695663D01*
X109702600Y-49695672D01*
X109713994Y-49811356D01*
X109759018Y-49959782D01*
X109832134Y-50096571D01*
X109930531Y-50216469D01*
X109960578Y-50241128D01*
X110354450Y-50635000D01*
X110348665Y-50635000D01*
X110071426Y-50690147D01*
X109810273Y-50798320D01*
X109575241Y-50955363D01*
X109375363Y-51155241D01*
X109218320Y-51390273D01*
X109110147Y-51651426D01*
X109055000Y-51928665D01*
X109055000Y-52211335D01*
X109110147Y-52488574D01*
X109218320Y-52749727D01*
X109375363Y-52984759D01*
X109575241Y-53184637D01*
X109810273Y-53341680D01*
X110071426Y-53449853D01*
X110348665Y-53505000D01*
X110631335Y-53505000D01*
X110908574Y-53449853D01*
X111169727Y-53341680D01*
X111404759Y-53184637D01*
X111604637Y-52984759D01*
X111761680Y-52749727D01*
X111869853Y-52488574D01*
X111925000Y-52211335D01*
X111925000Y-52205551D01*
X113579282Y-53859834D01*
X113603932Y-53889870D01*
X113633968Y-53914520D01*
X113633971Y-53914523D01*
X113723828Y-53988266D01*
X113723829Y-53988267D01*
X113860618Y-54061383D01*
X114009044Y-54106407D01*
X114124728Y-54117801D01*
X114124736Y-54117801D01*
X114163401Y-54121609D01*
X114202066Y-54117801D01*
X126081936Y-54117801D01*
X126120599Y-54121609D01*
X126159262Y-54117801D01*
X126159272Y-54117801D01*
X126274956Y-54106407D01*
X126423382Y-54061383D01*
X126560171Y-53988267D01*
X126680068Y-53889870D01*
X126704726Y-53859824D01*
X126951551Y-53613000D01*
X126974939Y-53613000D01*
X127174898Y-53573226D01*
X127363256Y-53495205D01*
X127532774Y-53381937D01*
X127676937Y-53237774D01*
X127790205Y-53068256D01*
X127868226Y-52879898D01*
X127908000Y-52679939D01*
X127908000Y-52476061D01*
X127868226Y-52276102D01*
X127790205Y-52087744D01*
X127676937Y-51918226D01*
X127532774Y-51774063D01*
X127363256Y-51660795D01*
X127174898Y-51582774D01*
X126974939Y-51543000D01*
X126771061Y-51543000D01*
X126732500Y-51550670D01*
X126725226Y-51514102D01*
X126647205Y-51325744D01*
X126533937Y-51156226D01*
X126389774Y-51012063D01*
X126220256Y-50898795D01*
X126031898Y-50820774D01*
X125831939Y-50781000D01*
X125628061Y-50781000D01*
X125622000Y-50782206D01*
X125622000Y-50698061D01*
X125582226Y-50498102D01*
X125504205Y-50309744D01*
X125390937Y-50140226D01*
X125246774Y-49996063D01*
X125077256Y-49882795D01*
X124888898Y-49804774D01*
X124688939Y-49765000D01*
X124665551Y-49765000D01*
X124155127Y-49254577D01*
X124130469Y-49224531D01*
X124010572Y-49126134D01*
X123873783Y-49053018D01*
X123725357Y-49007994D01*
X123609673Y-48996600D01*
X123609663Y-48996600D01*
X123571000Y-48992792D01*
X123532337Y-48996600D01*
X113198311Y-48996600D01*
X113181774Y-48980063D01*
X113012256Y-48866795D01*
X112823898Y-48788774D01*
X112623939Y-48749000D01*
X112420061Y-48749000D01*
X112220102Y-48788774D01*
X112031744Y-48866795D01*
X111862226Y-48980063D01*
X111718063Y-49124226D01*
X111604795Y-49293744D01*
X111526774Y-49482102D01*
X111510495Y-49563944D01*
X111277400Y-49330850D01*
X111277400Y-48189735D01*
X111404759Y-48104637D01*
X111604637Y-47904759D01*
X111761680Y-47669727D01*
X111869853Y-47408574D01*
X111925000Y-47131335D01*
X111925000Y-46848665D01*
X111869853Y-46571426D01*
X111761680Y-46310273D01*
X111604637Y-46075241D01*
X111404759Y-45875363D01*
X111169727Y-45718320D01*
X110908574Y-45610147D01*
X110631335Y-45555000D01*
X110348665Y-45555000D01*
X110071426Y-45610147D01*
X109810273Y-45718320D01*
X109575241Y-45875363D01*
X109375363Y-46075241D01*
X109218320Y-46310273D01*
X109110147Y-46571426D01*
X109055000Y-46848665D01*
X108448853Y-46848665D01*
X108269497Y-46774373D01*
X108069538Y-46734599D01*
X107865660Y-46734599D01*
X107665701Y-46774373D01*
X107477343Y-46852394D01*
X107413658Y-46894947D01*
X107339774Y-46821063D01*
X107170256Y-46707795D01*
X106981898Y-46629774D01*
X106781939Y-46590000D01*
X106578061Y-46590000D01*
X106378102Y-46629774D01*
X106189744Y-46707795D01*
X106023031Y-46819189D01*
X105882657Y-46725394D01*
X105694299Y-46647373D01*
X105494340Y-46607599D01*
X105290462Y-46607599D01*
X105090503Y-46647373D01*
X104902145Y-46725394D01*
X104732627Y-46838662D01*
X104588464Y-46982825D01*
X104475196Y-47152343D01*
X104397175Y-47340701D01*
X104357401Y-47540660D01*
X104195141Y-47540660D01*
X104249853Y-47408574D01*
X104305000Y-47131335D01*
X104305000Y-46848665D01*
X104249853Y-46571426D01*
X104141680Y-46310273D01*
X103984637Y-46075241D01*
X103784759Y-45875363D01*
X103549727Y-45718320D01*
X103288574Y-45610147D01*
X103011335Y-45555000D01*
X102728665Y-45555000D01*
X102451426Y-45610147D01*
X102190273Y-45718320D01*
X101955241Y-45875363D01*
X101755363Y-46075241D01*
X101598320Y-46310273D01*
X101490147Y-46571426D01*
X101435000Y-46848665D01*
X96685000Y-46848665D01*
X96629853Y-46571426D01*
X96521680Y-46310273D01*
X96364637Y-46075241D01*
X96164759Y-45875363D01*
X95929727Y-45718320D01*
X95668574Y-45610147D01*
X95391335Y-45555000D01*
X95108665Y-45555000D01*
X94831426Y-45610147D01*
X94570273Y-45718320D01*
X94335241Y-45875363D01*
X94135363Y-46075241D01*
X93978320Y-46310273D01*
X93870147Y-46571426D01*
X93815000Y-46848665D01*
X89065000Y-46848665D01*
X89035117Y-46698434D01*
X90750152Y-44983400D01*
X109305689Y-44983400D01*
X109322226Y-44999937D01*
X109491744Y-45113205D01*
X109680102Y-45191226D01*
X109880061Y-45231000D01*
X110083939Y-45231000D01*
X110283898Y-45191226D01*
X110472256Y-45113205D01*
X110641774Y-44999937D01*
X110785937Y-44855774D01*
X110899205Y-44686256D01*
X110977226Y-44497898D01*
X111017000Y-44297939D01*
X111017000Y-44094061D01*
X110977226Y-43894102D01*
X110899205Y-43705744D01*
X110785937Y-43536226D01*
X110641774Y-43392063D01*
X110472256Y-43278795D01*
X110283898Y-43200774D01*
X110083939Y-43161000D01*
X110029755Y-43161000D01*
X110049014Y-43150706D01*
X110275134Y-42965134D01*
X110460706Y-42739014D01*
X110490000Y-42684209D01*
X110519294Y-42739014D01*
X110704866Y-42965134D01*
X110930986Y-43150706D01*
X111188966Y-43288599D01*
X111468889Y-43373513D01*
X111687050Y-43395000D01*
X111832950Y-43395000D01*
X112051111Y-43373513D01*
X112331034Y-43288599D01*
X112589014Y-43150706D01*
X112815134Y-42965134D01*
X113000706Y-42739014D01*
X113138599Y-42481034D01*
X113223513Y-42201111D01*
X113252185Y-41910000D01*
X113223513Y-41618889D01*
X113138599Y-41338966D01*
X113000706Y-41080986D01*
X112983484Y-41060000D01*
X117891928Y-41060000D01*
X117891928Y-42760000D01*
X117904188Y-42884482D01*
X117940498Y-43004180D01*
X117999463Y-43114494D01*
X118078815Y-43211185D01*
X118175506Y-43290537D01*
X118285820Y-43349502D01*
X118405518Y-43385812D01*
X118530000Y-43398072D01*
X120230000Y-43398072D01*
X120354482Y-43385812D01*
X120474180Y-43349502D01*
X120584494Y-43290537D01*
X120681185Y-43211185D01*
X120760537Y-43114494D01*
X120819502Y-43004180D01*
X120840393Y-42935313D01*
X120864866Y-42965134D01*
X121090986Y-43150706D01*
X121348966Y-43288599D01*
X121628889Y-43373513D01*
X121847050Y-43395000D01*
X121992950Y-43395000D01*
X122211111Y-43373513D01*
X122491034Y-43288599D01*
X122749014Y-43150706D01*
X122975134Y-42965134D01*
X123160706Y-42739014D01*
X123195201Y-42674477D01*
X123264822Y-42791355D01*
X123459731Y-43007588D01*
X123693080Y-43181641D01*
X123955901Y-43306825D01*
X124103110Y-43351476D01*
X124333000Y-43230155D01*
X124333000Y-42037000D01*
X124587000Y-42037000D01*
X124587000Y-43230155D01*
X124816890Y-43351476D01*
X124964099Y-43306825D01*
X125226920Y-43181641D01*
X125460269Y-43007588D01*
X125655178Y-42791355D01*
X125730000Y-42665745D01*
X125804822Y-42791355D01*
X125999731Y-43007588D01*
X126233080Y-43181641D01*
X126495901Y-43306825D01*
X126643110Y-43351476D01*
X126873000Y-43230155D01*
X126873000Y-42037000D01*
X127127000Y-42037000D01*
X127127000Y-43230155D01*
X127356890Y-43351476D01*
X127504099Y-43306825D01*
X127766920Y-43181641D01*
X128000269Y-43007588D01*
X128195178Y-42791355D01*
X128344157Y-42541252D01*
X128441481Y-42266891D01*
X128320814Y-42037000D01*
X127127000Y-42037000D01*
X126873000Y-42037000D01*
X124587000Y-42037000D01*
X124333000Y-42037000D01*
X124313000Y-42037000D01*
X124313000Y-41783000D01*
X124333000Y-41783000D01*
X124333000Y-40589845D01*
X124587000Y-40589845D01*
X124587000Y-41783000D01*
X126873000Y-41783000D01*
X126873000Y-40589845D01*
X127127000Y-40589845D01*
X127127000Y-41783000D01*
X128320814Y-41783000D01*
X128441481Y-41553109D01*
X128344157Y-41278748D01*
X128195178Y-41028645D01*
X128000269Y-40812412D01*
X127766920Y-40638359D01*
X127504099Y-40513175D01*
X127356890Y-40468524D01*
X127127000Y-40589845D01*
X126873000Y-40589845D01*
X126643110Y-40468524D01*
X126495901Y-40513175D01*
X126233080Y-40638359D01*
X125999731Y-40812412D01*
X125804822Y-41028645D01*
X125730000Y-41154255D01*
X125655178Y-41028645D01*
X125460269Y-40812412D01*
X125226920Y-40638359D01*
X124964099Y-40513175D01*
X124816890Y-40468524D01*
X124587000Y-40589845D01*
X124333000Y-40589845D01*
X124103110Y-40468524D01*
X123955901Y-40513175D01*
X123693080Y-40638359D01*
X123459731Y-40812412D01*
X123264822Y-41028645D01*
X123195201Y-41145523D01*
X123160706Y-41080986D01*
X122975134Y-40854866D01*
X122749014Y-40669294D01*
X122491034Y-40531401D01*
X122211111Y-40446487D01*
X121992950Y-40425000D01*
X121847050Y-40425000D01*
X121628889Y-40446487D01*
X121348966Y-40531401D01*
X121090986Y-40669294D01*
X120864866Y-40854866D01*
X120840393Y-40884687D01*
X120819502Y-40815820D01*
X120760537Y-40705506D01*
X120681185Y-40608815D01*
X120584494Y-40529463D01*
X120474180Y-40470498D01*
X120354482Y-40434188D01*
X120230000Y-40421928D01*
X118530000Y-40421928D01*
X118405518Y-40434188D01*
X118285820Y-40470498D01*
X118175506Y-40529463D01*
X118078815Y-40608815D01*
X117999463Y-40705506D01*
X117940498Y-40815820D01*
X117904188Y-40935518D01*
X117891928Y-41060000D01*
X112983484Y-41060000D01*
X112815134Y-40854866D01*
X112589014Y-40669294D01*
X112331034Y-40531401D01*
X112051111Y-40446487D01*
X111832950Y-40425000D01*
X111687050Y-40425000D01*
X111468889Y-40446487D01*
X111188966Y-40531401D01*
X110930986Y-40669294D01*
X110704866Y-40854866D01*
X110519294Y-41080986D01*
X110490000Y-41135791D01*
X110460706Y-41080986D01*
X110275134Y-40854866D01*
X110049014Y-40669294D01*
X109791034Y-40531401D01*
X109511111Y-40446487D01*
X109292950Y-40425000D01*
X109147050Y-40425000D01*
X108928889Y-40446487D01*
X108648966Y-40531401D01*
X108390986Y-40669294D01*
X108164866Y-40854866D01*
X107979294Y-41080986D01*
X107950000Y-41135791D01*
X107920706Y-41080986D01*
X107735134Y-40854866D01*
X107509014Y-40669294D01*
X107251034Y-40531401D01*
X106971111Y-40446487D01*
X106752950Y-40425000D01*
X106607050Y-40425000D01*
X106388889Y-40446487D01*
X106108966Y-40531401D01*
X105850986Y-40669294D01*
X105624866Y-40854866D01*
X105439294Y-41080986D01*
X105410000Y-41135791D01*
X105380706Y-41080986D01*
X105195134Y-40854866D01*
X104969014Y-40669294D01*
X104711034Y-40531401D01*
X104431111Y-40446487D01*
X104212950Y-40425000D01*
X104067050Y-40425000D01*
X103848889Y-40446487D01*
X103568966Y-40531401D01*
X103310986Y-40669294D01*
X103084866Y-40854866D01*
X103060393Y-40884687D01*
X103039502Y-40815820D01*
X102980537Y-40705506D01*
X102901185Y-40608815D01*
X102804494Y-40529463D01*
X102694180Y-40470498D01*
X102574482Y-40434188D01*
X102450000Y-40421928D01*
X101885750Y-40425000D01*
X101727000Y-40583750D01*
X101727000Y-41783000D01*
X101747000Y-41783000D01*
X101747000Y-42037000D01*
X101727000Y-42037000D01*
X101727000Y-43236250D01*
X101885750Y-43395000D01*
X102450000Y-43398072D01*
X102574482Y-43385812D01*
X102694180Y-43349502D01*
X102804494Y-43290537D01*
X102901185Y-43211185D01*
X102980537Y-43114494D01*
X103039502Y-43004180D01*
X103060393Y-42935313D01*
X103084866Y-42965134D01*
X103310986Y-43150706D01*
X103568966Y-43288599D01*
X103848889Y-43373513D01*
X104067050Y-43395000D01*
X104212950Y-43395000D01*
X104431111Y-43373513D01*
X104711034Y-43288599D01*
X104969014Y-43150706D01*
X105195134Y-42965134D01*
X105380706Y-42739014D01*
X105410000Y-42684209D01*
X105439294Y-42739014D01*
X105624866Y-42965134D01*
X105850986Y-43150706D01*
X106108966Y-43288599D01*
X106388889Y-43373513D01*
X106607050Y-43395000D01*
X106752950Y-43395000D01*
X106971111Y-43373513D01*
X107251034Y-43288599D01*
X107509014Y-43150706D01*
X107735134Y-42965134D01*
X107920706Y-42739014D01*
X107950000Y-42684209D01*
X107979294Y-42739014D01*
X108164866Y-42965134D01*
X108390986Y-43150706D01*
X108648966Y-43288599D01*
X108928889Y-43373513D01*
X109147050Y-43395000D01*
X109292950Y-43395000D01*
X109322167Y-43392122D01*
X109305689Y-43408600D01*
X90462665Y-43408600D01*
X90424000Y-43404792D01*
X90385335Y-43408600D01*
X90385327Y-43408600D01*
X90269643Y-43419994D01*
X90121217Y-43465018D01*
X89984427Y-43538134D01*
X89894570Y-43611878D01*
X89894567Y-43611881D01*
X89864531Y-43636531D01*
X89839881Y-43666567D01*
X87921566Y-45584883D01*
X87771335Y-45555000D01*
X87488665Y-45555000D01*
X87211426Y-45610147D01*
X86950273Y-45718320D01*
X86715241Y-45875363D01*
X86515363Y-46075241D01*
X86358320Y-46310273D01*
X86250147Y-46571426D01*
X86195000Y-46848665D01*
X81445000Y-46848665D01*
X81389853Y-46571426D01*
X81281680Y-46310273D01*
X81124637Y-46075241D01*
X80924759Y-45875363D01*
X80689727Y-45718320D01*
X80428574Y-45610147D01*
X80151335Y-45555000D01*
X79868665Y-45555000D01*
X79718434Y-45584883D01*
X78308128Y-44174577D01*
X78283469Y-44144531D01*
X78163572Y-44046134D01*
X78026783Y-43973018D01*
X77878357Y-43927994D01*
X77762673Y-43916600D01*
X77762663Y-43916600D01*
X77724000Y-43912792D01*
X77685337Y-43916600D01*
X72304311Y-43916600D01*
X72287774Y-43900063D01*
X72118256Y-43786795D01*
X71929898Y-43708774D01*
X71729939Y-43669000D01*
X71526061Y-43669000D01*
X71326102Y-43708774D01*
X71137744Y-43786795D01*
X70968226Y-43900063D01*
X70824063Y-44044226D01*
X70710795Y-44213744D01*
X70632774Y-44402102D01*
X70593000Y-44602061D01*
X34696000Y-44602061D01*
X34696000Y-42760000D01*
X54391928Y-42760000D01*
X54404188Y-42884482D01*
X54440498Y-43004180D01*
X54499463Y-43114494D01*
X54578815Y-43211185D01*
X54675506Y-43290537D01*
X54785820Y-43349502D01*
X54905518Y-43385812D01*
X55030000Y-43398072D01*
X55594250Y-43395000D01*
X55753000Y-43236250D01*
X55753000Y-42037000D01*
X54553750Y-42037000D01*
X54395000Y-42195750D01*
X54391928Y-42760000D01*
X34696000Y-42760000D01*
X34696000Y-41060000D01*
X54391928Y-41060000D01*
X54395000Y-41624250D01*
X54553750Y-41783000D01*
X55753000Y-41783000D01*
X55753000Y-40583750D01*
X56007000Y-40583750D01*
X56007000Y-41783000D01*
X56027000Y-41783000D01*
X56027000Y-42037000D01*
X56007000Y-42037000D01*
X56007000Y-43236250D01*
X56165750Y-43395000D01*
X56730000Y-43398072D01*
X56854482Y-43385812D01*
X56974180Y-43349502D01*
X57084494Y-43290537D01*
X57181185Y-43211185D01*
X57260537Y-43114494D01*
X57319502Y-43004180D01*
X57340393Y-42935313D01*
X57364866Y-42965134D01*
X57590986Y-43150706D01*
X57848966Y-43288599D01*
X58128889Y-43373513D01*
X58347050Y-43395000D01*
X58492950Y-43395000D01*
X58711111Y-43373513D01*
X58991034Y-43288599D01*
X59249014Y-43150706D01*
X59475134Y-42965134D01*
X59660706Y-42739014D01*
X59690000Y-42684209D01*
X59719294Y-42739014D01*
X59904866Y-42965134D01*
X60130986Y-43150706D01*
X60388966Y-43288599D01*
X60668889Y-43373513D01*
X60887050Y-43395000D01*
X61032950Y-43395000D01*
X61251111Y-43373513D01*
X61531034Y-43288599D01*
X61789014Y-43150706D01*
X62015134Y-42965134D01*
X62200706Y-42739014D01*
X62230000Y-42684209D01*
X62259294Y-42739014D01*
X62444866Y-42965134D01*
X62670986Y-43150706D01*
X62928966Y-43288599D01*
X63208889Y-43373513D01*
X63427050Y-43395000D01*
X63572950Y-43395000D01*
X63791111Y-43373513D01*
X64071034Y-43288599D01*
X64329014Y-43150706D01*
X64555134Y-42965134D01*
X64740706Y-42739014D01*
X64770000Y-42684209D01*
X64799294Y-42739014D01*
X64984866Y-42965134D01*
X65210986Y-43150706D01*
X65468966Y-43288599D01*
X65748889Y-43373513D01*
X65967050Y-43395000D01*
X66112950Y-43395000D01*
X66331111Y-43373513D01*
X66611034Y-43288599D01*
X66869014Y-43150706D01*
X67095134Y-42965134D01*
X67263483Y-42760000D01*
X69631928Y-42760000D01*
X69644188Y-42884482D01*
X69680498Y-43004180D01*
X69739463Y-43114494D01*
X69818815Y-43211185D01*
X69915506Y-43290537D01*
X70025820Y-43349502D01*
X70145518Y-43385812D01*
X70270000Y-43398072D01*
X70834250Y-43395000D01*
X70993000Y-43236250D01*
X70993000Y-42037000D01*
X69793750Y-42037000D01*
X69635000Y-42195750D01*
X69631928Y-42760000D01*
X67263483Y-42760000D01*
X67280706Y-42739014D01*
X67418599Y-42481034D01*
X67503513Y-42201111D01*
X67532185Y-41910000D01*
X67503513Y-41618889D01*
X67418599Y-41338966D01*
X67280706Y-41080986D01*
X67263484Y-41060000D01*
X69631928Y-41060000D01*
X69635000Y-41624250D01*
X69793750Y-41783000D01*
X70993000Y-41783000D01*
X70993000Y-40583750D01*
X71247000Y-40583750D01*
X71247000Y-41783000D01*
X71267000Y-41783000D01*
X71267000Y-42037000D01*
X71247000Y-42037000D01*
X71247000Y-43236250D01*
X71405750Y-43395000D01*
X71970000Y-43398072D01*
X72094482Y-43385812D01*
X72214180Y-43349502D01*
X72324494Y-43290537D01*
X72421185Y-43211185D01*
X72500537Y-43114494D01*
X72559502Y-43004180D01*
X72580393Y-42935313D01*
X72604866Y-42965134D01*
X72830986Y-43150706D01*
X73088966Y-43288599D01*
X73368889Y-43373513D01*
X73587050Y-43395000D01*
X73732950Y-43395000D01*
X73951111Y-43373513D01*
X74231034Y-43288599D01*
X74489014Y-43150706D01*
X74715134Y-42965134D01*
X74900706Y-42739014D01*
X74930000Y-42684209D01*
X74959294Y-42739014D01*
X75144866Y-42965134D01*
X75370986Y-43150706D01*
X75628966Y-43288599D01*
X75908889Y-43373513D01*
X76127050Y-43395000D01*
X76272950Y-43395000D01*
X76491111Y-43373513D01*
X76771034Y-43288599D01*
X77029014Y-43150706D01*
X77255134Y-42965134D01*
X77440706Y-42739014D01*
X77470000Y-42684209D01*
X77499294Y-42739014D01*
X77684866Y-42965134D01*
X77910986Y-43150706D01*
X78168966Y-43288599D01*
X78448889Y-43373513D01*
X78667050Y-43395000D01*
X78812950Y-43395000D01*
X79031111Y-43373513D01*
X79311034Y-43288599D01*
X79569014Y-43150706D01*
X79795134Y-42965134D01*
X79980706Y-42739014D01*
X80010000Y-42684209D01*
X80039294Y-42739014D01*
X80224866Y-42965134D01*
X80450986Y-43150706D01*
X80708966Y-43288599D01*
X80988889Y-43373513D01*
X81207050Y-43395000D01*
X81352950Y-43395000D01*
X81571111Y-43373513D01*
X81851034Y-43288599D01*
X82109014Y-43150706D01*
X82335134Y-42965134D01*
X82503483Y-42760000D01*
X84871928Y-42760000D01*
X84884188Y-42884482D01*
X84920498Y-43004180D01*
X84979463Y-43114494D01*
X85058815Y-43211185D01*
X85155506Y-43290537D01*
X85265820Y-43349502D01*
X85385518Y-43385812D01*
X85510000Y-43398072D01*
X86074250Y-43395000D01*
X86233000Y-43236250D01*
X86233000Y-42037000D01*
X85033750Y-42037000D01*
X84875000Y-42195750D01*
X84871928Y-42760000D01*
X82503483Y-42760000D01*
X82520706Y-42739014D01*
X82658599Y-42481034D01*
X82743513Y-42201111D01*
X82772185Y-41910000D01*
X82743513Y-41618889D01*
X82658599Y-41338966D01*
X82520706Y-41080986D01*
X82503484Y-41060000D01*
X84871928Y-41060000D01*
X84875000Y-41624250D01*
X85033750Y-41783000D01*
X86233000Y-41783000D01*
X86233000Y-40583750D01*
X86487000Y-40583750D01*
X86487000Y-41783000D01*
X86507000Y-41783000D01*
X86507000Y-42037000D01*
X86487000Y-42037000D01*
X86487000Y-43236250D01*
X86645750Y-43395000D01*
X87210000Y-43398072D01*
X87334482Y-43385812D01*
X87454180Y-43349502D01*
X87564494Y-43290537D01*
X87661185Y-43211185D01*
X87740537Y-43114494D01*
X87799502Y-43004180D01*
X87820393Y-42935313D01*
X87844866Y-42965134D01*
X88070986Y-43150706D01*
X88328966Y-43288599D01*
X88608889Y-43373513D01*
X88827050Y-43395000D01*
X88972950Y-43395000D01*
X89191111Y-43373513D01*
X89471034Y-43288599D01*
X89729014Y-43150706D01*
X89955134Y-42965134D01*
X90140706Y-42739014D01*
X90170000Y-42684209D01*
X90199294Y-42739014D01*
X90384866Y-42965134D01*
X90610986Y-43150706D01*
X90868966Y-43288599D01*
X91148889Y-43373513D01*
X91367050Y-43395000D01*
X91512950Y-43395000D01*
X91731111Y-43373513D01*
X92011034Y-43288599D01*
X92269014Y-43150706D01*
X92495134Y-42965134D01*
X92680706Y-42739014D01*
X92710000Y-42684209D01*
X92739294Y-42739014D01*
X92924866Y-42965134D01*
X93150986Y-43150706D01*
X93408966Y-43288599D01*
X93688889Y-43373513D01*
X93907050Y-43395000D01*
X94052950Y-43395000D01*
X94271111Y-43373513D01*
X94551034Y-43288599D01*
X94809014Y-43150706D01*
X95035134Y-42965134D01*
X95220706Y-42739014D01*
X95250000Y-42684209D01*
X95279294Y-42739014D01*
X95464866Y-42965134D01*
X95690986Y-43150706D01*
X95948966Y-43288599D01*
X96228889Y-43373513D01*
X96447050Y-43395000D01*
X96592950Y-43395000D01*
X96811111Y-43373513D01*
X97091034Y-43288599D01*
X97349014Y-43150706D01*
X97575134Y-42965134D01*
X97743483Y-42760000D01*
X100111928Y-42760000D01*
X100124188Y-42884482D01*
X100160498Y-43004180D01*
X100219463Y-43114494D01*
X100298815Y-43211185D01*
X100395506Y-43290537D01*
X100505820Y-43349502D01*
X100625518Y-43385812D01*
X100750000Y-43398072D01*
X101314250Y-43395000D01*
X101473000Y-43236250D01*
X101473000Y-42037000D01*
X100273750Y-42037000D01*
X100115000Y-42195750D01*
X100111928Y-42760000D01*
X97743483Y-42760000D01*
X97760706Y-42739014D01*
X97898599Y-42481034D01*
X97983513Y-42201111D01*
X98012185Y-41910000D01*
X97983513Y-41618889D01*
X97898599Y-41338966D01*
X97760706Y-41080986D01*
X97743484Y-41060000D01*
X100111928Y-41060000D01*
X100115000Y-41624250D01*
X100273750Y-41783000D01*
X101473000Y-41783000D01*
X101473000Y-40583750D01*
X101314250Y-40425000D01*
X100750000Y-40421928D01*
X100625518Y-40434188D01*
X100505820Y-40470498D01*
X100395506Y-40529463D01*
X100298815Y-40608815D01*
X100219463Y-40705506D01*
X100160498Y-40815820D01*
X100124188Y-40935518D01*
X100111928Y-41060000D01*
X97743484Y-41060000D01*
X97575134Y-40854866D01*
X97349014Y-40669294D01*
X97091034Y-40531401D01*
X96811111Y-40446487D01*
X96592950Y-40425000D01*
X96447050Y-40425000D01*
X96228889Y-40446487D01*
X95948966Y-40531401D01*
X95690986Y-40669294D01*
X95464866Y-40854866D01*
X95279294Y-41080986D01*
X95250000Y-41135791D01*
X95220706Y-41080986D01*
X95035134Y-40854866D01*
X94809014Y-40669294D01*
X94551034Y-40531401D01*
X94271111Y-40446487D01*
X94052950Y-40425000D01*
X93907050Y-40425000D01*
X93688889Y-40446487D01*
X93408966Y-40531401D01*
X93150986Y-40669294D01*
X92924866Y-40854866D01*
X92739294Y-41080986D01*
X92710000Y-41135791D01*
X92680706Y-41080986D01*
X92495134Y-40854866D01*
X92269014Y-40669294D01*
X92011034Y-40531401D01*
X91731111Y-40446487D01*
X91512950Y-40425000D01*
X91367050Y-40425000D01*
X91148889Y-40446487D01*
X90868966Y-40531401D01*
X90610986Y-40669294D01*
X90384866Y-40854866D01*
X90199294Y-41080986D01*
X90170000Y-41135791D01*
X90140706Y-41080986D01*
X89955134Y-40854866D01*
X89729014Y-40669294D01*
X89471034Y-40531401D01*
X89191111Y-40446487D01*
X88972950Y-40425000D01*
X88827050Y-40425000D01*
X88608889Y-40446487D01*
X88328966Y-40531401D01*
X88070986Y-40669294D01*
X87844866Y-40854866D01*
X87820393Y-40884687D01*
X87799502Y-40815820D01*
X87740537Y-40705506D01*
X87661185Y-40608815D01*
X87564494Y-40529463D01*
X87454180Y-40470498D01*
X87334482Y-40434188D01*
X87210000Y-40421928D01*
X86645750Y-40425000D01*
X86487000Y-40583750D01*
X86233000Y-40583750D01*
X86074250Y-40425000D01*
X85510000Y-40421928D01*
X85385518Y-40434188D01*
X85265820Y-40470498D01*
X85155506Y-40529463D01*
X85058815Y-40608815D01*
X84979463Y-40705506D01*
X84920498Y-40815820D01*
X84884188Y-40935518D01*
X84871928Y-41060000D01*
X82503484Y-41060000D01*
X82335134Y-40854866D01*
X82109014Y-40669294D01*
X81851034Y-40531401D01*
X81571111Y-40446487D01*
X81352950Y-40425000D01*
X81207050Y-40425000D01*
X80988889Y-40446487D01*
X80708966Y-40531401D01*
X80450986Y-40669294D01*
X80224866Y-40854866D01*
X80039294Y-41080986D01*
X80010000Y-41135791D01*
X79980706Y-41080986D01*
X79795134Y-40854866D01*
X79569014Y-40669294D01*
X79311034Y-40531401D01*
X79031111Y-40446487D01*
X78812950Y-40425000D01*
X78667050Y-40425000D01*
X78448889Y-40446487D01*
X78168966Y-40531401D01*
X77910986Y-40669294D01*
X77684866Y-40854866D01*
X77499294Y-41080986D01*
X77470000Y-41135791D01*
X77440706Y-41080986D01*
X77255134Y-40854866D01*
X77029014Y-40669294D01*
X76771034Y-40531401D01*
X76491111Y-40446487D01*
X76272950Y-40425000D01*
X76127050Y-40425000D01*
X75908889Y-40446487D01*
X75628966Y-40531401D01*
X75370986Y-40669294D01*
X75144866Y-40854866D01*
X74959294Y-41080986D01*
X74930000Y-41135791D01*
X74900706Y-41080986D01*
X74715134Y-40854866D01*
X74489014Y-40669294D01*
X74231034Y-40531401D01*
X73951111Y-40446487D01*
X73732950Y-40425000D01*
X73587050Y-40425000D01*
X73368889Y-40446487D01*
X73088966Y-40531401D01*
X72830986Y-40669294D01*
X72604866Y-40854866D01*
X72580393Y-40884687D01*
X72559502Y-40815820D01*
X72500537Y-40705506D01*
X72421185Y-40608815D01*
X72324494Y-40529463D01*
X72214180Y-40470498D01*
X72094482Y-40434188D01*
X71970000Y-40421928D01*
X71405750Y-40425000D01*
X71247000Y-40583750D01*
X70993000Y-40583750D01*
X70834250Y-40425000D01*
X70270000Y-40421928D01*
X70145518Y-40434188D01*
X70025820Y-40470498D01*
X69915506Y-40529463D01*
X69818815Y-40608815D01*
X69739463Y-40705506D01*
X69680498Y-40815820D01*
X69644188Y-40935518D01*
X69631928Y-41060000D01*
X67263484Y-41060000D01*
X67095134Y-40854866D01*
X66869014Y-40669294D01*
X66611034Y-40531401D01*
X66331111Y-40446487D01*
X66112950Y-40425000D01*
X65967050Y-40425000D01*
X65748889Y-40446487D01*
X65468966Y-40531401D01*
X65210986Y-40669294D01*
X64984866Y-40854866D01*
X64799294Y-41080986D01*
X64770000Y-41135791D01*
X64740706Y-41080986D01*
X64555134Y-40854866D01*
X64329014Y-40669294D01*
X64071034Y-40531401D01*
X63791111Y-40446487D01*
X63572950Y-40425000D01*
X63427050Y-40425000D01*
X63208889Y-40446487D01*
X62928966Y-40531401D01*
X62670986Y-40669294D01*
X62444866Y-40854866D01*
X62259294Y-41080986D01*
X62230000Y-41135791D01*
X62200706Y-41080986D01*
X62015134Y-40854866D01*
X61789014Y-40669294D01*
X61531034Y-40531401D01*
X61251111Y-40446487D01*
X61032950Y-40425000D01*
X60887050Y-40425000D01*
X60668889Y-40446487D01*
X60388966Y-40531401D01*
X60130986Y-40669294D01*
X59904866Y-40854866D01*
X59719294Y-41080986D01*
X59690000Y-41135791D01*
X59660706Y-41080986D01*
X59475134Y-40854866D01*
X59249014Y-40669294D01*
X58991034Y-40531401D01*
X58711111Y-40446487D01*
X58492950Y-40425000D01*
X58347050Y-40425000D01*
X58128889Y-40446487D01*
X57848966Y-40531401D01*
X57590986Y-40669294D01*
X57364866Y-40854866D01*
X57340393Y-40884687D01*
X57319502Y-40815820D01*
X57260537Y-40705506D01*
X57181185Y-40608815D01*
X57084494Y-40529463D01*
X56974180Y-40470498D01*
X56854482Y-40434188D01*
X56730000Y-40421928D01*
X56165750Y-40425000D01*
X56007000Y-40583750D01*
X55753000Y-40583750D01*
X55594250Y-40425000D01*
X55030000Y-40421928D01*
X54905518Y-40434188D01*
X54785820Y-40470498D01*
X54675506Y-40529463D01*
X54578815Y-40608815D01*
X54499463Y-40705506D01*
X54440498Y-40815820D01*
X54404188Y-40935518D01*
X54391928Y-41060000D01*
X34696000Y-41060000D01*
X34696000Y-37966698D01*
X35105400Y-37966698D01*
X35105400Y-38436502D01*
X35197054Y-38897279D01*
X35376840Y-39331321D01*
X35637850Y-39721949D01*
X35970051Y-40054150D01*
X36360679Y-40315160D01*
X36794721Y-40494946D01*
X37255498Y-40586600D01*
X37725302Y-40586600D01*
X38186079Y-40494946D01*
X38620121Y-40315160D01*
X39010749Y-40054150D01*
X39342950Y-39721949D01*
X39603960Y-39331321D01*
X39783746Y-38897279D01*
X39875400Y-38436502D01*
X39875400Y-37966698D01*
X39855191Y-37865098D01*
X127663000Y-37865098D01*
X127663000Y-38334902D01*
X127754654Y-38795679D01*
X127934440Y-39229721D01*
X128195450Y-39620349D01*
X128527651Y-39952550D01*
X128918279Y-40213560D01*
X129352321Y-40393346D01*
X129813098Y-40485000D01*
X130282902Y-40485000D01*
X130743679Y-40393346D01*
X131177721Y-40213560D01*
X131568349Y-39952550D01*
X131900550Y-39620349D01*
X132161560Y-39229721D01*
X132341346Y-38795679D01*
X132433000Y-38334902D01*
X132433000Y-37865098D01*
X132341346Y-37404321D01*
X132161560Y-36970279D01*
X131900550Y-36579651D01*
X131568349Y-36247450D01*
X131177721Y-35986440D01*
X130743679Y-35806654D01*
X130282902Y-35715000D01*
X129813098Y-35715000D01*
X129352321Y-35806654D01*
X128918279Y-35986440D01*
X128527651Y-36247450D01*
X128195450Y-36579651D01*
X127934440Y-36970279D01*
X127754654Y-37404321D01*
X127663000Y-37865098D01*
X39855191Y-37865098D01*
X39783746Y-37505921D01*
X39603960Y-37071879D01*
X39342950Y-36681251D01*
X39010749Y-36349050D01*
X38620121Y-36088040D01*
X38186079Y-35908254D01*
X37725302Y-35816600D01*
X37255498Y-35816600D01*
X36794721Y-35908254D01*
X36360679Y-36088040D01*
X35970051Y-36349050D01*
X35637850Y-36681251D01*
X35376840Y-37071879D01*
X35197054Y-37505921D01*
X35105400Y-37966698D01*
X34696000Y-37966698D01*
X34696000Y-35204000D01*
X132944001Y-35204000D01*
X132944001Y-45778007D01*
M02*
