G04 #@! TF.GenerationSoftware,KiCad,Pcbnew,(5.1.2-1)-1*
G04 #@! TF.CreationDate,2020-02-23T09:00:00-05:00*
G04 #@! TF.ProjectId,IO_Board,494f5f42-6f61-4726-942e-6b696361645f,rev?*
G04 #@! TF.SameCoordinates,Original*
G04 #@! TF.FileFunction,Legend,Top*
G04 #@! TF.FilePolarity,Positive*
%FSLAX46Y46*%
G04 Gerber Fmt 4.6, Leading zero omitted, Abs format (unit mm)*
G04 Created by KiCad (PCBNEW (5.1.2-1)-1) date 2020-02-23 09:00:00*
%MOMM*%
%LPD*%
G04 APERTURE LIST*
%ADD10C,0.150000*%
%ADD11C,0.300000*%
%ADD12C,0.010000*%
%ADD13C,0.120000*%
G04 APERTURE END LIST*
D10*
X122324761Y-51371333D02*
X122372380Y-51228476D01*
X122372380Y-50990380D01*
X122324761Y-50895142D01*
X122277142Y-50847523D01*
X122181904Y-50799904D01*
X122086666Y-50799904D01*
X121991428Y-50847523D01*
X121943809Y-50895142D01*
X121896190Y-50990380D01*
X121848571Y-51180857D01*
X121800952Y-51276095D01*
X121753333Y-51323714D01*
X121658095Y-51371333D01*
X121562857Y-51371333D01*
X121467619Y-51323714D01*
X121420000Y-51276095D01*
X121372380Y-51180857D01*
X121372380Y-50942761D01*
X121420000Y-50799904D01*
X121372380Y-50466571D02*
X122372380Y-50228476D01*
X121658095Y-50038000D01*
X122372380Y-49847523D01*
X121372380Y-49609428D01*
X121800952Y-49085619D02*
X121753333Y-49180857D01*
X121705714Y-49228476D01*
X121610476Y-49276095D01*
X121562857Y-49276095D01*
X121467619Y-49228476D01*
X121420000Y-49180857D01*
X121372380Y-49085619D01*
X121372380Y-48895142D01*
X121420000Y-48799904D01*
X121467619Y-48752285D01*
X121562857Y-48704666D01*
X121610476Y-48704666D01*
X121705714Y-48752285D01*
X121753333Y-48799904D01*
X121800952Y-48895142D01*
X121800952Y-49085619D01*
X121848571Y-49180857D01*
X121896190Y-49228476D01*
X121991428Y-49276095D01*
X122181904Y-49276095D01*
X122277142Y-49228476D01*
X122324761Y-49180857D01*
X122372380Y-49085619D01*
X122372380Y-48895142D01*
X122324761Y-48799904D01*
X122277142Y-48752285D01*
X122181904Y-48704666D01*
X121991428Y-48704666D01*
X121896190Y-48752285D01*
X121848571Y-48799904D01*
X121800952Y-48895142D01*
X119784761Y-51371333D02*
X119832380Y-51228476D01*
X119832380Y-50990380D01*
X119784761Y-50895142D01*
X119737142Y-50847523D01*
X119641904Y-50799904D01*
X119546666Y-50799904D01*
X119451428Y-50847523D01*
X119403809Y-50895142D01*
X119356190Y-50990380D01*
X119308571Y-51180857D01*
X119260952Y-51276095D01*
X119213333Y-51323714D01*
X119118095Y-51371333D01*
X119022857Y-51371333D01*
X118927619Y-51323714D01*
X118880000Y-51276095D01*
X118832380Y-51180857D01*
X118832380Y-50942761D01*
X118880000Y-50799904D01*
X118832380Y-50466571D02*
X119832380Y-50228476D01*
X119118095Y-50038000D01*
X119832380Y-49847523D01*
X118832380Y-49609428D01*
X118832380Y-49323714D02*
X118832380Y-48657047D01*
X119832380Y-49085619D01*
X117244761Y-51371333D02*
X117292380Y-51228476D01*
X117292380Y-50990380D01*
X117244761Y-50895142D01*
X117197142Y-50847523D01*
X117101904Y-50799904D01*
X117006666Y-50799904D01*
X116911428Y-50847523D01*
X116863809Y-50895142D01*
X116816190Y-50990380D01*
X116768571Y-51180857D01*
X116720952Y-51276095D01*
X116673333Y-51323714D01*
X116578095Y-51371333D01*
X116482857Y-51371333D01*
X116387619Y-51323714D01*
X116340000Y-51276095D01*
X116292380Y-51180857D01*
X116292380Y-50942761D01*
X116340000Y-50799904D01*
X116292380Y-50466571D02*
X117292380Y-50228476D01*
X116578095Y-50038000D01*
X117292380Y-49847523D01*
X116292380Y-49609428D01*
X116292380Y-48799904D02*
X116292380Y-48990380D01*
X116340000Y-49085619D01*
X116387619Y-49133238D01*
X116530476Y-49228476D01*
X116720952Y-49276095D01*
X117101904Y-49276095D01*
X117197142Y-49228476D01*
X117244761Y-49180857D01*
X117292380Y-49085619D01*
X117292380Y-48895142D01*
X117244761Y-48799904D01*
X117197142Y-48752285D01*
X117101904Y-48704666D01*
X116863809Y-48704666D01*
X116768571Y-48752285D01*
X116720952Y-48799904D01*
X116673333Y-48895142D01*
X116673333Y-49085619D01*
X116720952Y-49180857D01*
X116768571Y-49228476D01*
X116863809Y-49276095D01*
X114704761Y-51371333D02*
X114752380Y-51228476D01*
X114752380Y-50990380D01*
X114704761Y-50895142D01*
X114657142Y-50847523D01*
X114561904Y-50799904D01*
X114466666Y-50799904D01*
X114371428Y-50847523D01*
X114323809Y-50895142D01*
X114276190Y-50990380D01*
X114228571Y-51180857D01*
X114180952Y-51276095D01*
X114133333Y-51323714D01*
X114038095Y-51371333D01*
X113942857Y-51371333D01*
X113847619Y-51323714D01*
X113800000Y-51276095D01*
X113752380Y-51180857D01*
X113752380Y-50942761D01*
X113800000Y-50799904D01*
X113752380Y-50466571D02*
X114752380Y-50228476D01*
X114038095Y-50038000D01*
X114752380Y-49847523D01*
X113752380Y-49609428D01*
X113752380Y-48752285D02*
X113752380Y-49228476D01*
X114228571Y-49276095D01*
X114180952Y-49228476D01*
X114133333Y-49133238D01*
X114133333Y-48895142D01*
X114180952Y-48799904D01*
X114228571Y-48752285D01*
X114323809Y-48704666D01*
X114561904Y-48704666D01*
X114657142Y-48752285D01*
X114704761Y-48799904D01*
X114752380Y-48895142D01*
X114752380Y-49133238D01*
X114704761Y-49228476D01*
X114657142Y-49276095D01*
X132532380Y-50268095D02*
X131532380Y-50268095D01*
X131532380Y-50030000D01*
X131580000Y-49887142D01*
X131675238Y-49791904D01*
X131770476Y-49744285D01*
X131960952Y-49696666D01*
X132103809Y-49696666D01*
X132294285Y-49744285D01*
X132389523Y-49791904D01*
X132484761Y-49887142D01*
X132532380Y-50030000D01*
X132532380Y-50268095D01*
X131960952Y-49125238D02*
X131913333Y-49220476D01*
X131865714Y-49268095D01*
X131770476Y-49315714D01*
X131722857Y-49315714D01*
X131627619Y-49268095D01*
X131580000Y-49220476D01*
X131532380Y-49125238D01*
X131532380Y-48934761D01*
X131580000Y-48839523D01*
X131627619Y-48791904D01*
X131722857Y-48744285D01*
X131770476Y-48744285D01*
X131865714Y-48791904D01*
X131913333Y-48839523D01*
X131960952Y-48934761D01*
X131960952Y-49125238D01*
X132008571Y-49220476D01*
X132056190Y-49268095D01*
X132151428Y-49315714D01*
X132341904Y-49315714D01*
X132437142Y-49268095D01*
X132484761Y-49220476D01*
X132532380Y-49125238D01*
X132532380Y-48934761D01*
X132484761Y-48839523D01*
X132437142Y-48791904D01*
X132341904Y-48744285D01*
X132151428Y-48744285D01*
X132056190Y-48791904D01*
X132008571Y-48839523D01*
X131960952Y-48934761D01*
X130246380Y-50268095D02*
X129246380Y-50268095D01*
X129246380Y-50030000D01*
X129294000Y-49887142D01*
X129389238Y-49791904D01*
X129484476Y-49744285D01*
X129674952Y-49696666D01*
X129817809Y-49696666D01*
X130008285Y-49744285D01*
X130103523Y-49791904D01*
X130198761Y-49887142D01*
X130246380Y-50030000D01*
X130246380Y-50268095D01*
X129246380Y-49363333D02*
X129246380Y-48696666D01*
X130246380Y-49125238D01*
X127452380Y-50268095D02*
X126452380Y-50268095D01*
X126452380Y-50030000D01*
X126500000Y-49887142D01*
X126595238Y-49791904D01*
X126690476Y-49744285D01*
X126880952Y-49696666D01*
X127023809Y-49696666D01*
X127214285Y-49744285D01*
X127309523Y-49791904D01*
X127404761Y-49887142D01*
X127452380Y-50030000D01*
X127452380Y-50268095D01*
X126452380Y-48839523D02*
X126452380Y-49030000D01*
X126500000Y-49125238D01*
X126547619Y-49172857D01*
X126690476Y-49268095D01*
X126880952Y-49315714D01*
X127261904Y-49315714D01*
X127357142Y-49268095D01*
X127404761Y-49220476D01*
X127452380Y-49125238D01*
X127452380Y-48934761D01*
X127404761Y-48839523D01*
X127357142Y-48791904D01*
X127261904Y-48744285D01*
X127023809Y-48744285D01*
X126928571Y-48791904D01*
X126880952Y-48839523D01*
X126833333Y-48934761D01*
X126833333Y-49125238D01*
X126880952Y-49220476D01*
X126928571Y-49268095D01*
X127023809Y-49315714D01*
X124849380Y-50268095D02*
X123849380Y-50268095D01*
X123849380Y-50030000D01*
X123897000Y-49887142D01*
X123992238Y-49791904D01*
X124087476Y-49744285D01*
X124277952Y-49696666D01*
X124420809Y-49696666D01*
X124611285Y-49744285D01*
X124706523Y-49791904D01*
X124801761Y-49887142D01*
X124849380Y-50030000D01*
X124849380Y-50268095D01*
X123849380Y-48791904D02*
X123849380Y-49268095D01*
X124325571Y-49315714D01*
X124277952Y-49268095D01*
X124230333Y-49172857D01*
X124230333Y-48934761D01*
X124277952Y-48839523D01*
X124325571Y-48791904D01*
X124420809Y-48744285D01*
X124658904Y-48744285D01*
X124754142Y-48791904D01*
X124801761Y-48839523D01*
X124849380Y-48934761D01*
X124849380Y-49172857D01*
X124801761Y-49268095D01*
X124754142Y-49315714D01*
X53792380Y-50268095D02*
X52792380Y-50268095D01*
X52792380Y-50030000D01*
X52840000Y-49887142D01*
X52935238Y-49791904D01*
X53030476Y-49744285D01*
X53220952Y-49696666D01*
X53363809Y-49696666D01*
X53554285Y-49744285D01*
X53649523Y-49791904D01*
X53744761Y-49887142D01*
X53792380Y-50030000D01*
X53792380Y-50268095D01*
X53125714Y-48839523D02*
X53792380Y-48839523D01*
X52744761Y-49077619D02*
X53459047Y-49315714D01*
X53459047Y-48696666D01*
X51252380Y-50268095D02*
X50252380Y-50268095D01*
X50252380Y-50030000D01*
X50300000Y-49887142D01*
X50395238Y-49791904D01*
X50490476Y-49744285D01*
X50680952Y-49696666D01*
X50823809Y-49696666D01*
X51014285Y-49744285D01*
X51109523Y-49791904D01*
X51204761Y-49887142D01*
X51252380Y-50030000D01*
X51252380Y-50268095D01*
X50252380Y-49363333D02*
X50252380Y-48744285D01*
X50633333Y-49077619D01*
X50633333Y-48934761D01*
X50680952Y-48839523D01*
X50728571Y-48791904D01*
X50823809Y-48744285D01*
X51061904Y-48744285D01*
X51157142Y-48791904D01*
X51204761Y-48839523D01*
X51252380Y-48934761D01*
X51252380Y-49220476D01*
X51204761Y-49315714D01*
X51157142Y-49363333D01*
X48712380Y-50268095D02*
X47712380Y-50268095D01*
X47712380Y-50030000D01*
X47760000Y-49887142D01*
X47855238Y-49791904D01*
X47950476Y-49744285D01*
X48140952Y-49696666D01*
X48283809Y-49696666D01*
X48474285Y-49744285D01*
X48569523Y-49791904D01*
X48664761Y-49887142D01*
X48712380Y-50030000D01*
X48712380Y-50268095D01*
X47807619Y-49315714D02*
X47760000Y-49268095D01*
X47712380Y-49172857D01*
X47712380Y-48934761D01*
X47760000Y-48839523D01*
X47807619Y-48791904D01*
X47902857Y-48744285D01*
X47998095Y-48744285D01*
X48140952Y-48791904D01*
X48712380Y-49363333D01*
X48712380Y-48744285D01*
X46172380Y-50268095D02*
X45172380Y-50268095D01*
X45172380Y-50030000D01*
X45220000Y-49887142D01*
X45315238Y-49791904D01*
X45410476Y-49744285D01*
X45600952Y-49696666D01*
X45743809Y-49696666D01*
X45934285Y-49744285D01*
X46029523Y-49791904D01*
X46124761Y-49887142D01*
X46172380Y-50030000D01*
X46172380Y-50268095D01*
X46172380Y-48744285D02*
X46172380Y-49315714D01*
X46172380Y-49030000D02*
X45172380Y-49030000D01*
X45315238Y-49125238D01*
X45410476Y-49220476D01*
X45458095Y-49315714D01*
X43584761Y-51371333D02*
X43632380Y-51228476D01*
X43632380Y-50990380D01*
X43584761Y-50895142D01*
X43537142Y-50847523D01*
X43441904Y-50799904D01*
X43346666Y-50799904D01*
X43251428Y-50847523D01*
X43203809Y-50895142D01*
X43156190Y-50990380D01*
X43108571Y-51180857D01*
X43060952Y-51276095D01*
X43013333Y-51323714D01*
X42918095Y-51371333D01*
X42822857Y-51371333D01*
X42727619Y-51323714D01*
X42680000Y-51276095D01*
X42632380Y-51180857D01*
X42632380Y-50942761D01*
X42680000Y-50799904D01*
X42632380Y-50466571D02*
X43632380Y-50228476D01*
X42918095Y-50038000D01*
X43632380Y-49847523D01*
X42632380Y-49609428D01*
X42965714Y-48799904D02*
X43632380Y-48799904D01*
X42584761Y-49038000D02*
X43299047Y-49276095D01*
X43299047Y-48657047D01*
X41044761Y-51371333D02*
X41092380Y-51228476D01*
X41092380Y-50990380D01*
X41044761Y-50895142D01*
X40997142Y-50847523D01*
X40901904Y-50799904D01*
X40806666Y-50799904D01*
X40711428Y-50847523D01*
X40663809Y-50895142D01*
X40616190Y-50990380D01*
X40568571Y-51180857D01*
X40520952Y-51276095D01*
X40473333Y-51323714D01*
X40378095Y-51371333D01*
X40282857Y-51371333D01*
X40187619Y-51323714D01*
X40140000Y-51276095D01*
X40092380Y-51180857D01*
X40092380Y-50942761D01*
X40140000Y-50799904D01*
X40092380Y-50466571D02*
X41092380Y-50228476D01*
X40378095Y-50038000D01*
X41092380Y-49847523D01*
X40092380Y-49609428D01*
X40092380Y-49323714D02*
X40092380Y-48704666D01*
X40473333Y-49038000D01*
X40473333Y-48895142D01*
X40520952Y-48799904D01*
X40568571Y-48752285D01*
X40663809Y-48704666D01*
X40901904Y-48704666D01*
X40997142Y-48752285D01*
X41044761Y-48799904D01*
X41092380Y-48895142D01*
X41092380Y-49180857D01*
X41044761Y-49276095D01*
X40997142Y-49323714D01*
X38504761Y-51371333D02*
X38552380Y-51228476D01*
X38552380Y-50990380D01*
X38504761Y-50895142D01*
X38457142Y-50847523D01*
X38361904Y-50799904D01*
X38266666Y-50799904D01*
X38171428Y-50847523D01*
X38123809Y-50895142D01*
X38076190Y-50990380D01*
X38028571Y-51180857D01*
X37980952Y-51276095D01*
X37933333Y-51323714D01*
X37838095Y-51371333D01*
X37742857Y-51371333D01*
X37647619Y-51323714D01*
X37600000Y-51276095D01*
X37552380Y-51180857D01*
X37552380Y-50942761D01*
X37600000Y-50799904D01*
X37552380Y-50466571D02*
X38552380Y-50228476D01*
X37838095Y-50038000D01*
X38552380Y-49847523D01*
X37552380Y-49609428D01*
X37647619Y-49276095D02*
X37600000Y-49228476D01*
X37552380Y-49133238D01*
X37552380Y-48895142D01*
X37600000Y-48799904D01*
X37647619Y-48752285D01*
X37742857Y-48704666D01*
X37838095Y-48704666D01*
X37980952Y-48752285D01*
X38552380Y-49323714D01*
X38552380Y-48704666D01*
X35964761Y-51371333D02*
X36012380Y-51228476D01*
X36012380Y-50990380D01*
X35964761Y-50895142D01*
X35917142Y-50847523D01*
X35821904Y-50799904D01*
X35726666Y-50799904D01*
X35631428Y-50847523D01*
X35583809Y-50895142D01*
X35536190Y-50990380D01*
X35488571Y-51180857D01*
X35440952Y-51276095D01*
X35393333Y-51323714D01*
X35298095Y-51371333D01*
X35202857Y-51371333D01*
X35107619Y-51323714D01*
X35060000Y-51276095D01*
X35012380Y-51180857D01*
X35012380Y-50942761D01*
X35060000Y-50799904D01*
X35012380Y-50466571D02*
X36012380Y-50228476D01*
X35298095Y-50038000D01*
X36012380Y-49847523D01*
X35012380Y-49609428D01*
X36012380Y-48704666D02*
X36012380Y-49276095D01*
X36012380Y-48990380D02*
X35012380Y-48990380D01*
X35155238Y-49085619D01*
X35250476Y-49180857D01*
X35298095Y-49276095D01*
X104156190Y-39314380D02*
X104156190Y-38314380D01*
X104537142Y-38314380D01*
X104632380Y-38362000D01*
X104680000Y-38409619D01*
X104727619Y-38504857D01*
X104727619Y-38647714D01*
X104680000Y-38742952D01*
X104632380Y-38790571D01*
X104537142Y-38838190D01*
X104156190Y-38838190D01*
X105346666Y-38314380D02*
X105537142Y-38314380D01*
X105632380Y-38362000D01*
X105727619Y-38457238D01*
X105775238Y-38647714D01*
X105775238Y-38981047D01*
X105727619Y-39171523D01*
X105632380Y-39266761D01*
X105537142Y-39314380D01*
X105346666Y-39314380D01*
X105251428Y-39266761D01*
X105156190Y-39171523D01*
X105108571Y-38981047D01*
X105108571Y-38647714D01*
X105156190Y-38457238D01*
X105251428Y-38362000D01*
X105346666Y-38314380D01*
X106060952Y-38314380D02*
X106632380Y-38314380D01*
X106346666Y-39314380D02*
X106346666Y-38314380D01*
X108299047Y-39314380D02*
X107965714Y-38838190D01*
X107727619Y-39314380D02*
X107727619Y-38314380D01*
X108108571Y-38314380D01*
X108203809Y-38362000D01*
X108251428Y-38409619D01*
X108299047Y-38504857D01*
X108299047Y-38647714D01*
X108251428Y-38742952D01*
X108203809Y-38790571D01*
X108108571Y-38838190D01*
X107727619Y-38838190D01*
X109156190Y-38647714D02*
X109156190Y-39314380D01*
X108918095Y-38266761D02*
X108680000Y-38981047D01*
X109299047Y-38981047D01*
X88916190Y-39314380D02*
X88916190Y-38314380D01*
X89297142Y-38314380D01*
X89392380Y-38362000D01*
X89440000Y-38409619D01*
X89487619Y-38504857D01*
X89487619Y-38647714D01*
X89440000Y-38742952D01*
X89392380Y-38790571D01*
X89297142Y-38838190D01*
X88916190Y-38838190D01*
X90106666Y-38314380D02*
X90297142Y-38314380D01*
X90392380Y-38362000D01*
X90487619Y-38457238D01*
X90535238Y-38647714D01*
X90535238Y-38981047D01*
X90487619Y-39171523D01*
X90392380Y-39266761D01*
X90297142Y-39314380D01*
X90106666Y-39314380D01*
X90011428Y-39266761D01*
X89916190Y-39171523D01*
X89868571Y-38981047D01*
X89868571Y-38647714D01*
X89916190Y-38457238D01*
X90011428Y-38362000D01*
X90106666Y-38314380D01*
X90820952Y-38314380D02*
X91392380Y-38314380D01*
X91106666Y-39314380D02*
X91106666Y-38314380D01*
X93059047Y-39314380D02*
X92725714Y-38838190D01*
X92487619Y-39314380D02*
X92487619Y-38314380D01*
X92868571Y-38314380D01*
X92963809Y-38362000D01*
X93011428Y-38409619D01*
X93059047Y-38504857D01*
X93059047Y-38647714D01*
X93011428Y-38742952D01*
X92963809Y-38790571D01*
X92868571Y-38838190D01*
X92487619Y-38838190D01*
X93392380Y-38314380D02*
X94011428Y-38314380D01*
X93678095Y-38695333D01*
X93820952Y-38695333D01*
X93916190Y-38742952D01*
X93963809Y-38790571D01*
X94011428Y-38885809D01*
X94011428Y-39123904D01*
X93963809Y-39219142D01*
X93916190Y-39266761D01*
X93820952Y-39314380D01*
X93535238Y-39314380D01*
X93440000Y-39266761D01*
X93392380Y-39219142D01*
X73676190Y-39314380D02*
X73676190Y-38314380D01*
X74057142Y-38314380D01*
X74152380Y-38362000D01*
X74200000Y-38409619D01*
X74247619Y-38504857D01*
X74247619Y-38647714D01*
X74200000Y-38742952D01*
X74152380Y-38790571D01*
X74057142Y-38838190D01*
X73676190Y-38838190D01*
X74866666Y-38314380D02*
X75057142Y-38314380D01*
X75152380Y-38362000D01*
X75247619Y-38457238D01*
X75295238Y-38647714D01*
X75295238Y-38981047D01*
X75247619Y-39171523D01*
X75152380Y-39266761D01*
X75057142Y-39314380D01*
X74866666Y-39314380D01*
X74771428Y-39266761D01*
X74676190Y-39171523D01*
X74628571Y-38981047D01*
X74628571Y-38647714D01*
X74676190Y-38457238D01*
X74771428Y-38362000D01*
X74866666Y-38314380D01*
X75580952Y-38314380D02*
X76152380Y-38314380D01*
X75866666Y-39314380D02*
X75866666Y-38314380D01*
X77819047Y-39314380D02*
X77485714Y-38838190D01*
X77247619Y-39314380D02*
X77247619Y-38314380D01*
X77628571Y-38314380D01*
X77723809Y-38362000D01*
X77771428Y-38409619D01*
X77819047Y-38504857D01*
X77819047Y-38647714D01*
X77771428Y-38742952D01*
X77723809Y-38790571D01*
X77628571Y-38838190D01*
X77247619Y-38838190D01*
X78200000Y-38409619D02*
X78247619Y-38362000D01*
X78342857Y-38314380D01*
X78580952Y-38314380D01*
X78676190Y-38362000D01*
X78723809Y-38409619D01*
X78771428Y-38504857D01*
X78771428Y-38600095D01*
X78723809Y-38742952D01*
X78152380Y-39314380D01*
X78771428Y-39314380D01*
X58436190Y-39314380D02*
X58436190Y-38314380D01*
X58817142Y-38314380D01*
X58912380Y-38362000D01*
X58960000Y-38409619D01*
X59007619Y-38504857D01*
X59007619Y-38647714D01*
X58960000Y-38742952D01*
X58912380Y-38790571D01*
X58817142Y-38838190D01*
X58436190Y-38838190D01*
X59626666Y-38314380D02*
X59817142Y-38314380D01*
X59912380Y-38362000D01*
X60007619Y-38457238D01*
X60055238Y-38647714D01*
X60055238Y-38981047D01*
X60007619Y-39171523D01*
X59912380Y-39266761D01*
X59817142Y-39314380D01*
X59626666Y-39314380D01*
X59531428Y-39266761D01*
X59436190Y-39171523D01*
X59388571Y-38981047D01*
X59388571Y-38647714D01*
X59436190Y-38457238D01*
X59531428Y-38362000D01*
X59626666Y-38314380D01*
X60340952Y-38314380D02*
X60912380Y-38314380D01*
X60626666Y-39314380D02*
X60626666Y-38314380D01*
X62579047Y-39314380D02*
X62245714Y-38838190D01*
X62007619Y-39314380D02*
X62007619Y-38314380D01*
X62388571Y-38314380D01*
X62483809Y-38362000D01*
X62531428Y-38409619D01*
X62579047Y-38504857D01*
X62579047Y-38647714D01*
X62531428Y-38742952D01*
X62483809Y-38790571D01*
X62388571Y-38838190D01*
X62007619Y-38838190D01*
X63531428Y-39314380D02*
X62960000Y-39314380D01*
X63245714Y-39314380D02*
X63245714Y-38314380D01*
X63150476Y-38457238D01*
X63055238Y-38552476D01*
X62960000Y-38600095D01*
X55380000Y-39623904D02*
X55332380Y-39719142D01*
X55332380Y-39862000D01*
X55380000Y-40004857D01*
X55475238Y-40100095D01*
X55570476Y-40147714D01*
X55760952Y-40195333D01*
X55903809Y-40195333D01*
X56094285Y-40147714D01*
X56189523Y-40100095D01*
X56284761Y-40004857D01*
X56332380Y-39862000D01*
X56332380Y-39766761D01*
X56284761Y-39623904D01*
X56237142Y-39576285D01*
X55903809Y-39576285D01*
X55903809Y-39766761D01*
X56332380Y-39147714D02*
X55332380Y-39147714D01*
X56332380Y-38576285D01*
X55332380Y-38576285D01*
X56332380Y-38100095D02*
X55332380Y-38100095D01*
X55332380Y-37862000D01*
X55380000Y-37719142D01*
X55475238Y-37623904D01*
X55570476Y-37576285D01*
X55760952Y-37528666D01*
X55903809Y-37528666D01*
X56094285Y-37576285D01*
X56189523Y-37623904D01*
X56284761Y-37719142D01*
X56332380Y-37862000D01*
X56332380Y-38100095D01*
X65492380Y-40195333D02*
X66492380Y-39862000D01*
X65492380Y-39528666D01*
X66397142Y-38623904D02*
X66444761Y-38671523D01*
X66492380Y-38814380D01*
X66492380Y-38909619D01*
X66444761Y-39052476D01*
X66349523Y-39147714D01*
X66254285Y-39195333D01*
X66063809Y-39242952D01*
X65920952Y-39242952D01*
X65730476Y-39195333D01*
X65635238Y-39147714D01*
X65540000Y-39052476D01*
X65492380Y-38909619D01*
X65492380Y-38814380D01*
X65540000Y-38671523D01*
X65587619Y-38623904D01*
X66397142Y-37623904D02*
X66444761Y-37671523D01*
X66492380Y-37814380D01*
X66492380Y-37909619D01*
X66444761Y-38052476D01*
X66349523Y-38147714D01*
X66254285Y-38195333D01*
X66063809Y-38242952D01*
X65920952Y-38242952D01*
X65730476Y-38195333D01*
X65635238Y-38147714D01*
X65540000Y-38052476D01*
X65492380Y-37909619D01*
X65492380Y-37814380D01*
X65540000Y-37671523D01*
X65587619Y-37623904D01*
X80986380Y-40195333D02*
X81986380Y-39862000D01*
X80986380Y-39528666D01*
X81891142Y-38623904D02*
X81938761Y-38671523D01*
X81986380Y-38814380D01*
X81986380Y-38909619D01*
X81938761Y-39052476D01*
X81843523Y-39147714D01*
X81748285Y-39195333D01*
X81557809Y-39242952D01*
X81414952Y-39242952D01*
X81224476Y-39195333D01*
X81129238Y-39147714D01*
X81034000Y-39052476D01*
X80986380Y-38909619D01*
X80986380Y-38814380D01*
X81034000Y-38671523D01*
X81081619Y-38623904D01*
X81891142Y-37623904D02*
X81938761Y-37671523D01*
X81986380Y-37814380D01*
X81986380Y-37909619D01*
X81938761Y-38052476D01*
X81843523Y-38147714D01*
X81748285Y-38195333D01*
X81557809Y-38242952D01*
X81414952Y-38242952D01*
X81224476Y-38195333D01*
X81129238Y-38147714D01*
X81034000Y-38052476D01*
X80986380Y-37909619D01*
X80986380Y-37814380D01*
X81034000Y-37671523D01*
X81081619Y-37623904D01*
X95972380Y-40195333D02*
X96972380Y-39862000D01*
X95972380Y-39528666D01*
X96877142Y-38623904D02*
X96924761Y-38671523D01*
X96972380Y-38814380D01*
X96972380Y-38909619D01*
X96924761Y-39052476D01*
X96829523Y-39147714D01*
X96734285Y-39195333D01*
X96543809Y-39242952D01*
X96400952Y-39242952D01*
X96210476Y-39195333D01*
X96115238Y-39147714D01*
X96020000Y-39052476D01*
X95972380Y-38909619D01*
X95972380Y-38814380D01*
X96020000Y-38671523D01*
X96067619Y-38623904D01*
X96877142Y-37623904D02*
X96924761Y-37671523D01*
X96972380Y-37814380D01*
X96972380Y-37909619D01*
X96924761Y-38052476D01*
X96829523Y-38147714D01*
X96734285Y-38195333D01*
X96543809Y-38242952D01*
X96400952Y-38242952D01*
X96210476Y-38195333D01*
X96115238Y-38147714D01*
X96020000Y-38052476D01*
X95972380Y-37909619D01*
X95972380Y-37814380D01*
X96020000Y-37671523D01*
X96067619Y-37623904D01*
X70620000Y-39623904D02*
X70572380Y-39719142D01*
X70572380Y-39862000D01*
X70620000Y-40004857D01*
X70715238Y-40100095D01*
X70810476Y-40147714D01*
X71000952Y-40195333D01*
X71143809Y-40195333D01*
X71334285Y-40147714D01*
X71429523Y-40100095D01*
X71524761Y-40004857D01*
X71572380Y-39862000D01*
X71572380Y-39766761D01*
X71524761Y-39623904D01*
X71477142Y-39576285D01*
X71143809Y-39576285D01*
X71143809Y-39766761D01*
X71572380Y-39147714D02*
X70572380Y-39147714D01*
X71572380Y-38576285D01*
X70572380Y-38576285D01*
X71572380Y-38100095D02*
X70572380Y-38100095D01*
X70572380Y-37862000D01*
X70620000Y-37719142D01*
X70715238Y-37623904D01*
X70810476Y-37576285D01*
X71000952Y-37528666D01*
X71143809Y-37528666D01*
X71334285Y-37576285D01*
X71429523Y-37623904D01*
X71524761Y-37719142D01*
X71572380Y-37862000D01*
X71572380Y-38100095D01*
X85860000Y-39623904D02*
X85812380Y-39719142D01*
X85812380Y-39862000D01*
X85860000Y-40004857D01*
X85955238Y-40100095D01*
X86050476Y-40147714D01*
X86240952Y-40195333D01*
X86383809Y-40195333D01*
X86574285Y-40147714D01*
X86669523Y-40100095D01*
X86764761Y-40004857D01*
X86812380Y-39862000D01*
X86812380Y-39766761D01*
X86764761Y-39623904D01*
X86717142Y-39576285D01*
X86383809Y-39576285D01*
X86383809Y-39766761D01*
X86812380Y-39147714D02*
X85812380Y-39147714D01*
X86812380Y-38576285D01*
X85812380Y-38576285D01*
X86812380Y-38100095D02*
X85812380Y-38100095D01*
X85812380Y-37862000D01*
X85860000Y-37719142D01*
X85955238Y-37623904D01*
X86050476Y-37576285D01*
X86240952Y-37528666D01*
X86383809Y-37528666D01*
X86574285Y-37576285D01*
X86669523Y-37623904D01*
X86764761Y-37719142D01*
X86812380Y-37862000D01*
X86812380Y-38100095D01*
X101100000Y-39623904D02*
X101052380Y-39719142D01*
X101052380Y-39862000D01*
X101100000Y-40004857D01*
X101195238Y-40100095D01*
X101290476Y-40147714D01*
X101480952Y-40195333D01*
X101623809Y-40195333D01*
X101814285Y-40147714D01*
X101909523Y-40100095D01*
X102004761Y-40004857D01*
X102052380Y-39862000D01*
X102052380Y-39766761D01*
X102004761Y-39623904D01*
X101957142Y-39576285D01*
X101623809Y-39576285D01*
X101623809Y-39766761D01*
X102052380Y-39147714D02*
X101052380Y-39147714D01*
X102052380Y-38576285D01*
X101052380Y-38576285D01*
X102052380Y-38100095D02*
X101052380Y-38100095D01*
X101052380Y-37862000D01*
X101100000Y-37719142D01*
X101195238Y-37623904D01*
X101290476Y-37576285D01*
X101480952Y-37528666D01*
X101623809Y-37528666D01*
X101814285Y-37576285D01*
X101909523Y-37623904D01*
X102004761Y-37719142D01*
X102052380Y-37862000D01*
X102052380Y-38100095D01*
X111212380Y-40195333D02*
X112212380Y-39862000D01*
X111212380Y-39528666D01*
X112117142Y-38623904D02*
X112164761Y-38671523D01*
X112212380Y-38814380D01*
X112212380Y-38909619D01*
X112164761Y-39052476D01*
X112069523Y-39147714D01*
X111974285Y-39195333D01*
X111783809Y-39242952D01*
X111640952Y-39242952D01*
X111450476Y-39195333D01*
X111355238Y-39147714D01*
X111260000Y-39052476D01*
X111212380Y-38909619D01*
X111212380Y-38814380D01*
X111260000Y-38671523D01*
X111307619Y-38623904D01*
X112117142Y-37623904D02*
X112164761Y-37671523D01*
X112212380Y-37814380D01*
X112212380Y-37909619D01*
X112164761Y-38052476D01*
X112069523Y-38147714D01*
X111974285Y-38195333D01*
X111783809Y-38242952D01*
X111640952Y-38242952D01*
X111450476Y-38195333D01*
X111355238Y-38147714D01*
X111260000Y-38052476D01*
X111212380Y-37909619D01*
X111212380Y-37814380D01*
X111260000Y-37671523D01*
X111307619Y-37623904D01*
X126500000Y-39369904D02*
X126452380Y-39465142D01*
X126452380Y-39608000D01*
X126500000Y-39750857D01*
X126595238Y-39846095D01*
X126690476Y-39893714D01*
X126880952Y-39941333D01*
X127023809Y-39941333D01*
X127214285Y-39893714D01*
X127309523Y-39846095D01*
X127404761Y-39750857D01*
X127452380Y-39608000D01*
X127452380Y-39512761D01*
X127404761Y-39369904D01*
X127357142Y-39322285D01*
X127023809Y-39322285D01*
X127023809Y-39512761D01*
X127452380Y-38893714D02*
X126452380Y-38893714D01*
X127452380Y-38322285D01*
X126452380Y-38322285D01*
X127452380Y-37846095D02*
X126452380Y-37846095D01*
X126452380Y-37608000D01*
X126500000Y-37465142D01*
X126595238Y-37369904D01*
X126690476Y-37322285D01*
X126880952Y-37274666D01*
X127023809Y-37274666D01*
X127214285Y-37322285D01*
X127309523Y-37369904D01*
X127404761Y-37465142D01*
X127452380Y-37608000D01*
X127452380Y-37846095D01*
X123960000Y-39369904D02*
X123912380Y-39465142D01*
X123912380Y-39608000D01*
X123960000Y-39750857D01*
X124055238Y-39846095D01*
X124150476Y-39893714D01*
X124340952Y-39941333D01*
X124483809Y-39941333D01*
X124674285Y-39893714D01*
X124769523Y-39846095D01*
X124864761Y-39750857D01*
X124912380Y-39608000D01*
X124912380Y-39512761D01*
X124864761Y-39369904D01*
X124817142Y-39322285D01*
X124483809Y-39322285D01*
X124483809Y-39512761D01*
X124912380Y-38893714D02*
X123912380Y-38893714D01*
X124912380Y-38322285D01*
X123912380Y-38322285D01*
X124912380Y-37846095D02*
X123912380Y-37846095D01*
X123912380Y-37608000D01*
X123960000Y-37465142D01*
X124055238Y-37369904D01*
X124150476Y-37322285D01*
X124340952Y-37274666D01*
X124483809Y-37274666D01*
X124674285Y-37322285D01*
X124769523Y-37369904D01*
X124864761Y-37465142D01*
X124912380Y-37608000D01*
X124912380Y-37846095D01*
X121372380Y-39941333D02*
X122372380Y-39608000D01*
X121372380Y-39274666D01*
X122277142Y-38369904D02*
X122324761Y-38417523D01*
X122372380Y-38560380D01*
X122372380Y-38655619D01*
X122324761Y-38798476D01*
X122229523Y-38893714D01*
X122134285Y-38941333D01*
X121943809Y-38988952D01*
X121800952Y-38988952D01*
X121610476Y-38941333D01*
X121515238Y-38893714D01*
X121420000Y-38798476D01*
X121372380Y-38655619D01*
X121372380Y-38560380D01*
X121420000Y-38417523D01*
X121467619Y-38369904D01*
X122277142Y-37369904D02*
X122324761Y-37417523D01*
X122372380Y-37560380D01*
X122372380Y-37655619D01*
X122324761Y-37798476D01*
X122229523Y-37893714D01*
X122134285Y-37941333D01*
X121943809Y-37988952D01*
X121800952Y-37988952D01*
X121610476Y-37941333D01*
X121515238Y-37893714D01*
X121420000Y-37798476D01*
X121372380Y-37655619D01*
X121372380Y-37560380D01*
X121420000Y-37417523D01*
X121467619Y-37369904D01*
X118832380Y-39941333D02*
X119832380Y-39608000D01*
X118832380Y-39274666D01*
X119737142Y-38369904D02*
X119784761Y-38417523D01*
X119832380Y-38560380D01*
X119832380Y-38655619D01*
X119784761Y-38798476D01*
X119689523Y-38893714D01*
X119594285Y-38941333D01*
X119403809Y-38988952D01*
X119260952Y-38988952D01*
X119070476Y-38941333D01*
X118975238Y-38893714D01*
X118880000Y-38798476D01*
X118832380Y-38655619D01*
X118832380Y-38560380D01*
X118880000Y-38417523D01*
X118927619Y-38369904D01*
X119737142Y-37369904D02*
X119784761Y-37417523D01*
X119832380Y-37560380D01*
X119832380Y-37655619D01*
X119784761Y-37798476D01*
X119689523Y-37893714D01*
X119594285Y-37941333D01*
X119403809Y-37988952D01*
X119260952Y-37988952D01*
X119070476Y-37941333D01*
X118975238Y-37893714D01*
X118880000Y-37798476D01*
X118832380Y-37655619D01*
X118832380Y-37560380D01*
X118880000Y-37417523D01*
X118927619Y-37369904D01*
D11*
X77570000Y-75196000D02*
X77427142Y-75124571D01*
X77212857Y-75124571D01*
X76998571Y-75196000D01*
X76855714Y-75338857D01*
X76784285Y-75481714D01*
X76712857Y-75767428D01*
X76712857Y-75981714D01*
X76784285Y-76267428D01*
X76855714Y-76410285D01*
X76998571Y-76553142D01*
X77212857Y-76624571D01*
X77355714Y-76624571D01*
X77570000Y-76553142D01*
X77641428Y-76481714D01*
X77641428Y-75981714D01*
X77355714Y-75981714D01*
X79141428Y-76624571D02*
X78641428Y-75910285D01*
X78284285Y-76624571D02*
X78284285Y-75124571D01*
X78855714Y-75124571D01*
X78998571Y-75196000D01*
X79070000Y-75267428D01*
X79141428Y-75410285D01*
X79141428Y-75624571D01*
X79070000Y-75767428D01*
X78998571Y-75838857D01*
X78855714Y-75910285D01*
X78284285Y-75910285D01*
X80927142Y-76624571D02*
X80927142Y-75124571D01*
X81927142Y-75124571D02*
X82212857Y-75124571D01*
X82355714Y-75196000D01*
X82498571Y-75338857D01*
X82570000Y-75624571D01*
X82570000Y-76124571D01*
X82498571Y-76410285D01*
X82355714Y-76553142D01*
X82212857Y-76624571D01*
X81927142Y-76624571D01*
X81784285Y-76553142D01*
X81641428Y-76410285D01*
X81570000Y-76124571D01*
X81570000Y-75624571D01*
X81641428Y-75338857D01*
X81784285Y-75196000D01*
X81927142Y-75124571D01*
X83212857Y-76053142D02*
X84355714Y-76053142D01*
X85570000Y-75838857D02*
X85784285Y-75910285D01*
X85855714Y-75981714D01*
X85927142Y-76124571D01*
X85927142Y-76338857D01*
X85855714Y-76481714D01*
X85784285Y-76553142D01*
X85641428Y-76624571D01*
X85070000Y-76624571D01*
X85070000Y-75124571D01*
X85570000Y-75124571D01*
X85712857Y-75196000D01*
X85784285Y-75267428D01*
X85855714Y-75410285D01*
X85855714Y-75553142D01*
X85784285Y-75696000D01*
X85712857Y-75767428D01*
X85570000Y-75838857D01*
X85070000Y-75838857D01*
X86784285Y-76624571D02*
X86641428Y-76553142D01*
X86570000Y-76481714D01*
X86498571Y-76338857D01*
X86498571Y-75910285D01*
X86570000Y-75767428D01*
X86641428Y-75696000D01*
X86784285Y-75624571D01*
X86998571Y-75624571D01*
X87141428Y-75696000D01*
X87212857Y-75767428D01*
X87284285Y-75910285D01*
X87284285Y-76338857D01*
X87212857Y-76481714D01*
X87141428Y-76553142D01*
X86998571Y-76624571D01*
X86784285Y-76624571D01*
X88570000Y-76624571D02*
X88570000Y-75838857D01*
X88498571Y-75696000D01*
X88355714Y-75624571D01*
X88070000Y-75624571D01*
X87927142Y-75696000D01*
X88570000Y-76553142D02*
X88427142Y-76624571D01*
X88070000Y-76624571D01*
X87927142Y-76553142D01*
X87855714Y-76410285D01*
X87855714Y-76267428D01*
X87927142Y-76124571D01*
X88070000Y-76053142D01*
X88427142Y-76053142D01*
X88570000Y-75981714D01*
X89284285Y-76624571D02*
X89284285Y-75624571D01*
X89284285Y-75910285D02*
X89355714Y-75767428D01*
X89427142Y-75696000D01*
X89570000Y-75624571D01*
X89712857Y-75624571D01*
X90855714Y-76624571D02*
X90855714Y-75124571D01*
X90855714Y-76553142D02*
X90712857Y-76624571D01*
X90427142Y-76624571D01*
X90284285Y-76553142D01*
X90212857Y-76481714D01*
X90141428Y-76338857D01*
X90141428Y-75910285D01*
X90212857Y-75767428D01*
X90284285Y-75696000D01*
X90427142Y-75624571D01*
X90712857Y-75624571D01*
X90855714Y-75696000D01*
D12*
G36*
X46275814Y-37092931D02*
G01*
X46359635Y-37537555D01*
X46668920Y-37665053D01*
X46978206Y-37792551D01*
X47349246Y-37540246D01*
X47453157Y-37469996D01*
X47547087Y-37407272D01*
X47626652Y-37354938D01*
X47687470Y-37315857D01*
X47725157Y-37292893D01*
X47735421Y-37287942D01*
X47753910Y-37300676D01*
X47793420Y-37335882D01*
X47849522Y-37389062D01*
X47917787Y-37455718D01*
X47993786Y-37531354D01*
X48073092Y-37611472D01*
X48151275Y-37691574D01*
X48223907Y-37767164D01*
X48286559Y-37833745D01*
X48334803Y-37886818D01*
X48364210Y-37921887D01*
X48371241Y-37933623D01*
X48361123Y-37955260D01*
X48332759Y-38002662D01*
X48289129Y-38071193D01*
X48233218Y-38156215D01*
X48168006Y-38253093D01*
X48130219Y-38308350D01*
X48061343Y-38409248D01*
X48000140Y-38500299D01*
X47949578Y-38576970D01*
X47912628Y-38634728D01*
X47892258Y-38669043D01*
X47889197Y-38676254D01*
X47896136Y-38696748D01*
X47915051Y-38744513D01*
X47943087Y-38812832D01*
X47977391Y-38894989D01*
X48015109Y-38984270D01*
X48053387Y-39073958D01*
X48089370Y-39157338D01*
X48120206Y-39227694D01*
X48143039Y-39278310D01*
X48155017Y-39302471D01*
X48155724Y-39303422D01*
X48174531Y-39308036D01*
X48224618Y-39318328D01*
X48300793Y-39333287D01*
X48397865Y-39351901D01*
X48510643Y-39373159D01*
X48576442Y-39385418D01*
X48696950Y-39408362D01*
X48805797Y-39430195D01*
X48897476Y-39449722D01*
X48966481Y-39465748D01*
X49007304Y-39477079D01*
X49015511Y-39480674D01*
X49023548Y-39505006D01*
X49030033Y-39559959D01*
X49034970Y-39639108D01*
X49038364Y-39736026D01*
X49040218Y-39844287D01*
X49040538Y-39957465D01*
X49039327Y-40069135D01*
X49036590Y-40172868D01*
X49032331Y-40262241D01*
X49026555Y-40330826D01*
X49019267Y-40372197D01*
X49014895Y-40380810D01*
X48988764Y-40391133D01*
X48933393Y-40405892D01*
X48856107Y-40423352D01*
X48764230Y-40441780D01*
X48732158Y-40447741D01*
X48577524Y-40476066D01*
X48455375Y-40498876D01*
X48361673Y-40517080D01*
X48292384Y-40531583D01*
X48243471Y-40543292D01*
X48210897Y-40553115D01*
X48190628Y-40561956D01*
X48178626Y-40570724D01*
X48176947Y-40572457D01*
X48160184Y-40600371D01*
X48134614Y-40654695D01*
X48102788Y-40728777D01*
X48067260Y-40815965D01*
X48030583Y-40909608D01*
X47995311Y-41003052D01*
X47963996Y-41089647D01*
X47939193Y-41162740D01*
X47923454Y-41215678D01*
X47919332Y-41241811D01*
X47919676Y-41242726D01*
X47933641Y-41264086D01*
X47965322Y-41311084D01*
X48011391Y-41378827D01*
X48068518Y-41462423D01*
X48133373Y-41556982D01*
X48151843Y-41583854D01*
X48217699Y-41681275D01*
X48275650Y-41770163D01*
X48322538Y-41845412D01*
X48355207Y-41901920D01*
X48370500Y-41934581D01*
X48371241Y-41938593D01*
X48358392Y-41959684D01*
X48322888Y-42001464D01*
X48269293Y-42059445D01*
X48202171Y-42129135D01*
X48126087Y-42206045D01*
X48045604Y-42285683D01*
X47965287Y-42363561D01*
X47889699Y-42435186D01*
X47823405Y-42496070D01*
X47770969Y-42541721D01*
X47736955Y-42567650D01*
X47727545Y-42571883D01*
X47705643Y-42561912D01*
X47660800Y-42535020D01*
X47600321Y-42495736D01*
X47553789Y-42464117D01*
X47469475Y-42406098D01*
X47369626Y-42337784D01*
X47269473Y-42269579D01*
X47215627Y-42233075D01*
X47033371Y-42109800D01*
X46880381Y-42192520D01*
X46810682Y-42228759D01*
X46751414Y-42256926D01*
X46711311Y-42272991D01*
X46701103Y-42275226D01*
X46688829Y-42258722D01*
X46664613Y-42212082D01*
X46630263Y-42139609D01*
X46587588Y-42045606D01*
X46538394Y-41934374D01*
X46484490Y-41810215D01*
X46427684Y-41677432D01*
X46369782Y-41540327D01*
X46312593Y-41403202D01*
X46257924Y-41270358D01*
X46207584Y-41146098D01*
X46163380Y-41034725D01*
X46127119Y-40940539D01*
X46100609Y-40867844D01*
X46085658Y-40820941D01*
X46083254Y-40804833D01*
X46102311Y-40784286D01*
X46144036Y-40750933D01*
X46199706Y-40711702D01*
X46204378Y-40708599D01*
X46348264Y-40593423D01*
X46464283Y-40459053D01*
X46551430Y-40309784D01*
X46608699Y-40149913D01*
X46635086Y-39983737D01*
X46629585Y-39815552D01*
X46591190Y-39649655D01*
X46518895Y-39490342D01*
X46497626Y-39455487D01*
X46386996Y-39314737D01*
X46256302Y-39201714D01*
X46110064Y-39117003D01*
X45952808Y-39061194D01*
X45789057Y-39034874D01*
X45623333Y-39038630D01*
X45460162Y-39073050D01*
X45304065Y-39138723D01*
X45159567Y-39236235D01*
X45114869Y-39275813D01*
X45001112Y-39399703D01*
X44918218Y-39530124D01*
X44861356Y-39676315D01*
X44829687Y-39821088D01*
X44821869Y-39983860D01*
X44847938Y-40147440D01*
X44905245Y-40306298D01*
X44991144Y-40454906D01*
X45102986Y-40587735D01*
X45238123Y-40699256D01*
X45255883Y-40711011D01*
X45312150Y-40749508D01*
X45354923Y-40782863D01*
X45375372Y-40804160D01*
X45375669Y-40804833D01*
X45371279Y-40827871D01*
X45353876Y-40880157D01*
X45325268Y-40957390D01*
X45287265Y-41055268D01*
X45241674Y-41169491D01*
X45190303Y-41295758D01*
X45134962Y-41429767D01*
X45077458Y-41567218D01*
X45019601Y-41703808D01*
X44963198Y-41835237D01*
X44910058Y-41957205D01*
X44861990Y-42065409D01*
X44820801Y-42155549D01*
X44788301Y-42223323D01*
X44766297Y-42264430D01*
X44757436Y-42275226D01*
X44730360Y-42266819D01*
X44679697Y-42244272D01*
X44614183Y-42211613D01*
X44578159Y-42192520D01*
X44425168Y-42109800D01*
X44242912Y-42233075D01*
X44149875Y-42296228D01*
X44048015Y-42365727D01*
X43952562Y-42431165D01*
X43904750Y-42464117D01*
X43837505Y-42509273D01*
X43780564Y-42545057D01*
X43741354Y-42566938D01*
X43728619Y-42571563D01*
X43710083Y-42559085D01*
X43669059Y-42524252D01*
X43609525Y-42470678D01*
X43535458Y-42401983D01*
X43450835Y-42321781D01*
X43397315Y-42270286D01*
X43303681Y-42178286D01*
X43222759Y-42095999D01*
X43157823Y-42026945D01*
X43112142Y-41974644D01*
X43088989Y-41942616D01*
X43086768Y-41936116D01*
X43097076Y-41911394D01*
X43125561Y-41861405D01*
X43169063Y-41791212D01*
X43224423Y-41705875D01*
X43288480Y-41610456D01*
X43306697Y-41583854D01*
X43373073Y-41487167D01*
X43432622Y-41400117D01*
X43482016Y-41327595D01*
X43517925Y-41274493D01*
X43537019Y-41245703D01*
X43538864Y-41242726D01*
X43536105Y-41219782D01*
X43521462Y-41169336D01*
X43497487Y-41098041D01*
X43466734Y-41012547D01*
X43431756Y-40919507D01*
X43395107Y-40825574D01*
X43359339Y-40737399D01*
X43327006Y-40661634D01*
X43300662Y-40604931D01*
X43282858Y-40573943D01*
X43281593Y-40572457D01*
X43270706Y-40563601D01*
X43252318Y-40554843D01*
X43222394Y-40545277D01*
X43176897Y-40533996D01*
X43111791Y-40520093D01*
X43023039Y-40502663D01*
X42906607Y-40480798D01*
X42758458Y-40453591D01*
X42726382Y-40447741D01*
X42631314Y-40429374D01*
X42548435Y-40411405D01*
X42485070Y-40395569D01*
X42448542Y-40383600D01*
X42443644Y-40380810D01*
X42435573Y-40356072D01*
X42429013Y-40300790D01*
X42423967Y-40221389D01*
X42420441Y-40124296D01*
X42418439Y-40015938D01*
X42417964Y-39902740D01*
X42419023Y-39791128D01*
X42421618Y-39687529D01*
X42425754Y-39598368D01*
X42431437Y-39530072D01*
X42438669Y-39489066D01*
X42443029Y-39480674D01*
X42467302Y-39472208D01*
X42522574Y-39458435D01*
X42603338Y-39440550D01*
X42704088Y-39419748D01*
X42819317Y-39397223D01*
X42882098Y-39385418D01*
X43001213Y-39363151D01*
X43107435Y-39342979D01*
X43195573Y-39325915D01*
X43260434Y-39312969D01*
X43296826Y-39305155D01*
X43302816Y-39303422D01*
X43312939Y-39283890D01*
X43334338Y-39236843D01*
X43364161Y-39169003D01*
X43399555Y-39087091D01*
X43437668Y-38997828D01*
X43475647Y-38907935D01*
X43510640Y-38824135D01*
X43539794Y-38753147D01*
X43560257Y-38701694D01*
X43569177Y-38676497D01*
X43569343Y-38675396D01*
X43559231Y-38655519D01*
X43530883Y-38609777D01*
X43487277Y-38542717D01*
X43431394Y-38458884D01*
X43366213Y-38362826D01*
X43328321Y-38307650D01*
X43259275Y-38206481D01*
X43197950Y-38114630D01*
X43147337Y-38036744D01*
X43110429Y-37977469D01*
X43090218Y-37941451D01*
X43087299Y-37933377D01*
X43099847Y-37914584D01*
X43134537Y-37874457D01*
X43186937Y-37817493D01*
X43252616Y-37748185D01*
X43327144Y-37671031D01*
X43406087Y-37590525D01*
X43485017Y-37511163D01*
X43559500Y-37437440D01*
X43625106Y-37373852D01*
X43677404Y-37324894D01*
X43711961Y-37295061D01*
X43723522Y-37287942D01*
X43742346Y-37297953D01*
X43787369Y-37326078D01*
X43854213Y-37369454D01*
X43938501Y-37425218D01*
X44035856Y-37490506D01*
X44109293Y-37540246D01*
X44480333Y-37792551D01*
X45098905Y-37537555D01*
X45182725Y-37092931D01*
X45266546Y-36648307D01*
X46191994Y-36648307D01*
X46275814Y-37092931D01*
X46275814Y-37092931D01*
G37*
X46275814Y-37092931D02*
X46359635Y-37537555D01*
X46668920Y-37665053D01*
X46978206Y-37792551D01*
X47349246Y-37540246D01*
X47453157Y-37469996D01*
X47547087Y-37407272D01*
X47626652Y-37354938D01*
X47687470Y-37315857D01*
X47725157Y-37292893D01*
X47735421Y-37287942D01*
X47753910Y-37300676D01*
X47793420Y-37335882D01*
X47849522Y-37389062D01*
X47917787Y-37455718D01*
X47993786Y-37531354D01*
X48073092Y-37611472D01*
X48151275Y-37691574D01*
X48223907Y-37767164D01*
X48286559Y-37833745D01*
X48334803Y-37886818D01*
X48364210Y-37921887D01*
X48371241Y-37933623D01*
X48361123Y-37955260D01*
X48332759Y-38002662D01*
X48289129Y-38071193D01*
X48233218Y-38156215D01*
X48168006Y-38253093D01*
X48130219Y-38308350D01*
X48061343Y-38409248D01*
X48000140Y-38500299D01*
X47949578Y-38576970D01*
X47912628Y-38634728D01*
X47892258Y-38669043D01*
X47889197Y-38676254D01*
X47896136Y-38696748D01*
X47915051Y-38744513D01*
X47943087Y-38812832D01*
X47977391Y-38894989D01*
X48015109Y-38984270D01*
X48053387Y-39073958D01*
X48089370Y-39157338D01*
X48120206Y-39227694D01*
X48143039Y-39278310D01*
X48155017Y-39302471D01*
X48155724Y-39303422D01*
X48174531Y-39308036D01*
X48224618Y-39318328D01*
X48300793Y-39333287D01*
X48397865Y-39351901D01*
X48510643Y-39373159D01*
X48576442Y-39385418D01*
X48696950Y-39408362D01*
X48805797Y-39430195D01*
X48897476Y-39449722D01*
X48966481Y-39465748D01*
X49007304Y-39477079D01*
X49015511Y-39480674D01*
X49023548Y-39505006D01*
X49030033Y-39559959D01*
X49034970Y-39639108D01*
X49038364Y-39736026D01*
X49040218Y-39844287D01*
X49040538Y-39957465D01*
X49039327Y-40069135D01*
X49036590Y-40172868D01*
X49032331Y-40262241D01*
X49026555Y-40330826D01*
X49019267Y-40372197D01*
X49014895Y-40380810D01*
X48988764Y-40391133D01*
X48933393Y-40405892D01*
X48856107Y-40423352D01*
X48764230Y-40441780D01*
X48732158Y-40447741D01*
X48577524Y-40476066D01*
X48455375Y-40498876D01*
X48361673Y-40517080D01*
X48292384Y-40531583D01*
X48243471Y-40543292D01*
X48210897Y-40553115D01*
X48190628Y-40561956D01*
X48178626Y-40570724D01*
X48176947Y-40572457D01*
X48160184Y-40600371D01*
X48134614Y-40654695D01*
X48102788Y-40728777D01*
X48067260Y-40815965D01*
X48030583Y-40909608D01*
X47995311Y-41003052D01*
X47963996Y-41089647D01*
X47939193Y-41162740D01*
X47923454Y-41215678D01*
X47919332Y-41241811D01*
X47919676Y-41242726D01*
X47933641Y-41264086D01*
X47965322Y-41311084D01*
X48011391Y-41378827D01*
X48068518Y-41462423D01*
X48133373Y-41556982D01*
X48151843Y-41583854D01*
X48217699Y-41681275D01*
X48275650Y-41770163D01*
X48322538Y-41845412D01*
X48355207Y-41901920D01*
X48370500Y-41934581D01*
X48371241Y-41938593D01*
X48358392Y-41959684D01*
X48322888Y-42001464D01*
X48269293Y-42059445D01*
X48202171Y-42129135D01*
X48126087Y-42206045D01*
X48045604Y-42285683D01*
X47965287Y-42363561D01*
X47889699Y-42435186D01*
X47823405Y-42496070D01*
X47770969Y-42541721D01*
X47736955Y-42567650D01*
X47727545Y-42571883D01*
X47705643Y-42561912D01*
X47660800Y-42535020D01*
X47600321Y-42495736D01*
X47553789Y-42464117D01*
X47469475Y-42406098D01*
X47369626Y-42337784D01*
X47269473Y-42269579D01*
X47215627Y-42233075D01*
X47033371Y-42109800D01*
X46880381Y-42192520D01*
X46810682Y-42228759D01*
X46751414Y-42256926D01*
X46711311Y-42272991D01*
X46701103Y-42275226D01*
X46688829Y-42258722D01*
X46664613Y-42212082D01*
X46630263Y-42139609D01*
X46587588Y-42045606D01*
X46538394Y-41934374D01*
X46484490Y-41810215D01*
X46427684Y-41677432D01*
X46369782Y-41540327D01*
X46312593Y-41403202D01*
X46257924Y-41270358D01*
X46207584Y-41146098D01*
X46163380Y-41034725D01*
X46127119Y-40940539D01*
X46100609Y-40867844D01*
X46085658Y-40820941D01*
X46083254Y-40804833D01*
X46102311Y-40784286D01*
X46144036Y-40750933D01*
X46199706Y-40711702D01*
X46204378Y-40708599D01*
X46348264Y-40593423D01*
X46464283Y-40459053D01*
X46551430Y-40309784D01*
X46608699Y-40149913D01*
X46635086Y-39983737D01*
X46629585Y-39815552D01*
X46591190Y-39649655D01*
X46518895Y-39490342D01*
X46497626Y-39455487D01*
X46386996Y-39314737D01*
X46256302Y-39201714D01*
X46110064Y-39117003D01*
X45952808Y-39061194D01*
X45789057Y-39034874D01*
X45623333Y-39038630D01*
X45460162Y-39073050D01*
X45304065Y-39138723D01*
X45159567Y-39236235D01*
X45114869Y-39275813D01*
X45001112Y-39399703D01*
X44918218Y-39530124D01*
X44861356Y-39676315D01*
X44829687Y-39821088D01*
X44821869Y-39983860D01*
X44847938Y-40147440D01*
X44905245Y-40306298D01*
X44991144Y-40454906D01*
X45102986Y-40587735D01*
X45238123Y-40699256D01*
X45255883Y-40711011D01*
X45312150Y-40749508D01*
X45354923Y-40782863D01*
X45375372Y-40804160D01*
X45375669Y-40804833D01*
X45371279Y-40827871D01*
X45353876Y-40880157D01*
X45325268Y-40957390D01*
X45287265Y-41055268D01*
X45241674Y-41169491D01*
X45190303Y-41295758D01*
X45134962Y-41429767D01*
X45077458Y-41567218D01*
X45019601Y-41703808D01*
X44963198Y-41835237D01*
X44910058Y-41957205D01*
X44861990Y-42065409D01*
X44820801Y-42155549D01*
X44788301Y-42223323D01*
X44766297Y-42264430D01*
X44757436Y-42275226D01*
X44730360Y-42266819D01*
X44679697Y-42244272D01*
X44614183Y-42211613D01*
X44578159Y-42192520D01*
X44425168Y-42109800D01*
X44242912Y-42233075D01*
X44149875Y-42296228D01*
X44048015Y-42365727D01*
X43952562Y-42431165D01*
X43904750Y-42464117D01*
X43837505Y-42509273D01*
X43780564Y-42545057D01*
X43741354Y-42566938D01*
X43728619Y-42571563D01*
X43710083Y-42559085D01*
X43669059Y-42524252D01*
X43609525Y-42470678D01*
X43535458Y-42401983D01*
X43450835Y-42321781D01*
X43397315Y-42270286D01*
X43303681Y-42178286D01*
X43222759Y-42095999D01*
X43157823Y-42026945D01*
X43112142Y-41974644D01*
X43088989Y-41942616D01*
X43086768Y-41936116D01*
X43097076Y-41911394D01*
X43125561Y-41861405D01*
X43169063Y-41791212D01*
X43224423Y-41705875D01*
X43288480Y-41610456D01*
X43306697Y-41583854D01*
X43373073Y-41487167D01*
X43432622Y-41400117D01*
X43482016Y-41327595D01*
X43517925Y-41274493D01*
X43537019Y-41245703D01*
X43538864Y-41242726D01*
X43536105Y-41219782D01*
X43521462Y-41169336D01*
X43497487Y-41098041D01*
X43466734Y-41012547D01*
X43431756Y-40919507D01*
X43395107Y-40825574D01*
X43359339Y-40737399D01*
X43327006Y-40661634D01*
X43300662Y-40604931D01*
X43282858Y-40573943D01*
X43281593Y-40572457D01*
X43270706Y-40563601D01*
X43252318Y-40554843D01*
X43222394Y-40545277D01*
X43176897Y-40533996D01*
X43111791Y-40520093D01*
X43023039Y-40502663D01*
X42906607Y-40480798D01*
X42758458Y-40453591D01*
X42726382Y-40447741D01*
X42631314Y-40429374D01*
X42548435Y-40411405D01*
X42485070Y-40395569D01*
X42448542Y-40383600D01*
X42443644Y-40380810D01*
X42435573Y-40356072D01*
X42429013Y-40300790D01*
X42423967Y-40221389D01*
X42420441Y-40124296D01*
X42418439Y-40015938D01*
X42417964Y-39902740D01*
X42419023Y-39791128D01*
X42421618Y-39687529D01*
X42425754Y-39598368D01*
X42431437Y-39530072D01*
X42438669Y-39489066D01*
X42443029Y-39480674D01*
X42467302Y-39472208D01*
X42522574Y-39458435D01*
X42603338Y-39440550D01*
X42704088Y-39419748D01*
X42819317Y-39397223D01*
X42882098Y-39385418D01*
X43001213Y-39363151D01*
X43107435Y-39342979D01*
X43195573Y-39325915D01*
X43260434Y-39312969D01*
X43296826Y-39305155D01*
X43302816Y-39303422D01*
X43312939Y-39283890D01*
X43334338Y-39236843D01*
X43364161Y-39169003D01*
X43399555Y-39087091D01*
X43437668Y-38997828D01*
X43475647Y-38907935D01*
X43510640Y-38824135D01*
X43539794Y-38753147D01*
X43560257Y-38701694D01*
X43569177Y-38676497D01*
X43569343Y-38675396D01*
X43559231Y-38655519D01*
X43530883Y-38609777D01*
X43487277Y-38542717D01*
X43431394Y-38458884D01*
X43366213Y-38362826D01*
X43328321Y-38307650D01*
X43259275Y-38206481D01*
X43197950Y-38114630D01*
X43147337Y-38036744D01*
X43110429Y-37977469D01*
X43090218Y-37941451D01*
X43087299Y-37933377D01*
X43099847Y-37914584D01*
X43134537Y-37874457D01*
X43186937Y-37817493D01*
X43252616Y-37748185D01*
X43327144Y-37671031D01*
X43406087Y-37590525D01*
X43485017Y-37511163D01*
X43559500Y-37437440D01*
X43625106Y-37373852D01*
X43677404Y-37324894D01*
X43711961Y-37295061D01*
X43723522Y-37287942D01*
X43742346Y-37297953D01*
X43787369Y-37326078D01*
X43854213Y-37369454D01*
X43938501Y-37425218D01*
X44035856Y-37490506D01*
X44109293Y-37540246D01*
X44480333Y-37792551D01*
X45098905Y-37537555D01*
X45182725Y-37092931D01*
X45266546Y-36648307D01*
X46191994Y-36648307D01*
X46275814Y-37092931D01*
D13*
X60140000Y-58420462D02*
G75*
G03X54590000Y-56875170I-2990000J462D01*
G01*
X60140000Y-58419538D02*
G75*
G02X54590000Y-59964830I-2990000J-462D01*
G01*
X59650000Y-58420000D02*
G75*
G03X59650000Y-58420000I-2500000J0D01*
G01*
X54590000Y-56875000D02*
X54590000Y-59965000D01*
X62210000Y-56875000D02*
X62210000Y-59965000D01*
X67270000Y-58420000D02*
G75*
G03X67270000Y-58420000I-2500000J0D01*
G01*
X67760000Y-58419538D02*
G75*
G02X62210000Y-59964830I-2990000J-462D01*
G01*
X67760000Y-58420462D02*
G75*
G03X62210000Y-56875170I-2990000J462D01*
G01*
X90620000Y-58420462D02*
G75*
G03X85070000Y-56875170I-2990000J462D01*
G01*
X90620000Y-58419538D02*
G75*
G02X85070000Y-59964830I-2990000J-462D01*
G01*
X90130000Y-58420000D02*
G75*
G03X90130000Y-58420000I-2500000J0D01*
G01*
X85070000Y-56875000D02*
X85070000Y-59965000D01*
X92690000Y-56875000D02*
X92690000Y-59965000D01*
X97750000Y-58420000D02*
G75*
G03X97750000Y-58420000I-2500000J0D01*
G01*
X98240000Y-58419538D02*
G75*
G02X92690000Y-59964830I-2990000J-462D01*
G01*
X98240000Y-58420462D02*
G75*
G03X92690000Y-56875170I-2990000J462D01*
G01*
X75380000Y-58420462D02*
G75*
G03X69830000Y-56875170I-2990000J462D01*
G01*
X75380000Y-58419538D02*
G75*
G02X69830000Y-59964830I-2990000J-462D01*
G01*
X74890000Y-58420000D02*
G75*
G03X74890000Y-58420000I-2500000J0D01*
G01*
X69830000Y-56875000D02*
X69830000Y-59965000D01*
X77450000Y-56875000D02*
X77450000Y-59965000D01*
X82510000Y-58420000D02*
G75*
G03X82510000Y-58420000I-2500000J0D01*
G01*
X83000000Y-58419538D02*
G75*
G02X77450000Y-59964830I-2990000J-462D01*
G01*
X83000000Y-58420462D02*
G75*
G03X77450000Y-56875170I-2990000J462D01*
G01*
X105860000Y-58420462D02*
G75*
G03X100310000Y-56875170I-2990000J462D01*
G01*
X105860000Y-58419538D02*
G75*
G02X100310000Y-59964830I-2990000J-462D01*
G01*
X105370000Y-58420000D02*
G75*
G03X105370000Y-58420000I-2500000J0D01*
G01*
X100310000Y-56875000D02*
X100310000Y-59965000D01*
X107930000Y-56875000D02*
X107930000Y-59965000D01*
X112990000Y-58420000D02*
G75*
G03X112990000Y-58420000I-2500000J0D01*
G01*
X113480000Y-58419538D02*
G75*
G02X107930000Y-59964830I-2990000J-462D01*
G01*
X113480000Y-58420462D02*
G75*
G03X107930000Y-56875170I-2990000J462D01*
G01*
X34230000Y-48320000D02*
X34230000Y-46990000D01*
X35560000Y-48320000D02*
X34230000Y-48320000D01*
X36830000Y-48320000D02*
X36830000Y-45660000D01*
X36830000Y-45660000D02*
X44510000Y-45660000D01*
X36830000Y-48320000D02*
X44510000Y-48320000D01*
X44510000Y-48320000D02*
X44510000Y-45660000D01*
X54670000Y-48320000D02*
X54670000Y-45660000D01*
X46990000Y-48320000D02*
X54670000Y-48320000D01*
X46990000Y-45660000D02*
X54670000Y-45660000D01*
X46990000Y-48320000D02*
X46990000Y-45660000D01*
X45720000Y-48320000D02*
X44390000Y-48320000D01*
X44390000Y-48320000D02*
X44390000Y-46990000D01*
X54550000Y-43240000D02*
X54550000Y-41910000D01*
X55880000Y-43240000D02*
X54550000Y-43240000D01*
X57150000Y-43240000D02*
X57150000Y-40580000D01*
X57150000Y-40580000D02*
X67370000Y-40580000D01*
X57150000Y-43240000D02*
X67370000Y-43240000D01*
X67370000Y-43240000D02*
X67370000Y-40580000D01*
X82610000Y-43240000D02*
X82610000Y-40580000D01*
X72390000Y-43240000D02*
X82610000Y-43240000D01*
X72390000Y-40580000D02*
X82610000Y-40580000D01*
X72390000Y-43240000D02*
X72390000Y-40580000D01*
X71120000Y-43240000D02*
X69790000Y-43240000D01*
X69790000Y-43240000D02*
X69790000Y-41910000D01*
X85030000Y-43240000D02*
X85030000Y-41910000D01*
X86360000Y-43240000D02*
X85030000Y-43240000D01*
X87630000Y-43240000D02*
X87630000Y-40580000D01*
X87630000Y-40580000D02*
X97850000Y-40580000D01*
X87630000Y-43240000D02*
X97850000Y-43240000D01*
X97850000Y-43240000D02*
X97850000Y-40580000D01*
X113090000Y-43240000D02*
X113090000Y-40580000D01*
X102870000Y-43240000D02*
X113090000Y-43240000D01*
X102870000Y-40580000D02*
X113090000Y-40580000D01*
X102870000Y-43240000D02*
X102870000Y-40580000D01*
X101600000Y-43240000D02*
X100270000Y-43240000D01*
X100270000Y-43240000D02*
X100270000Y-41910000D01*
X123250000Y-48320000D02*
X123250000Y-45660000D01*
X115570000Y-48320000D02*
X123250000Y-48320000D01*
X115570000Y-45660000D02*
X123250000Y-45660000D01*
X115570000Y-48320000D02*
X115570000Y-45660000D01*
X114300000Y-48320000D02*
X112970000Y-48320000D01*
X112970000Y-48320000D02*
X112970000Y-46990000D01*
X123130000Y-48320000D02*
X123130000Y-46990000D01*
X124460000Y-48320000D02*
X123130000Y-48320000D01*
X125730000Y-48320000D02*
X125730000Y-45660000D01*
X125730000Y-45660000D02*
X133410000Y-45660000D01*
X125730000Y-48320000D02*
X133410000Y-48320000D01*
X133410000Y-48320000D02*
X133410000Y-45660000D01*
X128330000Y-43240000D02*
X128330000Y-40580000D01*
X120650000Y-43240000D02*
X128330000Y-43240000D01*
X120650000Y-40580000D02*
X128330000Y-40580000D01*
X120650000Y-43240000D02*
X120650000Y-40580000D01*
X119380000Y-43240000D02*
X118050000Y-43240000D01*
X118050000Y-43240000D02*
X118050000Y-41910000D01*
X57540000Y-71050000D02*
X57540000Y-69230000D01*
X57540000Y-67930000D02*
X57540000Y-66110000D01*
X64380000Y-71050000D02*
X64380000Y-69230000D01*
X64380000Y-67930000D02*
X64380000Y-66110000D01*
X57540000Y-66110000D02*
X64380000Y-66110000D01*
X57540000Y-71050000D02*
X64380000Y-71050000D01*
X72780000Y-71050000D02*
X79620000Y-71050000D01*
X72780000Y-66110000D02*
X79620000Y-66110000D01*
X79620000Y-67930000D02*
X79620000Y-66110000D01*
X79620000Y-71050000D02*
X79620000Y-69230000D01*
X72780000Y-67930000D02*
X72780000Y-66110000D01*
X72780000Y-71050000D02*
X72780000Y-69230000D01*
X88020000Y-71050000D02*
X88020000Y-69230000D01*
X88020000Y-67930000D02*
X88020000Y-66110000D01*
X94860000Y-71050000D02*
X94860000Y-69230000D01*
X94860000Y-67930000D02*
X94860000Y-66110000D01*
X88020000Y-66110000D02*
X94860000Y-66110000D01*
X88020000Y-71050000D02*
X94860000Y-71050000D01*
X103260000Y-71050000D02*
X110100000Y-71050000D01*
X103260000Y-66110000D02*
X110100000Y-66110000D01*
X110100000Y-67930000D02*
X110100000Y-66110000D01*
X110100000Y-71050000D02*
X110100000Y-69230000D01*
X103260000Y-67930000D02*
X103260000Y-66110000D01*
X103260000Y-71050000D02*
X103260000Y-69230000D01*
X55760000Y-45220000D02*
X58540000Y-45220000D01*
X55760000Y-53840000D02*
X58540000Y-53840000D01*
X58540000Y-53840000D02*
X58540000Y-45220000D01*
X55760000Y-53840000D02*
X55760000Y-45220000D01*
X63380000Y-53840000D02*
X63380000Y-45220000D01*
X66160000Y-53840000D02*
X66160000Y-45220000D01*
X63380000Y-53840000D02*
X66160000Y-53840000D01*
X63380000Y-45220000D02*
X66160000Y-45220000D01*
X86240000Y-45220000D02*
X89020000Y-45220000D01*
X86240000Y-53840000D02*
X89020000Y-53840000D01*
X89020000Y-53840000D02*
X89020000Y-45220000D01*
X86240000Y-53840000D02*
X86240000Y-45220000D01*
X93860000Y-53840000D02*
X93860000Y-45220000D01*
X96640000Y-53840000D02*
X96640000Y-45220000D01*
X93860000Y-53840000D02*
X96640000Y-53840000D01*
X93860000Y-45220000D02*
X96640000Y-45220000D01*
X71000000Y-45220000D02*
X73780000Y-45220000D01*
X71000000Y-53840000D02*
X73780000Y-53840000D01*
X73780000Y-53840000D02*
X73780000Y-45220000D01*
X71000000Y-53840000D02*
X71000000Y-45220000D01*
X78620000Y-53840000D02*
X78620000Y-45220000D01*
X81400000Y-53840000D02*
X81400000Y-45220000D01*
X78620000Y-53840000D02*
X81400000Y-53840000D01*
X78620000Y-45220000D02*
X81400000Y-45220000D01*
X101480000Y-45220000D02*
X104260000Y-45220000D01*
X101480000Y-53840000D02*
X104260000Y-53840000D01*
X104260000Y-53840000D02*
X104260000Y-45220000D01*
X101480000Y-53840000D02*
X101480000Y-45220000D01*
X109100000Y-53840000D02*
X109100000Y-45220000D01*
X111880000Y-53840000D02*
X111880000Y-45220000D01*
X109100000Y-53840000D02*
X111880000Y-53840000D01*
X109100000Y-45220000D02*
X111880000Y-45220000D01*
D10*
X56411904Y-55062380D02*
X56411904Y-54062380D01*
X56650000Y-54062380D01*
X56792857Y-54110000D01*
X56888095Y-54205238D01*
X56935714Y-54300476D01*
X56983333Y-54490952D01*
X56983333Y-54633809D01*
X56935714Y-54824285D01*
X56888095Y-54919523D01*
X56792857Y-55014761D01*
X56650000Y-55062380D01*
X56411904Y-55062380D01*
X57935714Y-55062380D02*
X57364285Y-55062380D01*
X57650000Y-55062380D02*
X57650000Y-54062380D01*
X57554761Y-54205238D01*
X57459523Y-54300476D01*
X57364285Y-54348095D01*
X64031904Y-55062380D02*
X64031904Y-54062380D01*
X64270000Y-54062380D01*
X64412857Y-54110000D01*
X64508095Y-54205238D01*
X64555714Y-54300476D01*
X64603333Y-54490952D01*
X64603333Y-54633809D01*
X64555714Y-54824285D01*
X64508095Y-54919523D01*
X64412857Y-55014761D01*
X64270000Y-55062380D01*
X64031904Y-55062380D01*
X64984285Y-54157619D02*
X65031904Y-54110000D01*
X65127142Y-54062380D01*
X65365238Y-54062380D01*
X65460476Y-54110000D01*
X65508095Y-54157619D01*
X65555714Y-54252857D01*
X65555714Y-54348095D01*
X65508095Y-54490952D01*
X64936666Y-55062380D01*
X65555714Y-55062380D01*
X86891904Y-55062380D02*
X86891904Y-54062380D01*
X87130000Y-54062380D01*
X87272857Y-54110000D01*
X87368095Y-54205238D01*
X87415714Y-54300476D01*
X87463333Y-54490952D01*
X87463333Y-54633809D01*
X87415714Y-54824285D01*
X87368095Y-54919523D01*
X87272857Y-55014761D01*
X87130000Y-55062380D01*
X86891904Y-55062380D01*
X88368095Y-54062380D02*
X87891904Y-54062380D01*
X87844285Y-54538571D01*
X87891904Y-54490952D01*
X87987142Y-54443333D01*
X88225238Y-54443333D01*
X88320476Y-54490952D01*
X88368095Y-54538571D01*
X88415714Y-54633809D01*
X88415714Y-54871904D01*
X88368095Y-54967142D01*
X88320476Y-55014761D01*
X88225238Y-55062380D01*
X87987142Y-55062380D01*
X87891904Y-55014761D01*
X87844285Y-54967142D01*
X94511904Y-55062380D02*
X94511904Y-54062380D01*
X94750000Y-54062380D01*
X94892857Y-54110000D01*
X94988095Y-54205238D01*
X95035714Y-54300476D01*
X95083333Y-54490952D01*
X95083333Y-54633809D01*
X95035714Y-54824285D01*
X94988095Y-54919523D01*
X94892857Y-55014761D01*
X94750000Y-55062380D01*
X94511904Y-55062380D01*
X95940476Y-54062380D02*
X95750000Y-54062380D01*
X95654761Y-54110000D01*
X95607142Y-54157619D01*
X95511904Y-54300476D01*
X95464285Y-54490952D01*
X95464285Y-54871904D01*
X95511904Y-54967142D01*
X95559523Y-55014761D01*
X95654761Y-55062380D01*
X95845238Y-55062380D01*
X95940476Y-55014761D01*
X95988095Y-54967142D01*
X96035714Y-54871904D01*
X96035714Y-54633809D01*
X95988095Y-54538571D01*
X95940476Y-54490952D01*
X95845238Y-54443333D01*
X95654761Y-54443333D01*
X95559523Y-54490952D01*
X95511904Y-54538571D01*
X95464285Y-54633809D01*
X71651904Y-55062380D02*
X71651904Y-54062380D01*
X71890000Y-54062380D01*
X72032857Y-54110000D01*
X72128095Y-54205238D01*
X72175714Y-54300476D01*
X72223333Y-54490952D01*
X72223333Y-54633809D01*
X72175714Y-54824285D01*
X72128095Y-54919523D01*
X72032857Y-55014761D01*
X71890000Y-55062380D01*
X71651904Y-55062380D01*
X72556666Y-54062380D02*
X73175714Y-54062380D01*
X72842380Y-54443333D01*
X72985238Y-54443333D01*
X73080476Y-54490952D01*
X73128095Y-54538571D01*
X73175714Y-54633809D01*
X73175714Y-54871904D01*
X73128095Y-54967142D01*
X73080476Y-55014761D01*
X72985238Y-55062380D01*
X72699523Y-55062380D01*
X72604285Y-55014761D01*
X72556666Y-54967142D01*
X79271904Y-55062380D02*
X79271904Y-54062380D01*
X79510000Y-54062380D01*
X79652857Y-54110000D01*
X79748095Y-54205238D01*
X79795714Y-54300476D01*
X79843333Y-54490952D01*
X79843333Y-54633809D01*
X79795714Y-54824285D01*
X79748095Y-54919523D01*
X79652857Y-55014761D01*
X79510000Y-55062380D01*
X79271904Y-55062380D01*
X80700476Y-54395714D02*
X80700476Y-55062380D01*
X80462380Y-54014761D02*
X80224285Y-54729047D01*
X80843333Y-54729047D01*
X102131904Y-55062380D02*
X102131904Y-54062380D01*
X102370000Y-54062380D01*
X102512857Y-54110000D01*
X102608095Y-54205238D01*
X102655714Y-54300476D01*
X102703333Y-54490952D01*
X102703333Y-54633809D01*
X102655714Y-54824285D01*
X102608095Y-54919523D01*
X102512857Y-55014761D01*
X102370000Y-55062380D01*
X102131904Y-55062380D01*
X103036666Y-54062380D02*
X103703333Y-54062380D01*
X103274761Y-55062380D01*
X109751904Y-55062380D02*
X109751904Y-54062380D01*
X109990000Y-54062380D01*
X110132857Y-54110000D01*
X110228095Y-54205238D01*
X110275714Y-54300476D01*
X110323333Y-54490952D01*
X110323333Y-54633809D01*
X110275714Y-54824285D01*
X110228095Y-54919523D01*
X110132857Y-55014761D01*
X109990000Y-55062380D01*
X109751904Y-55062380D01*
X110894761Y-54490952D02*
X110799523Y-54443333D01*
X110751904Y-54395714D01*
X110704285Y-54300476D01*
X110704285Y-54252857D01*
X110751904Y-54157619D01*
X110799523Y-54110000D01*
X110894761Y-54062380D01*
X111085238Y-54062380D01*
X111180476Y-54110000D01*
X111228095Y-54157619D01*
X111275714Y-54252857D01*
X111275714Y-54300476D01*
X111228095Y-54395714D01*
X111180476Y-54443333D01*
X111085238Y-54490952D01*
X110894761Y-54490952D01*
X110799523Y-54538571D01*
X110751904Y-54586190D01*
X110704285Y-54681428D01*
X110704285Y-54871904D01*
X110751904Y-54967142D01*
X110799523Y-55014761D01*
X110894761Y-55062380D01*
X111085238Y-55062380D01*
X111180476Y-55014761D01*
X111228095Y-54967142D01*
X111275714Y-54871904D01*
X111275714Y-54681428D01*
X111228095Y-54586190D01*
X111180476Y-54538571D01*
X111085238Y-54490952D01*
X39290666Y-43902380D02*
X39290666Y-44616666D01*
X39243047Y-44759523D01*
X39147809Y-44854761D01*
X39004952Y-44902380D01*
X38909714Y-44902380D01*
X40290666Y-44902380D02*
X39719238Y-44902380D01*
X40004952Y-44902380D02*
X40004952Y-43902380D01*
X39909714Y-44045238D01*
X39814476Y-44140476D01*
X39719238Y-44188095D01*
X49196666Y-43902380D02*
X49196666Y-44616666D01*
X49149047Y-44759523D01*
X49053809Y-44854761D01*
X48910952Y-44902380D01*
X48815714Y-44902380D01*
X49625238Y-43997619D02*
X49672857Y-43950000D01*
X49768095Y-43902380D01*
X50006190Y-43902380D01*
X50101428Y-43950000D01*
X50149047Y-43997619D01*
X50196666Y-44092857D01*
X50196666Y-44188095D01*
X50149047Y-44330952D01*
X49577619Y-44902380D01*
X50196666Y-44902380D01*
X60626666Y-43648380D02*
X60626666Y-44362666D01*
X60579047Y-44505523D01*
X60483809Y-44600761D01*
X60340952Y-44648380D01*
X60245714Y-44648380D01*
X61007619Y-43648380D02*
X61626666Y-43648380D01*
X61293333Y-44029333D01*
X61436190Y-44029333D01*
X61531428Y-44076952D01*
X61579047Y-44124571D01*
X61626666Y-44219809D01*
X61626666Y-44457904D01*
X61579047Y-44553142D01*
X61531428Y-44600761D01*
X61436190Y-44648380D01*
X61150476Y-44648380D01*
X61055238Y-44600761D01*
X61007619Y-44553142D01*
X75866666Y-43648380D02*
X75866666Y-44362666D01*
X75819047Y-44505523D01*
X75723809Y-44600761D01*
X75580952Y-44648380D01*
X75485714Y-44648380D01*
X76771428Y-43981714D02*
X76771428Y-44648380D01*
X76533333Y-43600761D02*
X76295238Y-44315047D01*
X76914285Y-44315047D01*
X91106666Y-43648380D02*
X91106666Y-44362666D01*
X91059047Y-44505523D01*
X90963809Y-44600761D01*
X90820952Y-44648380D01*
X90725714Y-44648380D01*
X92059047Y-43648380D02*
X91582857Y-43648380D01*
X91535238Y-44124571D01*
X91582857Y-44076952D01*
X91678095Y-44029333D01*
X91916190Y-44029333D01*
X92011428Y-44076952D01*
X92059047Y-44124571D01*
X92106666Y-44219809D01*
X92106666Y-44457904D01*
X92059047Y-44553142D01*
X92011428Y-44600761D01*
X91916190Y-44648380D01*
X91678095Y-44648380D01*
X91582857Y-44600761D01*
X91535238Y-44553142D01*
X106346666Y-43648380D02*
X106346666Y-44362666D01*
X106299047Y-44505523D01*
X106203809Y-44600761D01*
X106060952Y-44648380D01*
X105965714Y-44648380D01*
X107251428Y-43648380D02*
X107060952Y-43648380D01*
X106965714Y-43696000D01*
X106918095Y-43743619D01*
X106822857Y-43886476D01*
X106775238Y-44076952D01*
X106775238Y-44457904D01*
X106822857Y-44553142D01*
X106870476Y-44600761D01*
X106965714Y-44648380D01*
X107156190Y-44648380D01*
X107251428Y-44600761D01*
X107299047Y-44553142D01*
X107346666Y-44457904D01*
X107346666Y-44219809D01*
X107299047Y-44124571D01*
X107251428Y-44076952D01*
X107156190Y-44029333D01*
X106965714Y-44029333D01*
X106870476Y-44076952D01*
X106822857Y-44124571D01*
X106775238Y-44219809D01*
X118030666Y-43902380D02*
X118030666Y-44616666D01*
X117983047Y-44759523D01*
X117887809Y-44854761D01*
X117744952Y-44902380D01*
X117649714Y-44902380D01*
X118411619Y-43902380D02*
X119078285Y-43902380D01*
X118649714Y-44902380D01*
X128190666Y-43902380D02*
X128190666Y-44616666D01*
X128143047Y-44759523D01*
X128047809Y-44854761D01*
X127904952Y-44902380D01*
X127809714Y-44902380D01*
X128809714Y-44330952D02*
X128714476Y-44283333D01*
X128666857Y-44235714D01*
X128619238Y-44140476D01*
X128619238Y-44092857D01*
X128666857Y-43997619D01*
X128714476Y-43950000D01*
X128809714Y-43902380D01*
X129000190Y-43902380D01*
X129095428Y-43950000D01*
X129143047Y-43997619D01*
X129190666Y-44092857D01*
X129190666Y-44140476D01*
X129143047Y-44235714D01*
X129095428Y-44283333D01*
X129000190Y-44330952D01*
X128809714Y-44330952D01*
X128714476Y-44378571D01*
X128666857Y-44426190D01*
X128619238Y-44521428D01*
X128619238Y-44711904D01*
X128666857Y-44807142D01*
X128714476Y-44854761D01*
X128809714Y-44902380D01*
X129000190Y-44902380D01*
X129095428Y-44854761D01*
X129143047Y-44807142D01*
X129190666Y-44711904D01*
X129190666Y-44521428D01*
X129143047Y-44426190D01*
X129095428Y-44378571D01*
X129000190Y-44330952D01*
X129206666Y-41362380D02*
X129206666Y-42076666D01*
X129159047Y-42219523D01*
X129063809Y-42314761D01*
X128920952Y-42362380D01*
X128825714Y-42362380D01*
X129730476Y-42362380D02*
X129920952Y-42362380D01*
X130016190Y-42314761D01*
X130063809Y-42267142D01*
X130159047Y-42124285D01*
X130206666Y-41933809D01*
X130206666Y-41552857D01*
X130159047Y-41457619D01*
X130111428Y-41410000D01*
X130016190Y-41362380D01*
X129825714Y-41362380D01*
X129730476Y-41410000D01*
X129682857Y-41457619D01*
X129635238Y-41552857D01*
X129635238Y-41790952D01*
X129682857Y-41886190D01*
X129730476Y-41933809D01*
X129825714Y-41981428D01*
X130016190Y-41981428D01*
X130111428Y-41933809D01*
X130159047Y-41886190D01*
X130206666Y-41790952D01*
X60793333Y-65222380D02*
X60460000Y-64746190D01*
X60221904Y-65222380D02*
X60221904Y-64222380D01*
X60602857Y-64222380D01*
X60698095Y-64270000D01*
X60745714Y-64317619D01*
X60793333Y-64412857D01*
X60793333Y-64555714D01*
X60745714Y-64650952D01*
X60698095Y-64698571D01*
X60602857Y-64746190D01*
X60221904Y-64746190D01*
X61745714Y-65222380D02*
X61174285Y-65222380D01*
X61460000Y-65222380D02*
X61460000Y-64222380D01*
X61364761Y-64365238D01*
X61269523Y-64460476D01*
X61174285Y-64508095D01*
X75779333Y-65222380D02*
X75446000Y-64746190D01*
X75207904Y-65222380D02*
X75207904Y-64222380D01*
X75588857Y-64222380D01*
X75684095Y-64270000D01*
X75731714Y-64317619D01*
X75779333Y-64412857D01*
X75779333Y-64555714D01*
X75731714Y-64650952D01*
X75684095Y-64698571D01*
X75588857Y-64746190D01*
X75207904Y-64746190D01*
X76160285Y-64317619D02*
X76207904Y-64270000D01*
X76303142Y-64222380D01*
X76541238Y-64222380D01*
X76636476Y-64270000D01*
X76684095Y-64317619D01*
X76731714Y-64412857D01*
X76731714Y-64508095D01*
X76684095Y-64650952D01*
X76112666Y-65222380D01*
X76731714Y-65222380D01*
X91273333Y-65222380D02*
X90940000Y-64746190D01*
X90701904Y-65222380D02*
X90701904Y-64222380D01*
X91082857Y-64222380D01*
X91178095Y-64270000D01*
X91225714Y-64317619D01*
X91273333Y-64412857D01*
X91273333Y-64555714D01*
X91225714Y-64650952D01*
X91178095Y-64698571D01*
X91082857Y-64746190D01*
X90701904Y-64746190D01*
X91606666Y-64222380D02*
X92225714Y-64222380D01*
X91892380Y-64603333D01*
X92035238Y-64603333D01*
X92130476Y-64650952D01*
X92178095Y-64698571D01*
X92225714Y-64793809D01*
X92225714Y-65031904D01*
X92178095Y-65127142D01*
X92130476Y-65174761D01*
X92035238Y-65222380D01*
X91749523Y-65222380D01*
X91654285Y-65174761D01*
X91606666Y-65127142D01*
X106259333Y-65222380D02*
X105926000Y-64746190D01*
X105687904Y-65222380D02*
X105687904Y-64222380D01*
X106068857Y-64222380D01*
X106164095Y-64270000D01*
X106211714Y-64317619D01*
X106259333Y-64412857D01*
X106259333Y-64555714D01*
X106211714Y-64650952D01*
X106164095Y-64698571D01*
X106068857Y-64746190D01*
X105687904Y-64746190D01*
X107116476Y-64555714D02*
X107116476Y-65222380D01*
X106878380Y-64174761D02*
X106640285Y-64889047D01*
X107259333Y-64889047D01*
X36766666Y-55014761D02*
X36909523Y-55062380D01*
X37147619Y-55062380D01*
X37242857Y-55014761D01*
X37290476Y-54967142D01*
X37338095Y-54871904D01*
X37338095Y-54776666D01*
X37290476Y-54681428D01*
X37242857Y-54633809D01*
X37147619Y-54586190D01*
X36957142Y-54538571D01*
X36861904Y-54490952D01*
X36814285Y-54443333D01*
X36766666Y-54348095D01*
X36766666Y-54252857D01*
X36814285Y-54157619D01*
X36861904Y-54110000D01*
X36957142Y-54062380D01*
X37195238Y-54062380D01*
X37338095Y-54110000D01*
X37671428Y-54062380D02*
X37909523Y-55062380D01*
X38100000Y-54348095D01*
X38290476Y-55062380D01*
X38528571Y-54062380D01*
X39433333Y-55062380D02*
X38861904Y-55062380D01*
X39147619Y-55062380D02*
X39147619Y-54062380D01*
X39052380Y-54205238D01*
X38957142Y-54300476D01*
X38861904Y-54348095D01*
X46926666Y-55014761D02*
X47069523Y-55062380D01*
X47307619Y-55062380D01*
X47402857Y-55014761D01*
X47450476Y-54967142D01*
X47498095Y-54871904D01*
X47498095Y-54776666D01*
X47450476Y-54681428D01*
X47402857Y-54633809D01*
X47307619Y-54586190D01*
X47117142Y-54538571D01*
X47021904Y-54490952D01*
X46974285Y-54443333D01*
X46926666Y-54348095D01*
X46926666Y-54252857D01*
X46974285Y-54157619D01*
X47021904Y-54110000D01*
X47117142Y-54062380D01*
X47355238Y-54062380D01*
X47498095Y-54110000D01*
X47831428Y-54062380D02*
X48069523Y-55062380D01*
X48260000Y-54348095D01*
X48450476Y-55062380D01*
X48688571Y-54062380D01*
X49021904Y-54157619D02*
X49069523Y-54110000D01*
X49164761Y-54062380D01*
X49402857Y-54062380D01*
X49498095Y-54110000D01*
X49545714Y-54157619D01*
X49593333Y-54252857D01*
X49593333Y-54348095D01*
X49545714Y-54490952D01*
X48974285Y-55062380D01*
X49593333Y-55062380D01*
X118300666Y-55014761D02*
X118443523Y-55062380D01*
X118681619Y-55062380D01*
X118776857Y-55014761D01*
X118824476Y-54967142D01*
X118872095Y-54871904D01*
X118872095Y-54776666D01*
X118824476Y-54681428D01*
X118776857Y-54633809D01*
X118681619Y-54586190D01*
X118491142Y-54538571D01*
X118395904Y-54490952D01*
X118348285Y-54443333D01*
X118300666Y-54348095D01*
X118300666Y-54252857D01*
X118348285Y-54157619D01*
X118395904Y-54110000D01*
X118491142Y-54062380D01*
X118729238Y-54062380D01*
X118872095Y-54110000D01*
X119205428Y-54062380D02*
X119443523Y-55062380D01*
X119634000Y-54348095D01*
X119824476Y-55062380D01*
X120062571Y-54062380D01*
X120919714Y-54062380D02*
X120443523Y-54062380D01*
X120395904Y-54538571D01*
X120443523Y-54490952D01*
X120538761Y-54443333D01*
X120776857Y-54443333D01*
X120872095Y-54490952D01*
X120919714Y-54538571D01*
X120967333Y-54633809D01*
X120967333Y-54871904D01*
X120919714Y-54967142D01*
X120872095Y-55014761D01*
X120776857Y-55062380D01*
X120538761Y-55062380D01*
X120443523Y-55014761D01*
X120395904Y-54967142D01*
X128460666Y-55014761D02*
X128603523Y-55062380D01*
X128841619Y-55062380D01*
X128936857Y-55014761D01*
X128984476Y-54967142D01*
X129032095Y-54871904D01*
X129032095Y-54776666D01*
X128984476Y-54681428D01*
X128936857Y-54633809D01*
X128841619Y-54586190D01*
X128651142Y-54538571D01*
X128555904Y-54490952D01*
X128508285Y-54443333D01*
X128460666Y-54348095D01*
X128460666Y-54252857D01*
X128508285Y-54157619D01*
X128555904Y-54110000D01*
X128651142Y-54062380D01*
X128889238Y-54062380D01*
X129032095Y-54110000D01*
X129365428Y-54062380D02*
X129603523Y-55062380D01*
X129794000Y-54348095D01*
X129984476Y-55062380D01*
X130222571Y-54062380D01*
X131032095Y-54062380D02*
X130841619Y-54062380D01*
X130746380Y-54110000D01*
X130698761Y-54157619D01*
X130603523Y-54300476D01*
X130555904Y-54490952D01*
X130555904Y-54871904D01*
X130603523Y-54967142D01*
X130651142Y-55014761D01*
X130746380Y-55062380D01*
X130936857Y-55062380D01*
X131032095Y-55014761D01*
X131079714Y-54967142D01*
X131127333Y-54871904D01*
X131127333Y-54633809D01*
X131079714Y-54538571D01*
X131032095Y-54490952D01*
X130936857Y-54443333D01*
X130746380Y-54443333D01*
X130651142Y-54490952D01*
X130603523Y-54538571D01*
X130555904Y-54633809D01*
X36766666Y-72794761D02*
X36909523Y-72842380D01*
X37147619Y-72842380D01*
X37242857Y-72794761D01*
X37290476Y-72747142D01*
X37338095Y-72651904D01*
X37338095Y-72556666D01*
X37290476Y-72461428D01*
X37242857Y-72413809D01*
X37147619Y-72366190D01*
X36957142Y-72318571D01*
X36861904Y-72270952D01*
X36814285Y-72223333D01*
X36766666Y-72128095D01*
X36766666Y-72032857D01*
X36814285Y-71937619D01*
X36861904Y-71890000D01*
X36957142Y-71842380D01*
X37195238Y-71842380D01*
X37338095Y-71890000D01*
X37671428Y-71842380D02*
X37909523Y-72842380D01*
X38100000Y-72128095D01*
X38290476Y-72842380D01*
X38528571Y-71842380D01*
X38814285Y-71842380D02*
X39433333Y-71842380D01*
X39100000Y-72223333D01*
X39242857Y-72223333D01*
X39338095Y-72270952D01*
X39385714Y-72318571D01*
X39433333Y-72413809D01*
X39433333Y-72651904D01*
X39385714Y-72747142D01*
X39338095Y-72794761D01*
X39242857Y-72842380D01*
X38957142Y-72842380D01*
X38861904Y-72794761D01*
X38814285Y-72747142D01*
X46926666Y-72794761D02*
X47069523Y-72842380D01*
X47307619Y-72842380D01*
X47402857Y-72794761D01*
X47450476Y-72747142D01*
X47498095Y-72651904D01*
X47498095Y-72556666D01*
X47450476Y-72461428D01*
X47402857Y-72413809D01*
X47307619Y-72366190D01*
X47117142Y-72318571D01*
X47021904Y-72270952D01*
X46974285Y-72223333D01*
X46926666Y-72128095D01*
X46926666Y-72032857D01*
X46974285Y-71937619D01*
X47021904Y-71890000D01*
X47117142Y-71842380D01*
X47355238Y-71842380D01*
X47498095Y-71890000D01*
X47831428Y-71842380D02*
X48069523Y-72842380D01*
X48260000Y-72128095D01*
X48450476Y-72842380D01*
X48688571Y-71842380D01*
X49498095Y-72175714D02*
X49498095Y-72842380D01*
X49260000Y-71794761D02*
X49021904Y-72509047D01*
X49640952Y-72509047D01*
X118300666Y-72794761D02*
X118443523Y-72842380D01*
X118681619Y-72842380D01*
X118776857Y-72794761D01*
X118824476Y-72747142D01*
X118872095Y-72651904D01*
X118872095Y-72556666D01*
X118824476Y-72461428D01*
X118776857Y-72413809D01*
X118681619Y-72366190D01*
X118491142Y-72318571D01*
X118395904Y-72270952D01*
X118348285Y-72223333D01*
X118300666Y-72128095D01*
X118300666Y-72032857D01*
X118348285Y-71937619D01*
X118395904Y-71890000D01*
X118491142Y-71842380D01*
X118729238Y-71842380D01*
X118872095Y-71890000D01*
X119205428Y-71842380D02*
X119443523Y-72842380D01*
X119634000Y-72128095D01*
X119824476Y-72842380D01*
X120062571Y-71842380D01*
X120348285Y-71842380D02*
X121014952Y-71842380D01*
X120586380Y-72842380D01*
X128460666Y-72794761D02*
X128603523Y-72842380D01*
X128841619Y-72842380D01*
X128936857Y-72794761D01*
X128984476Y-72747142D01*
X129032095Y-72651904D01*
X129032095Y-72556666D01*
X128984476Y-72461428D01*
X128936857Y-72413809D01*
X128841619Y-72366190D01*
X128651142Y-72318571D01*
X128555904Y-72270952D01*
X128508285Y-72223333D01*
X128460666Y-72128095D01*
X128460666Y-72032857D01*
X128508285Y-71937619D01*
X128555904Y-71890000D01*
X128651142Y-71842380D01*
X128889238Y-71842380D01*
X129032095Y-71890000D01*
X129365428Y-71842380D02*
X129603523Y-72842380D01*
X129794000Y-72128095D01*
X129984476Y-72842380D01*
X130222571Y-71842380D01*
X130746380Y-72270952D02*
X130651142Y-72223333D01*
X130603523Y-72175714D01*
X130555904Y-72080476D01*
X130555904Y-72032857D01*
X130603523Y-71937619D01*
X130651142Y-71890000D01*
X130746380Y-71842380D01*
X130936857Y-71842380D01*
X131032095Y-71890000D01*
X131079714Y-71937619D01*
X131127333Y-72032857D01*
X131127333Y-72080476D01*
X131079714Y-72175714D01*
X131032095Y-72223333D01*
X130936857Y-72270952D01*
X130746380Y-72270952D01*
X130651142Y-72318571D01*
X130603523Y-72366190D01*
X130555904Y-72461428D01*
X130555904Y-72651904D01*
X130603523Y-72747142D01*
X130651142Y-72794761D01*
X130746380Y-72842380D01*
X130936857Y-72842380D01*
X131032095Y-72794761D01*
X131079714Y-72747142D01*
X131127333Y-72651904D01*
X131127333Y-72461428D01*
X131079714Y-72366190D01*
X131032095Y-72318571D01*
X130936857Y-72270952D01*
X55570380Y-49950666D02*
X55094190Y-50284000D01*
X55570380Y-50522095D02*
X54570380Y-50522095D01*
X54570380Y-50141142D01*
X54618000Y-50045904D01*
X54665619Y-49998285D01*
X54760857Y-49950666D01*
X54903714Y-49950666D01*
X54998952Y-49998285D01*
X55046571Y-50045904D01*
X55094190Y-50141142D01*
X55094190Y-50522095D01*
X54570380Y-49045904D02*
X54570380Y-49522095D01*
X55046571Y-49569714D01*
X54998952Y-49522095D01*
X54951333Y-49426857D01*
X54951333Y-49188761D01*
X54998952Y-49093523D01*
X55046571Y-49045904D01*
X55141809Y-48998285D01*
X55379904Y-48998285D01*
X55475142Y-49045904D01*
X55522761Y-49093523D01*
X55570380Y-49188761D01*
X55570380Y-49426857D01*
X55522761Y-49522095D01*
X55475142Y-49569714D01*
X63190380Y-49696666D02*
X62714190Y-50030000D01*
X63190380Y-50268095D02*
X62190380Y-50268095D01*
X62190380Y-49887142D01*
X62238000Y-49791904D01*
X62285619Y-49744285D01*
X62380857Y-49696666D01*
X62523714Y-49696666D01*
X62618952Y-49744285D01*
X62666571Y-49791904D01*
X62714190Y-49887142D01*
X62714190Y-50268095D01*
X62190380Y-48839523D02*
X62190380Y-49030000D01*
X62238000Y-49125238D01*
X62285619Y-49172857D01*
X62428476Y-49268095D01*
X62618952Y-49315714D01*
X62999904Y-49315714D01*
X63095142Y-49268095D01*
X63142761Y-49220476D01*
X63190380Y-49125238D01*
X63190380Y-48934761D01*
X63142761Y-48839523D01*
X63095142Y-48791904D01*
X62999904Y-48744285D01*
X62761809Y-48744285D01*
X62666571Y-48791904D01*
X62618952Y-48839523D01*
X62571333Y-48934761D01*
X62571333Y-49125238D01*
X62618952Y-49220476D01*
X62666571Y-49268095D01*
X62761809Y-49315714D01*
X86050380Y-49696666D02*
X85574190Y-50030000D01*
X86050380Y-50268095D02*
X85050380Y-50268095D01*
X85050380Y-49887142D01*
X85098000Y-49791904D01*
X85145619Y-49744285D01*
X85240857Y-49696666D01*
X85383714Y-49696666D01*
X85478952Y-49744285D01*
X85526571Y-49791904D01*
X85574190Y-49887142D01*
X85574190Y-50268095D01*
X86050380Y-49220476D02*
X86050380Y-49030000D01*
X86002761Y-48934761D01*
X85955142Y-48887142D01*
X85812285Y-48791904D01*
X85621809Y-48744285D01*
X85240857Y-48744285D01*
X85145619Y-48791904D01*
X85098000Y-48839523D01*
X85050380Y-48934761D01*
X85050380Y-49125238D01*
X85098000Y-49220476D01*
X85145619Y-49268095D01*
X85240857Y-49315714D01*
X85478952Y-49315714D01*
X85574190Y-49268095D01*
X85621809Y-49220476D01*
X85669428Y-49125238D01*
X85669428Y-48934761D01*
X85621809Y-48839523D01*
X85574190Y-48791904D01*
X85478952Y-48744285D01*
X93670380Y-50172857D02*
X93194190Y-50506190D01*
X93670380Y-50744285D02*
X92670380Y-50744285D01*
X92670380Y-50363333D01*
X92718000Y-50268095D01*
X92765619Y-50220476D01*
X92860857Y-50172857D01*
X93003714Y-50172857D01*
X93098952Y-50220476D01*
X93146571Y-50268095D01*
X93194190Y-50363333D01*
X93194190Y-50744285D01*
X93670380Y-49220476D02*
X93670380Y-49791904D01*
X93670380Y-49506190D02*
X92670380Y-49506190D01*
X92813238Y-49601428D01*
X92908476Y-49696666D01*
X92956095Y-49791904D01*
X92670380Y-48601428D02*
X92670380Y-48506190D01*
X92718000Y-48410952D01*
X92765619Y-48363333D01*
X92860857Y-48315714D01*
X93051333Y-48268095D01*
X93289428Y-48268095D01*
X93479904Y-48315714D01*
X93575142Y-48363333D01*
X93622761Y-48410952D01*
X93670380Y-48506190D01*
X93670380Y-48601428D01*
X93622761Y-48696666D01*
X93575142Y-48744285D01*
X93479904Y-48791904D01*
X93289428Y-48839523D01*
X93051333Y-48839523D01*
X92860857Y-48791904D01*
X92765619Y-48744285D01*
X92718000Y-48696666D01*
X92670380Y-48601428D01*
X70810380Y-49696666D02*
X70334190Y-50030000D01*
X70810380Y-50268095D02*
X69810380Y-50268095D01*
X69810380Y-49887142D01*
X69858000Y-49791904D01*
X69905619Y-49744285D01*
X70000857Y-49696666D01*
X70143714Y-49696666D01*
X70238952Y-49744285D01*
X70286571Y-49791904D01*
X70334190Y-49887142D01*
X70334190Y-50268095D01*
X69810380Y-49363333D02*
X69810380Y-48696666D01*
X70810380Y-49125238D01*
X78430380Y-49696666D02*
X77954190Y-50030000D01*
X78430380Y-50268095D02*
X77430380Y-50268095D01*
X77430380Y-49887142D01*
X77478000Y-49791904D01*
X77525619Y-49744285D01*
X77620857Y-49696666D01*
X77763714Y-49696666D01*
X77858952Y-49744285D01*
X77906571Y-49791904D01*
X77954190Y-49887142D01*
X77954190Y-50268095D01*
X77858952Y-49125238D02*
X77811333Y-49220476D01*
X77763714Y-49268095D01*
X77668476Y-49315714D01*
X77620857Y-49315714D01*
X77525619Y-49268095D01*
X77478000Y-49220476D01*
X77430380Y-49125238D01*
X77430380Y-48934761D01*
X77478000Y-48839523D01*
X77525619Y-48791904D01*
X77620857Y-48744285D01*
X77668476Y-48744285D01*
X77763714Y-48791904D01*
X77811333Y-48839523D01*
X77858952Y-48934761D01*
X77858952Y-49125238D01*
X77906571Y-49220476D01*
X77954190Y-49268095D01*
X78049428Y-49315714D01*
X78239904Y-49315714D01*
X78335142Y-49268095D01*
X78382761Y-49220476D01*
X78430380Y-49125238D01*
X78430380Y-48934761D01*
X78382761Y-48839523D01*
X78335142Y-48791904D01*
X78239904Y-48744285D01*
X78049428Y-48744285D01*
X77954190Y-48791904D01*
X77906571Y-48839523D01*
X77858952Y-48934761D01*
X101290380Y-50172857D02*
X100814190Y-50506190D01*
X101290380Y-50744285D02*
X100290380Y-50744285D01*
X100290380Y-50363333D01*
X100338000Y-50268095D01*
X100385619Y-50220476D01*
X100480857Y-50172857D01*
X100623714Y-50172857D01*
X100718952Y-50220476D01*
X100766571Y-50268095D01*
X100814190Y-50363333D01*
X100814190Y-50744285D01*
X101290380Y-49220476D02*
X101290380Y-49791904D01*
X101290380Y-49506190D02*
X100290380Y-49506190D01*
X100433238Y-49601428D01*
X100528476Y-49696666D01*
X100576095Y-49791904D01*
X101290380Y-48268095D02*
X101290380Y-48839523D01*
X101290380Y-48553809D02*
X100290380Y-48553809D01*
X100433238Y-48649047D01*
X100528476Y-48744285D01*
X100576095Y-48839523D01*
X108910380Y-50172857D02*
X108434190Y-50506190D01*
X108910380Y-50744285D02*
X107910380Y-50744285D01*
X107910380Y-50363333D01*
X107958000Y-50268095D01*
X108005619Y-50220476D01*
X108100857Y-50172857D01*
X108243714Y-50172857D01*
X108338952Y-50220476D01*
X108386571Y-50268095D01*
X108434190Y-50363333D01*
X108434190Y-50744285D01*
X108910380Y-49220476D02*
X108910380Y-49791904D01*
X108910380Y-49506190D02*
X107910380Y-49506190D01*
X108053238Y-49601428D01*
X108148476Y-49696666D01*
X108196095Y-49791904D01*
X108005619Y-48839523D02*
X107958000Y-48791904D01*
X107910380Y-48696666D01*
X107910380Y-48458571D01*
X107958000Y-48363333D01*
X108005619Y-48315714D01*
X108100857Y-48268095D01*
X108196095Y-48268095D01*
X108338952Y-48315714D01*
X108910380Y-48887142D01*
X108910380Y-48268095D01*
M02*
