G04 #@! TF.GenerationSoftware,KiCad,Pcbnew,(5.1.2-1)-1*
G04 #@! TF.CreationDate,2020-02-23T09:00:00-05:00*
G04 #@! TF.ProjectId,IO_Board,494f5f42-6f61-4726-942e-6b696361645f,rev?*
G04 #@! TF.SameCoordinates,Original*
G04 #@! TF.FileFunction,Legend,Bot*
G04 #@! TF.FilePolarity,Positive*
%FSLAX46Y46*%
G04 Gerber Fmt 4.6, Leading zero omitted, Abs format (unit mm)*
G04 Created by KiCad (PCBNEW (5.1.2-1)-1) date 2020-02-23 09:00:00*
%MOMM*%
%LPD*%
G04 APERTURE LIST*
%ADD10C,0.010000*%
G04 APERTURE END LIST*
D10*
G36*
X89380911Y-71888728D02*
G01*
X89221501Y-71903799D01*
X89181481Y-71909881D01*
X88896571Y-71979119D01*
X88615154Y-72088432D01*
X88349552Y-72231589D01*
X88112089Y-72402355D01*
X87992403Y-72511302D01*
X87924182Y-72580649D01*
X87887054Y-72624931D01*
X87876004Y-72654823D01*
X87886021Y-72680996D01*
X87902614Y-72702490D01*
X87965914Y-72773456D01*
X88046202Y-72854228D01*
X88134442Y-72936824D01*
X88221595Y-73013264D01*
X88298625Y-73075565D01*
X88356493Y-73115745D01*
X88382821Y-73126600D01*
X88431019Y-73108964D01*
X88489978Y-73064915D01*
X88507898Y-73047198D01*
X88585385Y-72978063D01*
X88693187Y-72898886D01*
X88815161Y-72820178D01*
X88935163Y-72752448D01*
X89024077Y-72711154D01*
X89253434Y-72644569D01*
X89496004Y-72617462D01*
X89725500Y-72631039D01*
X89828013Y-72648113D01*
X89915873Y-72665074D01*
X89972947Y-72678754D01*
X89979500Y-72680910D01*
X90154764Y-72763957D01*
X90325094Y-72878966D01*
X90478737Y-73015679D01*
X90603938Y-73163841D01*
X90679486Y-73291700D01*
X90738748Y-73427572D01*
X90776631Y-73540301D01*
X90797719Y-73650403D01*
X90806598Y-73778398D01*
X90807951Y-73866503D01*
X90795849Y-74106982D01*
X90755027Y-74314062D01*
X90682071Y-74498393D01*
X90573568Y-74670623D01*
X90534078Y-74720912D01*
X90473022Y-74784912D01*
X90392446Y-74855464D01*
X90304014Y-74923963D01*
X90219391Y-74981803D01*
X90150240Y-75020379D01*
X90112974Y-75031600D01*
X90063816Y-75045958D01*
X90054430Y-75052583D01*
X89982525Y-75090354D01*
X89871915Y-75118531D01*
X89733856Y-75136719D01*
X89579604Y-75144526D01*
X89420413Y-75141559D01*
X89267539Y-75127424D01*
X89132237Y-75101730D01*
X89080917Y-75086575D01*
X88927137Y-75020086D01*
X88762548Y-74924933D01*
X88606610Y-74813245D01*
X88515710Y-74734295D01*
X88448347Y-74680739D01*
X88391856Y-74655277D01*
X88376010Y-74654782D01*
X88344280Y-74674776D01*
X88287719Y-74723227D01*
X88214591Y-74791747D01*
X88133161Y-74871946D01*
X88051693Y-74955435D01*
X87978452Y-75033826D01*
X87921702Y-75098730D01*
X87889709Y-75141756D01*
X87885589Y-75152582D01*
X87906112Y-75181608D01*
X87959138Y-75232921D01*
X88035794Y-75299334D01*
X88127208Y-75373660D01*
X88224508Y-75448713D01*
X88318819Y-75517304D01*
X88401271Y-75572248D01*
X88411249Y-75578374D01*
X88611482Y-75688752D01*
X88803731Y-75769389D01*
X89001082Y-75823596D01*
X89216619Y-75854684D01*
X89463430Y-75865966D01*
X89547700Y-75865965D01*
X89682372Y-75864168D01*
X89803352Y-75861393D01*
X89899260Y-75857985D01*
X89958712Y-75854287D01*
X89966800Y-75853319D01*
X90195963Y-75798574D01*
X90433318Y-75705754D01*
X90664756Y-75582425D01*
X90876167Y-75436153D01*
X91053440Y-75274506D01*
X91060600Y-75266761D01*
X91251262Y-75029416D01*
X91395989Y-74781130D01*
X91496975Y-74516039D01*
X91556416Y-74228281D01*
X91576507Y-73911990D01*
X91576496Y-73888600D01*
X91556786Y-73567457D01*
X91499727Y-73277478D01*
X91404026Y-73014040D01*
X91268391Y-72772524D01*
X91261557Y-72762433D01*
X91181341Y-72661012D01*
X91072021Y-72544473D01*
X90947068Y-72425403D01*
X90819958Y-72316390D01*
X90704164Y-72230021D01*
X90665300Y-72205383D01*
X90559634Y-72146296D01*
X90447610Y-72089353D01*
X90340935Y-72039896D01*
X90251316Y-72003264D01*
X90190457Y-71984800D01*
X90179195Y-71983600D01*
X90127149Y-71972452D01*
X90099806Y-71960934D01*
X90007409Y-71929095D01*
X89877033Y-71905272D01*
X89720965Y-71890147D01*
X89551495Y-71884405D01*
X89380911Y-71888728D01*
X89380911Y-71888728D01*
G37*
X89380911Y-71888728D02*
X89221501Y-71903799D01*
X89181481Y-71909881D01*
X88896571Y-71979119D01*
X88615154Y-72088432D01*
X88349552Y-72231589D01*
X88112089Y-72402355D01*
X87992403Y-72511302D01*
X87924182Y-72580649D01*
X87887054Y-72624931D01*
X87876004Y-72654823D01*
X87886021Y-72680996D01*
X87902614Y-72702490D01*
X87965914Y-72773456D01*
X88046202Y-72854228D01*
X88134442Y-72936824D01*
X88221595Y-73013264D01*
X88298625Y-73075565D01*
X88356493Y-73115745D01*
X88382821Y-73126600D01*
X88431019Y-73108964D01*
X88489978Y-73064915D01*
X88507898Y-73047198D01*
X88585385Y-72978063D01*
X88693187Y-72898886D01*
X88815161Y-72820178D01*
X88935163Y-72752448D01*
X89024077Y-72711154D01*
X89253434Y-72644569D01*
X89496004Y-72617462D01*
X89725500Y-72631039D01*
X89828013Y-72648113D01*
X89915873Y-72665074D01*
X89972947Y-72678754D01*
X89979500Y-72680910D01*
X90154764Y-72763957D01*
X90325094Y-72878966D01*
X90478737Y-73015679D01*
X90603938Y-73163841D01*
X90679486Y-73291700D01*
X90738748Y-73427572D01*
X90776631Y-73540301D01*
X90797719Y-73650403D01*
X90806598Y-73778398D01*
X90807951Y-73866503D01*
X90795849Y-74106982D01*
X90755027Y-74314062D01*
X90682071Y-74498393D01*
X90573568Y-74670623D01*
X90534078Y-74720912D01*
X90473022Y-74784912D01*
X90392446Y-74855464D01*
X90304014Y-74923963D01*
X90219391Y-74981803D01*
X90150240Y-75020379D01*
X90112974Y-75031600D01*
X90063816Y-75045958D01*
X90054430Y-75052583D01*
X89982525Y-75090354D01*
X89871915Y-75118531D01*
X89733856Y-75136719D01*
X89579604Y-75144526D01*
X89420413Y-75141559D01*
X89267539Y-75127424D01*
X89132237Y-75101730D01*
X89080917Y-75086575D01*
X88927137Y-75020086D01*
X88762548Y-74924933D01*
X88606610Y-74813245D01*
X88515710Y-74734295D01*
X88448347Y-74680739D01*
X88391856Y-74655277D01*
X88376010Y-74654782D01*
X88344280Y-74674776D01*
X88287719Y-74723227D01*
X88214591Y-74791747D01*
X88133161Y-74871946D01*
X88051693Y-74955435D01*
X87978452Y-75033826D01*
X87921702Y-75098730D01*
X87889709Y-75141756D01*
X87885589Y-75152582D01*
X87906112Y-75181608D01*
X87959138Y-75232921D01*
X88035794Y-75299334D01*
X88127208Y-75373660D01*
X88224508Y-75448713D01*
X88318819Y-75517304D01*
X88401271Y-75572248D01*
X88411249Y-75578374D01*
X88611482Y-75688752D01*
X88803731Y-75769389D01*
X89001082Y-75823596D01*
X89216619Y-75854684D01*
X89463430Y-75865966D01*
X89547700Y-75865965D01*
X89682372Y-75864168D01*
X89803352Y-75861393D01*
X89899260Y-75857985D01*
X89958712Y-75854287D01*
X89966800Y-75853319D01*
X90195963Y-75798574D01*
X90433318Y-75705754D01*
X90664756Y-75582425D01*
X90876167Y-75436153D01*
X91053440Y-75274506D01*
X91060600Y-75266761D01*
X91251262Y-75029416D01*
X91395989Y-74781130D01*
X91496975Y-74516039D01*
X91556416Y-74228281D01*
X91576507Y-73911990D01*
X91576496Y-73888600D01*
X91556786Y-73567457D01*
X91499727Y-73277478D01*
X91404026Y-73014040D01*
X91268391Y-72772524D01*
X91261557Y-72762433D01*
X91181341Y-72661012D01*
X91072021Y-72544473D01*
X90947068Y-72425403D01*
X90819958Y-72316390D01*
X90704164Y-72230021D01*
X90665300Y-72205383D01*
X90559634Y-72146296D01*
X90447610Y-72089353D01*
X90340935Y-72039896D01*
X90251316Y-72003264D01*
X90190457Y-71984800D01*
X90179195Y-71983600D01*
X90127149Y-71972452D01*
X90099806Y-71960934D01*
X90007409Y-71929095D01*
X89877033Y-71905272D01*
X89720965Y-71890147D01*
X89551495Y-71884405D01*
X89380911Y-71888728D01*
G36*
X81287544Y-71802168D02*
G01*
X81162284Y-71803401D01*
X81059958Y-71805372D01*
X80989782Y-71808092D01*
X80960972Y-71811575D01*
X80960869Y-71811665D01*
X80949068Y-71842331D01*
X80933629Y-71905832D01*
X80925192Y-71948639D01*
X80905053Y-72048293D01*
X80882024Y-72147445D01*
X80875095Y-72174100D01*
X80852313Y-72263468D01*
X80827867Y-72367003D01*
X80819918Y-72402700D01*
X80798654Y-72498189D01*
X80777554Y-72589562D01*
X80770600Y-72618600D01*
X80750326Y-72701726D01*
X80726858Y-72797931D01*
X80721034Y-72821800D01*
X80700154Y-72910439D01*
X80675177Y-73020715D01*
X80657496Y-73101200D01*
X80633473Y-73208374D01*
X80602984Y-73338812D01*
X80572109Y-73466551D01*
X80568237Y-73482200D01*
X80540933Y-73592980D01*
X80515923Y-73695873D01*
X80497615Y-73772710D01*
X80494308Y-73787000D01*
X80449639Y-73980643D01*
X80414057Y-74129651D01*
X80385969Y-74239053D01*
X80363781Y-74313879D01*
X80345901Y-74359158D01*
X80330733Y-74379918D01*
X80316685Y-74381190D01*
X80308097Y-74374656D01*
X80287216Y-74335059D01*
X80267049Y-74268632D01*
X80263525Y-74252593D01*
X80253252Y-74202556D01*
X80241419Y-74146020D01*
X80226230Y-74074592D01*
X80205889Y-73979879D01*
X80178600Y-73853488D01*
X80142567Y-73687026D01*
X80136712Y-73660000D01*
X80093340Y-73458533D01*
X80050181Y-73255766D01*
X80011004Y-73069495D01*
X79983377Y-72936100D01*
X79967341Y-72859612D01*
X79943547Y-72748252D01*
X79915187Y-72616752D01*
X79885453Y-72479844D01*
X79857537Y-72352262D01*
X79834632Y-72248738D01*
X79829287Y-72224900D01*
X79809948Y-72132671D01*
X79793181Y-72042695D01*
X79791793Y-72034400D01*
X79764924Y-71917473D01*
X79730285Y-71839560D01*
X79690433Y-71806055D01*
X79683069Y-71805159D01*
X79474505Y-71802950D01*
X79277470Y-71802791D01*
X79098234Y-71804530D01*
X78943064Y-71808012D01*
X78818227Y-71813086D01*
X78729992Y-71819598D01*
X78684626Y-71827395D01*
X78680596Y-71829644D01*
X78674753Y-71842748D01*
X78673924Y-71868844D01*
X78679074Y-71912193D01*
X78691166Y-71977061D01*
X78711162Y-72067709D01*
X78740025Y-72188403D01*
X78778720Y-72343404D01*
X78828208Y-72536978D01*
X78889452Y-72773387D01*
X78921918Y-72898000D01*
X78954524Y-73024144D01*
X78984580Y-73142476D01*
X79008432Y-73238497D01*
X79021091Y-73291700D01*
X79044213Y-73388583D01*
X79069547Y-73487553D01*
X79071522Y-73494900D01*
X79095390Y-73586652D01*
X79117373Y-73676378D01*
X79119471Y-73685400D01*
X79135746Y-73752986D01*
X79160074Y-73850547D01*
X79187663Y-73958909D01*
X79192455Y-73977500D01*
X79245199Y-74182569D01*
X79293248Y-74371113D01*
X79334819Y-74536032D01*
X79368129Y-74670224D01*
X79391396Y-74766592D01*
X79399728Y-74803000D01*
X79415970Y-74870312D01*
X79441238Y-74967470D01*
X79470571Y-75075480D01*
X79476037Y-75095100D01*
X79506022Y-75205416D01*
X79533147Y-75310719D01*
X79552218Y-75390743D01*
X79554186Y-75399900D01*
X79572545Y-75487515D01*
X79589571Y-75568745D01*
X79591449Y-75577700D01*
X79610148Y-75651150D01*
X79628010Y-75704700D01*
X79646794Y-75762618D01*
X79666912Y-75840808D01*
X79670547Y-75857100D01*
X79692500Y-75958700D01*
X80881953Y-75958700D01*
X80926823Y-75780900D01*
X80951914Y-75682554D01*
X80985270Y-75553291D01*
X81022182Y-75411308D01*
X81051760Y-75298300D01*
X81084889Y-75171647D01*
X81115231Y-75054678D01*
X81139344Y-74960719D01*
X81153425Y-74904600D01*
X81175478Y-74818236D01*
X81200851Y-74724575D01*
X81203800Y-74714100D01*
X81228832Y-74622513D01*
X81251996Y-74532876D01*
X81254280Y-74523600D01*
X81271383Y-74456129D01*
X81296829Y-74358739D01*
X81325621Y-74250527D01*
X81330738Y-74231500D01*
X81361956Y-74113328D01*
X81392761Y-73992887D01*
X81416864Y-73894803D01*
X81418328Y-73888600D01*
X81453591Y-73750294D01*
X81486564Y-73642579D01*
X81515438Y-73569213D01*
X81538407Y-73533956D01*
X81553662Y-73540565D01*
X81559395Y-73592800D01*
X81559400Y-73595304D01*
X81569125Y-73671241D01*
X81582155Y-73715954D01*
X81603448Y-73779178D01*
X81626791Y-73860303D01*
X81630860Y-73875900D01*
X81655819Y-73973062D01*
X81681487Y-74072198D01*
X81683285Y-74079100D01*
X81714737Y-74201418D01*
X81748283Y-74334502D01*
X81779636Y-74461119D01*
X81804509Y-74564038D01*
X81812850Y-74599800D01*
X81840413Y-74716977D01*
X81876700Y-74866141D01*
X81918881Y-75036139D01*
X81964122Y-75215821D01*
X82009593Y-75394036D01*
X82052461Y-75559631D01*
X82089894Y-75701457D01*
X82119061Y-75808362D01*
X82125701Y-75831700D01*
X82162383Y-75958700D01*
X82750509Y-75965519D01*
X82947454Y-75967198D01*
X83098671Y-75966957D01*
X83209202Y-75964580D01*
X83284091Y-75959853D01*
X83328379Y-75952563D01*
X83347110Y-75942495D01*
X83348235Y-75940119D01*
X83359491Y-75897967D01*
X83377503Y-75826359D01*
X83388636Y-75780900D01*
X83411514Y-75689472D01*
X83433669Y-75605453D01*
X83441422Y-75577700D01*
X83456155Y-75522018D01*
X83478921Y-75430623D01*
X83506329Y-75317300D01*
X83528856Y-75222100D01*
X83560312Y-75087942D01*
X83583491Y-74989920D01*
X83601711Y-74914708D01*
X83618289Y-74848982D01*
X83636542Y-74779417D01*
X83659786Y-74692689D01*
X83671118Y-74650600D01*
X83702883Y-74531894D01*
X83729200Y-74431254D01*
X83755551Y-74327341D01*
X83787416Y-74198814D01*
X83793439Y-74174350D01*
X83818064Y-74074268D01*
X83843503Y-73970879D01*
X83846562Y-73958450D01*
X83882832Y-73812532D01*
X83911806Y-73699830D01*
X83937699Y-73604083D01*
X83946945Y-73571100D01*
X83971296Y-73477726D01*
X83995148Y-73375461D01*
X83999472Y-73355200D01*
X84022089Y-73258039D01*
X84050564Y-73150033D01*
X84060947Y-73113900D01*
X84081252Y-73041123D01*
X84108878Y-72935969D01*
X84141933Y-72806267D01*
X84178520Y-72659843D01*
X84216745Y-72504525D01*
X84254712Y-72348142D01*
X84290528Y-72198520D01*
X84322296Y-72063489D01*
X84348122Y-71950875D01*
X84366111Y-71868506D01*
X84374369Y-71824210D01*
X84374459Y-71818821D01*
X84343918Y-71813039D01*
X84271920Y-71808445D01*
X84167737Y-71805034D01*
X84040638Y-71802802D01*
X83899893Y-71801742D01*
X83754772Y-71801851D01*
X83614544Y-71803122D01*
X83488480Y-71805552D01*
X83385849Y-71809134D01*
X83315922Y-71813863D01*
X83288220Y-71819420D01*
X83272598Y-71845712D01*
X83255118Y-71898394D01*
X83234156Y-71983873D01*
X83208088Y-72108560D01*
X83185496Y-72224900D01*
X83165597Y-72326444D01*
X83139617Y-72454973D01*
X83111334Y-72592194D01*
X83084525Y-72719810D01*
X83062969Y-72819527D01*
X83059623Y-72834500D01*
X83041680Y-72917961D01*
X83020302Y-73022676D01*
X83007369Y-73088500D01*
X82987367Y-73188373D01*
X82967259Y-73282577D01*
X82956400Y-73329800D01*
X82939389Y-73405157D01*
X82918706Y-73504072D01*
X82905432Y-73571100D01*
X82885206Y-73674236D01*
X82864923Y-73774751D01*
X82854435Y-73825100D01*
X82837608Y-73906570D01*
X82816658Y-74011296D01*
X82801457Y-74089080D01*
X82779427Y-74191496D01*
X82754883Y-74288322D01*
X82738264Y-74343080D01*
X82718369Y-74393439D01*
X82703029Y-74404599D01*
X82686987Y-74373119D01*
X82664991Y-74295558D01*
X82664844Y-74295000D01*
X82646326Y-74225248D01*
X82624701Y-74144755D01*
X82624118Y-74142600D01*
X82601685Y-74055348D01*
X82579034Y-73961051D01*
X82576987Y-73952100D01*
X82559031Y-73877888D01*
X82532773Y-73775075D01*
X82503431Y-73664025D01*
X82498919Y-73647300D01*
X82469849Y-73536839D01*
X82443499Y-73431431D01*
X82424932Y-73351421D01*
X82423056Y-73342500D01*
X82410332Y-73286315D01*
X82387910Y-73193239D01*
X82357647Y-73070539D01*
X82321399Y-72925485D01*
X82281022Y-72765345D01*
X82238374Y-72597386D01*
X82195311Y-72428877D01*
X82153689Y-72267086D01*
X82115365Y-72119283D01*
X82082196Y-71992734D01*
X82056038Y-71894708D01*
X82038748Y-71832473D01*
X82032396Y-71813128D01*
X82004638Y-71809551D01*
X81935305Y-71806624D01*
X81833611Y-71804359D01*
X81708772Y-71802768D01*
X81570004Y-71801864D01*
X81426523Y-71801660D01*
X81287544Y-71802168D01*
X81287544Y-71802168D01*
G37*
X81287544Y-71802168D02*
X81162284Y-71803401D01*
X81059958Y-71805372D01*
X80989782Y-71808092D01*
X80960972Y-71811575D01*
X80960869Y-71811665D01*
X80949068Y-71842331D01*
X80933629Y-71905832D01*
X80925192Y-71948639D01*
X80905053Y-72048293D01*
X80882024Y-72147445D01*
X80875095Y-72174100D01*
X80852313Y-72263468D01*
X80827867Y-72367003D01*
X80819918Y-72402700D01*
X80798654Y-72498189D01*
X80777554Y-72589562D01*
X80770600Y-72618600D01*
X80750326Y-72701726D01*
X80726858Y-72797931D01*
X80721034Y-72821800D01*
X80700154Y-72910439D01*
X80675177Y-73020715D01*
X80657496Y-73101200D01*
X80633473Y-73208374D01*
X80602984Y-73338812D01*
X80572109Y-73466551D01*
X80568237Y-73482200D01*
X80540933Y-73592980D01*
X80515923Y-73695873D01*
X80497615Y-73772710D01*
X80494308Y-73787000D01*
X80449639Y-73980643D01*
X80414057Y-74129651D01*
X80385969Y-74239053D01*
X80363781Y-74313879D01*
X80345901Y-74359158D01*
X80330733Y-74379918D01*
X80316685Y-74381190D01*
X80308097Y-74374656D01*
X80287216Y-74335059D01*
X80267049Y-74268632D01*
X80263525Y-74252593D01*
X80253252Y-74202556D01*
X80241419Y-74146020D01*
X80226230Y-74074592D01*
X80205889Y-73979879D01*
X80178600Y-73853488D01*
X80142567Y-73687026D01*
X80136712Y-73660000D01*
X80093340Y-73458533D01*
X80050181Y-73255766D01*
X80011004Y-73069495D01*
X79983377Y-72936100D01*
X79967341Y-72859612D01*
X79943547Y-72748252D01*
X79915187Y-72616752D01*
X79885453Y-72479844D01*
X79857537Y-72352262D01*
X79834632Y-72248738D01*
X79829287Y-72224900D01*
X79809948Y-72132671D01*
X79793181Y-72042695D01*
X79791793Y-72034400D01*
X79764924Y-71917473D01*
X79730285Y-71839560D01*
X79690433Y-71806055D01*
X79683069Y-71805159D01*
X79474505Y-71802950D01*
X79277470Y-71802791D01*
X79098234Y-71804530D01*
X78943064Y-71808012D01*
X78818227Y-71813086D01*
X78729992Y-71819598D01*
X78684626Y-71827395D01*
X78680596Y-71829644D01*
X78674753Y-71842748D01*
X78673924Y-71868844D01*
X78679074Y-71912193D01*
X78691166Y-71977061D01*
X78711162Y-72067709D01*
X78740025Y-72188403D01*
X78778720Y-72343404D01*
X78828208Y-72536978D01*
X78889452Y-72773387D01*
X78921918Y-72898000D01*
X78954524Y-73024144D01*
X78984580Y-73142476D01*
X79008432Y-73238497D01*
X79021091Y-73291700D01*
X79044213Y-73388583D01*
X79069547Y-73487553D01*
X79071522Y-73494900D01*
X79095390Y-73586652D01*
X79117373Y-73676378D01*
X79119471Y-73685400D01*
X79135746Y-73752986D01*
X79160074Y-73850547D01*
X79187663Y-73958909D01*
X79192455Y-73977500D01*
X79245199Y-74182569D01*
X79293248Y-74371113D01*
X79334819Y-74536032D01*
X79368129Y-74670224D01*
X79391396Y-74766592D01*
X79399728Y-74803000D01*
X79415970Y-74870312D01*
X79441238Y-74967470D01*
X79470571Y-75075480D01*
X79476037Y-75095100D01*
X79506022Y-75205416D01*
X79533147Y-75310719D01*
X79552218Y-75390743D01*
X79554186Y-75399900D01*
X79572545Y-75487515D01*
X79589571Y-75568745D01*
X79591449Y-75577700D01*
X79610148Y-75651150D01*
X79628010Y-75704700D01*
X79646794Y-75762618D01*
X79666912Y-75840808D01*
X79670547Y-75857100D01*
X79692500Y-75958700D01*
X80881953Y-75958700D01*
X80926823Y-75780900D01*
X80951914Y-75682554D01*
X80985270Y-75553291D01*
X81022182Y-75411308D01*
X81051760Y-75298300D01*
X81084889Y-75171647D01*
X81115231Y-75054678D01*
X81139344Y-74960719D01*
X81153425Y-74904600D01*
X81175478Y-74818236D01*
X81200851Y-74724575D01*
X81203800Y-74714100D01*
X81228832Y-74622513D01*
X81251996Y-74532876D01*
X81254280Y-74523600D01*
X81271383Y-74456129D01*
X81296829Y-74358739D01*
X81325621Y-74250527D01*
X81330738Y-74231500D01*
X81361956Y-74113328D01*
X81392761Y-73992887D01*
X81416864Y-73894803D01*
X81418328Y-73888600D01*
X81453591Y-73750294D01*
X81486564Y-73642579D01*
X81515438Y-73569213D01*
X81538407Y-73533956D01*
X81553662Y-73540565D01*
X81559395Y-73592800D01*
X81559400Y-73595304D01*
X81569125Y-73671241D01*
X81582155Y-73715954D01*
X81603448Y-73779178D01*
X81626791Y-73860303D01*
X81630860Y-73875900D01*
X81655819Y-73973062D01*
X81681487Y-74072198D01*
X81683285Y-74079100D01*
X81714737Y-74201418D01*
X81748283Y-74334502D01*
X81779636Y-74461119D01*
X81804509Y-74564038D01*
X81812850Y-74599800D01*
X81840413Y-74716977D01*
X81876700Y-74866141D01*
X81918881Y-75036139D01*
X81964122Y-75215821D01*
X82009593Y-75394036D01*
X82052461Y-75559631D01*
X82089894Y-75701457D01*
X82119061Y-75808362D01*
X82125701Y-75831700D01*
X82162383Y-75958700D01*
X82750509Y-75965519D01*
X82947454Y-75967198D01*
X83098671Y-75966957D01*
X83209202Y-75964580D01*
X83284091Y-75959853D01*
X83328379Y-75952563D01*
X83347110Y-75942495D01*
X83348235Y-75940119D01*
X83359491Y-75897967D01*
X83377503Y-75826359D01*
X83388636Y-75780900D01*
X83411514Y-75689472D01*
X83433669Y-75605453D01*
X83441422Y-75577700D01*
X83456155Y-75522018D01*
X83478921Y-75430623D01*
X83506329Y-75317300D01*
X83528856Y-75222100D01*
X83560312Y-75087942D01*
X83583491Y-74989920D01*
X83601711Y-74914708D01*
X83618289Y-74848982D01*
X83636542Y-74779417D01*
X83659786Y-74692689D01*
X83671118Y-74650600D01*
X83702883Y-74531894D01*
X83729200Y-74431254D01*
X83755551Y-74327341D01*
X83787416Y-74198814D01*
X83793439Y-74174350D01*
X83818064Y-74074268D01*
X83843503Y-73970879D01*
X83846562Y-73958450D01*
X83882832Y-73812532D01*
X83911806Y-73699830D01*
X83937699Y-73604083D01*
X83946945Y-73571100D01*
X83971296Y-73477726D01*
X83995148Y-73375461D01*
X83999472Y-73355200D01*
X84022089Y-73258039D01*
X84050564Y-73150033D01*
X84060947Y-73113900D01*
X84081252Y-73041123D01*
X84108878Y-72935969D01*
X84141933Y-72806267D01*
X84178520Y-72659843D01*
X84216745Y-72504525D01*
X84254712Y-72348142D01*
X84290528Y-72198520D01*
X84322296Y-72063489D01*
X84348122Y-71950875D01*
X84366111Y-71868506D01*
X84374369Y-71824210D01*
X84374459Y-71818821D01*
X84343918Y-71813039D01*
X84271920Y-71808445D01*
X84167737Y-71805034D01*
X84040638Y-71802802D01*
X83899893Y-71801742D01*
X83754772Y-71801851D01*
X83614544Y-71803122D01*
X83488480Y-71805552D01*
X83385849Y-71809134D01*
X83315922Y-71813863D01*
X83288220Y-71819420D01*
X83272598Y-71845712D01*
X83255118Y-71898394D01*
X83234156Y-71983873D01*
X83208088Y-72108560D01*
X83185496Y-72224900D01*
X83165597Y-72326444D01*
X83139617Y-72454973D01*
X83111334Y-72592194D01*
X83084525Y-72719810D01*
X83062969Y-72819527D01*
X83059623Y-72834500D01*
X83041680Y-72917961D01*
X83020302Y-73022676D01*
X83007369Y-73088500D01*
X82987367Y-73188373D01*
X82967259Y-73282577D01*
X82956400Y-73329800D01*
X82939389Y-73405157D01*
X82918706Y-73504072D01*
X82905432Y-73571100D01*
X82885206Y-73674236D01*
X82864923Y-73774751D01*
X82854435Y-73825100D01*
X82837608Y-73906570D01*
X82816658Y-74011296D01*
X82801457Y-74089080D01*
X82779427Y-74191496D01*
X82754883Y-74288322D01*
X82738264Y-74343080D01*
X82718369Y-74393439D01*
X82703029Y-74404599D01*
X82686987Y-74373119D01*
X82664991Y-74295558D01*
X82664844Y-74295000D01*
X82646326Y-74225248D01*
X82624701Y-74144755D01*
X82624118Y-74142600D01*
X82601685Y-74055348D01*
X82579034Y-73961051D01*
X82576987Y-73952100D01*
X82559031Y-73877888D01*
X82532773Y-73775075D01*
X82503431Y-73664025D01*
X82498919Y-73647300D01*
X82469849Y-73536839D01*
X82443499Y-73431431D01*
X82424932Y-73351421D01*
X82423056Y-73342500D01*
X82410332Y-73286315D01*
X82387910Y-73193239D01*
X82357647Y-73070539D01*
X82321399Y-72925485D01*
X82281022Y-72765345D01*
X82238374Y-72597386D01*
X82195311Y-72428877D01*
X82153689Y-72267086D01*
X82115365Y-72119283D01*
X82082196Y-71992734D01*
X82056038Y-71894708D01*
X82038748Y-71832473D01*
X82032396Y-71813128D01*
X82004638Y-71809551D01*
X81935305Y-71806624D01*
X81833611Y-71804359D01*
X81708772Y-71802768D01*
X81570004Y-71801864D01*
X81426523Y-71801660D01*
X81287544Y-71802168D01*
G36*
X93946591Y-71847772D02*
G01*
X93749313Y-71848861D01*
X93555945Y-71850808D01*
X93373325Y-71853606D01*
X93208290Y-71857245D01*
X93067678Y-71861716D01*
X92958327Y-71867011D01*
X92951300Y-71867459D01*
X92776587Y-71881325D01*
X92640741Y-71898698D01*
X92531841Y-71921992D01*
X92437965Y-71953624D01*
X92367100Y-71985839D01*
X92159348Y-72116125D01*
X91989537Y-72280166D01*
X91857919Y-72477686D01*
X91792923Y-72624011D01*
X91760297Y-72746444D01*
X91737438Y-72902204D01*
X91725442Y-73074562D01*
X91725406Y-73246790D01*
X91738428Y-73402161D01*
X91740839Y-73418367D01*
X91798841Y-73638269D01*
X91898306Y-73843206D01*
X92033134Y-74024174D01*
X92197223Y-74172169D01*
X92293314Y-74233792D01*
X92478103Y-74320013D01*
X92679803Y-74379181D01*
X92908550Y-74413558D01*
X93151367Y-74425231D01*
X93309371Y-74428125D01*
X93484856Y-74433292D01*
X93651707Y-74439886D01*
X93738700Y-74444281D01*
X94018100Y-74460100D01*
X94043500Y-75958700D01*
X94451411Y-75965655D01*
X94590540Y-75966970D01*
X94711505Y-75966108D01*
X94805333Y-75963294D01*
X94863050Y-75958751D01*
X94876861Y-75955072D01*
X94879598Y-75927523D01*
X94882204Y-75853025D01*
X94884646Y-75735430D01*
X94886891Y-75578589D01*
X94888906Y-75386354D01*
X94890657Y-75162576D01*
X94892113Y-74911106D01*
X94893239Y-74635796D01*
X94894003Y-74340497D01*
X94894371Y-74029061D01*
X94894400Y-73911265D01*
X94894244Y-73527158D01*
X94894084Y-73418522D01*
X94026686Y-73418522D01*
X94025711Y-73538604D01*
X94023623Y-73626264D01*
X94020501Y-73673465D01*
X94019430Y-73678393D01*
X93990509Y-73690575D01*
X93920654Y-73700044D01*
X93819658Y-73706748D01*
X93697320Y-73710633D01*
X93563433Y-73711648D01*
X93427793Y-73709740D01*
X93300196Y-73704857D01*
X93190437Y-73696946D01*
X93108312Y-73685954D01*
X93095898Y-73683343D01*
X92914353Y-73622698D01*
X92775111Y-73534012D01*
X92677953Y-73417035D01*
X92622659Y-73271516D01*
X92608400Y-73129110D01*
X92612343Y-73045633D01*
X92622568Y-72984200D01*
X92633800Y-72961500D01*
X92655581Y-72925464D01*
X92659200Y-72899456D01*
X92677061Y-72857089D01*
X92722809Y-72798959D01*
X92760235Y-72761832D01*
X92825333Y-72706186D01*
X92886813Y-72663905D01*
X92953035Y-72633083D01*
X93032360Y-72611814D01*
X93133151Y-72598192D01*
X93263767Y-72590309D01*
X93432571Y-72586259D01*
X93535500Y-72585061D01*
X94018100Y-72580500D01*
X94024983Y-73113243D01*
X94026470Y-73274056D01*
X94026686Y-73418522D01*
X94894084Y-73418522D01*
X94893747Y-73191086D01*
X94892867Y-72900289D01*
X94891559Y-72652003D01*
X94889782Y-72443465D01*
X94887493Y-72271912D01*
X94884649Y-72134583D01*
X94881207Y-72028714D01*
X94877123Y-71951543D01*
X94872356Y-71900307D01*
X94866863Y-71872243D01*
X94862650Y-71864961D01*
X94829458Y-71859785D01*
X94752311Y-71855530D01*
X94638049Y-71852189D01*
X94493508Y-71849751D01*
X94325526Y-71848209D01*
X94140941Y-71847552D01*
X93946591Y-71847772D01*
X93946591Y-71847772D01*
G37*
X93946591Y-71847772D02*
X93749313Y-71848861D01*
X93555945Y-71850808D01*
X93373325Y-71853606D01*
X93208290Y-71857245D01*
X93067678Y-71861716D01*
X92958327Y-71867011D01*
X92951300Y-71867459D01*
X92776587Y-71881325D01*
X92640741Y-71898698D01*
X92531841Y-71921992D01*
X92437965Y-71953624D01*
X92367100Y-71985839D01*
X92159348Y-72116125D01*
X91989537Y-72280166D01*
X91857919Y-72477686D01*
X91792923Y-72624011D01*
X91760297Y-72746444D01*
X91737438Y-72902204D01*
X91725442Y-73074562D01*
X91725406Y-73246790D01*
X91738428Y-73402161D01*
X91740839Y-73418367D01*
X91798841Y-73638269D01*
X91898306Y-73843206D01*
X92033134Y-74024174D01*
X92197223Y-74172169D01*
X92293314Y-74233792D01*
X92478103Y-74320013D01*
X92679803Y-74379181D01*
X92908550Y-74413558D01*
X93151367Y-74425231D01*
X93309371Y-74428125D01*
X93484856Y-74433292D01*
X93651707Y-74439886D01*
X93738700Y-74444281D01*
X94018100Y-74460100D01*
X94043500Y-75958700D01*
X94451411Y-75965655D01*
X94590540Y-75966970D01*
X94711505Y-75966108D01*
X94805333Y-75963294D01*
X94863050Y-75958751D01*
X94876861Y-75955072D01*
X94879598Y-75927523D01*
X94882204Y-75853025D01*
X94884646Y-75735430D01*
X94886891Y-75578589D01*
X94888906Y-75386354D01*
X94890657Y-75162576D01*
X94892113Y-74911106D01*
X94893239Y-74635796D01*
X94894003Y-74340497D01*
X94894371Y-74029061D01*
X94894400Y-73911265D01*
X94894244Y-73527158D01*
X94894084Y-73418522D01*
X94026686Y-73418522D01*
X94025711Y-73538604D01*
X94023623Y-73626264D01*
X94020501Y-73673465D01*
X94019430Y-73678393D01*
X93990509Y-73690575D01*
X93920654Y-73700044D01*
X93819658Y-73706748D01*
X93697320Y-73710633D01*
X93563433Y-73711648D01*
X93427793Y-73709740D01*
X93300196Y-73704857D01*
X93190437Y-73696946D01*
X93108312Y-73685954D01*
X93095898Y-73683343D01*
X92914353Y-73622698D01*
X92775111Y-73534012D01*
X92677953Y-73417035D01*
X92622659Y-73271516D01*
X92608400Y-73129110D01*
X92612343Y-73045633D01*
X92622568Y-72984200D01*
X92633800Y-72961500D01*
X92655581Y-72925464D01*
X92659200Y-72899456D01*
X92677061Y-72857089D01*
X92722809Y-72798959D01*
X92760235Y-72761832D01*
X92825333Y-72706186D01*
X92886813Y-72663905D01*
X92953035Y-72633083D01*
X93032360Y-72611814D01*
X93133151Y-72598192D01*
X93263767Y-72590309D01*
X93432571Y-72586259D01*
X93535500Y-72585061D01*
X94018100Y-72580500D01*
X94024983Y-73113243D01*
X94026470Y-73274056D01*
X94026686Y-73418522D01*
X94894084Y-73418522D01*
X94893747Y-73191086D01*
X94892867Y-72900289D01*
X94891559Y-72652003D01*
X94889782Y-72443465D01*
X94887493Y-72271912D01*
X94884649Y-72134583D01*
X94881207Y-72028714D01*
X94877123Y-71951543D01*
X94872356Y-71900307D01*
X94866863Y-71872243D01*
X94862650Y-71864961D01*
X94829458Y-71859785D01*
X94752311Y-71855530D01*
X94638049Y-71852189D01*
X94493508Y-71849751D01*
X94325526Y-71848209D01*
X94140941Y-71847552D01*
X93946591Y-71847772D01*
G36*
X86646161Y-71803396D02*
G01*
X86367899Y-71806298D01*
X86118297Y-71810769D01*
X85901536Y-71816729D01*
X85721796Y-71824099D01*
X85583260Y-71832799D01*
X85490106Y-71842748D01*
X85472043Y-71845882D01*
X85331814Y-71882641D01*
X85186660Y-71935284D01*
X85053173Y-71996751D01*
X84947946Y-72059979D01*
X84922665Y-72079674D01*
X84791639Y-72223091D01*
X84694304Y-72396763D01*
X84634414Y-72589902D01*
X84615727Y-72791720D01*
X84628041Y-72925925D01*
X84675690Y-73125299D01*
X84748239Y-73290189D01*
X84853590Y-73433983D01*
X84999645Y-73570071D01*
X85015920Y-73583081D01*
X85134522Y-73676831D01*
X84969826Y-73748580D01*
X84819404Y-73826094D01*
X84683450Y-73918602D01*
X84574307Y-74016719D01*
X84512679Y-74096103D01*
X84463674Y-74206011D01*
X84430219Y-74348408D01*
X84411599Y-74528305D01*
X84407101Y-74750710D01*
X84408446Y-74828400D01*
X84412987Y-74972998D01*
X84419420Y-75077957D01*
X84429397Y-75154436D01*
X84444572Y-75213594D01*
X84466597Y-75266592D01*
X84476151Y-75285600D01*
X84573876Y-75431956D01*
X84709112Y-75575368D01*
X84869198Y-75704941D01*
X85041469Y-75809778D01*
X85134370Y-75851979D01*
X85211698Y-75880515D01*
X85290346Y-75904198D01*
X85375940Y-75923518D01*
X85474109Y-75938962D01*
X85590477Y-75951017D01*
X85730673Y-75960171D01*
X85900323Y-75966912D01*
X86105053Y-75971728D01*
X86350491Y-75975105D01*
X86577815Y-75977084D01*
X86797534Y-75978331D01*
X87003650Y-75978837D01*
X87190072Y-75978637D01*
X87350713Y-75977766D01*
X87479482Y-75976259D01*
X87570292Y-75974150D01*
X87617052Y-75971474D01*
X87619215Y-75971151D01*
X87693500Y-75958203D01*
X87698041Y-74507453D01*
X86638582Y-74507453D01*
X86637073Y-74670846D01*
X86636858Y-74686980D01*
X86634295Y-74835115D01*
X86630974Y-74965675D01*
X86627198Y-75070171D01*
X86623269Y-75140116D01*
X86619800Y-75166612D01*
X86591866Y-75173711D01*
X86522553Y-75179053D01*
X86421262Y-75182238D01*
X86297397Y-75182865D01*
X86249524Y-75182393D01*
X86085057Y-75178377D01*
X85961020Y-75170765D01*
X85867109Y-75158465D01*
X85793015Y-75140387D01*
X85766600Y-75131288D01*
X85632717Y-75066457D01*
X85541436Y-74984056D01*
X85487630Y-74876249D01*
X85466173Y-74735198D01*
X85465440Y-74670945D01*
X85476934Y-74534000D01*
X85509294Y-74424332D01*
X85567132Y-74338947D01*
X85655059Y-74274852D01*
X85777686Y-74229054D01*
X85939625Y-74198559D01*
X86145487Y-74180373D01*
X86227225Y-74176425D01*
X86377358Y-74171758D01*
X86483947Y-74172148D01*
X86554033Y-74177950D01*
X86594655Y-74189518D01*
X86603707Y-74195397D01*
X86617929Y-74214072D01*
X86628051Y-74247539D01*
X86634549Y-74302875D01*
X86637900Y-74387155D01*
X86638582Y-74507453D01*
X87698041Y-74507453D01*
X87699999Y-73882001D01*
X87702440Y-73101888D01*
X86633181Y-73101888D01*
X86630644Y-73224007D01*
X86625187Y-73321281D01*
X86617283Y-73382384D01*
X86614610Y-73391696D01*
X86603084Y-73420124D01*
X86588266Y-73439135D01*
X86561647Y-73449648D01*
X86514719Y-73452584D01*
X86438975Y-73448862D01*
X86325906Y-73439402D01*
X86242709Y-73431904D01*
X86079121Y-73411786D01*
X85957508Y-73382674D01*
X85869305Y-73340703D01*
X85805948Y-73282009D01*
X85765487Y-73216601D01*
X85722792Y-73081320D01*
X85722858Y-72945643D01*
X85762613Y-72820152D01*
X85838982Y-72715428D01*
X85929711Y-72650984D01*
X85985453Y-72625989D01*
X86041264Y-72610014D01*
X86109857Y-72601462D01*
X86203946Y-72598733D01*
X86333896Y-72600184D01*
X86625291Y-72605900D01*
X86632327Y-72966246D01*
X86633181Y-73101888D01*
X87702440Y-73101888D01*
X87706497Y-71805800D01*
X87611099Y-71804911D01*
X87271942Y-71802623D01*
X86948903Y-71802145D01*
X86646161Y-71803396D01*
X86646161Y-71803396D01*
G37*
X86646161Y-71803396D02*
X86367899Y-71806298D01*
X86118297Y-71810769D01*
X85901536Y-71816729D01*
X85721796Y-71824099D01*
X85583260Y-71832799D01*
X85490106Y-71842748D01*
X85472043Y-71845882D01*
X85331814Y-71882641D01*
X85186660Y-71935284D01*
X85053173Y-71996751D01*
X84947946Y-72059979D01*
X84922665Y-72079674D01*
X84791639Y-72223091D01*
X84694304Y-72396763D01*
X84634414Y-72589902D01*
X84615727Y-72791720D01*
X84628041Y-72925925D01*
X84675690Y-73125299D01*
X84748239Y-73290189D01*
X84853590Y-73433983D01*
X84999645Y-73570071D01*
X85015920Y-73583081D01*
X85134522Y-73676831D01*
X84969826Y-73748580D01*
X84819404Y-73826094D01*
X84683450Y-73918602D01*
X84574307Y-74016719D01*
X84512679Y-74096103D01*
X84463674Y-74206011D01*
X84430219Y-74348408D01*
X84411599Y-74528305D01*
X84407101Y-74750710D01*
X84408446Y-74828400D01*
X84412987Y-74972998D01*
X84419420Y-75077957D01*
X84429397Y-75154436D01*
X84444572Y-75213594D01*
X84466597Y-75266592D01*
X84476151Y-75285600D01*
X84573876Y-75431956D01*
X84709112Y-75575368D01*
X84869198Y-75704941D01*
X85041469Y-75809778D01*
X85134370Y-75851979D01*
X85211698Y-75880515D01*
X85290346Y-75904198D01*
X85375940Y-75923518D01*
X85474109Y-75938962D01*
X85590477Y-75951017D01*
X85730673Y-75960171D01*
X85900323Y-75966912D01*
X86105053Y-75971728D01*
X86350491Y-75975105D01*
X86577815Y-75977084D01*
X86797534Y-75978331D01*
X87003650Y-75978837D01*
X87190072Y-75978637D01*
X87350713Y-75977766D01*
X87479482Y-75976259D01*
X87570292Y-75974150D01*
X87617052Y-75971474D01*
X87619215Y-75971151D01*
X87693500Y-75958203D01*
X87698041Y-74507453D01*
X86638582Y-74507453D01*
X86637073Y-74670846D01*
X86636858Y-74686980D01*
X86634295Y-74835115D01*
X86630974Y-74965675D01*
X86627198Y-75070171D01*
X86623269Y-75140116D01*
X86619800Y-75166612D01*
X86591866Y-75173711D01*
X86522553Y-75179053D01*
X86421262Y-75182238D01*
X86297397Y-75182865D01*
X86249524Y-75182393D01*
X86085057Y-75178377D01*
X85961020Y-75170765D01*
X85867109Y-75158465D01*
X85793015Y-75140387D01*
X85766600Y-75131288D01*
X85632717Y-75066457D01*
X85541436Y-74984056D01*
X85487630Y-74876249D01*
X85466173Y-74735198D01*
X85465440Y-74670945D01*
X85476934Y-74534000D01*
X85509294Y-74424332D01*
X85567132Y-74338947D01*
X85655059Y-74274852D01*
X85777686Y-74229054D01*
X85939625Y-74198559D01*
X86145487Y-74180373D01*
X86227225Y-74176425D01*
X86377358Y-74171758D01*
X86483947Y-74172148D01*
X86554033Y-74177950D01*
X86594655Y-74189518D01*
X86603707Y-74195397D01*
X86617929Y-74214072D01*
X86628051Y-74247539D01*
X86634549Y-74302875D01*
X86637900Y-74387155D01*
X86638582Y-74507453D01*
X87698041Y-74507453D01*
X87699999Y-73882001D01*
X87702440Y-73101888D01*
X86633181Y-73101888D01*
X86630644Y-73224007D01*
X86625187Y-73321281D01*
X86617283Y-73382384D01*
X86614610Y-73391696D01*
X86603084Y-73420124D01*
X86588266Y-73439135D01*
X86561647Y-73449648D01*
X86514719Y-73452584D01*
X86438975Y-73448862D01*
X86325906Y-73439402D01*
X86242709Y-73431904D01*
X86079121Y-73411786D01*
X85957508Y-73382674D01*
X85869305Y-73340703D01*
X85805948Y-73282009D01*
X85765487Y-73216601D01*
X85722792Y-73081320D01*
X85722858Y-72945643D01*
X85762613Y-72820152D01*
X85838982Y-72715428D01*
X85929711Y-72650984D01*
X85985453Y-72625989D01*
X86041264Y-72610014D01*
X86109857Y-72601462D01*
X86203946Y-72598733D01*
X86333896Y-72600184D01*
X86625291Y-72605900D01*
X86632327Y-72966246D01*
X86633181Y-73101888D01*
X87702440Y-73101888D01*
X87706497Y-71805800D01*
X87611099Y-71804911D01*
X87271942Y-71802623D01*
X86948903Y-71802145D01*
X86646161Y-71803396D01*
G36*
X77445949Y-72728634D02*
G01*
X77285027Y-72733946D01*
X77132895Y-72742187D01*
X77001437Y-72753093D01*
X76911200Y-72764868D01*
X76653536Y-72827872D01*
X76433857Y-72922282D01*
X76253150Y-73047304D01*
X76112399Y-73202142D01*
X76012591Y-73386002D01*
X75969180Y-73524755D01*
X75963306Y-73575566D01*
X75958003Y-73672223D01*
X75953319Y-73809777D01*
X75949305Y-73983277D01*
X75946011Y-74187772D01*
X75943485Y-74418311D01*
X75941779Y-74669945D01*
X75940941Y-74937723D01*
X75941022Y-75216693D01*
X75942072Y-75501906D01*
X75944140Y-75788411D01*
X75945256Y-75901550D01*
X75946000Y-75971400D01*
X76936600Y-75971400D01*
X76938386Y-75876150D01*
X76944012Y-75779279D01*
X76960432Y-75729279D01*
X76993787Y-75722437D01*
X77050222Y-75755037D01*
X77089083Y-75785022D01*
X77291488Y-75916926D01*
X77514587Y-76008199D01*
X77749169Y-76056866D01*
X77986027Y-76060954D01*
X78199711Y-76023176D01*
X78406090Y-75940277D01*
X78584014Y-75815391D01*
X78732814Y-75649059D01*
X78805492Y-75533841D01*
X78835381Y-75477645D01*
X78855935Y-75428396D01*
X78868899Y-75374835D01*
X78876018Y-75305706D01*
X78879035Y-75209751D01*
X78879697Y-75075713D01*
X78879700Y-75054993D01*
X78879281Y-74937433D01*
X77880253Y-74937433D01*
X77874132Y-75070406D01*
X77870066Y-75088750D01*
X77834717Y-75192036D01*
X77781081Y-75259460D01*
X77695564Y-75305386D01*
X77650657Y-75320565D01*
X77544512Y-75348559D01*
X77457534Y-75356755D01*
X77366446Y-75345142D01*
X77270710Y-75320352D01*
X77170760Y-75282820D01*
X77074373Y-75232832D01*
X77031850Y-75203918D01*
X76936600Y-75128931D01*
X76936600Y-74516296D01*
X77146150Y-74535332D01*
X77248146Y-74544129D01*
X77333228Y-74550616D01*
X77386612Y-74553689D01*
X77393800Y-74553789D01*
X77456932Y-74565235D01*
X77545292Y-74595755D01*
X77640971Y-74637597D01*
X77726058Y-74683006D01*
X77778662Y-74720409D01*
X77847291Y-74816179D01*
X77880253Y-74937433D01*
X78879281Y-74937433D01*
X78879201Y-74915047D01*
X78876535Y-74814531D01*
X78869956Y-74742078D01*
X78857714Y-74686320D01*
X78838060Y-74635889D01*
X78809247Y-74579418D01*
X78805466Y-74572393D01*
X78742552Y-74474313D01*
X78662600Y-74373656D01*
X78614966Y-74323442D01*
X78534144Y-74258038D01*
X78430422Y-74190658D01*
X78317355Y-74128375D01*
X78208500Y-74078264D01*
X78117411Y-74047396D01*
X78073645Y-74041000D01*
X78016549Y-74032524D01*
X77989430Y-74019390D01*
X77954542Y-74006434D01*
X77882505Y-73990663D01*
X77786663Y-73974837D01*
X77749400Y-73969722D01*
X77614038Y-73952091D01*
X77464670Y-73932576D01*
X77333092Y-73915331D01*
X77330300Y-73914964D01*
X77219583Y-73902022D01*
X77115531Y-73892586D01*
X77038638Y-73888479D01*
X77031850Y-73888432D01*
X76968965Y-73884452D01*
X76942069Y-73865907D01*
X76936600Y-73826551D01*
X76956371Y-73741653D01*
X77007086Y-73650848D01*
X77075854Y-73573902D01*
X77122581Y-73541469D01*
X77207155Y-73508484D01*
X77322988Y-73476910D01*
X77450615Y-73450927D01*
X77570571Y-73434716D01*
X77635101Y-73431400D01*
X77738695Y-73439766D01*
X77874529Y-73462546D01*
X78027299Y-73496258D01*
X78181700Y-73537419D01*
X78322428Y-73582549D01*
X78359000Y-73596075D01*
X78446576Y-73625858D01*
X78529288Y-73647956D01*
X78552191Y-73652344D01*
X78603728Y-73656633D01*
X78628472Y-73639175D01*
X78640018Y-73587128D01*
X78642449Y-73567101D01*
X78645866Y-73501562D01*
X78646239Y-73400452D01*
X78643674Y-73278903D01*
X78639758Y-73180823D01*
X78625700Y-72892147D01*
X78536800Y-72859671D01*
X78466659Y-72839454D01*
X78367337Y-72817361D01*
X78260026Y-72798095D01*
X78257400Y-72797687D01*
X78142139Y-72778909D01*
X78026561Y-72758590D01*
X77939900Y-72741967D01*
X77862639Y-72732918D01*
X77746638Y-72727855D01*
X77603781Y-72726516D01*
X77445949Y-72728634D01*
X77445949Y-72728634D01*
G37*
X77445949Y-72728634D02*
X77285027Y-72733946D01*
X77132895Y-72742187D01*
X77001437Y-72753093D01*
X76911200Y-72764868D01*
X76653536Y-72827872D01*
X76433857Y-72922282D01*
X76253150Y-73047304D01*
X76112399Y-73202142D01*
X76012591Y-73386002D01*
X75969180Y-73524755D01*
X75963306Y-73575566D01*
X75958003Y-73672223D01*
X75953319Y-73809777D01*
X75949305Y-73983277D01*
X75946011Y-74187772D01*
X75943485Y-74418311D01*
X75941779Y-74669945D01*
X75940941Y-74937723D01*
X75941022Y-75216693D01*
X75942072Y-75501906D01*
X75944140Y-75788411D01*
X75945256Y-75901550D01*
X75946000Y-75971400D01*
X76936600Y-75971400D01*
X76938386Y-75876150D01*
X76944012Y-75779279D01*
X76960432Y-75729279D01*
X76993787Y-75722437D01*
X77050222Y-75755037D01*
X77089083Y-75785022D01*
X77291488Y-75916926D01*
X77514587Y-76008199D01*
X77749169Y-76056866D01*
X77986027Y-76060954D01*
X78199711Y-76023176D01*
X78406090Y-75940277D01*
X78584014Y-75815391D01*
X78732814Y-75649059D01*
X78805492Y-75533841D01*
X78835381Y-75477645D01*
X78855935Y-75428396D01*
X78868899Y-75374835D01*
X78876018Y-75305706D01*
X78879035Y-75209751D01*
X78879697Y-75075713D01*
X78879700Y-75054993D01*
X78879281Y-74937433D01*
X77880253Y-74937433D01*
X77874132Y-75070406D01*
X77870066Y-75088750D01*
X77834717Y-75192036D01*
X77781081Y-75259460D01*
X77695564Y-75305386D01*
X77650657Y-75320565D01*
X77544512Y-75348559D01*
X77457534Y-75356755D01*
X77366446Y-75345142D01*
X77270710Y-75320352D01*
X77170760Y-75282820D01*
X77074373Y-75232832D01*
X77031850Y-75203918D01*
X76936600Y-75128931D01*
X76936600Y-74516296D01*
X77146150Y-74535332D01*
X77248146Y-74544129D01*
X77333228Y-74550616D01*
X77386612Y-74553689D01*
X77393800Y-74553789D01*
X77456932Y-74565235D01*
X77545292Y-74595755D01*
X77640971Y-74637597D01*
X77726058Y-74683006D01*
X77778662Y-74720409D01*
X77847291Y-74816179D01*
X77880253Y-74937433D01*
X78879281Y-74937433D01*
X78879201Y-74915047D01*
X78876535Y-74814531D01*
X78869956Y-74742078D01*
X78857714Y-74686320D01*
X78838060Y-74635889D01*
X78809247Y-74579418D01*
X78805466Y-74572393D01*
X78742552Y-74474313D01*
X78662600Y-74373656D01*
X78614966Y-74323442D01*
X78534144Y-74258038D01*
X78430422Y-74190658D01*
X78317355Y-74128375D01*
X78208500Y-74078264D01*
X78117411Y-74047396D01*
X78073645Y-74041000D01*
X78016549Y-74032524D01*
X77989430Y-74019390D01*
X77954542Y-74006434D01*
X77882505Y-73990663D01*
X77786663Y-73974837D01*
X77749400Y-73969722D01*
X77614038Y-73952091D01*
X77464670Y-73932576D01*
X77333092Y-73915331D01*
X77330300Y-73914964D01*
X77219583Y-73902022D01*
X77115531Y-73892586D01*
X77038638Y-73888479D01*
X77031850Y-73888432D01*
X76968965Y-73884452D01*
X76942069Y-73865907D01*
X76936600Y-73826551D01*
X76956371Y-73741653D01*
X77007086Y-73650848D01*
X77075854Y-73573902D01*
X77122581Y-73541469D01*
X77207155Y-73508484D01*
X77322988Y-73476910D01*
X77450615Y-73450927D01*
X77570571Y-73434716D01*
X77635101Y-73431400D01*
X77738695Y-73439766D01*
X77874529Y-73462546D01*
X78027299Y-73496258D01*
X78181700Y-73537419D01*
X78322428Y-73582549D01*
X78359000Y-73596075D01*
X78446576Y-73625858D01*
X78529288Y-73647956D01*
X78552191Y-73652344D01*
X78603728Y-73656633D01*
X78628472Y-73639175D01*
X78640018Y-73587128D01*
X78642449Y-73567101D01*
X78645866Y-73501562D01*
X78646239Y-73400452D01*
X78643674Y-73278903D01*
X78639758Y-73180823D01*
X78625700Y-72892147D01*
X78536800Y-72859671D01*
X78466659Y-72839454D01*
X78367337Y-72817361D01*
X78260026Y-72798095D01*
X78257400Y-72797687D01*
X78142139Y-72778909D01*
X78026561Y-72758590D01*
X77939900Y-72741967D01*
X77862639Y-72732918D01*
X77746638Y-72727855D01*
X77603781Y-72726516D01*
X77445949Y-72728634D01*
G36*
X72878249Y-72822470D02*
G01*
X72785956Y-72828698D01*
X72729063Y-72843645D01*
X72702452Y-72870906D01*
X72701004Y-72914072D01*
X72719600Y-72976739D01*
X72753120Y-73062498D01*
X72773388Y-73113900D01*
X72816987Y-73227372D01*
X72859928Y-73341004D01*
X72893924Y-73432839D01*
X72898000Y-73444100D01*
X72929577Y-73530612D01*
X72970975Y-73642519D01*
X73014009Y-73757712D01*
X73020247Y-73774300D01*
X73067833Y-73901632D01*
X73119755Y-74041981D01*
X73164955Y-74165458D01*
X73165878Y-74168000D01*
X73203378Y-74270035D01*
X73238407Y-74363144D01*
X73264083Y-74429066D01*
X73266381Y-74434700D01*
X73289336Y-74494852D01*
X73321993Y-74585813D01*
X73358123Y-74690154D01*
X73366231Y-74714100D01*
X73403795Y-74824811D01*
X73431848Y-74904765D01*
X73456809Y-74971441D01*
X73485100Y-75042318D01*
X73501515Y-75082400D01*
X73525237Y-75143907D01*
X73556006Y-75228440D01*
X73571633Y-75272900D01*
X73603971Y-75363116D01*
X73635589Y-75446486D01*
X73647541Y-75476100D01*
X73680510Y-75558815D01*
X73706424Y-75628500D01*
X73759043Y-75775985D01*
X73814706Y-75930058D01*
X73870404Y-76082600D01*
X73923131Y-76225493D01*
X73969877Y-76350618D01*
X74007636Y-76449855D01*
X74033399Y-76515087D01*
X74042705Y-76536205D01*
X74065178Y-76586763D01*
X74065596Y-76623413D01*
X74037973Y-76649549D01*
X73976324Y-76668565D01*
X73874662Y-76683853D01*
X73761600Y-76695577D01*
X73665932Y-76705432D01*
X73538840Y-76719601D01*
X73399285Y-76735932D01*
X73304400Y-76747489D01*
X73130483Y-76768871D01*
X72992340Y-76785239D01*
X72875377Y-76798176D01*
X72764998Y-76809266D01*
X72646607Y-76820090D01*
X72586851Y-76825294D01*
X72487712Y-76834985D01*
X72428888Y-76845508D01*
X72399986Y-76860775D01*
X72390615Y-76884700D01*
X72390001Y-76899411D01*
X72404036Y-76950174D01*
X72425641Y-76970241D01*
X72458990Y-76971792D01*
X72535200Y-76969645D01*
X72646511Y-76964337D01*
X72785160Y-76956408D01*
X72943387Y-76946396D01*
X73113431Y-76934840D01*
X73287529Y-76922279D01*
X73457920Y-76909251D01*
X73616844Y-76896296D01*
X73756538Y-76883951D01*
X73869242Y-76872756D01*
X73926700Y-76866049D01*
X74015130Y-76856727D01*
X74086794Y-76852864D01*
X74118879Y-76854365D01*
X74149457Y-76881154D01*
X74184375Y-76941055D01*
X74203721Y-76987641D01*
X74222734Y-77037398D01*
X74243767Y-77075223D01*
X74273467Y-77102619D01*
X74318478Y-77121087D01*
X74385447Y-77132129D01*
X74481017Y-77137248D01*
X74611836Y-77137945D01*
X74784547Y-77135723D01*
X74853800Y-77134572D01*
X75298300Y-77127100D01*
X75293361Y-77037472D01*
X75278343Y-76951388D01*
X75250211Y-76874194D01*
X75226870Y-76818869D01*
X75222052Y-76784496D01*
X75222594Y-76783402D01*
X75253368Y-76770136D01*
X75325007Y-76754243D01*
X75427741Y-76737187D01*
X75551798Y-76720429D01*
X75687409Y-76705435D01*
X75819000Y-76694085D01*
X75939262Y-76685106D01*
X76087443Y-76673733D01*
X76240831Y-76661721D01*
X76327000Y-76654850D01*
X76809571Y-76617824D01*
X77256836Y-76587570D01*
X77681652Y-76563582D01*
X78096879Y-76545352D01*
X78515374Y-76532373D01*
X78949995Y-76524137D01*
X79413601Y-76520138D01*
X79756000Y-76519582D01*
X80114360Y-76520459D01*
X80443163Y-76522693D01*
X80751986Y-76526549D01*
X81050408Y-76532297D01*
X81348008Y-76540203D01*
X81654364Y-76550535D01*
X81979053Y-76563562D01*
X82331654Y-76579550D01*
X82721745Y-76598768D01*
X82880200Y-76606890D01*
X83196592Y-76624526D01*
X83545579Y-76646221D01*
X83915155Y-76671089D01*
X84293314Y-76698244D01*
X84668050Y-76726797D01*
X85027356Y-76755862D01*
X85359228Y-76784553D01*
X85636100Y-76810453D01*
X85784562Y-76824806D01*
X85947038Y-76840199D01*
X86097416Y-76854170D01*
X86156800Y-76859572D01*
X86334025Y-76876428D01*
X86552042Y-76898598D01*
X86801247Y-76924996D01*
X87072037Y-76954535D01*
X87354808Y-76986128D01*
X87639957Y-77018689D01*
X87917881Y-77051130D01*
X88178976Y-77082366D01*
X88413638Y-77111309D01*
X88612265Y-77136872D01*
X88639650Y-77140522D01*
X88768405Y-77157751D01*
X88911174Y-77176818D01*
X89007950Y-77189720D01*
X89292592Y-77228675D01*
X89562159Y-77267588D01*
X89712800Y-77290426D01*
X89923288Y-77322921D01*
X90093467Y-77348851D01*
X90233186Y-77369699D01*
X90352297Y-77386942D01*
X90398600Y-77393473D01*
X90520755Y-77411395D01*
X90654931Y-77432296D01*
X90728800Y-77444401D01*
X90847360Y-77463951D01*
X90974652Y-77484293D01*
X91046300Y-77495400D01*
X91164215Y-77513722D01*
X91292588Y-77534243D01*
X91351100Y-77543822D01*
X91445804Y-77559225D01*
X91569763Y-77578994D01*
X91702022Y-77599799D01*
X91757500Y-77608430D01*
X91896352Y-77630647D01*
X92045299Y-77655595D01*
X92178626Y-77678937D01*
X92216499Y-77685860D01*
X92323232Y-77705103D01*
X92419587Y-77721466D01*
X92487548Y-77731910D01*
X92495899Y-77732991D01*
X92533272Y-77738171D01*
X92586917Y-77746833D01*
X92663103Y-77760099D01*
X92768101Y-77779093D01*
X92908178Y-77804939D01*
X93089605Y-77838759D01*
X93167200Y-77853281D01*
X93280378Y-77874322D01*
X93402291Y-77896760D01*
X93446600Y-77904846D01*
X93604950Y-77933744D01*
X93722302Y-77955488D01*
X93807668Y-77971849D01*
X93870061Y-77984596D01*
X93918493Y-77995500D01*
X93957547Y-78005188D01*
X94042708Y-78021583D01*
X94122451Y-78028785D01*
X94125207Y-78028800D01*
X94209259Y-78036859D01*
X94274660Y-78051459D01*
X94342408Y-78069393D01*
X94434094Y-78090167D01*
X94488000Y-78101133D01*
X94574195Y-78117812D01*
X94691623Y-78140549D01*
X94821646Y-78165736D01*
X94895636Y-78180073D01*
X95035799Y-78207642D01*
X95133340Y-78224315D01*
X95195922Y-78226407D01*
X95231207Y-78210235D01*
X95246859Y-78172114D01*
X95250538Y-78108360D01*
X95249913Y-78015290D01*
X95249906Y-78009750D01*
X95242505Y-77854627D01*
X95218697Y-77742643D01*
X95175840Y-77668033D01*
X95111294Y-77625037D01*
X95068185Y-77613243D01*
X94993025Y-77599653D01*
X94896152Y-77582428D01*
X94843600Y-77573187D01*
X94732621Y-77553549D01*
X94610409Y-77531613D01*
X94557850Y-77522069D01*
X94339036Y-77482460D01*
X94113835Y-77442321D01*
X93891610Y-77403273D01*
X93681723Y-77366935D01*
X93493534Y-77334929D01*
X93336406Y-77308876D01*
X93219701Y-77290394D01*
X93218000Y-77290137D01*
X93099182Y-77271733D01*
X92971668Y-77251339D01*
X92900500Y-77239618D01*
X92668233Y-77202123D01*
X92410469Y-77162995D01*
X92252800Y-77140164D01*
X92130512Y-77122283D01*
X91996216Y-77101896D01*
X91922600Y-77090354D01*
X91804204Y-77071923D01*
X91670051Y-77051726D01*
X91579700Y-77038534D01*
X91453070Y-77020344D01*
X91313061Y-77000145D01*
X91224100Y-76987261D01*
X91104900Y-76970580D01*
X90966108Y-76952064D01*
X90843100Y-76936389D01*
X90711528Y-76919993D01*
X90567100Y-76901736D01*
X90449400Y-76886644D01*
X90324381Y-76870577D01*
X90180295Y-76852258D01*
X90049350Y-76835779D01*
X89912834Y-76818668D01*
X89760030Y-76799434D01*
X89630250Y-76783028D01*
X89431587Y-76758931D01*
X89219058Y-76735047D01*
X89005410Y-76712659D01*
X88803395Y-76693055D01*
X88625763Y-76677521D01*
X88485262Y-76667343D01*
X88480900Y-76667084D01*
X88372447Y-76658681D01*
X88278922Y-76647795D01*
X88215258Y-76636304D01*
X88201500Y-76631959D01*
X88153971Y-76620502D01*
X88070626Y-76608483D01*
X87966384Y-76597899D01*
X87922100Y-76594510D01*
X87787084Y-76584391D01*
X87629864Y-76571425D01*
X87478769Y-76557973D01*
X87439500Y-76554256D01*
X87305673Y-76541858D01*
X87144313Y-76527644D01*
X86978541Y-76513621D01*
X86868000Y-76504655D01*
X86707342Y-76491751D01*
X86528169Y-76477069D01*
X86356390Y-76462746D01*
X86258400Y-76454418D01*
X86123186Y-76443343D01*
X85956186Y-76430480D01*
X85776314Y-76417246D01*
X85602484Y-76405054D01*
X85559900Y-76402182D01*
X85384178Y-76390399D01*
X85191013Y-76377368D01*
X85001737Y-76364531D01*
X84837682Y-76353333D01*
X84810600Y-76351474D01*
X84651218Y-76341552D01*
X84463355Y-76331458D01*
X84269316Y-76322310D01*
X84091404Y-76315222D01*
X84074000Y-76314624D01*
X83902693Y-76307607D01*
X83716211Y-76297934D01*
X83535528Y-76286807D01*
X83381622Y-76275429D01*
X83362800Y-76273832D01*
X83261098Y-76267794D01*
X83108776Y-76262909D01*
X82906003Y-76259179D01*
X82652946Y-76256605D01*
X82349773Y-76255187D01*
X81996652Y-76254927D01*
X81593751Y-76255826D01*
X81141237Y-76257884D01*
X81000600Y-76258699D01*
X80575503Y-76261491D01*
X80195818Y-76264519D01*
X79856158Y-76267927D01*
X79551136Y-76271858D01*
X79275363Y-76276457D01*
X79023454Y-76281867D01*
X78790019Y-76288232D01*
X78569672Y-76295696D01*
X78357026Y-76304402D01*
X78146692Y-76314495D01*
X77933284Y-76326118D01*
X77711414Y-76339415D01*
X77520800Y-76351576D01*
X77275778Y-76367725D01*
X77059069Y-76382472D01*
X76860467Y-76396625D01*
X76669767Y-76410991D01*
X76476759Y-76426378D01*
X76271239Y-76443594D01*
X76042999Y-76463447D01*
X75781833Y-76486743D01*
X75565000Y-76506346D01*
X75407031Y-76520557D01*
X75292267Y-76530136D01*
X75213325Y-76535058D01*
X75162820Y-76535297D01*
X75133367Y-76530830D01*
X75117582Y-76521631D01*
X75108081Y-76507675D01*
X75106544Y-76504800D01*
X75088968Y-76464796D01*
X75059235Y-76390334D01*
X75022588Y-76294683D01*
X75006179Y-76250800D01*
X74967715Y-76149189D01*
X74933413Y-76062198D01*
X74908738Y-76003548D01*
X74902628Y-75990794D01*
X74886424Y-75954712D01*
X74879622Y-75917145D01*
X74884122Y-75869617D01*
X74901821Y-75803648D01*
X74934619Y-75710762D01*
X74984413Y-75582479D01*
X75006506Y-75526900D01*
X75032250Y-75460493D01*
X75071024Y-75358233D01*
X75118399Y-75231969D01*
X75169948Y-75093553D01*
X75221244Y-74954838D01*
X75267857Y-74827673D01*
X75272217Y-74815700D01*
X75307421Y-74719663D01*
X75352570Y-74597539D01*
X75404501Y-74457778D01*
X75460048Y-74308830D01*
X75516047Y-74159143D01*
X75569333Y-74017169D01*
X75616742Y-73891356D01*
X75655108Y-73790155D01*
X75681268Y-73722015D01*
X75690797Y-73698100D01*
X75710870Y-73647684D01*
X75740972Y-73568438D01*
X75768200Y-73494900D01*
X75809779Y-73381757D01*
X75839371Y-73302881D01*
X75862192Y-73244737D01*
X75883457Y-73193790D01*
X75890523Y-73177400D01*
X75917149Y-73109455D01*
X75946425Y-73025297D01*
X75972982Y-72941674D01*
X75991453Y-72875336D01*
X75996800Y-72845797D01*
X75971914Y-72837052D01*
X75899190Y-72830835D01*
X75781533Y-72827245D01*
X75621850Y-72826383D01*
X75472607Y-72827634D01*
X74948414Y-72834500D01*
X74701537Y-73571100D01*
X74639436Y-73756165D01*
X74582072Y-73926680D01*
X74531559Y-74076404D01*
X74490005Y-74199095D01*
X74459523Y-74288512D01*
X74442223Y-74338415D01*
X74439512Y-74345800D01*
X74423595Y-74390594D01*
X74399146Y-74464297D01*
X74382032Y-74517635D01*
X74355395Y-74593616D01*
X74331745Y-74647299D01*
X74320574Y-74663192D01*
X74309170Y-74658739D01*
X74292627Y-74631765D01*
X74269809Y-74578927D01*
X74239581Y-74496885D01*
X74200808Y-74382298D01*
X74152354Y-74231823D01*
X74093083Y-74042120D01*
X74021861Y-73809847D01*
X73949460Y-73571100D01*
X73912471Y-73449762D01*
X73879197Y-73342598D01*
X73853207Y-73260975D01*
X73838071Y-73216259D01*
X73837781Y-73215500D01*
X73818902Y-73160071D01*
X73794785Y-73081275D01*
X73785885Y-73050400D01*
X73764596Y-72974413D01*
X73744833Y-72917412D01*
X73719499Y-72876674D01*
X73681499Y-72849480D01*
X73623736Y-72833111D01*
X73539116Y-72824846D01*
X73420542Y-72821965D01*
X73260918Y-72821749D01*
X73189515Y-72821800D01*
X73011062Y-72821368D01*
X72878249Y-72822470D01*
X72878249Y-72822470D01*
G37*
X72878249Y-72822470D02*
X72785956Y-72828698D01*
X72729063Y-72843645D01*
X72702452Y-72870906D01*
X72701004Y-72914072D01*
X72719600Y-72976739D01*
X72753120Y-73062498D01*
X72773388Y-73113900D01*
X72816987Y-73227372D01*
X72859928Y-73341004D01*
X72893924Y-73432839D01*
X72898000Y-73444100D01*
X72929577Y-73530612D01*
X72970975Y-73642519D01*
X73014009Y-73757712D01*
X73020247Y-73774300D01*
X73067833Y-73901632D01*
X73119755Y-74041981D01*
X73164955Y-74165458D01*
X73165878Y-74168000D01*
X73203378Y-74270035D01*
X73238407Y-74363144D01*
X73264083Y-74429066D01*
X73266381Y-74434700D01*
X73289336Y-74494852D01*
X73321993Y-74585813D01*
X73358123Y-74690154D01*
X73366231Y-74714100D01*
X73403795Y-74824811D01*
X73431848Y-74904765D01*
X73456809Y-74971441D01*
X73485100Y-75042318D01*
X73501515Y-75082400D01*
X73525237Y-75143907D01*
X73556006Y-75228440D01*
X73571633Y-75272900D01*
X73603971Y-75363116D01*
X73635589Y-75446486D01*
X73647541Y-75476100D01*
X73680510Y-75558815D01*
X73706424Y-75628500D01*
X73759043Y-75775985D01*
X73814706Y-75930058D01*
X73870404Y-76082600D01*
X73923131Y-76225493D01*
X73969877Y-76350618D01*
X74007636Y-76449855D01*
X74033399Y-76515087D01*
X74042705Y-76536205D01*
X74065178Y-76586763D01*
X74065596Y-76623413D01*
X74037973Y-76649549D01*
X73976324Y-76668565D01*
X73874662Y-76683853D01*
X73761600Y-76695577D01*
X73665932Y-76705432D01*
X73538840Y-76719601D01*
X73399285Y-76735932D01*
X73304400Y-76747489D01*
X73130483Y-76768871D01*
X72992340Y-76785239D01*
X72875377Y-76798176D01*
X72764998Y-76809266D01*
X72646607Y-76820090D01*
X72586851Y-76825294D01*
X72487712Y-76834985D01*
X72428888Y-76845508D01*
X72399986Y-76860775D01*
X72390615Y-76884700D01*
X72390001Y-76899411D01*
X72404036Y-76950174D01*
X72425641Y-76970241D01*
X72458990Y-76971792D01*
X72535200Y-76969645D01*
X72646511Y-76964337D01*
X72785160Y-76956408D01*
X72943387Y-76946396D01*
X73113431Y-76934840D01*
X73287529Y-76922279D01*
X73457920Y-76909251D01*
X73616844Y-76896296D01*
X73756538Y-76883951D01*
X73869242Y-76872756D01*
X73926700Y-76866049D01*
X74015130Y-76856727D01*
X74086794Y-76852864D01*
X74118879Y-76854365D01*
X74149457Y-76881154D01*
X74184375Y-76941055D01*
X74203721Y-76987641D01*
X74222734Y-77037398D01*
X74243767Y-77075223D01*
X74273467Y-77102619D01*
X74318478Y-77121087D01*
X74385447Y-77132129D01*
X74481017Y-77137248D01*
X74611836Y-77137945D01*
X74784547Y-77135723D01*
X74853800Y-77134572D01*
X75298300Y-77127100D01*
X75293361Y-77037472D01*
X75278343Y-76951388D01*
X75250211Y-76874194D01*
X75226870Y-76818869D01*
X75222052Y-76784496D01*
X75222594Y-76783402D01*
X75253368Y-76770136D01*
X75325007Y-76754243D01*
X75427741Y-76737187D01*
X75551798Y-76720429D01*
X75687409Y-76705435D01*
X75819000Y-76694085D01*
X75939262Y-76685106D01*
X76087443Y-76673733D01*
X76240831Y-76661721D01*
X76327000Y-76654850D01*
X76809571Y-76617824D01*
X77256836Y-76587570D01*
X77681652Y-76563582D01*
X78096879Y-76545352D01*
X78515374Y-76532373D01*
X78949995Y-76524137D01*
X79413601Y-76520138D01*
X79756000Y-76519582D01*
X80114360Y-76520459D01*
X80443163Y-76522693D01*
X80751986Y-76526549D01*
X81050408Y-76532297D01*
X81348008Y-76540203D01*
X81654364Y-76550535D01*
X81979053Y-76563562D01*
X82331654Y-76579550D01*
X82721745Y-76598768D01*
X82880200Y-76606890D01*
X83196592Y-76624526D01*
X83545579Y-76646221D01*
X83915155Y-76671089D01*
X84293314Y-76698244D01*
X84668050Y-76726797D01*
X85027356Y-76755862D01*
X85359228Y-76784553D01*
X85636100Y-76810453D01*
X85784562Y-76824806D01*
X85947038Y-76840199D01*
X86097416Y-76854170D01*
X86156800Y-76859572D01*
X86334025Y-76876428D01*
X86552042Y-76898598D01*
X86801247Y-76924996D01*
X87072037Y-76954535D01*
X87354808Y-76986128D01*
X87639957Y-77018689D01*
X87917881Y-77051130D01*
X88178976Y-77082366D01*
X88413638Y-77111309D01*
X88612265Y-77136872D01*
X88639650Y-77140522D01*
X88768405Y-77157751D01*
X88911174Y-77176818D01*
X89007950Y-77189720D01*
X89292592Y-77228675D01*
X89562159Y-77267588D01*
X89712800Y-77290426D01*
X89923288Y-77322921D01*
X90093467Y-77348851D01*
X90233186Y-77369699D01*
X90352297Y-77386942D01*
X90398600Y-77393473D01*
X90520755Y-77411395D01*
X90654931Y-77432296D01*
X90728800Y-77444401D01*
X90847360Y-77463951D01*
X90974652Y-77484293D01*
X91046300Y-77495400D01*
X91164215Y-77513722D01*
X91292588Y-77534243D01*
X91351100Y-77543822D01*
X91445804Y-77559225D01*
X91569763Y-77578994D01*
X91702022Y-77599799D01*
X91757500Y-77608430D01*
X91896352Y-77630647D01*
X92045299Y-77655595D01*
X92178626Y-77678937D01*
X92216499Y-77685860D01*
X92323232Y-77705103D01*
X92419587Y-77721466D01*
X92487548Y-77731910D01*
X92495899Y-77732991D01*
X92533272Y-77738171D01*
X92586917Y-77746833D01*
X92663103Y-77760099D01*
X92768101Y-77779093D01*
X92908178Y-77804939D01*
X93089605Y-77838759D01*
X93167200Y-77853281D01*
X93280378Y-77874322D01*
X93402291Y-77896760D01*
X93446600Y-77904846D01*
X93604950Y-77933744D01*
X93722302Y-77955488D01*
X93807668Y-77971849D01*
X93870061Y-77984596D01*
X93918493Y-77995500D01*
X93957547Y-78005188D01*
X94042708Y-78021583D01*
X94122451Y-78028785D01*
X94125207Y-78028800D01*
X94209259Y-78036859D01*
X94274660Y-78051459D01*
X94342408Y-78069393D01*
X94434094Y-78090167D01*
X94488000Y-78101133D01*
X94574195Y-78117812D01*
X94691623Y-78140549D01*
X94821646Y-78165736D01*
X94895636Y-78180073D01*
X95035799Y-78207642D01*
X95133340Y-78224315D01*
X95195922Y-78226407D01*
X95231207Y-78210235D01*
X95246859Y-78172114D01*
X95250538Y-78108360D01*
X95249913Y-78015290D01*
X95249906Y-78009750D01*
X95242505Y-77854627D01*
X95218697Y-77742643D01*
X95175840Y-77668033D01*
X95111294Y-77625037D01*
X95068185Y-77613243D01*
X94993025Y-77599653D01*
X94896152Y-77582428D01*
X94843600Y-77573187D01*
X94732621Y-77553549D01*
X94610409Y-77531613D01*
X94557850Y-77522069D01*
X94339036Y-77482460D01*
X94113835Y-77442321D01*
X93891610Y-77403273D01*
X93681723Y-77366935D01*
X93493534Y-77334929D01*
X93336406Y-77308876D01*
X93219701Y-77290394D01*
X93218000Y-77290137D01*
X93099182Y-77271733D01*
X92971668Y-77251339D01*
X92900500Y-77239618D01*
X92668233Y-77202123D01*
X92410469Y-77162995D01*
X92252800Y-77140164D01*
X92130512Y-77122283D01*
X91996216Y-77101896D01*
X91922600Y-77090354D01*
X91804204Y-77071923D01*
X91670051Y-77051726D01*
X91579700Y-77038534D01*
X91453070Y-77020344D01*
X91313061Y-77000145D01*
X91224100Y-76987261D01*
X91104900Y-76970580D01*
X90966108Y-76952064D01*
X90843100Y-76936389D01*
X90711528Y-76919993D01*
X90567100Y-76901736D01*
X90449400Y-76886644D01*
X90324381Y-76870577D01*
X90180295Y-76852258D01*
X90049350Y-76835779D01*
X89912834Y-76818668D01*
X89760030Y-76799434D01*
X89630250Y-76783028D01*
X89431587Y-76758931D01*
X89219058Y-76735047D01*
X89005410Y-76712659D01*
X88803395Y-76693055D01*
X88625763Y-76677521D01*
X88485262Y-76667343D01*
X88480900Y-76667084D01*
X88372447Y-76658681D01*
X88278922Y-76647795D01*
X88215258Y-76636304D01*
X88201500Y-76631959D01*
X88153971Y-76620502D01*
X88070626Y-76608483D01*
X87966384Y-76597899D01*
X87922100Y-76594510D01*
X87787084Y-76584391D01*
X87629864Y-76571425D01*
X87478769Y-76557973D01*
X87439500Y-76554256D01*
X87305673Y-76541858D01*
X87144313Y-76527644D01*
X86978541Y-76513621D01*
X86868000Y-76504655D01*
X86707342Y-76491751D01*
X86528169Y-76477069D01*
X86356390Y-76462746D01*
X86258400Y-76454418D01*
X86123186Y-76443343D01*
X85956186Y-76430480D01*
X85776314Y-76417246D01*
X85602484Y-76405054D01*
X85559900Y-76402182D01*
X85384178Y-76390399D01*
X85191013Y-76377368D01*
X85001737Y-76364531D01*
X84837682Y-76353333D01*
X84810600Y-76351474D01*
X84651218Y-76341552D01*
X84463355Y-76331458D01*
X84269316Y-76322310D01*
X84091404Y-76315222D01*
X84074000Y-76314624D01*
X83902693Y-76307607D01*
X83716211Y-76297934D01*
X83535528Y-76286807D01*
X83381622Y-76275429D01*
X83362800Y-76273832D01*
X83261098Y-76267794D01*
X83108776Y-76262909D01*
X82906003Y-76259179D01*
X82652946Y-76256605D01*
X82349773Y-76255187D01*
X81996652Y-76254927D01*
X81593751Y-76255826D01*
X81141237Y-76257884D01*
X81000600Y-76258699D01*
X80575503Y-76261491D01*
X80195818Y-76264519D01*
X79856158Y-76267927D01*
X79551136Y-76271858D01*
X79275363Y-76276457D01*
X79023454Y-76281867D01*
X78790019Y-76288232D01*
X78569672Y-76295696D01*
X78357026Y-76304402D01*
X78146692Y-76314495D01*
X77933284Y-76326118D01*
X77711414Y-76339415D01*
X77520800Y-76351576D01*
X77275778Y-76367725D01*
X77059069Y-76382472D01*
X76860467Y-76396625D01*
X76669767Y-76410991D01*
X76476759Y-76426378D01*
X76271239Y-76443594D01*
X76042999Y-76463447D01*
X75781833Y-76486743D01*
X75565000Y-76506346D01*
X75407031Y-76520557D01*
X75292267Y-76530136D01*
X75213325Y-76535058D01*
X75162820Y-76535297D01*
X75133367Y-76530830D01*
X75117582Y-76521631D01*
X75108081Y-76507675D01*
X75106544Y-76504800D01*
X75088968Y-76464796D01*
X75059235Y-76390334D01*
X75022588Y-76294683D01*
X75006179Y-76250800D01*
X74967715Y-76149189D01*
X74933413Y-76062198D01*
X74908738Y-76003548D01*
X74902628Y-75990794D01*
X74886424Y-75954712D01*
X74879622Y-75917145D01*
X74884122Y-75869617D01*
X74901821Y-75803648D01*
X74934619Y-75710762D01*
X74984413Y-75582479D01*
X75006506Y-75526900D01*
X75032250Y-75460493D01*
X75071024Y-75358233D01*
X75118399Y-75231969D01*
X75169948Y-75093553D01*
X75221244Y-74954838D01*
X75267857Y-74827673D01*
X75272217Y-74815700D01*
X75307421Y-74719663D01*
X75352570Y-74597539D01*
X75404501Y-74457778D01*
X75460048Y-74308830D01*
X75516047Y-74159143D01*
X75569333Y-74017169D01*
X75616742Y-73891356D01*
X75655108Y-73790155D01*
X75681268Y-73722015D01*
X75690797Y-73698100D01*
X75710870Y-73647684D01*
X75740972Y-73568438D01*
X75768200Y-73494900D01*
X75809779Y-73381757D01*
X75839371Y-73302881D01*
X75862192Y-73244737D01*
X75883457Y-73193790D01*
X75890523Y-73177400D01*
X75917149Y-73109455D01*
X75946425Y-73025297D01*
X75972982Y-72941674D01*
X75991453Y-72875336D01*
X75996800Y-72845797D01*
X75971914Y-72837052D01*
X75899190Y-72830835D01*
X75781533Y-72827245D01*
X75621850Y-72826383D01*
X75472607Y-72827634D01*
X74948414Y-72834500D01*
X74701537Y-73571100D01*
X74639436Y-73756165D01*
X74582072Y-73926680D01*
X74531559Y-74076404D01*
X74490005Y-74199095D01*
X74459523Y-74288512D01*
X74442223Y-74338415D01*
X74439512Y-74345800D01*
X74423595Y-74390594D01*
X74399146Y-74464297D01*
X74382032Y-74517635D01*
X74355395Y-74593616D01*
X74331745Y-74647299D01*
X74320574Y-74663192D01*
X74309170Y-74658739D01*
X74292627Y-74631765D01*
X74269809Y-74578927D01*
X74239581Y-74496885D01*
X74200808Y-74382298D01*
X74152354Y-74231823D01*
X74093083Y-74042120D01*
X74021861Y-73809847D01*
X73949460Y-73571100D01*
X73912471Y-73449762D01*
X73879197Y-73342598D01*
X73853207Y-73260975D01*
X73838071Y-73216259D01*
X73837781Y-73215500D01*
X73818902Y-73160071D01*
X73794785Y-73081275D01*
X73785885Y-73050400D01*
X73764596Y-72974413D01*
X73744833Y-72917412D01*
X73719499Y-72876674D01*
X73681499Y-72849480D01*
X73623736Y-72833111D01*
X73539116Y-72824846D01*
X73420542Y-72821965D01*
X73260918Y-72821749D01*
X73189515Y-72821800D01*
X73011062Y-72821368D01*
X72878249Y-72822470D01*
M02*
