G04 #@! TF.GenerationSoftware,KiCad,Pcbnew,(5.1.2-1)-1*
G04 #@! TF.CreationDate,2020-02-23T09:00:00-05:00*
G04 #@! TF.ProjectId,IO_Board,494f5f42-6f61-4726-942e-6b696361645f,rev?*
G04 #@! TF.SameCoordinates,Original*
G04 #@! TF.FileFunction,Soldermask,Top*
G04 #@! TF.FilePolarity,Negative*
%FSLAX46Y46*%
G04 Gerber Fmt 4.6, Leading zero omitted, Abs format (unit mm)*
G04 Created by KiCad (PCBNEW (5.1.2-1)-1) date 2020-02-23 09:00:00*
%MOMM*%
%LPD*%
G04 APERTURE LIST*
%ADD10C,0.100000*%
G04 APERTURE END LIST*
D10*
G36*
X130573331Y-73553811D02*
G01*
X130901092Y-73689574D01*
X131196070Y-73886672D01*
X131446928Y-74137530D01*
X131644026Y-74432508D01*
X131779789Y-74760269D01*
X131849000Y-75108216D01*
X131849000Y-75462984D01*
X131779789Y-75810931D01*
X131644026Y-76138692D01*
X131446928Y-76433670D01*
X131196070Y-76684528D01*
X130901092Y-76881626D01*
X130573331Y-77017389D01*
X130225384Y-77086600D01*
X129870616Y-77086600D01*
X129522669Y-77017389D01*
X129194908Y-76881626D01*
X128899930Y-76684528D01*
X128649072Y-76433670D01*
X128451974Y-76138692D01*
X128316211Y-75810931D01*
X128247000Y-75462984D01*
X128247000Y-75108216D01*
X128316211Y-74760269D01*
X128451974Y-74432508D01*
X128649072Y-74137530D01*
X128899930Y-73886672D01*
X129194908Y-73689574D01*
X129522669Y-73553811D01*
X129870616Y-73484600D01*
X130225384Y-73484600D01*
X130573331Y-73553811D01*
X130573331Y-73553811D01*
G37*
G36*
X38015731Y-73553811D02*
G01*
X38343492Y-73689574D01*
X38638470Y-73886672D01*
X38889328Y-74137530D01*
X39086426Y-74432508D01*
X39222189Y-74760269D01*
X39291400Y-75108216D01*
X39291400Y-75462984D01*
X39222189Y-75810931D01*
X39086426Y-76138692D01*
X38889328Y-76433670D01*
X38638470Y-76684528D01*
X38343492Y-76881626D01*
X38015731Y-77017389D01*
X37667784Y-77086600D01*
X37313016Y-77086600D01*
X36965069Y-77017389D01*
X36637308Y-76881626D01*
X36342330Y-76684528D01*
X36091472Y-76433670D01*
X35894374Y-76138692D01*
X35758611Y-75810931D01*
X35689400Y-75462984D01*
X35689400Y-75108216D01*
X35758611Y-74760269D01*
X35894374Y-74432508D01*
X36091472Y-74137530D01*
X36342330Y-73886672D01*
X36637308Y-73689574D01*
X36965069Y-73553811D01*
X37313016Y-73484600D01*
X37667784Y-73484600D01*
X38015731Y-73553811D01*
X38015731Y-73553811D01*
G37*
G36*
X122182704Y-67713980D02*
G01*
X122346607Y-67781871D01*
X122494117Y-67880434D01*
X122619566Y-68005883D01*
X122718129Y-68153393D01*
X122786020Y-68317296D01*
X122820630Y-68491294D01*
X122820630Y-68668706D01*
X122786020Y-68842704D01*
X122718129Y-69006607D01*
X122619566Y-69154117D01*
X122494117Y-69279566D01*
X122346607Y-69378129D01*
X122182704Y-69446020D01*
X122008706Y-69480630D01*
X121831294Y-69480630D01*
X121657296Y-69446020D01*
X121493393Y-69378129D01*
X121345883Y-69279566D01*
X121220434Y-69154117D01*
X121121871Y-69006607D01*
X121053980Y-68842704D01*
X121019370Y-68668706D01*
X121019370Y-68491294D01*
X121053980Y-68317296D01*
X121121871Y-68153393D01*
X121220434Y-68005883D01*
X121345883Y-67880434D01*
X121493393Y-67781871D01*
X121657296Y-67713980D01*
X121831294Y-67679370D01*
X122008706Y-67679370D01*
X122182704Y-67713980D01*
X122182704Y-67713980D01*
G37*
G36*
X117740630Y-69480630D02*
G01*
X115939370Y-69480630D01*
X115939370Y-67679370D01*
X117740630Y-67679370D01*
X117740630Y-69480630D01*
X117740630Y-69480630D01*
G37*
G36*
X109482704Y-67713980D02*
G01*
X109646607Y-67781871D01*
X109794117Y-67880434D01*
X109919566Y-68005883D01*
X110018129Y-68153393D01*
X110086020Y-68317296D01*
X110120630Y-68491294D01*
X110120630Y-68668706D01*
X110086020Y-68842704D01*
X110018129Y-69006607D01*
X109919566Y-69154117D01*
X109794117Y-69279566D01*
X109646607Y-69378129D01*
X109482704Y-69446020D01*
X109308706Y-69480630D01*
X109131294Y-69480630D01*
X108957296Y-69446020D01*
X108793393Y-69378129D01*
X108645883Y-69279566D01*
X108520434Y-69154117D01*
X108421871Y-69006607D01*
X108353980Y-68842704D01*
X108319370Y-68668706D01*
X108319370Y-68491294D01*
X108353980Y-68317296D01*
X108421871Y-68153393D01*
X108520434Y-68005883D01*
X108645883Y-67880434D01*
X108793393Y-67781871D01*
X108957296Y-67713980D01*
X109131294Y-67679370D01*
X109308706Y-67679370D01*
X109482704Y-67713980D01*
X109482704Y-67713980D01*
G37*
G36*
X106942704Y-67713980D02*
G01*
X107106607Y-67781871D01*
X107254117Y-67880434D01*
X107379566Y-68005883D01*
X107478129Y-68153393D01*
X107546020Y-68317296D01*
X107580630Y-68491294D01*
X107580630Y-68668706D01*
X107546020Y-68842704D01*
X107478129Y-69006607D01*
X107379566Y-69154117D01*
X107254117Y-69279566D01*
X107106607Y-69378129D01*
X106942704Y-69446020D01*
X106768706Y-69480630D01*
X106591294Y-69480630D01*
X106417296Y-69446020D01*
X106253393Y-69378129D01*
X106105883Y-69279566D01*
X105980434Y-69154117D01*
X105881871Y-69006607D01*
X105813980Y-68842704D01*
X105779370Y-68668706D01*
X105779370Y-68491294D01*
X105813980Y-68317296D01*
X105881871Y-68153393D01*
X105980434Y-68005883D01*
X106105883Y-67880434D01*
X106253393Y-67781871D01*
X106417296Y-67713980D01*
X106591294Y-67679370D01*
X106768706Y-67679370D01*
X106942704Y-67713980D01*
X106942704Y-67713980D01*
G37*
G36*
X104402704Y-67713980D02*
G01*
X104566607Y-67781871D01*
X104714117Y-67880434D01*
X104839566Y-68005883D01*
X104938129Y-68153393D01*
X105006020Y-68317296D01*
X105040630Y-68491294D01*
X105040630Y-68668706D01*
X105006020Y-68842704D01*
X104938129Y-69006607D01*
X104839566Y-69154117D01*
X104714117Y-69279566D01*
X104566607Y-69378129D01*
X104402704Y-69446020D01*
X104228706Y-69480630D01*
X104051294Y-69480630D01*
X103877296Y-69446020D01*
X103713393Y-69378129D01*
X103565883Y-69279566D01*
X103440434Y-69154117D01*
X103341871Y-69006607D01*
X103273980Y-68842704D01*
X103239370Y-68668706D01*
X103239370Y-68491294D01*
X103273980Y-68317296D01*
X103341871Y-68153393D01*
X103440434Y-68005883D01*
X103565883Y-67880434D01*
X103713393Y-67781871D01*
X103877296Y-67713980D01*
X104051294Y-67679370D01*
X104228706Y-67679370D01*
X104402704Y-67713980D01*
X104402704Y-67713980D01*
G37*
G36*
X94242704Y-67713980D02*
G01*
X94406607Y-67781871D01*
X94554117Y-67880434D01*
X94679566Y-68005883D01*
X94778129Y-68153393D01*
X94846020Y-68317296D01*
X94880630Y-68491294D01*
X94880630Y-68668706D01*
X94846020Y-68842704D01*
X94778129Y-69006607D01*
X94679566Y-69154117D01*
X94554117Y-69279566D01*
X94406607Y-69378129D01*
X94242704Y-69446020D01*
X94068706Y-69480630D01*
X93891294Y-69480630D01*
X93717296Y-69446020D01*
X93553393Y-69378129D01*
X93405883Y-69279566D01*
X93280434Y-69154117D01*
X93181871Y-69006607D01*
X93113980Y-68842704D01*
X93079370Y-68668706D01*
X93079370Y-68491294D01*
X93113980Y-68317296D01*
X93181871Y-68153393D01*
X93280434Y-68005883D01*
X93405883Y-67880434D01*
X93553393Y-67781871D01*
X93717296Y-67713980D01*
X93891294Y-67679370D01*
X94068706Y-67679370D01*
X94242704Y-67713980D01*
X94242704Y-67713980D01*
G37*
G36*
X91702704Y-67713980D02*
G01*
X91866607Y-67781871D01*
X92014117Y-67880434D01*
X92139566Y-68005883D01*
X92238129Y-68153393D01*
X92306020Y-68317296D01*
X92340630Y-68491294D01*
X92340630Y-68668706D01*
X92306020Y-68842704D01*
X92238129Y-69006607D01*
X92139566Y-69154117D01*
X92014117Y-69279566D01*
X91866607Y-69378129D01*
X91702704Y-69446020D01*
X91528706Y-69480630D01*
X91351294Y-69480630D01*
X91177296Y-69446020D01*
X91013393Y-69378129D01*
X90865883Y-69279566D01*
X90740434Y-69154117D01*
X90641871Y-69006607D01*
X90573980Y-68842704D01*
X90539370Y-68668706D01*
X90539370Y-68491294D01*
X90573980Y-68317296D01*
X90641871Y-68153393D01*
X90740434Y-68005883D01*
X90865883Y-67880434D01*
X91013393Y-67781871D01*
X91177296Y-67713980D01*
X91351294Y-67679370D01*
X91528706Y-67679370D01*
X91702704Y-67713980D01*
X91702704Y-67713980D01*
G37*
G36*
X89162704Y-67713980D02*
G01*
X89326607Y-67781871D01*
X89474117Y-67880434D01*
X89599566Y-68005883D01*
X89698129Y-68153393D01*
X89766020Y-68317296D01*
X89800630Y-68491294D01*
X89800630Y-68668706D01*
X89766020Y-68842704D01*
X89698129Y-69006607D01*
X89599566Y-69154117D01*
X89474117Y-69279566D01*
X89326607Y-69378129D01*
X89162704Y-69446020D01*
X88988706Y-69480630D01*
X88811294Y-69480630D01*
X88637296Y-69446020D01*
X88473393Y-69378129D01*
X88325883Y-69279566D01*
X88200434Y-69154117D01*
X88101871Y-69006607D01*
X88033980Y-68842704D01*
X87999370Y-68668706D01*
X87999370Y-68491294D01*
X88033980Y-68317296D01*
X88101871Y-68153393D01*
X88200434Y-68005883D01*
X88325883Y-67880434D01*
X88473393Y-67781871D01*
X88637296Y-67713980D01*
X88811294Y-67679370D01*
X88988706Y-67679370D01*
X89162704Y-67713980D01*
X89162704Y-67713980D01*
G37*
G36*
X79002704Y-67713980D02*
G01*
X79166607Y-67781871D01*
X79314117Y-67880434D01*
X79439566Y-68005883D01*
X79538129Y-68153393D01*
X79606020Y-68317296D01*
X79640630Y-68491294D01*
X79640630Y-68668706D01*
X79606020Y-68842704D01*
X79538129Y-69006607D01*
X79439566Y-69154117D01*
X79314117Y-69279566D01*
X79166607Y-69378129D01*
X79002704Y-69446020D01*
X78828706Y-69480630D01*
X78651294Y-69480630D01*
X78477296Y-69446020D01*
X78313393Y-69378129D01*
X78165883Y-69279566D01*
X78040434Y-69154117D01*
X77941871Y-69006607D01*
X77873980Y-68842704D01*
X77839370Y-68668706D01*
X77839370Y-68491294D01*
X77873980Y-68317296D01*
X77941871Y-68153393D01*
X78040434Y-68005883D01*
X78165883Y-67880434D01*
X78313393Y-67781871D01*
X78477296Y-67713980D01*
X78651294Y-67679370D01*
X78828706Y-67679370D01*
X79002704Y-67713980D01*
X79002704Y-67713980D01*
G37*
G36*
X76462704Y-67713980D02*
G01*
X76626607Y-67781871D01*
X76774117Y-67880434D01*
X76899566Y-68005883D01*
X76998129Y-68153393D01*
X77066020Y-68317296D01*
X77100630Y-68491294D01*
X77100630Y-68668706D01*
X77066020Y-68842704D01*
X76998129Y-69006607D01*
X76899566Y-69154117D01*
X76774117Y-69279566D01*
X76626607Y-69378129D01*
X76462704Y-69446020D01*
X76288706Y-69480630D01*
X76111294Y-69480630D01*
X75937296Y-69446020D01*
X75773393Y-69378129D01*
X75625883Y-69279566D01*
X75500434Y-69154117D01*
X75401871Y-69006607D01*
X75333980Y-68842704D01*
X75299370Y-68668706D01*
X75299370Y-68491294D01*
X75333980Y-68317296D01*
X75401871Y-68153393D01*
X75500434Y-68005883D01*
X75625883Y-67880434D01*
X75773393Y-67781871D01*
X75937296Y-67713980D01*
X76111294Y-67679370D01*
X76288706Y-67679370D01*
X76462704Y-67713980D01*
X76462704Y-67713980D01*
G37*
G36*
X73922704Y-67713980D02*
G01*
X74086607Y-67781871D01*
X74234117Y-67880434D01*
X74359566Y-68005883D01*
X74458129Y-68153393D01*
X74526020Y-68317296D01*
X74560630Y-68491294D01*
X74560630Y-68668706D01*
X74526020Y-68842704D01*
X74458129Y-69006607D01*
X74359566Y-69154117D01*
X74234117Y-69279566D01*
X74086607Y-69378129D01*
X73922704Y-69446020D01*
X73748706Y-69480630D01*
X73571294Y-69480630D01*
X73397296Y-69446020D01*
X73233393Y-69378129D01*
X73085883Y-69279566D01*
X72960434Y-69154117D01*
X72861871Y-69006607D01*
X72793980Y-68842704D01*
X72759370Y-68668706D01*
X72759370Y-68491294D01*
X72793980Y-68317296D01*
X72861871Y-68153393D01*
X72960434Y-68005883D01*
X73085883Y-67880434D01*
X73233393Y-67781871D01*
X73397296Y-67713980D01*
X73571294Y-67679370D01*
X73748706Y-67679370D01*
X73922704Y-67713980D01*
X73922704Y-67713980D01*
G37*
G36*
X63762704Y-67713980D02*
G01*
X63926607Y-67781871D01*
X64074117Y-67880434D01*
X64199566Y-68005883D01*
X64298129Y-68153393D01*
X64366020Y-68317296D01*
X64400630Y-68491294D01*
X64400630Y-68668706D01*
X64366020Y-68842704D01*
X64298129Y-69006607D01*
X64199566Y-69154117D01*
X64074117Y-69279566D01*
X63926607Y-69378129D01*
X63762704Y-69446020D01*
X63588706Y-69480630D01*
X63411294Y-69480630D01*
X63237296Y-69446020D01*
X63073393Y-69378129D01*
X62925883Y-69279566D01*
X62800434Y-69154117D01*
X62701871Y-69006607D01*
X62633980Y-68842704D01*
X62599370Y-68668706D01*
X62599370Y-68491294D01*
X62633980Y-68317296D01*
X62701871Y-68153393D01*
X62800434Y-68005883D01*
X62925883Y-67880434D01*
X63073393Y-67781871D01*
X63237296Y-67713980D01*
X63411294Y-67679370D01*
X63588706Y-67679370D01*
X63762704Y-67713980D01*
X63762704Y-67713980D01*
G37*
G36*
X61222704Y-67713980D02*
G01*
X61386607Y-67781871D01*
X61534117Y-67880434D01*
X61659566Y-68005883D01*
X61758129Y-68153393D01*
X61826020Y-68317296D01*
X61860630Y-68491294D01*
X61860630Y-68668706D01*
X61826020Y-68842704D01*
X61758129Y-69006607D01*
X61659566Y-69154117D01*
X61534117Y-69279566D01*
X61386607Y-69378129D01*
X61222704Y-69446020D01*
X61048706Y-69480630D01*
X60871294Y-69480630D01*
X60697296Y-69446020D01*
X60533393Y-69378129D01*
X60385883Y-69279566D01*
X60260434Y-69154117D01*
X60161871Y-69006607D01*
X60093980Y-68842704D01*
X60059370Y-68668706D01*
X60059370Y-68491294D01*
X60093980Y-68317296D01*
X60161871Y-68153393D01*
X60260434Y-68005883D01*
X60385883Y-67880434D01*
X60533393Y-67781871D01*
X60697296Y-67713980D01*
X60871294Y-67679370D01*
X61048706Y-67679370D01*
X61222704Y-67713980D01*
X61222704Y-67713980D01*
G37*
G36*
X58682704Y-67713980D02*
G01*
X58846607Y-67781871D01*
X58994117Y-67880434D01*
X59119566Y-68005883D01*
X59218129Y-68153393D01*
X59286020Y-68317296D01*
X59320630Y-68491294D01*
X59320630Y-68668706D01*
X59286020Y-68842704D01*
X59218129Y-69006607D01*
X59119566Y-69154117D01*
X58994117Y-69279566D01*
X58846607Y-69378129D01*
X58682704Y-69446020D01*
X58508706Y-69480630D01*
X58331294Y-69480630D01*
X58157296Y-69446020D01*
X57993393Y-69378129D01*
X57845883Y-69279566D01*
X57720434Y-69154117D01*
X57621871Y-69006607D01*
X57553980Y-68842704D01*
X57519370Y-68668706D01*
X57519370Y-68491294D01*
X57553980Y-68317296D01*
X57621871Y-68153393D01*
X57720434Y-68005883D01*
X57845883Y-67880434D01*
X57993393Y-67781871D01*
X58157296Y-67713980D01*
X58331294Y-67679370D01*
X58508706Y-67679370D01*
X58682704Y-67713980D01*
X58682704Y-67713980D01*
G37*
G36*
X51062704Y-67713980D02*
G01*
X51226607Y-67781871D01*
X51374117Y-67880434D01*
X51499566Y-68005883D01*
X51598129Y-68153393D01*
X51666020Y-68317296D01*
X51700630Y-68491294D01*
X51700630Y-68668706D01*
X51666020Y-68842704D01*
X51598129Y-69006607D01*
X51499566Y-69154117D01*
X51374117Y-69279566D01*
X51226607Y-69378129D01*
X51062704Y-69446020D01*
X50888706Y-69480630D01*
X50711294Y-69480630D01*
X50537296Y-69446020D01*
X50373393Y-69378129D01*
X50225883Y-69279566D01*
X50100434Y-69154117D01*
X50001871Y-69006607D01*
X49933980Y-68842704D01*
X49899370Y-68668706D01*
X49899370Y-68491294D01*
X49933980Y-68317296D01*
X50001871Y-68153393D01*
X50100434Y-68005883D01*
X50225883Y-67880434D01*
X50373393Y-67781871D01*
X50537296Y-67713980D01*
X50711294Y-67679370D01*
X50888706Y-67679370D01*
X51062704Y-67713980D01*
X51062704Y-67713980D01*
G37*
G36*
X46620630Y-69480630D02*
G01*
X44819370Y-69480630D01*
X44819370Y-67679370D01*
X46620630Y-67679370D01*
X46620630Y-69480630D01*
X46620630Y-69480630D01*
G37*
G36*
X40902704Y-67713980D02*
G01*
X41066607Y-67781871D01*
X41214117Y-67880434D01*
X41339566Y-68005883D01*
X41438129Y-68153393D01*
X41506020Y-68317296D01*
X41540630Y-68491294D01*
X41540630Y-68668706D01*
X41506020Y-68842704D01*
X41438129Y-69006607D01*
X41339566Y-69154117D01*
X41214117Y-69279566D01*
X41066607Y-69378129D01*
X40902704Y-69446020D01*
X40728706Y-69480630D01*
X40551294Y-69480630D01*
X40377296Y-69446020D01*
X40213393Y-69378129D01*
X40065883Y-69279566D01*
X39940434Y-69154117D01*
X39841871Y-69006607D01*
X39773980Y-68842704D01*
X39739370Y-68668706D01*
X39739370Y-68491294D01*
X39773980Y-68317296D01*
X39841871Y-68153393D01*
X39940434Y-68005883D01*
X40065883Y-67880434D01*
X40213393Y-67781871D01*
X40377296Y-67713980D01*
X40551294Y-67679370D01*
X40728706Y-67679370D01*
X40902704Y-67713980D01*
X40902704Y-67713980D01*
G37*
G36*
X36460630Y-69480630D02*
G01*
X34659370Y-69480630D01*
X34659370Y-67679370D01*
X36460630Y-67679370D01*
X36460630Y-69480630D01*
X36460630Y-69480630D01*
G37*
G36*
X127900630Y-69480630D02*
G01*
X126099370Y-69480630D01*
X126099370Y-67679370D01*
X127900630Y-67679370D01*
X127900630Y-69480630D01*
X127900630Y-69480630D01*
G37*
G36*
X132342704Y-67713980D02*
G01*
X132506607Y-67781871D01*
X132654117Y-67880434D01*
X132779566Y-68005883D01*
X132878129Y-68153393D01*
X132946020Y-68317296D01*
X132980630Y-68491294D01*
X132980630Y-68668706D01*
X132946020Y-68842704D01*
X132878129Y-69006607D01*
X132779566Y-69154117D01*
X132654117Y-69279566D01*
X132506607Y-69378129D01*
X132342704Y-69446020D01*
X132168706Y-69480630D01*
X131991294Y-69480630D01*
X131817296Y-69446020D01*
X131653393Y-69378129D01*
X131505883Y-69279566D01*
X131380434Y-69154117D01*
X131281871Y-69006607D01*
X131213980Y-68842704D01*
X131179370Y-68668706D01*
X131179370Y-68491294D01*
X131213980Y-68317296D01*
X131281871Y-68153393D01*
X131380434Y-68005883D01*
X131505883Y-67880434D01*
X131653393Y-67781871D01*
X131817296Y-67713980D01*
X131991294Y-67679370D01*
X132168706Y-67679370D01*
X132342704Y-67713980D01*
X132342704Y-67713980D01*
G37*
G36*
X110171000Y-59371000D02*
G01*
X108269000Y-59371000D01*
X108269000Y-57469000D01*
X110171000Y-57469000D01*
X110171000Y-59371000D01*
X110171000Y-59371000D01*
G37*
G36*
X56831000Y-59371000D02*
G01*
X54929000Y-59371000D01*
X54929000Y-57469000D01*
X56831000Y-57469000D01*
X56831000Y-59371000D01*
X56831000Y-59371000D01*
G37*
G36*
X112037395Y-57505546D02*
G01*
X112210466Y-57577234D01*
X112210467Y-57577235D01*
X112366227Y-57681310D01*
X112498690Y-57813773D01*
X112498691Y-57813775D01*
X112602766Y-57969534D01*
X112674454Y-58142605D01*
X112711000Y-58326333D01*
X112711000Y-58513667D01*
X112674454Y-58697395D01*
X112602766Y-58870466D01*
X112602765Y-58870467D01*
X112498690Y-59026227D01*
X112366227Y-59158690D01*
X112287818Y-59211081D01*
X112210466Y-59262766D01*
X112037395Y-59334454D01*
X111853667Y-59371000D01*
X111666333Y-59371000D01*
X111482605Y-59334454D01*
X111309534Y-59262766D01*
X111232182Y-59211081D01*
X111153773Y-59158690D01*
X111021310Y-59026227D01*
X110917235Y-58870467D01*
X110917234Y-58870466D01*
X110845546Y-58697395D01*
X110809000Y-58513667D01*
X110809000Y-58326333D01*
X110845546Y-58142605D01*
X110917234Y-57969534D01*
X111021309Y-57813775D01*
X111021310Y-57813773D01*
X111153773Y-57681310D01*
X111309533Y-57577235D01*
X111309534Y-57577234D01*
X111482605Y-57505546D01*
X111666333Y-57469000D01*
X111853667Y-57469000D01*
X112037395Y-57505546D01*
X112037395Y-57505546D01*
G37*
G36*
X104417395Y-57505546D02*
G01*
X104590466Y-57577234D01*
X104590467Y-57577235D01*
X104746227Y-57681310D01*
X104878690Y-57813773D01*
X104878691Y-57813775D01*
X104982766Y-57969534D01*
X105054454Y-58142605D01*
X105091000Y-58326333D01*
X105091000Y-58513667D01*
X105054454Y-58697395D01*
X104982766Y-58870466D01*
X104982765Y-58870467D01*
X104878690Y-59026227D01*
X104746227Y-59158690D01*
X104667818Y-59211081D01*
X104590466Y-59262766D01*
X104417395Y-59334454D01*
X104233667Y-59371000D01*
X104046333Y-59371000D01*
X103862605Y-59334454D01*
X103689534Y-59262766D01*
X103612182Y-59211081D01*
X103533773Y-59158690D01*
X103401310Y-59026227D01*
X103297235Y-58870467D01*
X103297234Y-58870466D01*
X103225546Y-58697395D01*
X103189000Y-58513667D01*
X103189000Y-58326333D01*
X103225546Y-58142605D01*
X103297234Y-57969534D01*
X103401309Y-57813775D01*
X103401310Y-57813773D01*
X103533773Y-57681310D01*
X103689533Y-57577235D01*
X103689534Y-57577234D01*
X103862605Y-57505546D01*
X104046333Y-57469000D01*
X104233667Y-57469000D01*
X104417395Y-57505546D01*
X104417395Y-57505546D01*
G37*
G36*
X102551000Y-59371000D02*
G01*
X100649000Y-59371000D01*
X100649000Y-57469000D01*
X102551000Y-57469000D01*
X102551000Y-59371000D01*
X102551000Y-59371000D01*
G37*
G36*
X79691000Y-59371000D02*
G01*
X77789000Y-59371000D01*
X77789000Y-57469000D01*
X79691000Y-57469000D01*
X79691000Y-59371000D01*
X79691000Y-59371000D01*
G37*
G36*
X81557395Y-57505546D02*
G01*
X81730466Y-57577234D01*
X81730467Y-57577235D01*
X81886227Y-57681310D01*
X82018690Y-57813773D01*
X82018691Y-57813775D01*
X82122766Y-57969534D01*
X82194454Y-58142605D01*
X82231000Y-58326333D01*
X82231000Y-58513667D01*
X82194454Y-58697395D01*
X82122766Y-58870466D01*
X82122765Y-58870467D01*
X82018690Y-59026227D01*
X81886227Y-59158690D01*
X81807818Y-59211081D01*
X81730466Y-59262766D01*
X81557395Y-59334454D01*
X81373667Y-59371000D01*
X81186333Y-59371000D01*
X81002605Y-59334454D01*
X80829534Y-59262766D01*
X80752182Y-59211081D01*
X80673773Y-59158690D01*
X80541310Y-59026227D01*
X80437235Y-58870467D01*
X80437234Y-58870466D01*
X80365546Y-58697395D01*
X80329000Y-58513667D01*
X80329000Y-58326333D01*
X80365546Y-58142605D01*
X80437234Y-57969534D01*
X80541309Y-57813775D01*
X80541310Y-57813773D01*
X80673773Y-57681310D01*
X80829533Y-57577235D01*
X80829534Y-57577234D01*
X81002605Y-57505546D01*
X81186333Y-57469000D01*
X81373667Y-57469000D01*
X81557395Y-57505546D01*
X81557395Y-57505546D01*
G37*
G36*
X73937395Y-57505546D02*
G01*
X74110466Y-57577234D01*
X74110467Y-57577235D01*
X74266227Y-57681310D01*
X74398690Y-57813773D01*
X74398691Y-57813775D01*
X74502766Y-57969534D01*
X74574454Y-58142605D01*
X74611000Y-58326333D01*
X74611000Y-58513667D01*
X74574454Y-58697395D01*
X74502766Y-58870466D01*
X74502765Y-58870467D01*
X74398690Y-59026227D01*
X74266227Y-59158690D01*
X74187818Y-59211081D01*
X74110466Y-59262766D01*
X73937395Y-59334454D01*
X73753667Y-59371000D01*
X73566333Y-59371000D01*
X73382605Y-59334454D01*
X73209534Y-59262766D01*
X73132182Y-59211081D01*
X73053773Y-59158690D01*
X72921310Y-59026227D01*
X72817235Y-58870467D01*
X72817234Y-58870466D01*
X72745546Y-58697395D01*
X72709000Y-58513667D01*
X72709000Y-58326333D01*
X72745546Y-58142605D01*
X72817234Y-57969534D01*
X72921309Y-57813775D01*
X72921310Y-57813773D01*
X73053773Y-57681310D01*
X73209533Y-57577235D01*
X73209534Y-57577234D01*
X73382605Y-57505546D01*
X73566333Y-57469000D01*
X73753667Y-57469000D01*
X73937395Y-57505546D01*
X73937395Y-57505546D01*
G37*
G36*
X72071000Y-59371000D02*
G01*
X70169000Y-59371000D01*
X70169000Y-57469000D01*
X72071000Y-57469000D01*
X72071000Y-59371000D01*
X72071000Y-59371000D01*
G37*
G36*
X94931000Y-59371000D02*
G01*
X93029000Y-59371000D01*
X93029000Y-57469000D01*
X94931000Y-57469000D01*
X94931000Y-59371000D01*
X94931000Y-59371000D01*
G37*
G36*
X96797395Y-57505546D02*
G01*
X96970466Y-57577234D01*
X96970467Y-57577235D01*
X97126227Y-57681310D01*
X97258690Y-57813773D01*
X97258691Y-57813775D01*
X97362766Y-57969534D01*
X97434454Y-58142605D01*
X97471000Y-58326333D01*
X97471000Y-58513667D01*
X97434454Y-58697395D01*
X97362766Y-58870466D01*
X97362765Y-58870467D01*
X97258690Y-59026227D01*
X97126227Y-59158690D01*
X97047818Y-59211081D01*
X96970466Y-59262766D01*
X96797395Y-59334454D01*
X96613667Y-59371000D01*
X96426333Y-59371000D01*
X96242605Y-59334454D01*
X96069534Y-59262766D01*
X95992182Y-59211081D01*
X95913773Y-59158690D01*
X95781310Y-59026227D01*
X95677235Y-58870467D01*
X95677234Y-58870466D01*
X95605546Y-58697395D01*
X95569000Y-58513667D01*
X95569000Y-58326333D01*
X95605546Y-58142605D01*
X95677234Y-57969534D01*
X95781309Y-57813775D01*
X95781310Y-57813773D01*
X95913773Y-57681310D01*
X96069533Y-57577235D01*
X96069534Y-57577234D01*
X96242605Y-57505546D01*
X96426333Y-57469000D01*
X96613667Y-57469000D01*
X96797395Y-57505546D01*
X96797395Y-57505546D01*
G37*
G36*
X89177395Y-57505546D02*
G01*
X89350466Y-57577234D01*
X89350467Y-57577235D01*
X89506227Y-57681310D01*
X89638690Y-57813773D01*
X89638691Y-57813775D01*
X89742766Y-57969534D01*
X89814454Y-58142605D01*
X89851000Y-58326333D01*
X89851000Y-58513667D01*
X89814454Y-58697395D01*
X89742766Y-58870466D01*
X89742765Y-58870467D01*
X89638690Y-59026227D01*
X89506227Y-59158690D01*
X89427818Y-59211081D01*
X89350466Y-59262766D01*
X89177395Y-59334454D01*
X88993667Y-59371000D01*
X88806333Y-59371000D01*
X88622605Y-59334454D01*
X88449534Y-59262766D01*
X88372182Y-59211081D01*
X88293773Y-59158690D01*
X88161310Y-59026227D01*
X88057235Y-58870467D01*
X88057234Y-58870466D01*
X87985546Y-58697395D01*
X87949000Y-58513667D01*
X87949000Y-58326333D01*
X87985546Y-58142605D01*
X88057234Y-57969534D01*
X88161309Y-57813775D01*
X88161310Y-57813773D01*
X88293773Y-57681310D01*
X88449533Y-57577235D01*
X88449534Y-57577234D01*
X88622605Y-57505546D01*
X88806333Y-57469000D01*
X88993667Y-57469000D01*
X89177395Y-57505546D01*
X89177395Y-57505546D01*
G37*
G36*
X87311000Y-59371000D02*
G01*
X85409000Y-59371000D01*
X85409000Y-57469000D01*
X87311000Y-57469000D01*
X87311000Y-59371000D01*
X87311000Y-59371000D01*
G37*
G36*
X64451000Y-59371000D02*
G01*
X62549000Y-59371000D01*
X62549000Y-57469000D01*
X64451000Y-57469000D01*
X64451000Y-59371000D01*
X64451000Y-59371000D01*
G37*
G36*
X66317395Y-57505546D02*
G01*
X66490466Y-57577234D01*
X66490467Y-57577235D01*
X66646227Y-57681310D01*
X66778690Y-57813773D01*
X66778691Y-57813775D01*
X66882766Y-57969534D01*
X66954454Y-58142605D01*
X66991000Y-58326333D01*
X66991000Y-58513667D01*
X66954454Y-58697395D01*
X66882766Y-58870466D01*
X66882765Y-58870467D01*
X66778690Y-59026227D01*
X66646227Y-59158690D01*
X66567818Y-59211081D01*
X66490466Y-59262766D01*
X66317395Y-59334454D01*
X66133667Y-59371000D01*
X65946333Y-59371000D01*
X65762605Y-59334454D01*
X65589534Y-59262766D01*
X65512182Y-59211081D01*
X65433773Y-59158690D01*
X65301310Y-59026227D01*
X65197235Y-58870467D01*
X65197234Y-58870466D01*
X65125546Y-58697395D01*
X65089000Y-58513667D01*
X65089000Y-58326333D01*
X65125546Y-58142605D01*
X65197234Y-57969534D01*
X65301309Y-57813775D01*
X65301310Y-57813773D01*
X65433773Y-57681310D01*
X65589533Y-57577235D01*
X65589534Y-57577234D01*
X65762605Y-57505546D01*
X65946333Y-57469000D01*
X66133667Y-57469000D01*
X66317395Y-57505546D01*
X66317395Y-57505546D01*
G37*
G36*
X58697395Y-57505546D02*
G01*
X58870466Y-57577234D01*
X58870467Y-57577235D01*
X59026227Y-57681310D01*
X59158690Y-57813773D01*
X59158691Y-57813775D01*
X59262766Y-57969534D01*
X59334454Y-58142605D01*
X59371000Y-58326333D01*
X59371000Y-58513667D01*
X59334454Y-58697395D01*
X59262766Y-58870466D01*
X59262765Y-58870467D01*
X59158690Y-59026227D01*
X59026227Y-59158690D01*
X58947818Y-59211081D01*
X58870466Y-59262766D01*
X58697395Y-59334454D01*
X58513667Y-59371000D01*
X58326333Y-59371000D01*
X58142605Y-59334454D01*
X57969534Y-59262766D01*
X57892182Y-59211081D01*
X57813773Y-59158690D01*
X57681310Y-59026227D01*
X57577235Y-58870467D01*
X57577234Y-58870466D01*
X57505546Y-58697395D01*
X57469000Y-58513667D01*
X57469000Y-58326333D01*
X57505546Y-58142605D01*
X57577234Y-57969534D01*
X57681309Y-57813775D01*
X57681310Y-57813773D01*
X57813773Y-57681310D01*
X57969533Y-57577235D01*
X57969534Y-57577234D01*
X58142605Y-57505546D01*
X58326333Y-57469000D01*
X58513667Y-57469000D01*
X58697395Y-57505546D01*
X58697395Y-57505546D01*
G37*
G36*
X36460630Y-59320630D02*
G01*
X34659370Y-59320630D01*
X34659370Y-57519370D01*
X36460630Y-57519370D01*
X36460630Y-59320630D01*
X36460630Y-59320630D01*
G37*
G36*
X40902704Y-57553980D02*
G01*
X41066607Y-57621871D01*
X41214117Y-57720434D01*
X41339566Y-57845883D01*
X41438129Y-57993393D01*
X41506020Y-58157296D01*
X41540630Y-58331294D01*
X41540630Y-58508706D01*
X41506020Y-58682704D01*
X41438129Y-58846607D01*
X41339566Y-58994117D01*
X41214117Y-59119566D01*
X41066607Y-59218129D01*
X40902704Y-59286020D01*
X40728706Y-59320630D01*
X40551294Y-59320630D01*
X40377296Y-59286020D01*
X40213393Y-59218129D01*
X40065883Y-59119566D01*
X39940434Y-58994117D01*
X39841871Y-58846607D01*
X39773980Y-58682704D01*
X39739370Y-58508706D01*
X39739370Y-58331294D01*
X39773980Y-58157296D01*
X39841871Y-57993393D01*
X39940434Y-57845883D01*
X40065883Y-57720434D01*
X40213393Y-57621871D01*
X40377296Y-57553980D01*
X40551294Y-57519370D01*
X40728706Y-57519370D01*
X40902704Y-57553980D01*
X40902704Y-57553980D01*
G37*
G36*
X132342704Y-57553980D02*
G01*
X132506607Y-57621871D01*
X132654117Y-57720434D01*
X132779566Y-57845883D01*
X132878129Y-57993393D01*
X132946020Y-58157296D01*
X132980630Y-58331294D01*
X132980630Y-58508706D01*
X132946020Y-58682704D01*
X132878129Y-58846607D01*
X132779566Y-58994117D01*
X132654117Y-59119566D01*
X132506607Y-59218129D01*
X132342704Y-59286020D01*
X132168706Y-59320630D01*
X131991294Y-59320630D01*
X131817296Y-59286020D01*
X131653393Y-59218129D01*
X131505883Y-59119566D01*
X131380434Y-58994117D01*
X131281871Y-58846607D01*
X131213980Y-58682704D01*
X131179370Y-58508706D01*
X131179370Y-58331294D01*
X131213980Y-58157296D01*
X131281871Y-57993393D01*
X131380434Y-57845883D01*
X131505883Y-57720434D01*
X131653393Y-57621871D01*
X131817296Y-57553980D01*
X131991294Y-57519370D01*
X132168706Y-57519370D01*
X132342704Y-57553980D01*
X132342704Y-57553980D01*
G37*
G36*
X127900630Y-59320630D02*
G01*
X126099370Y-59320630D01*
X126099370Y-57519370D01*
X127900630Y-57519370D01*
X127900630Y-59320630D01*
X127900630Y-59320630D01*
G37*
G36*
X122182704Y-57553980D02*
G01*
X122346607Y-57621871D01*
X122494117Y-57720434D01*
X122619566Y-57845883D01*
X122718129Y-57993393D01*
X122786020Y-58157296D01*
X122820630Y-58331294D01*
X122820630Y-58508706D01*
X122786020Y-58682704D01*
X122718129Y-58846607D01*
X122619566Y-58994117D01*
X122494117Y-59119566D01*
X122346607Y-59218129D01*
X122182704Y-59286020D01*
X122008706Y-59320630D01*
X121831294Y-59320630D01*
X121657296Y-59286020D01*
X121493393Y-59218129D01*
X121345883Y-59119566D01*
X121220434Y-58994117D01*
X121121871Y-58846607D01*
X121053980Y-58682704D01*
X121019370Y-58508706D01*
X121019370Y-58331294D01*
X121053980Y-58157296D01*
X121121871Y-57993393D01*
X121220434Y-57845883D01*
X121345883Y-57720434D01*
X121493393Y-57621871D01*
X121657296Y-57553980D01*
X121831294Y-57519370D01*
X122008706Y-57519370D01*
X122182704Y-57553980D01*
X122182704Y-57553980D01*
G37*
G36*
X117740630Y-59320630D02*
G01*
X115939370Y-59320630D01*
X115939370Y-57519370D01*
X117740630Y-57519370D01*
X117740630Y-59320630D01*
X117740630Y-59320630D01*
G37*
G36*
X51062704Y-57553980D02*
G01*
X51226607Y-57621871D01*
X51374117Y-57720434D01*
X51499566Y-57845883D01*
X51598129Y-57993393D01*
X51666020Y-58157296D01*
X51700630Y-58331294D01*
X51700630Y-58508706D01*
X51666020Y-58682704D01*
X51598129Y-58846607D01*
X51499566Y-58994117D01*
X51374117Y-59119566D01*
X51226607Y-59218129D01*
X51062704Y-59286020D01*
X50888706Y-59320630D01*
X50711294Y-59320630D01*
X50537296Y-59286020D01*
X50373393Y-59218129D01*
X50225883Y-59119566D01*
X50100434Y-58994117D01*
X50001871Y-58846607D01*
X49933980Y-58682704D01*
X49899370Y-58508706D01*
X49899370Y-58331294D01*
X49933980Y-58157296D01*
X50001871Y-57993393D01*
X50100434Y-57845883D01*
X50225883Y-57720434D01*
X50373393Y-57621871D01*
X50537296Y-57553980D01*
X50711294Y-57519370D01*
X50888706Y-57519370D01*
X51062704Y-57553980D01*
X51062704Y-57553980D01*
G37*
G36*
X46620630Y-59320630D02*
G01*
X44819370Y-59320630D01*
X44819370Y-57519370D01*
X46620630Y-57519370D01*
X46620630Y-59320630D01*
X46620630Y-59320630D01*
G37*
G36*
X57398228Y-51251703D02*
G01*
X57553100Y-51315853D01*
X57692481Y-51408985D01*
X57811015Y-51527519D01*
X57904147Y-51666900D01*
X57968297Y-51821772D01*
X58001000Y-51986184D01*
X58001000Y-52153816D01*
X57968297Y-52318228D01*
X57904147Y-52473100D01*
X57811015Y-52612481D01*
X57692481Y-52731015D01*
X57553100Y-52824147D01*
X57398228Y-52888297D01*
X57233816Y-52921000D01*
X57066184Y-52921000D01*
X56901772Y-52888297D01*
X56746900Y-52824147D01*
X56607519Y-52731015D01*
X56488985Y-52612481D01*
X56395853Y-52473100D01*
X56331703Y-52318228D01*
X56299000Y-52153816D01*
X56299000Y-51986184D01*
X56331703Y-51821772D01*
X56395853Y-51666900D01*
X56488985Y-51527519D01*
X56607519Y-51408985D01*
X56746900Y-51315853D01*
X56901772Y-51251703D01*
X57066184Y-51219000D01*
X57233816Y-51219000D01*
X57398228Y-51251703D01*
X57398228Y-51251703D01*
G37*
G36*
X65018228Y-51251703D02*
G01*
X65173100Y-51315853D01*
X65312481Y-51408985D01*
X65431015Y-51527519D01*
X65524147Y-51666900D01*
X65588297Y-51821772D01*
X65621000Y-51986184D01*
X65621000Y-52153816D01*
X65588297Y-52318228D01*
X65524147Y-52473100D01*
X65431015Y-52612481D01*
X65312481Y-52731015D01*
X65173100Y-52824147D01*
X65018228Y-52888297D01*
X64853816Y-52921000D01*
X64686184Y-52921000D01*
X64521772Y-52888297D01*
X64366900Y-52824147D01*
X64227519Y-52731015D01*
X64108985Y-52612481D01*
X64015853Y-52473100D01*
X63951703Y-52318228D01*
X63919000Y-52153816D01*
X63919000Y-51986184D01*
X63951703Y-51821772D01*
X64015853Y-51666900D01*
X64108985Y-51527519D01*
X64227519Y-51408985D01*
X64366900Y-51315853D01*
X64521772Y-51251703D01*
X64686184Y-51219000D01*
X64853816Y-51219000D01*
X65018228Y-51251703D01*
X65018228Y-51251703D01*
G37*
G36*
X87878228Y-51251703D02*
G01*
X88033100Y-51315853D01*
X88172481Y-51408985D01*
X88291015Y-51527519D01*
X88384147Y-51666900D01*
X88448297Y-51821772D01*
X88481000Y-51986184D01*
X88481000Y-52153816D01*
X88448297Y-52318228D01*
X88384147Y-52473100D01*
X88291015Y-52612481D01*
X88172481Y-52731015D01*
X88033100Y-52824147D01*
X87878228Y-52888297D01*
X87713816Y-52921000D01*
X87546184Y-52921000D01*
X87381772Y-52888297D01*
X87226900Y-52824147D01*
X87087519Y-52731015D01*
X86968985Y-52612481D01*
X86875853Y-52473100D01*
X86811703Y-52318228D01*
X86779000Y-52153816D01*
X86779000Y-51986184D01*
X86811703Y-51821772D01*
X86875853Y-51666900D01*
X86968985Y-51527519D01*
X87087519Y-51408985D01*
X87226900Y-51315853D01*
X87381772Y-51251703D01*
X87546184Y-51219000D01*
X87713816Y-51219000D01*
X87878228Y-51251703D01*
X87878228Y-51251703D01*
G37*
G36*
X95498228Y-51251703D02*
G01*
X95653100Y-51315853D01*
X95792481Y-51408985D01*
X95911015Y-51527519D01*
X96004147Y-51666900D01*
X96068297Y-51821772D01*
X96101000Y-51986184D01*
X96101000Y-52153816D01*
X96068297Y-52318228D01*
X96004147Y-52473100D01*
X95911015Y-52612481D01*
X95792481Y-52731015D01*
X95653100Y-52824147D01*
X95498228Y-52888297D01*
X95333816Y-52921000D01*
X95166184Y-52921000D01*
X95001772Y-52888297D01*
X94846900Y-52824147D01*
X94707519Y-52731015D01*
X94588985Y-52612481D01*
X94495853Y-52473100D01*
X94431703Y-52318228D01*
X94399000Y-52153816D01*
X94399000Y-51986184D01*
X94431703Y-51821772D01*
X94495853Y-51666900D01*
X94588985Y-51527519D01*
X94707519Y-51408985D01*
X94846900Y-51315853D01*
X95001772Y-51251703D01*
X95166184Y-51219000D01*
X95333816Y-51219000D01*
X95498228Y-51251703D01*
X95498228Y-51251703D01*
G37*
G36*
X72638228Y-51251703D02*
G01*
X72793100Y-51315853D01*
X72932481Y-51408985D01*
X73051015Y-51527519D01*
X73144147Y-51666900D01*
X73208297Y-51821772D01*
X73241000Y-51986184D01*
X73241000Y-52153816D01*
X73208297Y-52318228D01*
X73144147Y-52473100D01*
X73051015Y-52612481D01*
X72932481Y-52731015D01*
X72793100Y-52824147D01*
X72638228Y-52888297D01*
X72473816Y-52921000D01*
X72306184Y-52921000D01*
X72141772Y-52888297D01*
X71986900Y-52824147D01*
X71847519Y-52731015D01*
X71728985Y-52612481D01*
X71635853Y-52473100D01*
X71571703Y-52318228D01*
X71539000Y-52153816D01*
X71539000Y-51986184D01*
X71571703Y-51821772D01*
X71635853Y-51666900D01*
X71728985Y-51527519D01*
X71847519Y-51408985D01*
X71986900Y-51315853D01*
X72141772Y-51251703D01*
X72306184Y-51219000D01*
X72473816Y-51219000D01*
X72638228Y-51251703D01*
X72638228Y-51251703D01*
G37*
G36*
X80258228Y-51251703D02*
G01*
X80413100Y-51315853D01*
X80552481Y-51408985D01*
X80671015Y-51527519D01*
X80764147Y-51666900D01*
X80828297Y-51821772D01*
X80861000Y-51986184D01*
X80861000Y-52153816D01*
X80828297Y-52318228D01*
X80764147Y-52473100D01*
X80671015Y-52612481D01*
X80552481Y-52731015D01*
X80413100Y-52824147D01*
X80258228Y-52888297D01*
X80093816Y-52921000D01*
X79926184Y-52921000D01*
X79761772Y-52888297D01*
X79606900Y-52824147D01*
X79467519Y-52731015D01*
X79348985Y-52612481D01*
X79255853Y-52473100D01*
X79191703Y-52318228D01*
X79159000Y-52153816D01*
X79159000Y-51986184D01*
X79191703Y-51821772D01*
X79255853Y-51666900D01*
X79348985Y-51527519D01*
X79467519Y-51408985D01*
X79606900Y-51315853D01*
X79761772Y-51251703D01*
X79926184Y-51219000D01*
X80093816Y-51219000D01*
X80258228Y-51251703D01*
X80258228Y-51251703D01*
G37*
G36*
X103118228Y-51251703D02*
G01*
X103273100Y-51315853D01*
X103412481Y-51408985D01*
X103531015Y-51527519D01*
X103624147Y-51666900D01*
X103688297Y-51821772D01*
X103721000Y-51986184D01*
X103721000Y-52153816D01*
X103688297Y-52318228D01*
X103624147Y-52473100D01*
X103531015Y-52612481D01*
X103412481Y-52731015D01*
X103273100Y-52824147D01*
X103118228Y-52888297D01*
X102953816Y-52921000D01*
X102786184Y-52921000D01*
X102621772Y-52888297D01*
X102466900Y-52824147D01*
X102327519Y-52731015D01*
X102208985Y-52612481D01*
X102115853Y-52473100D01*
X102051703Y-52318228D01*
X102019000Y-52153816D01*
X102019000Y-51986184D01*
X102051703Y-51821772D01*
X102115853Y-51666900D01*
X102208985Y-51527519D01*
X102327519Y-51408985D01*
X102466900Y-51315853D01*
X102621772Y-51251703D01*
X102786184Y-51219000D01*
X102953816Y-51219000D01*
X103118228Y-51251703D01*
X103118228Y-51251703D01*
G37*
G36*
X110738228Y-51251703D02*
G01*
X110893100Y-51315853D01*
X111032481Y-51408985D01*
X111151015Y-51527519D01*
X111244147Y-51666900D01*
X111308297Y-51821772D01*
X111341000Y-51986184D01*
X111341000Y-52153816D01*
X111308297Y-52318228D01*
X111244147Y-52473100D01*
X111151015Y-52612481D01*
X111032481Y-52731015D01*
X110893100Y-52824147D01*
X110738228Y-52888297D01*
X110573816Y-52921000D01*
X110406184Y-52921000D01*
X110241772Y-52888297D01*
X110086900Y-52824147D01*
X109947519Y-52731015D01*
X109828985Y-52612481D01*
X109735853Y-52473100D01*
X109671703Y-52318228D01*
X109639000Y-52153816D01*
X109639000Y-51986184D01*
X109671703Y-51821772D01*
X109735853Y-51666900D01*
X109828985Y-51527519D01*
X109947519Y-51408985D01*
X110086900Y-51315853D01*
X110241772Y-51251703D01*
X110406184Y-51219000D01*
X110573816Y-51219000D01*
X110738228Y-51251703D01*
X110738228Y-51251703D01*
G37*
G36*
X115201000Y-47891000D02*
G01*
X113399000Y-47891000D01*
X113399000Y-46089000D01*
X115201000Y-46089000D01*
X115201000Y-47891000D01*
X115201000Y-47891000D01*
G37*
G36*
X116950442Y-46095518D02*
G01*
X117016627Y-46102037D01*
X117186466Y-46153557D01*
X117342991Y-46237222D01*
X117378729Y-46266552D01*
X117480186Y-46349814D01*
X117560369Y-46447519D01*
X117592778Y-46487009D01*
X117676443Y-46643534D01*
X117727963Y-46813373D01*
X117745359Y-46990000D01*
X117727963Y-47166627D01*
X117676443Y-47336466D01*
X117592778Y-47492991D01*
X117563448Y-47528729D01*
X117480186Y-47630186D01*
X117378729Y-47713448D01*
X117342991Y-47742778D01*
X117186466Y-47826443D01*
X117016627Y-47877963D01*
X116950443Y-47884481D01*
X116884260Y-47891000D01*
X116795740Y-47891000D01*
X116729557Y-47884481D01*
X116663373Y-47877963D01*
X116493534Y-47826443D01*
X116337009Y-47742778D01*
X116301271Y-47713448D01*
X116199814Y-47630186D01*
X116116552Y-47528729D01*
X116087222Y-47492991D01*
X116003557Y-47336466D01*
X115952037Y-47166627D01*
X115934641Y-46990000D01*
X115952037Y-46813373D01*
X116003557Y-46643534D01*
X116087222Y-46487009D01*
X116119631Y-46447519D01*
X116199814Y-46349814D01*
X116301271Y-46266552D01*
X116337009Y-46237222D01*
X116493534Y-46153557D01*
X116663373Y-46102037D01*
X116729558Y-46095518D01*
X116795740Y-46089000D01*
X116884260Y-46089000D01*
X116950442Y-46095518D01*
X116950442Y-46095518D01*
G37*
G36*
X119490442Y-46095518D02*
G01*
X119556627Y-46102037D01*
X119726466Y-46153557D01*
X119882991Y-46237222D01*
X119918729Y-46266552D01*
X120020186Y-46349814D01*
X120100369Y-46447519D01*
X120132778Y-46487009D01*
X120216443Y-46643534D01*
X120267963Y-46813373D01*
X120285359Y-46990000D01*
X120267963Y-47166627D01*
X120216443Y-47336466D01*
X120132778Y-47492991D01*
X120103448Y-47528729D01*
X120020186Y-47630186D01*
X119918729Y-47713448D01*
X119882991Y-47742778D01*
X119726466Y-47826443D01*
X119556627Y-47877963D01*
X119490443Y-47884481D01*
X119424260Y-47891000D01*
X119335740Y-47891000D01*
X119269557Y-47884481D01*
X119203373Y-47877963D01*
X119033534Y-47826443D01*
X118877009Y-47742778D01*
X118841271Y-47713448D01*
X118739814Y-47630186D01*
X118656552Y-47528729D01*
X118627222Y-47492991D01*
X118543557Y-47336466D01*
X118492037Y-47166627D01*
X118474641Y-46990000D01*
X118492037Y-46813373D01*
X118543557Y-46643534D01*
X118627222Y-46487009D01*
X118659631Y-46447519D01*
X118739814Y-46349814D01*
X118841271Y-46266552D01*
X118877009Y-46237222D01*
X119033534Y-46153557D01*
X119203373Y-46102037D01*
X119269558Y-46095518D01*
X119335740Y-46089000D01*
X119424260Y-46089000D01*
X119490442Y-46095518D01*
X119490442Y-46095518D01*
G37*
G36*
X122030442Y-46095518D02*
G01*
X122096627Y-46102037D01*
X122266466Y-46153557D01*
X122422991Y-46237222D01*
X122458729Y-46266552D01*
X122560186Y-46349814D01*
X122640369Y-46447519D01*
X122672778Y-46487009D01*
X122756443Y-46643534D01*
X122807963Y-46813373D01*
X122825359Y-46990000D01*
X122807963Y-47166627D01*
X122756443Y-47336466D01*
X122672778Y-47492991D01*
X122643448Y-47528729D01*
X122560186Y-47630186D01*
X122458729Y-47713448D01*
X122422991Y-47742778D01*
X122266466Y-47826443D01*
X122096627Y-47877963D01*
X122030443Y-47884481D01*
X121964260Y-47891000D01*
X121875740Y-47891000D01*
X121809557Y-47884481D01*
X121743373Y-47877963D01*
X121573534Y-47826443D01*
X121417009Y-47742778D01*
X121381271Y-47713448D01*
X121279814Y-47630186D01*
X121196552Y-47528729D01*
X121167222Y-47492991D01*
X121083557Y-47336466D01*
X121032037Y-47166627D01*
X121014641Y-46990000D01*
X121032037Y-46813373D01*
X121083557Y-46643534D01*
X121167222Y-46487009D01*
X121199631Y-46447519D01*
X121279814Y-46349814D01*
X121381271Y-46266552D01*
X121417009Y-46237222D01*
X121573534Y-46153557D01*
X121743373Y-46102037D01*
X121809558Y-46095518D01*
X121875740Y-46089000D01*
X121964260Y-46089000D01*
X122030442Y-46095518D01*
X122030442Y-46095518D01*
G37*
G36*
X125361000Y-47891000D02*
G01*
X123559000Y-47891000D01*
X123559000Y-46089000D01*
X125361000Y-46089000D01*
X125361000Y-47891000D01*
X125361000Y-47891000D01*
G37*
G36*
X127110442Y-46095518D02*
G01*
X127176627Y-46102037D01*
X127346466Y-46153557D01*
X127502991Y-46237222D01*
X127538729Y-46266552D01*
X127640186Y-46349814D01*
X127720369Y-46447519D01*
X127752778Y-46487009D01*
X127836443Y-46643534D01*
X127887963Y-46813373D01*
X127905359Y-46990000D01*
X127887963Y-47166627D01*
X127836443Y-47336466D01*
X127752778Y-47492991D01*
X127723448Y-47528729D01*
X127640186Y-47630186D01*
X127538729Y-47713448D01*
X127502991Y-47742778D01*
X127346466Y-47826443D01*
X127176627Y-47877963D01*
X127110443Y-47884481D01*
X127044260Y-47891000D01*
X126955740Y-47891000D01*
X126889557Y-47884481D01*
X126823373Y-47877963D01*
X126653534Y-47826443D01*
X126497009Y-47742778D01*
X126461271Y-47713448D01*
X126359814Y-47630186D01*
X126276552Y-47528729D01*
X126247222Y-47492991D01*
X126163557Y-47336466D01*
X126112037Y-47166627D01*
X126094641Y-46990000D01*
X126112037Y-46813373D01*
X126163557Y-46643534D01*
X126247222Y-46487009D01*
X126279631Y-46447519D01*
X126359814Y-46349814D01*
X126461271Y-46266552D01*
X126497009Y-46237222D01*
X126653534Y-46153557D01*
X126823373Y-46102037D01*
X126889558Y-46095518D01*
X126955740Y-46089000D01*
X127044260Y-46089000D01*
X127110442Y-46095518D01*
X127110442Y-46095518D01*
G37*
G36*
X129650442Y-46095518D02*
G01*
X129716627Y-46102037D01*
X129886466Y-46153557D01*
X130042991Y-46237222D01*
X130078729Y-46266552D01*
X130180186Y-46349814D01*
X130260369Y-46447519D01*
X130292778Y-46487009D01*
X130376443Y-46643534D01*
X130427963Y-46813373D01*
X130445359Y-46990000D01*
X130427963Y-47166627D01*
X130376443Y-47336466D01*
X130292778Y-47492991D01*
X130263448Y-47528729D01*
X130180186Y-47630186D01*
X130078729Y-47713448D01*
X130042991Y-47742778D01*
X129886466Y-47826443D01*
X129716627Y-47877963D01*
X129650443Y-47884481D01*
X129584260Y-47891000D01*
X129495740Y-47891000D01*
X129429557Y-47884481D01*
X129363373Y-47877963D01*
X129193534Y-47826443D01*
X129037009Y-47742778D01*
X129001271Y-47713448D01*
X128899814Y-47630186D01*
X128816552Y-47528729D01*
X128787222Y-47492991D01*
X128703557Y-47336466D01*
X128652037Y-47166627D01*
X128634641Y-46990000D01*
X128652037Y-46813373D01*
X128703557Y-46643534D01*
X128787222Y-46487009D01*
X128819631Y-46447519D01*
X128899814Y-46349814D01*
X129001271Y-46266552D01*
X129037009Y-46237222D01*
X129193534Y-46153557D01*
X129363373Y-46102037D01*
X129429558Y-46095518D01*
X129495740Y-46089000D01*
X129584260Y-46089000D01*
X129650442Y-46095518D01*
X129650442Y-46095518D01*
G37*
G36*
X132190442Y-46095518D02*
G01*
X132256627Y-46102037D01*
X132426466Y-46153557D01*
X132582991Y-46237222D01*
X132618729Y-46266552D01*
X132720186Y-46349814D01*
X132800369Y-46447519D01*
X132832778Y-46487009D01*
X132916443Y-46643534D01*
X132967963Y-46813373D01*
X132985359Y-46990000D01*
X132967963Y-47166627D01*
X132916443Y-47336466D01*
X132832778Y-47492991D01*
X132803448Y-47528729D01*
X132720186Y-47630186D01*
X132618729Y-47713448D01*
X132582991Y-47742778D01*
X132426466Y-47826443D01*
X132256627Y-47877963D01*
X132190443Y-47884481D01*
X132124260Y-47891000D01*
X132035740Y-47891000D01*
X131969557Y-47884481D01*
X131903373Y-47877963D01*
X131733534Y-47826443D01*
X131577009Y-47742778D01*
X131541271Y-47713448D01*
X131439814Y-47630186D01*
X131356552Y-47528729D01*
X131327222Y-47492991D01*
X131243557Y-47336466D01*
X131192037Y-47166627D01*
X131174641Y-46990000D01*
X131192037Y-46813373D01*
X131243557Y-46643534D01*
X131327222Y-46487009D01*
X131359631Y-46447519D01*
X131439814Y-46349814D01*
X131541271Y-46266552D01*
X131577009Y-46237222D01*
X131733534Y-46153557D01*
X131903373Y-46102037D01*
X131969558Y-46095518D01*
X132035740Y-46089000D01*
X132124260Y-46089000D01*
X132190442Y-46095518D01*
X132190442Y-46095518D01*
G37*
G36*
X53450442Y-46095518D02*
G01*
X53516627Y-46102037D01*
X53686466Y-46153557D01*
X53842991Y-46237222D01*
X53878729Y-46266552D01*
X53980186Y-46349814D01*
X54060369Y-46447519D01*
X54092778Y-46487009D01*
X54176443Y-46643534D01*
X54227963Y-46813373D01*
X54245359Y-46990000D01*
X54227963Y-47166627D01*
X54176443Y-47336466D01*
X54092778Y-47492991D01*
X54063448Y-47528729D01*
X53980186Y-47630186D01*
X53878729Y-47713448D01*
X53842991Y-47742778D01*
X53686466Y-47826443D01*
X53516627Y-47877963D01*
X53450443Y-47884481D01*
X53384260Y-47891000D01*
X53295740Y-47891000D01*
X53229557Y-47884481D01*
X53163373Y-47877963D01*
X52993534Y-47826443D01*
X52837009Y-47742778D01*
X52801271Y-47713448D01*
X52699814Y-47630186D01*
X52616552Y-47528729D01*
X52587222Y-47492991D01*
X52503557Y-47336466D01*
X52452037Y-47166627D01*
X52434641Y-46990000D01*
X52452037Y-46813373D01*
X52503557Y-46643534D01*
X52587222Y-46487009D01*
X52619631Y-46447519D01*
X52699814Y-46349814D01*
X52801271Y-46266552D01*
X52837009Y-46237222D01*
X52993534Y-46153557D01*
X53163373Y-46102037D01*
X53229558Y-46095518D01*
X53295740Y-46089000D01*
X53384260Y-46089000D01*
X53450442Y-46095518D01*
X53450442Y-46095518D01*
G37*
G36*
X50910442Y-46095518D02*
G01*
X50976627Y-46102037D01*
X51146466Y-46153557D01*
X51302991Y-46237222D01*
X51338729Y-46266552D01*
X51440186Y-46349814D01*
X51520369Y-46447519D01*
X51552778Y-46487009D01*
X51636443Y-46643534D01*
X51687963Y-46813373D01*
X51705359Y-46990000D01*
X51687963Y-47166627D01*
X51636443Y-47336466D01*
X51552778Y-47492991D01*
X51523448Y-47528729D01*
X51440186Y-47630186D01*
X51338729Y-47713448D01*
X51302991Y-47742778D01*
X51146466Y-47826443D01*
X50976627Y-47877963D01*
X50910443Y-47884481D01*
X50844260Y-47891000D01*
X50755740Y-47891000D01*
X50689557Y-47884481D01*
X50623373Y-47877963D01*
X50453534Y-47826443D01*
X50297009Y-47742778D01*
X50261271Y-47713448D01*
X50159814Y-47630186D01*
X50076552Y-47528729D01*
X50047222Y-47492991D01*
X49963557Y-47336466D01*
X49912037Y-47166627D01*
X49894641Y-46990000D01*
X49912037Y-46813373D01*
X49963557Y-46643534D01*
X50047222Y-46487009D01*
X50079631Y-46447519D01*
X50159814Y-46349814D01*
X50261271Y-46266552D01*
X50297009Y-46237222D01*
X50453534Y-46153557D01*
X50623373Y-46102037D01*
X50689558Y-46095518D01*
X50755740Y-46089000D01*
X50844260Y-46089000D01*
X50910442Y-46095518D01*
X50910442Y-46095518D01*
G37*
G36*
X48370442Y-46095518D02*
G01*
X48436627Y-46102037D01*
X48606466Y-46153557D01*
X48762991Y-46237222D01*
X48798729Y-46266552D01*
X48900186Y-46349814D01*
X48980369Y-46447519D01*
X49012778Y-46487009D01*
X49096443Y-46643534D01*
X49147963Y-46813373D01*
X49165359Y-46990000D01*
X49147963Y-47166627D01*
X49096443Y-47336466D01*
X49012778Y-47492991D01*
X48983448Y-47528729D01*
X48900186Y-47630186D01*
X48798729Y-47713448D01*
X48762991Y-47742778D01*
X48606466Y-47826443D01*
X48436627Y-47877963D01*
X48370443Y-47884481D01*
X48304260Y-47891000D01*
X48215740Y-47891000D01*
X48149557Y-47884481D01*
X48083373Y-47877963D01*
X47913534Y-47826443D01*
X47757009Y-47742778D01*
X47721271Y-47713448D01*
X47619814Y-47630186D01*
X47536552Y-47528729D01*
X47507222Y-47492991D01*
X47423557Y-47336466D01*
X47372037Y-47166627D01*
X47354641Y-46990000D01*
X47372037Y-46813373D01*
X47423557Y-46643534D01*
X47507222Y-46487009D01*
X47539631Y-46447519D01*
X47619814Y-46349814D01*
X47721271Y-46266552D01*
X47757009Y-46237222D01*
X47913534Y-46153557D01*
X48083373Y-46102037D01*
X48149558Y-46095518D01*
X48215740Y-46089000D01*
X48304260Y-46089000D01*
X48370442Y-46095518D01*
X48370442Y-46095518D01*
G37*
G36*
X46621000Y-47891000D02*
G01*
X44819000Y-47891000D01*
X44819000Y-46089000D01*
X46621000Y-46089000D01*
X46621000Y-47891000D01*
X46621000Y-47891000D01*
G37*
G36*
X43290442Y-46095518D02*
G01*
X43356627Y-46102037D01*
X43526466Y-46153557D01*
X43682991Y-46237222D01*
X43718729Y-46266552D01*
X43820186Y-46349814D01*
X43900369Y-46447519D01*
X43932778Y-46487009D01*
X44016443Y-46643534D01*
X44067963Y-46813373D01*
X44085359Y-46990000D01*
X44067963Y-47166627D01*
X44016443Y-47336466D01*
X43932778Y-47492991D01*
X43903448Y-47528729D01*
X43820186Y-47630186D01*
X43718729Y-47713448D01*
X43682991Y-47742778D01*
X43526466Y-47826443D01*
X43356627Y-47877963D01*
X43290443Y-47884481D01*
X43224260Y-47891000D01*
X43135740Y-47891000D01*
X43069557Y-47884481D01*
X43003373Y-47877963D01*
X42833534Y-47826443D01*
X42677009Y-47742778D01*
X42641271Y-47713448D01*
X42539814Y-47630186D01*
X42456552Y-47528729D01*
X42427222Y-47492991D01*
X42343557Y-47336466D01*
X42292037Y-47166627D01*
X42274641Y-46990000D01*
X42292037Y-46813373D01*
X42343557Y-46643534D01*
X42427222Y-46487009D01*
X42459631Y-46447519D01*
X42539814Y-46349814D01*
X42641271Y-46266552D01*
X42677009Y-46237222D01*
X42833534Y-46153557D01*
X43003373Y-46102037D01*
X43069558Y-46095518D01*
X43135740Y-46089000D01*
X43224260Y-46089000D01*
X43290442Y-46095518D01*
X43290442Y-46095518D01*
G37*
G36*
X40750442Y-46095518D02*
G01*
X40816627Y-46102037D01*
X40986466Y-46153557D01*
X41142991Y-46237222D01*
X41178729Y-46266552D01*
X41280186Y-46349814D01*
X41360369Y-46447519D01*
X41392778Y-46487009D01*
X41476443Y-46643534D01*
X41527963Y-46813373D01*
X41545359Y-46990000D01*
X41527963Y-47166627D01*
X41476443Y-47336466D01*
X41392778Y-47492991D01*
X41363448Y-47528729D01*
X41280186Y-47630186D01*
X41178729Y-47713448D01*
X41142991Y-47742778D01*
X40986466Y-47826443D01*
X40816627Y-47877963D01*
X40750443Y-47884481D01*
X40684260Y-47891000D01*
X40595740Y-47891000D01*
X40529557Y-47884481D01*
X40463373Y-47877963D01*
X40293534Y-47826443D01*
X40137009Y-47742778D01*
X40101271Y-47713448D01*
X39999814Y-47630186D01*
X39916552Y-47528729D01*
X39887222Y-47492991D01*
X39803557Y-47336466D01*
X39752037Y-47166627D01*
X39734641Y-46990000D01*
X39752037Y-46813373D01*
X39803557Y-46643534D01*
X39887222Y-46487009D01*
X39919631Y-46447519D01*
X39999814Y-46349814D01*
X40101271Y-46266552D01*
X40137009Y-46237222D01*
X40293534Y-46153557D01*
X40463373Y-46102037D01*
X40529558Y-46095518D01*
X40595740Y-46089000D01*
X40684260Y-46089000D01*
X40750442Y-46095518D01*
X40750442Y-46095518D01*
G37*
G36*
X38210442Y-46095518D02*
G01*
X38276627Y-46102037D01*
X38446466Y-46153557D01*
X38602991Y-46237222D01*
X38638729Y-46266552D01*
X38740186Y-46349814D01*
X38820369Y-46447519D01*
X38852778Y-46487009D01*
X38936443Y-46643534D01*
X38987963Y-46813373D01*
X39005359Y-46990000D01*
X38987963Y-47166627D01*
X38936443Y-47336466D01*
X38852778Y-47492991D01*
X38823448Y-47528729D01*
X38740186Y-47630186D01*
X38638729Y-47713448D01*
X38602991Y-47742778D01*
X38446466Y-47826443D01*
X38276627Y-47877963D01*
X38210443Y-47884481D01*
X38144260Y-47891000D01*
X38055740Y-47891000D01*
X37989557Y-47884481D01*
X37923373Y-47877963D01*
X37753534Y-47826443D01*
X37597009Y-47742778D01*
X37561271Y-47713448D01*
X37459814Y-47630186D01*
X37376552Y-47528729D01*
X37347222Y-47492991D01*
X37263557Y-47336466D01*
X37212037Y-47166627D01*
X37194641Y-46990000D01*
X37212037Y-46813373D01*
X37263557Y-46643534D01*
X37347222Y-46487009D01*
X37379631Y-46447519D01*
X37459814Y-46349814D01*
X37561271Y-46266552D01*
X37597009Y-46237222D01*
X37753534Y-46153557D01*
X37923373Y-46102037D01*
X37989558Y-46095518D01*
X38055740Y-46089000D01*
X38144260Y-46089000D01*
X38210442Y-46095518D01*
X38210442Y-46095518D01*
G37*
G36*
X36461000Y-47891000D02*
G01*
X34659000Y-47891000D01*
X34659000Y-46089000D01*
X36461000Y-46089000D01*
X36461000Y-47891000D01*
X36461000Y-47891000D01*
G37*
G36*
X110738228Y-46171703D02*
G01*
X110893100Y-46235853D01*
X111032481Y-46328985D01*
X111151015Y-46447519D01*
X111244147Y-46586900D01*
X111308297Y-46741772D01*
X111341000Y-46906184D01*
X111341000Y-47073816D01*
X111308297Y-47238228D01*
X111244147Y-47393100D01*
X111151015Y-47532481D01*
X111032481Y-47651015D01*
X110893100Y-47744147D01*
X110738228Y-47808297D01*
X110573816Y-47841000D01*
X110406184Y-47841000D01*
X110241772Y-47808297D01*
X110086900Y-47744147D01*
X109947519Y-47651015D01*
X109828985Y-47532481D01*
X109735853Y-47393100D01*
X109671703Y-47238228D01*
X109639000Y-47073816D01*
X109639000Y-46906184D01*
X109671703Y-46741772D01*
X109735853Y-46586900D01*
X109828985Y-46447519D01*
X109947519Y-46328985D01*
X110086900Y-46235853D01*
X110241772Y-46171703D01*
X110406184Y-46139000D01*
X110573816Y-46139000D01*
X110738228Y-46171703D01*
X110738228Y-46171703D01*
G37*
G36*
X103118228Y-46171703D02*
G01*
X103273100Y-46235853D01*
X103412481Y-46328985D01*
X103531015Y-46447519D01*
X103624147Y-46586900D01*
X103688297Y-46741772D01*
X103721000Y-46906184D01*
X103721000Y-47073816D01*
X103688297Y-47238228D01*
X103624147Y-47393100D01*
X103531015Y-47532481D01*
X103412481Y-47651015D01*
X103273100Y-47744147D01*
X103118228Y-47808297D01*
X102953816Y-47841000D01*
X102786184Y-47841000D01*
X102621772Y-47808297D01*
X102466900Y-47744147D01*
X102327519Y-47651015D01*
X102208985Y-47532481D01*
X102115853Y-47393100D01*
X102051703Y-47238228D01*
X102019000Y-47073816D01*
X102019000Y-46906184D01*
X102051703Y-46741772D01*
X102115853Y-46586900D01*
X102208985Y-46447519D01*
X102327519Y-46328985D01*
X102466900Y-46235853D01*
X102621772Y-46171703D01*
X102786184Y-46139000D01*
X102953816Y-46139000D01*
X103118228Y-46171703D01*
X103118228Y-46171703D01*
G37*
G36*
X80258228Y-46171703D02*
G01*
X80413100Y-46235853D01*
X80552481Y-46328985D01*
X80671015Y-46447519D01*
X80764147Y-46586900D01*
X80828297Y-46741772D01*
X80861000Y-46906184D01*
X80861000Y-47073816D01*
X80828297Y-47238228D01*
X80764147Y-47393100D01*
X80671015Y-47532481D01*
X80552481Y-47651015D01*
X80413100Y-47744147D01*
X80258228Y-47808297D01*
X80093816Y-47841000D01*
X79926184Y-47841000D01*
X79761772Y-47808297D01*
X79606900Y-47744147D01*
X79467519Y-47651015D01*
X79348985Y-47532481D01*
X79255853Y-47393100D01*
X79191703Y-47238228D01*
X79159000Y-47073816D01*
X79159000Y-46906184D01*
X79191703Y-46741772D01*
X79255853Y-46586900D01*
X79348985Y-46447519D01*
X79467519Y-46328985D01*
X79606900Y-46235853D01*
X79761772Y-46171703D01*
X79926184Y-46139000D01*
X80093816Y-46139000D01*
X80258228Y-46171703D01*
X80258228Y-46171703D01*
G37*
G36*
X95498228Y-46171703D02*
G01*
X95653100Y-46235853D01*
X95792481Y-46328985D01*
X95911015Y-46447519D01*
X96004147Y-46586900D01*
X96068297Y-46741772D01*
X96101000Y-46906184D01*
X96101000Y-47073816D01*
X96068297Y-47238228D01*
X96004147Y-47393100D01*
X95911015Y-47532481D01*
X95792481Y-47651015D01*
X95653100Y-47744147D01*
X95498228Y-47808297D01*
X95333816Y-47841000D01*
X95166184Y-47841000D01*
X95001772Y-47808297D01*
X94846900Y-47744147D01*
X94707519Y-47651015D01*
X94588985Y-47532481D01*
X94495853Y-47393100D01*
X94431703Y-47238228D01*
X94399000Y-47073816D01*
X94399000Y-46906184D01*
X94431703Y-46741772D01*
X94495853Y-46586900D01*
X94588985Y-46447519D01*
X94707519Y-46328985D01*
X94846900Y-46235853D01*
X95001772Y-46171703D01*
X95166184Y-46139000D01*
X95333816Y-46139000D01*
X95498228Y-46171703D01*
X95498228Y-46171703D01*
G37*
G36*
X87878228Y-46171703D02*
G01*
X88033100Y-46235853D01*
X88172481Y-46328985D01*
X88291015Y-46447519D01*
X88384147Y-46586900D01*
X88448297Y-46741772D01*
X88481000Y-46906184D01*
X88481000Y-47073816D01*
X88448297Y-47238228D01*
X88384147Y-47393100D01*
X88291015Y-47532481D01*
X88172481Y-47651015D01*
X88033100Y-47744147D01*
X87878228Y-47808297D01*
X87713816Y-47841000D01*
X87546184Y-47841000D01*
X87381772Y-47808297D01*
X87226900Y-47744147D01*
X87087519Y-47651015D01*
X86968985Y-47532481D01*
X86875853Y-47393100D01*
X86811703Y-47238228D01*
X86779000Y-47073816D01*
X86779000Y-46906184D01*
X86811703Y-46741772D01*
X86875853Y-46586900D01*
X86968985Y-46447519D01*
X87087519Y-46328985D01*
X87226900Y-46235853D01*
X87381772Y-46171703D01*
X87546184Y-46139000D01*
X87713816Y-46139000D01*
X87878228Y-46171703D01*
X87878228Y-46171703D01*
G37*
G36*
X72638228Y-46171703D02*
G01*
X72793100Y-46235853D01*
X72932481Y-46328985D01*
X73051015Y-46447519D01*
X73144147Y-46586900D01*
X73208297Y-46741772D01*
X73241000Y-46906184D01*
X73241000Y-47073816D01*
X73208297Y-47238228D01*
X73144147Y-47393100D01*
X73051015Y-47532481D01*
X72932481Y-47651015D01*
X72793100Y-47744147D01*
X72638228Y-47808297D01*
X72473816Y-47841000D01*
X72306184Y-47841000D01*
X72141772Y-47808297D01*
X71986900Y-47744147D01*
X71847519Y-47651015D01*
X71728985Y-47532481D01*
X71635853Y-47393100D01*
X71571703Y-47238228D01*
X71539000Y-47073816D01*
X71539000Y-46906184D01*
X71571703Y-46741772D01*
X71635853Y-46586900D01*
X71728985Y-46447519D01*
X71847519Y-46328985D01*
X71986900Y-46235853D01*
X72141772Y-46171703D01*
X72306184Y-46139000D01*
X72473816Y-46139000D01*
X72638228Y-46171703D01*
X72638228Y-46171703D01*
G37*
G36*
X65018228Y-46171703D02*
G01*
X65173100Y-46235853D01*
X65312481Y-46328985D01*
X65431015Y-46447519D01*
X65524147Y-46586900D01*
X65588297Y-46741772D01*
X65621000Y-46906184D01*
X65621000Y-47073816D01*
X65588297Y-47238228D01*
X65524147Y-47393100D01*
X65431015Y-47532481D01*
X65312481Y-47651015D01*
X65173100Y-47744147D01*
X65018228Y-47808297D01*
X64853816Y-47841000D01*
X64686184Y-47841000D01*
X64521772Y-47808297D01*
X64366900Y-47744147D01*
X64227519Y-47651015D01*
X64108985Y-47532481D01*
X64015853Y-47393100D01*
X63951703Y-47238228D01*
X63919000Y-47073816D01*
X63919000Y-46906184D01*
X63951703Y-46741772D01*
X64015853Y-46586900D01*
X64108985Y-46447519D01*
X64227519Y-46328985D01*
X64366900Y-46235853D01*
X64521772Y-46171703D01*
X64686184Y-46139000D01*
X64853816Y-46139000D01*
X65018228Y-46171703D01*
X65018228Y-46171703D01*
G37*
G36*
X57398228Y-46171703D02*
G01*
X57553100Y-46235853D01*
X57692481Y-46328985D01*
X57811015Y-46447519D01*
X57904147Y-46586900D01*
X57968297Y-46741772D01*
X58001000Y-46906184D01*
X58001000Y-47073816D01*
X57968297Y-47238228D01*
X57904147Y-47393100D01*
X57811015Y-47532481D01*
X57692481Y-47651015D01*
X57553100Y-47744147D01*
X57398228Y-47808297D01*
X57233816Y-47841000D01*
X57066184Y-47841000D01*
X56901772Y-47808297D01*
X56746900Y-47744147D01*
X56607519Y-47651015D01*
X56488985Y-47532481D01*
X56395853Y-47393100D01*
X56331703Y-47238228D01*
X56299000Y-47073816D01*
X56299000Y-46906184D01*
X56331703Y-46741772D01*
X56395853Y-46586900D01*
X56488985Y-46447519D01*
X56607519Y-46328985D01*
X56746900Y-46235853D01*
X56901772Y-46171703D01*
X57066184Y-46139000D01*
X57233816Y-46139000D01*
X57398228Y-46171703D01*
X57398228Y-46171703D01*
G37*
G36*
X58530442Y-41015518D02*
G01*
X58596627Y-41022037D01*
X58766466Y-41073557D01*
X58922991Y-41157222D01*
X58958729Y-41186552D01*
X59060186Y-41269814D01*
X59143448Y-41371271D01*
X59172778Y-41407009D01*
X59256443Y-41563534D01*
X59307963Y-41733373D01*
X59325359Y-41910000D01*
X59307963Y-42086627D01*
X59256443Y-42256466D01*
X59172778Y-42412991D01*
X59143448Y-42448729D01*
X59060186Y-42550186D01*
X58958729Y-42633448D01*
X58922991Y-42662778D01*
X58766466Y-42746443D01*
X58596627Y-42797963D01*
X58530443Y-42804481D01*
X58464260Y-42811000D01*
X58375740Y-42811000D01*
X58309557Y-42804481D01*
X58243373Y-42797963D01*
X58073534Y-42746443D01*
X57917009Y-42662778D01*
X57881271Y-42633448D01*
X57779814Y-42550186D01*
X57696552Y-42448729D01*
X57667222Y-42412991D01*
X57583557Y-42256466D01*
X57532037Y-42086627D01*
X57514641Y-41910000D01*
X57532037Y-41733373D01*
X57583557Y-41563534D01*
X57667222Y-41407009D01*
X57696552Y-41371271D01*
X57779814Y-41269814D01*
X57881271Y-41186552D01*
X57917009Y-41157222D01*
X58073534Y-41073557D01*
X58243373Y-41022037D01*
X58309558Y-41015518D01*
X58375740Y-41009000D01*
X58464260Y-41009000D01*
X58530442Y-41015518D01*
X58530442Y-41015518D01*
G37*
G36*
X61070442Y-41015518D02*
G01*
X61136627Y-41022037D01*
X61306466Y-41073557D01*
X61462991Y-41157222D01*
X61498729Y-41186552D01*
X61600186Y-41269814D01*
X61683448Y-41371271D01*
X61712778Y-41407009D01*
X61796443Y-41563534D01*
X61847963Y-41733373D01*
X61865359Y-41910000D01*
X61847963Y-42086627D01*
X61796443Y-42256466D01*
X61712778Y-42412991D01*
X61683448Y-42448729D01*
X61600186Y-42550186D01*
X61498729Y-42633448D01*
X61462991Y-42662778D01*
X61306466Y-42746443D01*
X61136627Y-42797963D01*
X61070443Y-42804481D01*
X61004260Y-42811000D01*
X60915740Y-42811000D01*
X60849557Y-42804481D01*
X60783373Y-42797963D01*
X60613534Y-42746443D01*
X60457009Y-42662778D01*
X60421271Y-42633448D01*
X60319814Y-42550186D01*
X60236552Y-42448729D01*
X60207222Y-42412991D01*
X60123557Y-42256466D01*
X60072037Y-42086627D01*
X60054641Y-41910000D01*
X60072037Y-41733373D01*
X60123557Y-41563534D01*
X60207222Y-41407009D01*
X60236552Y-41371271D01*
X60319814Y-41269814D01*
X60421271Y-41186552D01*
X60457009Y-41157222D01*
X60613534Y-41073557D01*
X60783373Y-41022037D01*
X60849558Y-41015518D01*
X60915740Y-41009000D01*
X61004260Y-41009000D01*
X61070442Y-41015518D01*
X61070442Y-41015518D01*
G37*
G36*
X63610442Y-41015518D02*
G01*
X63676627Y-41022037D01*
X63846466Y-41073557D01*
X64002991Y-41157222D01*
X64038729Y-41186552D01*
X64140186Y-41269814D01*
X64223448Y-41371271D01*
X64252778Y-41407009D01*
X64336443Y-41563534D01*
X64387963Y-41733373D01*
X64405359Y-41910000D01*
X64387963Y-42086627D01*
X64336443Y-42256466D01*
X64252778Y-42412991D01*
X64223448Y-42448729D01*
X64140186Y-42550186D01*
X64038729Y-42633448D01*
X64002991Y-42662778D01*
X63846466Y-42746443D01*
X63676627Y-42797963D01*
X63610443Y-42804481D01*
X63544260Y-42811000D01*
X63455740Y-42811000D01*
X63389557Y-42804481D01*
X63323373Y-42797963D01*
X63153534Y-42746443D01*
X62997009Y-42662778D01*
X62961271Y-42633448D01*
X62859814Y-42550186D01*
X62776552Y-42448729D01*
X62747222Y-42412991D01*
X62663557Y-42256466D01*
X62612037Y-42086627D01*
X62594641Y-41910000D01*
X62612037Y-41733373D01*
X62663557Y-41563534D01*
X62747222Y-41407009D01*
X62776552Y-41371271D01*
X62859814Y-41269814D01*
X62961271Y-41186552D01*
X62997009Y-41157222D01*
X63153534Y-41073557D01*
X63323373Y-41022037D01*
X63389558Y-41015518D01*
X63455740Y-41009000D01*
X63544260Y-41009000D01*
X63610442Y-41015518D01*
X63610442Y-41015518D01*
G37*
G36*
X66150442Y-41015518D02*
G01*
X66216627Y-41022037D01*
X66386466Y-41073557D01*
X66542991Y-41157222D01*
X66578729Y-41186552D01*
X66680186Y-41269814D01*
X66763448Y-41371271D01*
X66792778Y-41407009D01*
X66876443Y-41563534D01*
X66927963Y-41733373D01*
X66945359Y-41910000D01*
X66927963Y-42086627D01*
X66876443Y-42256466D01*
X66792778Y-42412991D01*
X66763448Y-42448729D01*
X66680186Y-42550186D01*
X66578729Y-42633448D01*
X66542991Y-42662778D01*
X66386466Y-42746443D01*
X66216627Y-42797963D01*
X66150443Y-42804481D01*
X66084260Y-42811000D01*
X65995740Y-42811000D01*
X65929557Y-42804481D01*
X65863373Y-42797963D01*
X65693534Y-42746443D01*
X65537009Y-42662778D01*
X65501271Y-42633448D01*
X65399814Y-42550186D01*
X65316552Y-42448729D01*
X65287222Y-42412991D01*
X65203557Y-42256466D01*
X65152037Y-42086627D01*
X65134641Y-41910000D01*
X65152037Y-41733373D01*
X65203557Y-41563534D01*
X65287222Y-41407009D01*
X65316552Y-41371271D01*
X65399814Y-41269814D01*
X65501271Y-41186552D01*
X65537009Y-41157222D01*
X65693534Y-41073557D01*
X65863373Y-41022037D01*
X65929558Y-41015518D01*
X65995740Y-41009000D01*
X66084260Y-41009000D01*
X66150442Y-41015518D01*
X66150442Y-41015518D01*
G37*
G36*
X120281000Y-42811000D02*
G01*
X118479000Y-42811000D01*
X118479000Y-41009000D01*
X120281000Y-41009000D01*
X120281000Y-42811000D01*
X120281000Y-42811000D01*
G37*
G36*
X122030442Y-41015518D02*
G01*
X122096627Y-41022037D01*
X122266466Y-41073557D01*
X122422991Y-41157222D01*
X122458729Y-41186552D01*
X122560186Y-41269814D01*
X122643448Y-41371271D01*
X122672778Y-41407009D01*
X122756443Y-41563534D01*
X122807963Y-41733373D01*
X122825359Y-41910000D01*
X122807963Y-42086627D01*
X122756443Y-42256466D01*
X122672778Y-42412991D01*
X122643448Y-42448729D01*
X122560186Y-42550186D01*
X122458729Y-42633448D01*
X122422991Y-42662778D01*
X122266466Y-42746443D01*
X122096627Y-42797963D01*
X122030442Y-42804482D01*
X121964260Y-42811000D01*
X121875740Y-42811000D01*
X121809557Y-42804481D01*
X121743373Y-42797963D01*
X121573534Y-42746443D01*
X121417009Y-42662778D01*
X121381271Y-42633448D01*
X121279814Y-42550186D01*
X121196552Y-42448729D01*
X121167222Y-42412991D01*
X121083557Y-42256466D01*
X121032037Y-42086627D01*
X121014641Y-41910000D01*
X121032037Y-41733373D01*
X121083557Y-41563534D01*
X121167222Y-41407009D01*
X121196552Y-41371271D01*
X121279814Y-41269814D01*
X121381271Y-41186552D01*
X121417009Y-41157222D01*
X121573534Y-41073557D01*
X121743373Y-41022037D01*
X121809558Y-41015518D01*
X121875740Y-41009000D01*
X121964260Y-41009000D01*
X122030442Y-41015518D01*
X122030442Y-41015518D01*
G37*
G36*
X124570442Y-41015518D02*
G01*
X124636627Y-41022037D01*
X124806466Y-41073557D01*
X124962991Y-41157222D01*
X124998729Y-41186552D01*
X125100186Y-41269814D01*
X125183448Y-41371271D01*
X125212778Y-41407009D01*
X125296443Y-41563534D01*
X125347963Y-41733373D01*
X125365359Y-41910000D01*
X125347963Y-42086627D01*
X125296443Y-42256466D01*
X125212778Y-42412991D01*
X125183448Y-42448729D01*
X125100186Y-42550186D01*
X124998729Y-42633448D01*
X124962991Y-42662778D01*
X124806466Y-42746443D01*
X124636627Y-42797963D01*
X124570442Y-42804482D01*
X124504260Y-42811000D01*
X124415740Y-42811000D01*
X124349557Y-42804481D01*
X124283373Y-42797963D01*
X124113534Y-42746443D01*
X123957009Y-42662778D01*
X123921271Y-42633448D01*
X123819814Y-42550186D01*
X123736552Y-42448729D01*
X123707222Y-42412991D01*
X123623557Y-42256466D01*
X123572037Y-42086627D01*
X123554641Y-41910000D01*
X123572037Y-41733373D01*
X123623557Y-41563534D01*
X123707222Y-41407009D01*
X123736552Y-41371271D01*
X123819814Y-41269814D01*
X123921271Y-41186552D01*
X123957009Y-41157222D01*
X124113534Y-41073557D01*
X124283373Y-41022037D01*
X124349558Y-41015518D01*
X124415740Y-41009000D01*
X124504260Y-41009000D01*
X124570442Y-41015518D01*
X124570442Y-41015518D01*
G37*
G36*
X127110442Y-41015518D02*
G01*
X127176627Y-41022037D01*
X127346466Y-41073557D01*
X127502991Y-41157222D01*
X127538729Y-41186552D01*
X127640186Y-41269814D01*
X127723448Y-41371271D01*
X127752778Y-41407009D01*
X127836443Y-41563534D01*
X127887963Y-41733373D01*
X127905359Y-41910000D01*
X127887963Y-42086627D01*
X127836443Y-42256466D01*
X127752778Y-42412991D01*
X127723448Y-42448729D01*
X127640186Y-42550186D01*
X127538729Y-42633448D01*
X127502991Y-42662778D01*
X127346466Y-42746443D01*
X127176627Y-42797963D01*
X127110442Y-42804482D01*
X127044260Y-42811000D01*
X126955740Y-42811000D01*
X126889557Y-42804481D01*
X126823373Y-42797963D01*
X126653534Y-42746443D01*
X126497009Y-42662778D01*
X126461271Y-42633448D01*
X126359814Y-42550186D01*
X126276552Y-42448729D01*
X126247222Y-42412991D01*
X126163557Y-42256466D01*
X126112037Y-42086627D01*
X126094641Y-41910000D01*
X126112037Y-41733373D01*
X126163557Y-41563534D01*
X126247222Y-41407009D01*
X126276552Y-41371271D01*
X126359814Y-41269814D01*
X126461271Y-41186552D01*
X126497009Y-41157222D01*
X126653534Y-41073557D01*
X126823373Y-41022037D01*
X126889558Y-41015518D01*
X126955740Y-41009000D01*
X127044260Y-41009000D01*
X127110442Y-41015518D01*
X127110442Y-41015518D01*
G37*
G36*
X81390442Y-41015518D02*
G01*
X81456627Y-41022037D01*
X81626466Y-41073557D01*
X81782991Y-41157222D01*
X81818729Y-41186552D01*
X81920186Y-41269814D01*
X82003448Y-41371271D01*
X82032778Y-41407009D01*
X82116443Y-41563534D01*
X82167963Y-41733373D01*
X82185359Y-41910000D01*
X82167963Y-42086627D01*
X82116443Y-42256466D01*
X82032778Y-42412991D01*
X82003448Y-42448729D01*
X81920186Y-42550186D01*
X81818729Y-42633448D01*
X81782991Y-42662778D01*
X81626466Y-42746443D01*
X81456627Y-42797963D01*
X81390443Y-42804481D01*
X81324260Y-42811000D01*
X81235740Y-42811000D01*
X81169557Y-42804481D01*
X81103373Y-42797963D01*
X80933534Y-42746443D01*
X80777009Y-42662778D01*
X80741271Y-42633448D01*
X80639814Y-42550186D01*
X80556552Y-42448729D01*
X80527222Y-42412991D01*
X80443557Y-42256466D01*
X80392037Y-42086627D01*
X80374641Y-41910000D01*
X80392037Y-41733373D01*
X80443557Y-41563534D01*
X80527222Y-41407009D01*
X80556552Y-41371271D01*
X80639814Y-41269814D01*
X80741271Y-41186552D01*
X80777009Y-41157222D01*
X80933534Y-41073557D01*
X81103373Y-41022037D01*
X81169558Y-41015518D01*
X81235740Y-41009000D01*
X81324260Y-41009000D01*
X81390442Y-41015518D01*
X81390442Y-41015518D01*
G37*
G36*
X78850442Y-41015518D02*
G01*
X78916627Y-41022037D01*
X79086466Y-41073557D01*
X79242991Y-41157222D01*
X79278729Y-41186552D01*
X79380186Y-41269814D01*
X79463448Y-41371271D01*
X79492778Y-41407009D01*
X79576443Y-41563534D01*
X79627963Y-41733373D01*
X79645359Y-41910000D01*
X79627963Y-42086627D01*
X79576443Y-42256466D01*
X79492778Y-42412991D01*
X79463448Y-42448729D01*
X79380186Y-42550186D01*
X79278729Y-42633448D01*
X79242991Y-42662778D01*
X79086466Y-42746443D01*
X78916627Y-42797963D01*
X78850443Y-42804481D01*
X78784260Y-42811000D01*
X78695740Y-42811000D01*
X78629557Y-42804481D01*
X78563373Y-42797963D01*
X78393534Y-42746443D01*
X78237009Y-42662778D01*
X78201271Y-42633448D01*
X78099814Y-42550186D01*
X78016552Y-42448729D01*
X77987222Y-42412991D01*
X77903557Y-42256466D01*
X77852037Y-42086627D01*
X77834641Y-41910000D01*
X77852037Y-41733373D01*
X77903557Y-41563534D01*
X77987222Y-41407009D01*
X78016552Y-41371271D01*
X78099814Y-41269814D01*
X78201271Y-41186552D01*
X78237009Y-41157222D01*
X78393534Y-41073557D01*
X78563373Y-41022037D01*
X78629558Y-41015518D01*
X78695740Y-41009000D01*
X78784260Y-41009000D01*
X78850442Y-41015518D01*
X78850442Y-41015518D01*
G37*
G36*
X96630442Y-41015518D02*
G01*
X96696627Y-41022037D01*
X96866466Y-41073557D01*
X97022991Y-41157222D01*
X97058729Y-41186552D01*
X97160186Y-41269814D01*
X97243448Y-41371271D01*
X97272778Y-41407009D01*
X97356443Y-41563534D01*
X97407963Y-41733373D01*
X97425359Y-41910000D01*
X97407963Y-42086627D01*
X97356443Y-42256466D01*
X97272778Y-42412991D01*
X97243448Y-42448729D01*
X97160186Y-42550186D01*
X97058729Y-42633448D01*
X97022991Y-42662778D01*
X96866466Y-42746443D01*
X96696627Y-42797963D01*
X96630443Y-42804481D01*
X96564260Y-42811000D01*
X96475740Y-42811000D01*
X96409557Y-42804481D01*
X96343373Y-42797963D01*
X96173534Y-42746443D01*
X96017009Y-42662778D01*
X95981271Y-42633448D01*
X95879814Y-42550186D01*
X95796552Y-42448729D01*
X95767222Y-42412991D01*
X95683557Y-42256466D01*
X95632037Y-42086627D01*
X95614641Y-41910000D01*
X95632037Y-41733373D01*
X95683557Y-41563534D01*
X95767222Y-41407009D01*
X95796552Y-41371271D01*
X95879814Y-41269814D01*
X95981271Y-41186552D01*
X96017009Y-41157222D01*
X96173534Y-41073557D01*
X96343373Y-41022037D01*
X96409558Y-41015518D01*
X96475740Y-41009000D01*
X96564260Y-41009000D01*
X96630442Y-41015518D01*
X96630442Y-41015518D01*
G37*
G36*
X94090442Y-41015518D02*
G01*
X94156627Y-41022037D01*
X94326466Y-41073557D01*
X94482991Y-41157222D01*
X94518729Y-41186552D01*
X94620186Y-41269814D01*
X94703448Y-41371271D01*
X94732778Y-41407009D01*
X94816443Y-41563534D01*
X94867963Y-41733373D01*
X94885359Y-41910000D01*
X94867963Y-42086627D01*
X94816443Y-42256466D01*
X94732778Y-42412991D01*
X94703448Y-42448729D01*
X94620186Y-42550186D01*
X94518729Y-42633448D01*
X94482991Y-42662778D01*
X94326466Y-42746443D01*
X94156627Y-42797963D01*
X94090443Y-42804481D01*
X94024260Y-42811000D01*
X93935740Y-42811000D01*
X93869557Y-42804481D01*
X93803373Y-42797963D01*
X93633534Y-42746443D01*
X93477009Y-42662778D01*
X93441271Y-42633448D01*
X93339814Y-42550186D01*
X93256552Y-42448729D01*
X93227222Y-42412991D01*
X93143557Y-42256466D01*
X93092037Y-42086627D01*
X93074641Y-41910000D01*
X93092037Y-41733373D01*
X93143557Y-41563534D01*
X93227222Y-41407009D01*
X93256552Y-41371271D01*
X93339814Y-41269814D01*
X93441271Y-41186552D01*
X93477009Y-41157222D01*
X93633534Y-41073557D01*
X93803373Y-41022037D01*
X93869558Y-41015518D01*
X93935740Y-41009000D01*
X94024260Y-41009000D01*
X94090442Y-41015518D01*
X94090442Y-41015518D01*
G37*
G36*
X56781000Y-42811000D02*
G01*
X54979000Y-42811000D01*
X54979000Y-41009000D01*
X56781000Y-41009000D01*
X56781000Y-42811000D01*
X56781000Y-42811000D01*
G37*
G36*
X72021000Y-42811000D02*
G01*
X70219000Y-42811000D01*
X70219000Y-41009000D01*
X72021000Y-41009000D01*
X72021000Y-42811000D01*
X72021000Y-42811000D01*
G37*
G36*
X73770442Y-41015518D02*
G01*
X73836627Y-41022037D01*
X74006466Y-41073557D01*
X74162991Y-41157222D01*
X74198729Y-41186552D01*
X74300186Y-41269814D01*
X74383448Y-41371271D01*
X74412778Y-41407009D01*
X74496443Y-41563534D01*
X74547963Y-41733373D01*
X74565359Y-41910000D01*
X74547963Y-42086627D01*
X74496443Y-42256466D01*
X74412778Y-42412991D01*
X74383448Y-42448729D01*
X74300186Y-42550186D01*
X74198729Y-42633448D01*
X74162991Y-42662778D01*
X74006466Y-42746443D01*
X73836627Y-42797963D01*
X73770443Y-42804481D01*
X73704260Y-42811000D01*
X73615740Y-42811000D01*
X73549557Y-42804481D01*
X73483373Y-42797963D01*
X73313534Y-42746443D01*
X73157009Y-42662778D01*
X73121271Y-42633448D01*
X73019814Y-42550186D01*
X72936552Y-42448729D01*
X72907222Y-42412991D01*
X72823557Y-42256466D01*
X72772037Y-42086627D01*
X72754641Y-41910000D01*
X72772037Y-41733373D01*
X72823557Y-41563534D01*
X72907222Y-41407009D01*
X72936552Y-41371271D01*
X73019814Y-41269814D01*
X73121271Y-41186552D01*
X73157009Y-41157222D01*
X73313534Y-41073557D01*
X73483373Y-41022037D01*
X73549558Y-41015518D01*
X73615740Y-41009000D01*
X73704260Y-41009000D01*
X73770442Y-41015518D01*
X73770442Y-41015518D01*
G37*
G36*
X76310442Y-41015518D02*
G01*
X76376627Y-41022037D01*
X76546466Y-41073557D01*
X76702991Y-41157222D01*
X76738729Y-41186552D01*
X76840186Y-41269814D01*
X76923448Y-41371271D01*
X76952778Y-41407009D01*
X77036443Y-41563534D01*
X77087963Y-41733373D01*
X77105359Y-41910000D01*
X77087963Y-42086627D01*
X77036443Y-42256466D01*
X76952778Y-42412991D01*
X76923448Y-42448729D01*
X76840186Y-42550186D01*
X76738729Y-42633448D01*
X76702991Y-42662778D01*
X76546466Y-42746443D01*
X76376627Y-42797963D01*
X76310443Y-42804481D01*
X76244260Y-42811000D01*
X76155740Y-42811000D01*
X76089557Y-42804481D01*
X76023373Y-42797963D01*
X75853534Y-42746443D01*
X75697009Y-42662778D01*
X75661271Y-42633448D01*
X75559814Y-42550186D01*
X75476552Y-42448729D01*
X75447222Y-42412991D01*
X75363557Y-42256466D01*
X75312037Y-42086627D01*
X75294641Y-41910000D01*
X75312037Y-41733373D01*
X75363557Y-41563534D01*
X75447222Y-41407009D01*
X75476552Y-41371271D01*
X75559814Y-41269814D01*
X75661271Y-41186552D01*
X75697009Y-41157222D01*
X75853534Y-41073557D01*
X76023373Y-41022037D01*
X76089558Y-41015518D01*
X76155740Y-41009000D01*
X76244260Y-41009000D01*
X76310442Y-41015518D01*
X76310442Y-41015518D01*
G37*
G36*
X87261000Y-42811000D02*
G01*
X85459000Y-42811000D01*
X85459000Y-41009000D01*
X87261000Y-41009000D01*
X87261000Y-42811000D01*
X87261000Y-42811000D01*
G37*
G36*
X89010442Y-41015518D02*
G01*
X89076627Y-41022037D01*
X89246466Y-41073557D01*
X89402991Y-41157222D01*
X89438729Y-41186552D01*
X89540186Y-41269814D01*
X89623448Y-41371271D01*
X89652778Y-41407009D01*
X89736443Y-41563534D01*
X89787963Y-41733373D01*
X89805359Y-41910000D01*
X89787963Y-42086627D01*
X89736443Y-42256466D01*
X89652778Y-42412991D01*
X89623448Y-42448729D01*
X89540186Y-42550186D01*
X89438729Y-42633448D01*
X89402991Y-42662778D01*
X89246466Y-42746443D01*
X89076627Y-42797963D01*
X89010443Y-42804481D01*
X88944260Y-42811000D01*
X88855740Y-42811000D01*
X88789557Y-42804481D01*
X88723373Y-42797963D01*
X88553534Y-42746443D01*
X88397009Y-42662778D01*
X88361271Y-42633448D01*
X88259814Y-42550186D01*
X88176552Y-42448729D01*
X88147222Y-42412991D01*
X88063557Y-42256466D01*
X88012037Y-42086627D01*
X87994641Y-41910000D01*
X88012037Y-41733373D01*
X88063557Y-41563534D01*
X88147222Y-41407009D01*
X88176552Y-41371271D01*
X88259814Y-41269814D01*
X88361271Y-41186552D01*
X88397009Y-41157222D01*
X88553534Y-41073557D01*
X88723373Y-41022037D01*
X88789558Y-41015518D01*
X88855740Y-41009000D01*
X88944260Y-41009000D01*
X89010442Y-41015518D01*
X89010442Y-41015518D01*
G37*
G36*
X91550442Y-41015518D02*
G01*
X91616627Y-41022037D01*
X91786466Y-41073557D01*
X91942991Y-41157222D01*
X91978729Y-41186552D01*
X92080186Y-41269814D01*
X92163448Y-41371271D01*
X92192778Y-41407009D01*
X92276443Y-41563534D01*
X92327963Y-41733373D01*
X92345359Y-41910000D01*
X92327963Y-42086627D01*
X92276443Y-42256466D01*
X92192778Y-42412991D01*
X92163448Y-42448729D01*
X92080186Y-42550186D01*
X91978729Y-42633448D01*
X91942991Y-42662778D01*
X91786466Y-42746443D01*
X91616627Y-42797963D01*
X91550443Y-42804481D01*
X91484260Y-42811000D01*
X91395740Y-42811000D01*
X91329557Y-42804481D01*
X91263373Y-42797963D01*
X91093534Y-42746443D01*
X90937009Y-42662778D01*
X90901271Y-42633448D01*
X90799814Y-42550186D01*
X90716552Y-42448729D01*
X90687222Y-42412991D01*
X90603557Y-42256466D01*
X90552037Y-42086627D01*
X90534641Y-41910000D01*
X90552037Y-41733373D01*
X90603557Y-41563534D01*
X90687222Y-41407009D01*
X90716552Y-41371271D01*
X90799814Y-41269814D01*
X90901271Y-41186552D01*
X90937009Y-41157222D01*
X91093534Y-41073557D01*
X91263373Y-41022037D01*
X91329558Y-41015518D01*
X91395740Y-41009000D01*
X91484260Y-41009000D01*
X91550442Y-41015518D01*
X91550442Y-41015518D01*
G37*
G36*
X102501000Y-42811000D02*
G01*
X100699000Y-42811000D01*
X100699000Y-41009000D01*
X102501000Y-41009000D01*
X102501000Y-42811000D01*
X102501000Y-42811000D01*
G37*
G36*
X104250442Y-41015518D02*
G01*
X104316627Y-41022037D01*
X104486466Y-41073557D01*
X104642991Y-41157222D01*
X104678729Y-41186552D01*
X104780186Y-41269814D01*
X104863448Y-41371271D01*
X104892778Y-41407009D01*
X104976443Y-41563534D01*
X105027963Y-41733373D01*
X105045359Y-41910000D01*
X105027963Y-42086627D01*
X104976443Y-42256466D01*
X104892778Y-42412991D01*
X104863448Y-42448729D01*
X104780186Y-42550186D01*
X104678729Y-42633448D01*
X104642991Y-42662778D01*
X104486466Y-42746443D01*
X104316627Y-42797963D01*
X104250442Y-42804482D01*
X104184260Y-42811000D01*
X104095740Y-42811000D01*
X104029557Y-42804481D01*
X103963373Y-42797963D01*
X103793534Y-42746443D01*
X103637009Y-42662778D01*
X103601271Y-42633448D01*
X103499814Y-42550186D01*
X103416552Y-42448729D01*
X103387222Y-42412991D01*
X103303557Y-42256466D01*
X103252037Y-42086627D01*
X103234641Y-41910000D01*
X103252037Y-41733373D01*
X103303557Y-41563534D01*
X103387222Y-41407009D01*
X103416552Y-41371271D01*
X103499814Y-41269814D01*
X103601271Y-41186552D01*
X103637009Y-41157222D01*
X103793534Y-41073557D01*
X103963373Y-41022037D01*
X104029558Y-41015518D01*
X104095740Y-41009000D01*
X104184260Y-41009000D01*
X104250442Y-41015518D01*
X104250442Y-41015518D01*
G37*
G36*
X106790442Y-41015518D02*
G01*
X106856627Y-41022037D01*
X107026466Y-41073557D01*
X107182991Y-41157222D01*
X107218729Y-41186552D01*
X107320186Y-41269814D01*
X107403448Y-41371271D01*
X107432778Y-41407009D01*
X107516443Y-41563534D01*
X107567963Y-41733373D01*
X107585359Y-41910000D01*
X107567963Y-42086627D01*
X107516443Y-42256466D01*
X107432778Y-42412991D01*
X107403448Y-42448729D01*
X107320186Y-42550186D01*
X107218729Y-42633448D01*
X107182991Y-42662778D01*
X107026466Y-42746443D01*
X106856627Y-42797963D01*
X106790442Y-42804482D01*
X106724260Y-42811000D01*
X106635740Y-42811000D01*
X106569557Y-42804481D01*
X106503373Y-42797963D01*
X106333534Y-42746443D01*
X106177009Y-42662778D01*
X106141271Y-42633448D01*
X106039814Y-42550186D01*
X105956552Y-42448729D01*
X105927222Y-42412991D01*
X105843557Y-42256466D01*
X105792037Y-42086627D01*
X105774641Y-41910000D01*
X105792037Y-41733373D01*
X105843557Y-41563534D01*
X105927222Y-41407009D01*
X105956552Y-41371271D01*
X106039814Y-41269814D01*
X106141271Y-41186552D01*
X106177009Y-41157222D01*
X106333534Y-41073557D01*
X106503373Y-41022037D01*
X106569558Y-41015518D01*
X106635740Y-41009000D01*
X106724260Y-41009000D01*
X106790442Y-41015518D01*
X106790442Y-41015518D01*
G37*
G36*
X109330442Y-41015518D02*
G01*
X109396627Y-41022037D01*
X109566466Y-41073557D01*
X109722991Y-41157222D01*
X109758729Y-41186552D01*
X109860186Y-41269814D01*
X109943448Y-41371271D01*
X109972778Y-41407009D01*
X110056443Y-41563534D01*
X110107963Y-41733373D01*
X110125359Y-41910000D01*
X110107963Y-42086627D01*
X110056443Y-42256466D01*
X109972778Y-42412991D01*
X109943448Y-42448729D01*
X109860186Y-42550186D01*
X109758729Y-42633448D01*
X109722991Y-42662778D01*
X109566466Y-42746443D01*
X109396627Y-42797963D01*
X109330442Y-42804482D01*
X109264260Y-42811000D01*
X109175740Y-42811000D01*
X109109557Y-42804481D01*
X109043373Y-42797963D01*
X108873534Y-42746443D01*
X108717009Y-42662778D01*
X108681271Y-42633448D01*
X108579814Y-42550186D01*
X108496552Y-42448729D01*
X108467222Y-42412991D01*
X108383557Y-42256466D01*
X108332037Y-42086627D01*
X108314641Y-41910000D01*
X108332037Y-41733373D01*
X108383557Y-41563534D01*
X108467222Y-41407009D01*
X108496552Y-41371271D01*
X108579814Y-41269814D01*
X108681271Y-41186552D01*
X108717009Y-41157222D01*
X108873534Y-41073557D01*
X109043373Y-41022037D01*
X109109558Y-41015518D01*
X109175740Y-41009000D01*
X109264260Y-41009000D01*
X109330442Y-41015518D01*
X109330442Y-41015518D01*
G37*
G36*
X111870442Y-41015518D02*
G01*
X111936627Y-41022037D01*
X112106466Y-41073557D01*
X112262991Y-41157222D01*
X112298729Y-41186552D01*
X112400186Y-41269814D01*
X112483448Y-41371271D01*
X112512778Y-41407009D01*
X112596443Y-41563534D01*
X112647963Y-41733373D01*
X112665359Y-41910000D01*
X112647963Y-42086627D01*
X112596443Y-42256466D01*
X112512778Y-42412991D01*
X112483448Y-42448729D01*
X112400186Y-42550186D01*
X112298729Y-42633448D01*
X112262991Y-42662778D01*
X112106466Y-42746443D01*
X111936627Y-42797963D01*
X111870442Y-42804482D01*
X111804260Y-42811000D01*
X111715740Y-42811000D01*
X111649557Y-42804481D01*
X111583373Y-42797963D01*
X111413534Y-42746443D01*
X111257009Y-42662778D01*
X111221271Y-42633448D01*
X111119814Y-42550186D01*
X111036552Y-42448729D01*
X111007222Y-42412991D01*
X110923557Y-42256466D01*
X110872037Y-42086627D01*
X110854641Y-41910000D01*
X110872037Y-41733373D01*
X110923557Y-41563534D01*
X111007222Y-41407009D01*
X111036552Y-41371271D01*
X111119814Y-41269814D01*
X111221271Y-41186552D01*
X111257009Y-41157222D01*
X111413534Y-41073557D01*
X111583373Y-41022037D01*
X111649558Y-41015518D01*
X111715740Y-41009000D01*
X111804260Y-41009000D01*
X111870442Y-41015518D01*
X111870442Y-41015518D01*
G37*
G36*
X38015731Y-36469811D02*
G01*
X38343492Y-36605574D01*
X38638470Y-36802672D01*
X38889328Y-37053530D01*
X39086426Y-37348508D01*
X39222189Y-37676269D01*
X39291400Y-38024216D01*
X39291400Y-38378984D01*
X39222189Y-38726931D01*
X39086426Y-39054692D01*
X38889328Y-39349670D01*
X38638470Y-39600528D01*
X38343492Y-39797626D01*
X38015731Y-39933389D01*
X37667784Y-40002600D01*
X37313016Y-40002600D01*
X36965069Y-39933389D01*
X36637308Y-39797626D01*
X36342330Y-39600528D01*
X36091472Y-39349670D01*
X35894374Y-39054692D01*
X35758611Y-38726931D01*
X35689400Y-38378984D01*
X35689400Y-38024216D01*
X35758611Y-37676269D01*
X35894374Y-37348508D01*
X36091472Y-37053530D01*
X36342330Y-36802672D01*
X36637308Y-36605574D01*
X36965069Y-36469811D01*
X37313016Y-36400600D01*
X37667784Y-36400600D01*
X38015731Y-36469811D01*
X38015731Y-36469811D01*
G37*
G36*
X130573331Y-36368211D02*
G01*
X130901092Y-36503974D01*
X131196070Y-36701072D01*
X131446928Y-36951930D01*
X131644026Y-37246908D01*
X131779789Y-37574669D01*
X131849000Y-37922616D01*
X131849000Y-38277384D01*
X131779789Y-38625331D01*
X131644026Y-38953092D01*
X131446928Y-39248070D01*
X131196070Y-39498928D01*
X130901092Y-39696026D01*
X130573331Y-39831789D01*
X130225384Y-39901000D01*
X129870616Y-39901000D01*
X129522669Y-39831789D01*
X129194908Y-39696026D01*
X128899930Y-39498928D01*
X128649072Y-39248070D01*
X128451974Y-38953092D01*
X128316211Y-38625331D01*
X128247000Y-38277384D01*
X128247000Y-37922616D01*
X128316211Y-37574669D01*
X128451974Y-37246908D01*
X128649072Y-36951930D01*
X128899930Y-36701072D01*
X129194908Y-36503974D01*
X129522669Y-36368211D01*
X129870616Y-36299000D01*
X130225384Y-36299000D01*
X130573331Y-36368211D01*
X130573331Y-36368211D01*
G37*
M02*
