M48
INCH,TZ
T1C0.0157
T2C0.0315
T3C0.0354
T4C0.0394
%
G90
G05
T1
X23350Y-18650
X23600Y-20550
X24000Y-18650
X24000Y-20250
X24350Y-20600
X24500Y-18650
X28200Y-17600
X41493Y-18757
X41493Y-19957
X42000Y-18750
X42000Y-20150
X42507Y-18807
X42507Y-20093
X43300Y-17400
X44300Y-19600
X44600Y-20100
X49050Y-20000
X49500Y-20400
X49950Y-20700
T2
X34500Y-18500
X34500Y-20500
X28500Y-18500
X28500Y-20500
X40500Y-18500
X40500Y-20500
X25500Y-18500
X25500Y-20500
X37500Y-18500
X37500Y-20500
X22500Y-18500
X22500Y-20500
X43500Y-18500
X43500Y-20500
X31500Y-18500
X31500Y-20500
T3
X22000Y-23000
X23000Y-23000
X31000Y-23000
X32000Y-23000
X41000Y-23000
X34000Y-23000
X35000Y-23000
X25000Y-23000
X26000Y-23000
X43000Y-23000
X44000Y-23000
X28000Y-23000
X29000Y-23000
X37000Y-23000
X38000Y-23000
X40000Y-23000
T4
X18000Y-27000
X20000Y-27000
X41000Y-27000
X42000Y-27000
X43000Y-27000
X35000Y-27000
X36000Y-27000
X37000Y-27000
X34000Y-16500
X35000Y-16500
X36000Y-16500
X37000Y-16500
X38000Y-16500
X18000Y-18500
X19000Y-18500
X20000Y-18500
X21000Y-18500
X45000Y-18500
X46000Y-18500
X47000Y-18500
X48000Y-18500
X18000Y-23000
X20000Y-23000
X14000Y-27000
X16000Y-27000
X14000Y-18500
X15000Y-18500
X16000Y-18500
X17000Y-18500
X46000Y-23000
X48000Y-23000
X40000Y-16500
X41000Y-16500
X42000Y-16500
X43000Y-16500
X44000Y-16500
X46000Y-27000
X48000Y-27000
X49000Y-18500
X50000Y-18500
X51000Y-18500
X52000Y-18500
X29000Y-27000
X30000Y-27000
X31000Y-27000
X50000Y-23000
X52000Y-23000
X23000Y-27000
X24000Y-27000
X25000Y-27000
X50000Y-27000
X52000Y-27000
X22000Y-16500
X23000Y-16500
X24000Y-16500
X25000Y-16500
X26000Y-16500
X28000Y-16500
X29000Y-16500
X30000Y-16500
X31000Y-16500
X32000Y-16500
X14000Y-23000
X16000Y-23000
X47000Y-16500
X48000Y-16500
X49000Y-16500
X50000Y-16500
T0
M30
