%TF.GenerationSoftware,KiCad,Pcbnew,5.0.2+dfsg1-1+deb10u1*%
%TF.CreationDate,2023-01-09T17:05:48+08:00*%
%TF.ProjectId,pic_programmer,7069635f-7072-46f6-9772-616d6d65722e,rev?*%
%TF.SameCoordinates,Original*%
%TF.FileFunction,Plated,1,2,PTH,Drill*%
%TF.FilePolarity,Positive*%
%FSLAX46Y46*%
G04 Gerber Fmt 4.6, Leading zero omitted, Abs format (unit mm)*
G04 Created by KiCad (PCBNEW 5.0.2+dfsg1-1+deb10u1) date Mon 09 Jan 2023 05:05:48 PM +08*
%MOMM*%
%LPD*%
G01*
G04 APERTURE LIST*
%TA.AperFunction,ViaDrill*%
%ADD10C,0.600000*%
%TD*%
%TA.AperFunction,ComponentDrill*%
%ADD11C,0.600000*%
%TD*%
%TA.AperFunction,ComponentDrill*%
%ADD12C,0.800000*%
%TD*%
%TA.AperFunction,ComponentDrill*%
%ADD13C,0.900000*%
%TD*%
%TA.AperFunction,ComponentDrill*%
%ADD14C,1.000000*%
%TD*%
%TA.AperFunction,ComponentDrill*%
%ADD15C,1.100000*%
%TD*%
%TA.AperFunction,ComponentDrill*%
%ADD16C,1.200000*%
%TD*%
%TA.AperFunction,ComponentDrill*%
%ADD17C,1.270000*%
%TD*%
%TA.AperFunction,ComponentDrill*%
%ADD18C,1.300000*%
%TD*%
%TA.AperFunction,ComponentDrill*%
%ADD19C,2.000000*%
%TD*%
%TA.AperFunction,ComponentDrill*%
%ADD20C,3.200000*%
%TD*%
%TA.AperFunction,ComponentDrill*%
%ADD21C,3.500000*%
%TD*%
G04 APERTURE END LIST*
D10*
X189865000Y-110490000D03*
X192405000Y-114300000D03*
X192405000Y-123190000D03*
X192405000Y-125730000D03*
X196850000Y-54610000D03*
X200025000Y-52070000D03*
D11*
%TO.C,Q1*%
X146050000Y-69850000D03*
X147320000Y-68580000D03*
X148590000Y-69850000D03*
%TO.C,Q2*%
X145542000Y-60706000D03*
X146812000Y-61976000D03*
X148082000Y-60706000D03*
%TO.C,Q3*%
X142240000Y-97790000D03*
X143510000Y-96520000D03*
X144780000Y-97790000D03*
D12*
%TO.C,R15*%
X118110000Y-78740000D03*
X128270000Y-78740000D03*
%TO.C,R17*%
X156210000Y-58420000D03*
X156210000Y-68580000D03*
%TO.C,D3*%
X100330000Y-121920000D03*
X107950000Y-121920000D03*
%TO.C,U6*%
X179070000Y-120650000D03*
X179070000Y-123190000D03*
X179070000Y-125730000D03*
X179070000Y-128270000D03*
X186690000Y-120650000D03*
X186690000Y-123190000D03*
X186690000Y-125730000D03*
X186690000Y-128270000D03*
%TO.C,R6*%
X87757000Y-121920000D03*
X97917000Y-121920000D03*
%TO.C,R18*%
X152400000Y-58420000D03*
X152400000Y-68580000D03*
%TO.C,U1*%
X179070000Y-109220000D03*
X179070000Y-111760000D03*
X179070000Y-114300000D03*
X179070000Y-116840000D03*
X186690000Y-109220000D03*
X186690000Y-111760000D03*
X186690000Y-114300000D03*
X186690000Y-116840000D03*
%TO.C,D1*%
X87757000Y-58420000D03*
X87757000Y-71120000D03*
%TO.C,D11*%
X139065000Y-80645000D03*
X146685000Y-80645000D03*
%TO.C,D10*%
X124460000Y-57150000D03*
X137160000Y-57150000D03*
%TO.C,R20*%
X134620000Y-102235000D03*
X144780000Y-102235000D03*
%TO.C,R4*%
X87630000Y-107823000D03*
X97790000Y-107823000D03*
%TO.C,D7*%
X100330000Y-115316000D03*
X107950000Y-115316000D03*
%TO.C,C9*%
X143002000Y-49784000D03*
X148002000Y-49784000D03*
%TO.C,C7*%
X198755000Y-71120000D03*
X198755000Y-76120000D03*
%TO.C,R13*%
X140335000Y-111760000D03*
X140335000Y-121920000D03*
%TO.C,U5*%
X207899000Y-107950000D03*
X207899000Y-110490000D03*
X207899000Y-113030000D03*
X207899000Y-115570000D03*
X207899000Y-118110000D03*
X207899000Y-120650000D03*
X207899000Y-123190000D03*
X207899000Y-125730000D03*
X207899000Y-128270000D03*
X215519000Y-107950000D03*
X215519000Y-110490000D03*
X215519000Y-113030000D03*
X215519000Y-115570000D03*
X215519000Y-118110000D03*
X215519000Y-120650000D03*
X215519000Y-123190000D03*
X215519000Y-125730000D03*
X215519000Y-128270000D03*
%TO.C,P2*%
X207645000Y-50800000D03*
X207645000Y-53340000D03*
X207645000Y-55880000D03*
X207645000Y-58420000D03*
X207645000Y-60960000D03*
X207645000Y-63500000D03*
X207645000Y-66040000D03*
X207645000Y-68580000D03*
X207645000Y-71120000D03*
X207645000Y-73660000D03*
X207645000Y-76200000D03*
X207645000Y-78740000D03*
X207645000Y-81280000D03*
X207645000Y-83820000D03*
X215265000Y-50800000D03*
X215265000Y-53340000D03*
X215265000Y-55880000D03*
X215265000Y-58420000D03*
X215265000Y-60960000D03*
X215265000Y-63500000D03*
X215265000Y-66040000D03*
X215265000Y-68580000D03*
X215265000Y-71120000D03*
X215265000Y-73660000D03*
X215265000Y-76200000D03*
X215265000Y-78740000D03*
X215265000Y-81280000D03*
X215265000Y-83820000D03*
%TO.C,R3*%
X87630000Y-111125000D03*
X97790000Y-111125000D03*
%TO.C,R19*%
X139065000Y-83820000D03*
X149225000Y-83820000D03*
%TO.C,R1*%
X87630000Y-118110000D03*
X97790000Y-118110000D03*
%TO.C,C3*%
X134112000Y-62230000D03*
X134112000Y-82230000D03*
%TO.C,R8*%
X139065000Y-91059000D03*
X149225000Y-91059000D03*
%TO.C,R5*%
X87757000Y-125476000D03*
X97917000Y-125476000D03*
%TO.C,D4*%
X100330000Y-111887000D03*
X107950000Y-111887000D03*
%TO.C,R14*%
X139065000Y-87630000D03*
X149225000Y-87630000D03*
%TO.C,U4*%
X110490000Y-57150000D03*
X110490000Y-59690000D03*
X110490000Y-62230000D03*
X110490000Y-64770000D03*
X118110000Y-57150000D03*
X118110000Y-59690000D03*
X118110000Y-62230000D03*
X118110000Y-64770000D03*
%TO.C,R10*%
X114300000Y-48260000D03*
X124460000Y-48260000D03*
%TO.C,R16*%
X118110000Y-75184000D03*
X128270000Y-75184000D03*
%TO.C,R7*%
X139700000Y-54610000D03*
X149860000Y-54610000D03*
%TO.C,D5*%
X100330000Y-108585000D03*
X107950000Y-108585000D03*
%TO.C,U2*%
X115570000Y-111760000D03*
X115570000Y-119380000D03*
X118110000Y-111760000D03*
X118110000Y-119380000D03*
X120650000Y-111760000D03*
X120650000Y-119380000D03*
X123190000Y-111760000D03*
X123190000Y-119380000D03*
X125730000Y-111760000D03*
X125730000Y-119380000D03*
X128270000Y-111760000D03*
X128270000Y-119380000D03*
X130810000Y-111760000D03*
X130810000Y-119380000D03*
%TO.C,C5*%
X129540000Y-49530000D03*
X134540000Y-49530000D03*
%TO.C,R2*%
X87630000Y-114554000D03*
X97790000Y-114554000D03*
%TO.C,C6*%
X196850000Y-112395000D03*
X196850000Y-117395000D03*
%TO.C,C4*%
X114300000Y-52070000D03*
X119300000Y-52070000D03*
%TO.C,R21*%
X147955000Y-102235000D03*
X158115000Y-102235000D03*
%TO.C,R9*%
X139065000Y-77470000D03*
X149225000Y-77470000D03*
%TO.C,R11*%
X140081000Y-60833000D03*
X140081000Y-70993000D03*
%TO.C,R12*%
X135255000Y-111760000D03*
X135255000Y-121920000D03*
%TO.C,D2*%
X100330000Y-118237000D03*
X107950000Y-118237000D03*
%TO.C,D6*%
X100330000Y-125095000D03*
X107950000Y-125095000D03*
D13*
%TO.C,D12*%
X153670000Y-97155000D03*
X156210000Y-97155000D03*
%TO.C,D8*%
X153670000Y-77470000D03*
X156210000Y-77470000D03*
%TO.C,D9*%
X153670000Y-87630000D03*
X156210000Y-87630000D03*
D14*
%TO.C,P3*%
X175260000Y-50800000D03*
X175260000Y-53340000D03*
X175260000Y-55880000D03*
X175260000Y-58420000D03*
X175260000Y-60960000D03*
X175260000Y-63500000D03*
X175260000Y-66040000D03*
X175260000Y-68580000D03*
X175260000Y-71120000D03*
X175260000Y-73660000D03*
X175260000Y-76200000D03*
X175260000Y-78740000D03*
X175260000Y-81280000D03*
X175260000Y-83820000D03*
X175260000Y-86360000D03*
X175260000Y-88900000D03*
X175260000Y-91440000D03*
X175260000Y-93980000D03*
X175260000Y-96520000D03*
X175260000Y-99060000D03*
X190500000Y-50800000D03*
X190500000Y-53340000D03*
X190500000Y-55880000D03*
X190500000Y-58420000D03*
X190500000Y-60960000D03*
X190500000Y-63500000D03*
X190500000Y-66040000D03*
X190500000Y-68580000D03*
X190500000Y-71120000D03*
X190500000Y-73660000D03*
X190500000Y-76200000D03*
X190500000Y-78740000D03*
X190500000Y-81280000D03*
X190500000Y-83820000D03*
X190500000Y-86360000D03*
X190500000Y-88900000D03*
X190500000Y-91440000D03*
X190500000Y-93980000D03*
X190500000Y-96520000D03*
X190500000Y-99060000D03*
%TO.C,J1*%
X79760000Y-110505000D03*
X79760000Y-113275000D03*
X79760000Y-116045000D03*
X79760000Y-118815000D03*
X82600000Y-109120000D03*
X82600000Y-111890000D03*
X82600000Y-114660000D03*
X82600000Y-117430000D03*
X82600000Y-120200000D03*
D15*
%TO.C,U3*%
X96520000Y-71120000D03*
X99060000Y-71120000D03*
X101600000Y-71120000D03*
D16*
%TO.C,C1*%
X85490000Y-78867000D03*
X110490000Y-78867000D03*
%TO.C,C2*%
X84582000Y-90170000D03*
X109582000Y-90170000D03*
D17*
%TO.C,RV1*%
X117475000Y-88265000D03*
X127635000Y-85725000D03*
X127635000Y-90805000D03*
D18*
%TO.C,P1*%
X78700000Y-62300000D03*
X78700000Y-67300000D03*
%TO.C,L1*%
X125730000Y-62230000D03*
X125730000Y-67230000D03*
D19*
%TO.C,P3*%
X168910000Y-96520000D03*
X196850000Y-48260000D03*
D20*
%TO.C,J1*%
X81180000Y-102160000D03*
X81180000Y-127160000D03*
D21*
%TO.C,U3*%
X99060000Y-54460000D03*
M02*
