G04 #@! TF.GenerationSoftware,KiCad,Pcbnew,6.0.11*
G04 #@! TF.CreationDate,2023-05-11T20:54:07+08:00*
G04 #@! TF.ProjectId,1LED-TH,314c4544-2d54-4482-9e6b-696361645f70,rev?*
G04 #@! TF.SameCoordinates,Original*
G04 #@! TF.FileFunction,Legend,Top*
G04 #@! TF.FilePolarity,Positive*
%FSLAX46Y46*%
G04 Gerber Fmt 4.6, Leading zero omitted, Abs format (unit mm)*
G04 Created by KiCad (PCBNEW 6.0.11) date 2023-05-11 20:54:07*
%MOMM*%
%LPD*%
G01*
G04 APERTURE LIST*
%ADD10C,0.150000*%
%ADD11C,0.120000*%
G04 APERTURE END LIST*
D10*
X63333333Y-171252380D02*
X63000000Y-170776190D01*
X62761904Y-171252380D02*
X62761904Y-170252380D01*
X63142857Y-170252380D01*
X63238095Y-170300000D01*
X63285714Y-170347619D01*
X63333333Y-170442857D01*
X63333333Y-170585714D01*
X63285714Y-170680952D01*
X63238095Y-170728571D01*
X63142857Y-170776190D01*
X62761904Y-170776190D01*
X64285714Y-171252380D02*
X63714285Y-171252380D01*
X64000000Y-171252380D02*
X64000000Y-170252380D01*
X63904761Y-170395238D01*
X63809523Y-170490476D01*
X63714285Y-170538095D01*
X48434666Y-172172380D02*
X48434666Y-172886666D01*
X48387047Y-173029523D01*
X48291809Y-173124761D01*
X48148952Y-173172380D01*
X48053714Y-173172380D01*
X49434666Y-173172380D02*
X48863238Y-173172380D01*
X49148952Y-173172380D02*
X49148952Y-172172380D01*
X49053714Y-172315238D01*
X48958476Y-172410476D01*
X48863238Y-172458095D01*
X62726904Y-176816380D02*
X62726904Y-175816380D01*
X62965000Y-175816380D01*
X63107857Y-175864000D01*
X63203095Y-175959238D01*
X63250714Y-176054476D01*
X63298333Y-176244952D01*
X63298333Y-176387809D01*
X63250714Y-176578285D01*
X63203095Y-176673523D01*
X63107857Y-176768761D01*
X62965000Y-176816380D01*
X62726904Y-176816380D01*
X64250714Y-176816380D02*
X63679285Y-176816380D01*
X63965000Y-176816380D02*
X63965000Y-175816380D01*
X63869761Y-175959238D01*
X63774523Y-176054476D01*
X63679285Y-176102095D01*
D11*
X61580000Y-173640000D02*
X65420000Y-173640000D01*
X61580000Y-171800000D02*
X65420000Y-171800000D01*
X43688000Y-173990000D02*
X43688000Y-181610000D01*
X53848000Y-181610000D02*
X53848000Y-173990000D01*
X53848000Y-180340000D02*
X43688000Y-180340000D01*
X43688000Y-181610000D02*
X53848000Y-181610000D01*
X53848000Y-173990000D02*
X43688000Y-173990000D01*
X61905000Y-178088000D02*
X61905000Y-178244000D01*
X61905000Y-180404000D02*
X61905000Y-180560000D01*
X64506130Y-178244163D02*
G75*
G03*
X62424039Y-178244000I-1041130J-1079837D01*
G01*
X61905000Y-180559516D02*
G75*
G03*
X65137335Y-180402608I1560000J1235516D01*
G01*
X62424039Y-180404000D02*
G75*
G03*
X64506130Y-180403837I1040961J1080000D01*
G01*
X65137335Y-178245392D02*
G75*
G03*
X61905000Y-178088484I-1672335J-1078608D01*
G01*
M02*
