G04 #@! TF.GenerationSoftware,KiCad,Pcbnew,(5.0.2)-1*
G04 #@! TF.CreationDate,2020-05-24T20:53:21+05:30*
G04 #@! TF.ProjectId,555 Timer LED Flasher,35353520-5469-46d6-9572-204c45442046,V1.0*
G04 #@! TF.SameCoordinates,Original*
G04 #@! TF.FileFunction,Legend,Top*
G04 #@! TF.FilePolarity,Positive*
%FSLAX46Y46*%
G04 Gerber Fmt 4.6, Leading zero omitted, Abs format (unit mm)*
G04 Created by KiCad (PCBNEW (5.0.2)-1) date 05/24/20 20:53:21*
%MOMM*%
%LPD*%
G01*
G04 APERTURE LIST*
%ADD10C,0.120000*%
%ADD11C,0.150000*%
G04 APERTURE END LIST*
D10*
G04 #@! TO.C,BT1*
X124646979Y-105900983D02*
X123296979Y-104750983D01*
X124646979Y-92800983D02*
X123296979Y-93950983D01*
X131896979Y-94450983D02*
X131896979Y-96350983D01*
X131896979Y-104250983D02*
X131896979Y-102350983D01*
X131896979Y-104250983D02*
X130246979Y-105900983D01*
X130246979Y-92800983D02*
X131896979Y-94450983D01*
X122800521Y-101852677D02*
G75*
G03X123296979Y-104750983I2296458J-1098306D01*
G01*
X122799372Y-96846885D02*
G75*
G02X123296979Y-93950983I2297607J1095902D01*
G01*
G04 #@! TO.C,BT2*
X172834586Y-101855081D02*
G75*
G02X172336979Y-104750983I-2297607J-1095902D01*
G01*
X172833437Y-96849289D02*
G75*
G03X172336979Y-93950983I-2296458J1098306D01*
G01*
X165386979Y-105900983D02*
X163736979Y-104250983D01*
X163736979Y-94450983D02*
X165386979Y-92800983D01*
X163736979Y-94450983D02*
X163736979Y-96350983D01*
X163736979Y-104250983D02*
X163736979Y-102350983D01*
X170986979Y-105900983D02*
X172336979Y-104750983D01*
X170986979Y-92800983D02*
X172336979Y-93950983D01*
G04 #@! TO.C,C1*
X154446979Y-101610983D02*
X155646979Y-101610983D01*
X158966979Y-101610983D02*
X157766979Y-101610983D01*
X158966979Y-98155420D02*
X158966979Y-101610983D01*
X154446979Y-98155420D02*
X154446979Y-101610983D01*
X155511416Y-97090983D02*
X155646979Y-97090983D01*
X157902542Y-97090983D02*
X157766979Y-97090983D01*
X157902542Y-97090983D02*
X158966979Y-98155420D01*
X155511416Y-97090983D02*
X154446979Y-98155420D01*
X158266979Y-96350983D02*
X158266979Y-96850983D01*
X158516979Y-96600983D02*
X158016979Y-96600983D01*
G04 #@! TO.C,D1*
X136696979Y-98350983D02*
X136696979Y-101035983D01*
X136696979Y-101035983D02*
X138616979Y-101035983D01*
X138616979Y-101035983D02*
X138616979Y-98350983D01*
G04 #@! TO.C,U1*
X143986979Y-99350983D02*
X143986979Y-101300983D01*
X143986979Y-99350983D02*
X143986979Y-97400983D01*
X149106979Y-99350983D02*
X149106979Y-101300983D01*
X149106979Y-99350983D02*
X149106979Y-95900983D01*
G04 #@! TO.C,BT1*
D11*
X121425550Y-100136697D02*
X121473169Y-99993840D01*
X121520788Y-99946221D01*
X121616026Y-99898602D01*
X121758883Y-99898602D01*
X121854121Y-99946221D01*
X121901740Y-99993840D01*
X121949359Y-100089078D01*
X121949359Y-100470030D01*
X120949359Y-100470030D01*
X120949359Y-100136697D01*
X120996979Y-100041459D01*
X121044598Y-99993840D01*
X121139836Y-99946221D01*
X121235074Y-99946221D01*
X121330312Y-99993840D01*
X121377931Y-100041459D01*
X121425550Y-100136697D01*
X121425550Y-100470030D01*
X120949359Y-99612887D02*
X120949359Y-99041459D01*
X121949359Y-99327173D02*
X120949359Y-99327173D01*
X121949359Y-98184316D02*
X121949359Y-98755744D01*
X121949359Y-98470030D02*
X120949359Y-98470030D01*
X121092217Y-98565268D01*
X121187455Y-98660506D01*
X121235074Y-98755744D01*
G04 #@! TO.C,BT2*
X174065550Y-100136697D02*
X174113169Y-99993840D01*
X174160788Y-99946221D01*
X174256026Y-99898602D01*
X174398883Y-99898602D01*
X174494121Y-99946221D01*
X174541740Y-99993840D01*
X174589359Y-100089078D01*
X174589359Y-100470030D01*
X173589359Y-100470030D01*
X173589359Y-100136697D01*
X173636979Y-100041459D01*
X173684598Y-99993840D01*
X173779836Y-99946221D01*
X173875074Y-99946221D01*
X173970312Y-99993840D01*
X174017931Y-100041459D01*
X174065550Y-100136697D01*
X174065550Y-100470030D01*
X173589359Y-99612887D02*
X173589359Y-99041459D01*
X174589359Y-99327173D02*
X173589359Y-99327173D01*
X173684598Y-98755744D02*
X173636979Y-98708125D01*
X173589359Y-98612887D01*
X173589359Y-98374792D01*
X173636979Y-98279554D01*
X173684598Y-98231935D01*
X173779836Y-98184316D01*
X173875074Y-98184316D01*
X174017931Y-98231935D01*
X174589359Y-98803363D01*
X174589359Y-98184316D01*
G04 #@! TO.C,C1*
X160264121Y-99517649D02*
X160311740Y-99565268D01*
X160359359Y-99708125D01*
X160359359Y-99803363D01*
X160311740Y-99946221D01*
X160216502Y-100041459D01*
X160121264Y-100089078D01*
X159930788Y-100136697D01*
X159787931Y-100136697D01*
X159597455Y-100089078D01*
X159502217Y-100041459D01*
X159406979Y-99946221D01*
X159359359Y-99803363D01*
X159359359Y-99708125D01*
X159406979Y-99565268D01*
X159454598Y-99517649D01*
X160359359Y-98565268D02*
X160359359Y-99136697D01*
X160359359Y-98850983D02*
X159359359Y-98850983D01*
X159502217Y-98946221D01*
X159597455Y-99041459D01*
X159645074Y-99136697D01*
G04 #@! TO.C,D1*
X136459359Y-100089078D02*
X135459359Y-100089078D01*
X135459359Y-99850983D01*
X135506979Y-99708125D01*
X135602217Y-99612887D01*
X135697455Y-99565268D01*
X135887931Y-99517649D01*
X136030788Y-99517649D01*
X136221264Y-99565268D01*
X136316502Y-99612887D01*
X136411740Y-99708125D01*
X136459359Y-99850983D01*
X136459359Y-100089078D01*
X136459359Y-98565268D02*
X136459359Y-99136697D01*
X136459359Y-98850983D02*
X135459359Y-98850983D01*
X135602217Y-98946221D01*
X135697455Y-99041459D01*
X135745074Y-99136697D01*
G04 #@! TO.C,R1*
X153349359Y-99267649D02*
X152873169Y-99600983D01*
X153349359Y-99839078D02*
X152349359Y-99839078D01*
X152349359Y-99458125D01*
X152396979Y-99362887D01*
X152444598Y-99315268D01*
X152539836Y-99267649D01*
X152682693Y-99267649D01*
X152777931Y-99315268D01*
X152825550Y-99362887D01*
X152873169Y-99458125D01*
X152873169Y-99839078D01*
X153349359Y-98315268D02*
X153349359Y-98886697D01*
X153349359Y-98600983D02*
X152349359Y-98600983D01*
X152492217Y-98696221D01*
X152587455Y-98791459D01*
X152635074Y-98886697D01*
G04 #@! TO.C,R2*
X141649359Y-102057649D02*
X141173169Y-102390983D01*
X141649359Y-102629078D02*
X140649359Y-102629078D01*
X140649359Y-102248125D01*
X140696979Y-102152887D01*
X140744598Y-102105268D01*
X140839836Y-102057649D01*
X140982693Y-102057649D01*
X141077931Y-102105268D01*
X141125550Y-102152887D01*
X141173169Y-102248125D01*
X141173169Y-102629078D01*
X140744598Y-101676697D02*
X140696979Y-101629078D01*
X140649359Y-101533840D01*
X140649359Y-101295744D01*
X140696979Y-101200506D01*
X140744598Y-101152887D01*
X140839836Y-101105268D01*
X140935074Y-101105268D01*
X141077931Y-101152887D01*
X141649359Y-101724316D01*
X141649359Y-101105268D01*
G04 #@! TO.C,R3*
X141649359Y-96977649D02*
X141173169Y-97310983D01*
X141649359Y-97549078D02*
X140649359Y-97549078D01*
X140649359Y-97168125D01*
X140696979Y-97072887D01*
X140744598Y-97025268D01*
X140839836Y-96977649D01*
X140982693Y-96977649D01*
X141077931Y-97025268D01*
X141125550Y-97072887D01*
X141173169Y-97168125D01*
X141173169Y-97549078D01*
X140649359Y-96644316D02*
X140649359Y-96025268D01*
X141030312Y-96358602D01*
X141030312Y-96215744D01*
X141077931Y-96120506D01*
X141125550Y-96072887D01*
X141220788Y-96025268D01*
X141458883Y-96025268D01*
X141554121Y-96072887D01*
X141601740Y-96120506D01*
X141649359Y-96215744D01*
X141649359Y-96501459D01*
X141601740Y-96596697D01*
X141554121Y-96644316D01*
G04 #@! TO.C,U1*
X149399359Y-100112887D02*
X150208883Y-100112887D01*
X150304121Y-100065268D01*
X150351740Y-100017649D01*
X150399359Y-99922411D01*
X150399359Y-99731935D01*
X150351740Y-99636697D01*
X150304121Y-99589078D01*
X150208883Y-99541459D01*
X149399359Y-99541459D01*
X150399359Y-98541459D02*
X150399359Y-99112887D01*
X150399359Y-98827173D02*
X149399359Y-98827173D01*
X149542217Y-98922411D01*
X149637455Y-99017649D01*
X149685074Y-99112887D01*
G04 #@! TD*
M02*
