G04 #@! TF.GenerationSoftware,KiCad,Pcbnew,(5.0.2)-1*
G04 #@! TF.CreationDate,2020-05-24T20:53:21+05:30*
G04 #@! TF.ProjectId,555 Timer LED Flasher,35353520-5469-46d6-9572-204c45442046,V1.0*
G04 #@! TF.SameCoordinates,Original*
G04 #@! TF.FileFunction,Soldermask,Top*
G04 #@! TF.FilePolarity,Negative*
%FSLAX46Y46*%
G04 Gerber Fmt 4.6, Leading zero omitted, Abs format (unit mm)*
G04 Created by KiCad (PCBNEW (5.0.2)-1) date 05/24/20 20:53:21*
%MOMM*%
%LPD*%
G01*
G04 APERTURE LIST*
%ADD10C,0.100000*%
G04 APERTURE END LIST*
D10*
G36*
X170737979Y-108251983D02*
X165535979Y-108251983D01*
X165535979Y-105649983D01*
X170737979Y-105649983D01*
X170737979Y-108251983D01*
X170737979Y-108251983D01*
G37*
G36*
X130097979Y-108251983D02*
X124895979Y-108251983D01*
X124895979Y-105649983D01*
X130097979Y-105649983D01*
X130097979Y-108251983D01*
X130097979Y-108251983D01*
G37*
G36*
X128999469Y-94397933D02*
X129548599Y-94625390D01*
X129936892Y-94786226D01*
X130774866Y-95346142D01*
X130780553Y-95349942D01*
X131498020Y-96067409D01*
X131498022Y-96067412D01*
X132061736Y-96911070D01*
X132061736Y-96911071D01*
X132450029Y-97848493D01*
X132647979Y-98843652D01*
X132647979Y-99858314D01*
X132450029Y-100853473D01*
X132227799Y-101389983D01*
X132061736Y-101790896D01*
X131640280Y-102421650D01*
X131498020Y-102634557D01*
X130780553Y-103352024D01*
X130780550Y-103352026D01*
X129936892Y-103915740D01*
X129548599Y-104076576D01*
X128999469Y-104304033D01*
X128004310Y-104501983D01*
X126989648Y-104501983D01*
X125994489Y-104304033D01*
X125445359Y-104076576D01*
X125057066Y-103915740D01*
X124213408Y-103352026D01*
X124213405Y-103352024D01*
X123495938Y-102634557D01*
X123353678Y-102421650D01*
X122932222Y-101790896D01*
X122766159Y-101389983D01*
X122543929Y-100853473D01*
X122345979Y-99858314D01*
X122345979Y-98843652D01*
X122543929Y-97848493D01*
X122932222Y-96911071D01*
X122932222Y-96911070D01*
X123495936Y-96067412D01*
X123495938Y-96067409D01*
X124213405Y-95349942D01*
X124219092Y-95346142D01*
X125057066Y-94786226D01*
X125445359Y-94625390D01*
X125994489Y-94397933D01*
X126989648Y-94199983D01*
X128004310Y-94199983D01*
X128999469Y-94397933D01*
X128999469Y-94397933D01*
G37*
G36*
X169639469Y-94397933D02*
X170188599Y-94625390D01*
X170576892Y-94786226D01*
X171414866Y-95346142D01*
X171420553Y-95349942D01*
X172138020Y-96067409D01*
X172138022Y-96067412D01*
X172701736Y-96911070D01*
X172701736Y-96911071D01*
X173090029Y-97848493D01*
X173287979Y-98843652D01*
X173287979Y-99858314D01*
X173090029Y-100853473D01*
X172867799Y-101389983D01*
X172701736Y-101790896D01*
X172280280Y-102421650D01*
X172138020Y-102634557D01*
X171420553Y-103352024D01*
X171420550Y-103352026D01*
X170576892Y-103915740D01*
X170188599Y-104076576D01*
X169639469Y-104304033D01*
X168644310Y-104501983D01*
X167629648Y-104501983D01*
X166634489Y-104304033D01*
X166085359Y-104076576D01*
X165697066Y-103915740D01*
X164853408Y-103352026D01*
X164853405Y-103352024D01*
X164135938Y-102634557D01*
X163993678Y-102421650D01*
X163572222Y-101790896D01*
X163406159Y-101389983D01*
X163183929Y-100853473D01*
X162985979Y-99858314D01*
X162985979Y-98843652D01*
X163183929Y-97848493D01*
X163572222Y-96911071D01*
X163572222Y-96911070D01*
X164135936Y-96067412D01*
X164135938Y-96067409D01*
X164853405Y-95349942D01*
X164859092Y-95346142D01*
X165697066Y-94786226D01*
X166085359Y-94625390D01*
X166634489Y-94397933D01*
X167629648Y-94199983D01*
X168644310Y-94199983D01*
X169639469Y-94397933D01*
X169639469Y-94397933D01*
G37*
G36*
X148711907Y-100802747D02*
X148732990Y-100809143D01*
X148752421Y-100819529D01*
X148769454Y-100833508D01*
X148783433Y-100850541D01*
X148793819Y-100869972D01*
X148800215Y-100891055D01*
X148802979Y-100919123D01*
X148802979Y-102732843D01*
X148800215Y-102760911D01*
X148793819Y-102781994D01*
X148783433Y-102801425D01*
X148769454Y-102818458D01*
X148752421Y-102832437D01*
X148732990Y-102842823D01*
X148711907Y-102849219D01*
X148683839Y-102851983D01*
X148220119Y-102851983D01*
X148192051Y-102849219D01*
X148170968Y-102842823D01*
X148151537Y-102832437D01*
X148134504Y-102818458D01*
X148120525Y-102801425D01*
X148110139Y-102781994D01*
X148103743Y-102760911D01*
X148100979Y-102732843D01*
X148100979Y-100919123D01*
X148103743Y-100891055D01*
X148110139Y-100869972D01*
X148120525Y-100850541D01*
X148134504Y-100833508D01*
X148151537Y-100819529D01*
X148170968Y-100809143D01*
X148192051Y-100802747D01*
X148220119Y-100799983D01*
X148683839Y-100799983D01*
X148711907Y-100802747D01*
X148711907Y-100802747D01*
G37*
G36*
X147441907Y-100802747D02*
X147462990Y-100809143D01*
X147482421Y-100819529D01*
X147499454Y-100833508D01*
X147513433Y-100850541D01*
X147523819Y-100869972D01*
X147530215Y-100891055D01*
X147532979Y-100919123D01*
X147532979Y-102732843D01*
X147530215Y-102760911D01*
X147523819Y-102781994D01*
X147513433Y-102801425D01*
X147499454Y-102818458D01*
X147482421Y-102832437D01*
X147462990Y-102842823D01*
X147441907Y-102849219D01*
X147413839Y-102851983D01*
X146950119Y-102851983D01*
X146922051Y-102849219D01*
X146900968Y-102842823D01*
X146881537Y-102832437D01*
X146864504Y-102818458D01*
X146850525Y-102801425D01*
X146840139Y-102781994D01*
X146833743Y-102760911D01*
X146830979Y-102732843D01*
X146830979Y-100919123D01*
X146833743Y-100891055D01*
X146840139Y-100869972D01*
X146850525Y-100850541D01*
X146864504Y-100833508D01*
X146881537Y-100819529D01*
X146900968Y-100809143D01*
X146922051Y-100802747D01*
X146950119Y-100799983D01*
X147413839Y-100799983D01*
X147441907Y-100802747D01*
X147441907Y-100802747D01*
G37*
G36*
X146171907Y-100802747D02*
X146192990Y-100809143D01*
X146212421Y-100819529D01*
X146229454Y-100833508D01*
X146243433Y-100850541D01*
X146253819Y-100869972D01*
X146260215Y-100891055D01*
X146262979Y-100919123D01*
X146262979Y-102732843D01*
X146260215Y-102760911D01*
X146253819Y-102781994D01*
X146243433Y-102801425D01*
X146229454Y-102818458D01*
X146212421Y-102832437D01*
X146192990Y-102842823D01*
X146171907Y-102849219D01*
X146143839Y-102851983D01*
X145680119Y-102851983D01*
X145652051Y-102849219D01*
X145630968Y-102842823D01*
X145611537Y-102832437D01*
X145594504Y-102818458D01*
X145580525Y-102801425D01*
X145570139Y-102781994D01*
X145563743Y-102760911D01*
X145560979Y-102732843D01*
X145560979Y-100919123D01*
X145563743Y-100891055D01*
X145570139Y-100869972D01*
X145580525Y-100850541D01*
X145594504Y-100833508D01*
X145611537Y-100819529D01*
X145630968Y-100809143D01*
X145652051Y-100802747D01*
X145680119Y-100799983D01*
X146143839Y-100799983D01*
X146171907Y-100802747D01*
X146171907Y-100802747D01*
G37*
G36*
X144901907Y-100802747D02*
X144922990Y-100809143D01*
X144942421Y-100819529D01*
X144959454Y-100833508D01*
X144973433Y-100850541D01*
X144983819Y-100869972D01*
X144990215Y-100891055D01*
X144992979Y-100919123D01*
X144992979Y-102732843D01*
X144990215Y-102760911D01*
X144983819Y-102781994D01*
X144973433Y-102801425D01*
X144959454Y-102818458D01*
X144942421Y-102832437D01*
X144922990Y-102842823D01*
X144901907Y-102849219D01*
X144873839Y-102851983D01*
X144410119Y-102851983D01*
X144382051Y-102849219D01*
X144360968Y-102842823D01*
X144341537Y-102832437D01*
X144324504Y-102818458D01*
X144310525Y-102801425D01*
X144300139Y-102781994D01*
X144293743Y-102760911D01*
X144290979Y-102732843D01*
X144290979Y-100919123D01*
X144293743Y-100891055D01*
X144300139Y-100869972D01*
X144310525Y-100850541D01*
X144324504Y-100833508D01*
X144341537Y-100819529D01*
X144360968Y-100809143D01*
X144382051Y-100802747D01*
X144410119Y-100799983D01*
X144873839Y-100799983D01*
X144901907Y-100802747D01*
X144901907Y-100802747D01*
G37*
G36*
X157412975Y-99804034D02*
X157446632Y-99814244D01*
X157477646Y-99830821D01*
X157504831Y-99853131D01*
X157527141Y-99880316D01*
X157543718Y-99911330D01*
X157553928Y-99944987D01*
X157557979Y-99986121D01*
X157557979Y-102315845D01*
X157553928Y-102356979D01*
X157543718Y-102390636D01*
X157527141Y-102421650D01*
X157504831Y-102448835D01*
X157477646Y-102471145D01*
X157446632Y-102487722D01*
X157412975Y-102497932D01*
X157371841Y-102501983D01*
X156042117Y-102501983D01*
X156000983Y-102497932D01*
X155967326Y-102487722D01*
X155936312Y-102471145D01*
X155909127Y-102448835D01*
X155886817Y-102421650D01*
X155870240Y-102390636D01*
X155860030Y-102356979D01*
X155855979Y-102315845D01*
X155855979Y-99986121D01*
X155860030Y-99944987D01*
X155870240Y-99911330D01*
X155886817Y-99880316D01*
X155909127Y-99853131D01*
X155936312Y-99830821D01*
X155967326Y-99814244D01*
X156000983Y-99804034D01*
X156042117Y-99799983D01*
X157371841Y-99799983D01*
X157412975Y-99804034D01*
X157412975Y-99804034D01*
G37*
G36*
X140367272Y-101391306D02*
X140374291Y-101393435D01*
X140380754Y-101396890D01*
X140386421Y-101401541D01*
X140391072Y-101407208D01*
X140394527Y-101413671D01*
X140396656Y-101420690D01*
X140397979Y-101434123D01*
X140397979Y-101847843D01*
X140395981Y-101868128D01*
X140393871Y-101878740D01*
X140393873Y-101903244D01*
X140395982Y-101913847D01*
X140397979Y-101934123D01*
X140397979Y-102347843D01*
X140396656Y-102361276D01*
X140394527Y-102368295D01*
X140391072Y-102374758D01*
X140386421Y-102380425D01*
X140380754Y-102385076D01*
X140374291Y-102388531D01*
X140367272Y-102390660D01*
X140353839Y-102391983D01*
X140040119Y-102391983D01*
X140026686Y-102390660D01*
X140019667Y-102388531D01*
X140013204Y-102385076D01*
X140007537Y-102380425D01*
X140002886Y-102374758D01*
X139999431Y-102368295D01*
X139997302Y-102361276D01*
X139995979Y-102347843D01*
X139995979Y-101934123D01*
X139997977Y-101913838D01*
X140000087Y-101903226D01*
X140000085Y-101878722D01*
X139997976Y-101868119D01*
X139995979Y-101847843D01*
X139995979Y-101434123D01*
X139997302Y-101420690D01*
X139999431Y-101413671D01*
X140002886Y-101407208D01*
X140007537Y-101401541D01*
X140013204Y-101396890D01*
X140019667Y-101393435D01*
X140026686Y-101391306D01*
X140040119Y-101389983D01*
X140353839Y-101389983D01*
X140367272Y-101391306D01*
X140367272Y-101391306D01*
G37*
G36*
X138241445Y-99754548D02*
X138280116Y-99766279D01*
X138315758Y-99785331D01*
X138346996Y-99810966D01*
X138372631Y-99842204D01*
X138391683Y-99877846D01*
X138403414Y-99916517D01*
X138407979Y-99962871D01*
X138407979Y-100614095D01*
X138403414Y-100660449D01*
X138391683Y-100699120D01*
X138372631Y-100734762D01*
X138346996Y-100766000D01*
X138315758Y-100791635D01*
X138280116Y-100810687D01*
X138241445Y-100822418D01*
X138195091Y-100826983D01*
X137118867Y-100826983D01*
X137072513Y-100822418D01*
X137033842Y-100810687D01*
X136998200Y-100791635D01*
X136966962Y-100766000D01*
X136941327Y-100734762D01*
X136922275Y-100699120D01*
X136910544Y-100660449D01*
X136905979Y-100614095D01*
X136905979Y-99962871D01*
X136910544Y-99916517D01*
X136922275Y-99877846D01*
X136941327Y-99842204D01*
X136966962Y-99810966D01*
X136998200Y-99785331D01*
X137033842Y-99766279D01*
X137072513Y-99754548D01*
X137118867Y-99749983D01*
X138195091Y-99749983D01*
X138241445Y-99754548D01*
X138241445Y-99754548D01*
G37*
G36*
X151797272Y-98601306D02*
X151804291Y-98603435D01*
X151810754Y-98606890D01*
X151816421Y-98611541D01*
X151821072Y-98617208D01*
X151824527Y-98623671D01*
X151826656Y-98630690D01*
X151827979Y-98644123D01*
X151827979Y-99057843D01*
X151825981Y-99078128D01*
X151823871Y-99088740D01*
X151823873Y-99113244D01*
X151825982Y-99123847D01*
X151827979Y-99144123D01*
X151827979Y-99557843D01*
X151826656Y-99571276D01*
X151824527Y-99578295D01*
X151821072Y-99584758D01*
X151816421Y-99590425D01*
X151810754Y-99595076D01*
X151804291Y-99598531D01*
X151797272Y-99600660D01*
X151783839Y-99601983D01*
X151470119Y-99601983D01*
X151456686Y-99600660D01*
X151449667Y-99598531D01*
X151443204Y-99595076D01*
X151437537Y-99590425D01*
X151432886Y-99584758D01*
X151429431Y-99578295D01*
X151427302Y-99571276D01*
X151425979Y-99557843D01*
X151425979Y-99144123D01*
X151427977Y-99123838D01*
X151430087Y-99113226D01*
X151430085Y-99088722D01*
X151427976Y-99078119D01*
X151425979Y-99057843D01*
X151425979Y-98644123D01*
X151427302Y-98630690D01*
X151429431Y-98623671D01*
X151432886Y-98617208D01*
X151437537Y-98611541D01*
X151443204Y-98606890D01*
X151449667Y-98603435D01*
X151456686Y-98601306D01*
X151470119Y-98599983D01*
X151783839Y-98599983D01*
X151797272Y-98601306D01*
X151797272Y-98601306D01*
G37*
G36*
X138241445Y-97879548D02*
X138280116Y-97891279D01*
X138315758Y-97910331D01*
X138346996Y-97935966D01*
X138372631Y-97967204D01*
X138391683Y-98002846D01*
X138403414Y-98041517D01*
X138407979Y-98087871D01*
X138407979Y-98739095D01*
X138403414Y-98785449D01*
X138391683Y-98824120D01*
X138372631Y-98859762D01*
X138346996Y-98891000D01*
X138315758Y-98916635D01*
X138280116Y-98935687D01*
X138241445Y-98947418D01*
X138195091Y-98951983D01*
X137118867Y-98951983D01*
X137072513Y-98947418D01*
X137033842Y-98935687D01*
X136998200Y-98916635D01*
X136966962Y-98891000D01*
X136941327Y-98859762D01*
X136922275Y-98824120D01*
X136910544Y-98785449D01*
X136905979Y-98739095D01*
X136905979Y-98087871D01*
X136910544Y-98041517D01*
X136922275Y-98002846D01*
X136941327Y-97967204D01*
X136966962Y-97935966D01*
X136998200Y-97910331D01*
X137033842Y-97891279D01*
X137072513Y-97879548D01*
X137118867Y-97874983D01*
X138195091Y-97874983D01*
X138241445Y-97879548D01*
X138241445Y-97879548D01*
G37*
G36*
X157412975Y-96204034D02*
X157446632Y-96214244D01*
X157477646Y-96230821D01*
X157504831Y-96253131D01*
X157527141Y-96280316D01*
X157543718Y-96311330D01*
X157553928Y-96344987D01*
X157557979Y-96386121D01*
X157557979Y-98715845D01*
X157553928Y-98756979D01*
X157543718Y-98790636D01*
X157527141Y-98821650D01*
X157504831Y-98848835D01*
X157477646Y-98871145D01*
X157446632Y-98887722D01*
X157412975Y-98897932D01*
X157371841Y-98901983D01*
X156042117Y-98901983D01*
X156000983Y-98897932D01*
X155967326Y-98887722D01*
X155936312Y-98871145D01*
X155909127Y-98848835D01*
X155886817Y-98821650D01*
X155870240Y-98790636D01*
X155860030Y-98756979D01*
X155855979Y-98715845D01*
X155855979Y-96386121D01*
X155860030Y-96344987D01*
X155870240Y-96311330D01*
X155886817Y-96280316D01*
X155909127Y-96253131D01*
X155936312Y-96230821D01*
X155967326Y-96214244D01*
X156000983Y-96204034D01*
X156042117Y-96199983D01*
X157371841Y-96199983D01*
X157412975Y-96204034D01*
X157412975Y-96204034D01*
G37*
G36*
X144901907Y-95852747D02*
X144922990Y-95859143D01*
X144942421Y-95869529D01*
X144959454Y-95883508D01*
X144973433Y-95900541D01*
X144983819Y-95919972D01*
X144990215Y-95941055D01*
X144992979Y-95969123D01*
X144992979Y-97782843D01*
X144990215Y-97810911D01*
X144983819Y-97831994D01*
X144973433Y-97851425D01*
X144959454Y-97868458D01*
X144942421Y-97882437D01*
X144922990Y-97892823D01*
X144901907Y-97899219D01*
X144873839Y-97901983D01*
X144410119Y-97901983D01*
X144382051Y-97899219D01*
X144360968Y-97892823D01*
X144341537Y-97882437D01*
X144324504Y-97868458D01*
X144310525Y-97851425D01*
X144300139Y-97831994D01*
X144293743Y-97810911D01*
X144290979Y-97782843D01*
X144290979Y-95969123D01*
X144293743Y-95941055D01*
X144300139Y-95919972D01*
X144310525Y-95900541D01*
X144324504Y-95883508D01*
X144341537Y-95869529D01*
X144360968Y-95859143D01*
X144382051Y-95852747D01*
X144410119Y-95849983D01*
X144873839Y-95849983D01*
X144901907Y-95852747D01*
X144901907Y-95852747D01*
G37*
G36*
X148711907Y-95852747D02*
X148732990Y-95859143D01*
X148752421Y-95869529D01*
X148769454Y-95883508D01*
X148783433Y-95900541D01*
X148793819Y-95919972D01*
X148800215Y-95941055D01*
X148802979Y-95969123D01*
X148802979Y-97782843D01*
X148800215Y-97810911D01*
X148793819Y-97831994D01*
X148783433Y-97851425D01*
X148769454Y-97868458D01*
X148752421Y-97882437D01*
X148732990Y-97892823D01*
X148711907Y-97899219D01*
X148683839Y-97901983D01*
X148220119Y-97901983D01*
X148192051Y-97899219D01*
X148170968Y-97892823D01*
X148151537Y-97882437D01*
X148134504Y-97868458D01*
X148120525Y-97851425D01*
X148110139Y-97831994D01*
X148103743Y-97810911D01*
X148100979Y-97782843D01*
X148100979Y-95969123D01*
X148103743Y-95941055D01*
X148110139Y-95919972D01*
X148120525Y-95900541D01*
X148134504Y-95883508D01*
X148151537Y-95869529D01*
X148170968Y-95859143D01*
X148192051Y-95852747D01*
X148220119Y-95849983D01*
X148683839Y-95849983D01*
X148711907Y-95852747D01*
X148711907Y-95852747D01*
G37*
G36*
X147441907Y-95852747D02*
X147462990Y-95859143D01*
X147482421Y-95869529D01*
X147499454Y-95883508D01*
X147513433Y-95900541D01*
X147523819Y-95919972D01*
X147530215Y-95941055D01*
X147532979Y-95969123D01*
X147532979Y-97782843D01*
X147530215Y-97810911D01*
X147523819Y-97831994D01*
X147513433Y-97851425D01*
X147499454Y-97868458D01*
X147482421Y-97882437D01*
X147462990Y-97892823D01*
X147441907Y-97899219D01*
X147413839Y-97901983D01*
X146950119Y-97901983D01*
X146922051Y-97899219D01*
X146900968Y-97892823D01*
X146881537Y-97882437D01*
X146864504Y-97868458D01*
X146850525Y-97851425D01*
X146840139Y-97831994D01*
X146833743Y-97810911D01*
X146830979Y-97782843D01*
X146830979Y-95969123D01*
X146833743Y-95941055D01*
X146840139Y-95919972D01*
X146850525Y-95900541D01*
X146864504Y-95883508D01*
X146881537Y-95869529D01*
X146900968Y-95859143D01*
X146922051Y-95852747D01*
X146950119Y-95849983D01*
X147413839Y-95849983D01*
X147441907Y-95852747D01*
X147441907Y-95852747D01*
G37*
G36*
X146171907Y-95852747D02*
X146192990Y-95859143D01*
X146212421Y-95869529D01*
X146229454Y-95883508D01*
X146243433Y-95900541D01*
X146253819Y-95919972D01*
X146260215Y-95941055D01*
X146262979Y-95969123D01*
X146262979Y-97782843D01*
X146260215Y-97810911D01*
X146253819Y-97831994D01*
X146243433Y-97851425D01*
X146229454Y-97868458D01*
X146212421Y-97882437D01*
X146192990Y-97892823D01*
X146171907Y-97899219D01*
X146143839Y-97901983D01*
X145680119Y-97901983D01*
X145652051Y-97899219D01*
X145630968Y-97892823D01*
X145611537Y-97882437D01*
X145594504Y-97868458D01*
X145580525Y-97851425D01*
X145570139Y-97831994D01*
X145563743Y-97810911D01*
X145560979Y-97782843D01*
X145560979Y-95969123D01*
X145563743Y-95941055D01*
X145570139Y-95919972D01*
X145580525Y-95900541D01*
X145594504Y-95883508D01*
X145611537Y-95869529D01*
X145630968Y-95859143D01*
X145652051Y-95852747D01*
X145680119Y-95849983D01*
X146143839Y-95849983D01*
X146171907Y-95852747D01*
X146171907Y-95852747D01*
G37*
G36*
X140367272Y-96311306D02*
X140374291Y-96313435D01*
X140380754Y-96316890D01*
X140386421Y-96321541D01*
X140391072Y-96327208D01*
X140394527Y-96333671D01*
X140396656Y-96340690D01*
X140397979Y-96354123D01*
X140397979Y-96767843D01*
X140395981Y-96788128D01*
X140393871Y-96798740D01*
X140393873Y-96823244D01*
X140395982Y-96833847D01*
X140397979Y-96854123D01*
X140397979Y-97267843D01*
X140396656Y-97281276D01*
X140394527Y-97288295D01*
X140391072Y-97294758D01*
X140386421Y-97300425D01*
X140380754Y-97305076D01*
X140374291Y-97308531D01*
X140367272Y-97310660D01*
X140353839Y-97311983D01*
X140040119Y-97311983D01*
X140026686Y-97310660D01*
X140019667Y-97308531D01*
X140013204Y-97305076D01*
X140007537Y-97300425D01*
X140002886Y-97294758D01*
X139999431Y-97288295D01*
X139997302Y-97281276D01*
X139995979Y-97267843D01*
X139995979Y-96854123D01*
X139997977Y-96833838D01*
X140000087Y-96823226D01*
X140000085Y-96798722D01*
X139997976Y-96788119D01*
X139995979Y-96767843D01*
X139995979Y-96354123D01*
X139997302Y-96340690D01*
X139999431Y-96333671D01*
X140002886Y-96327208D01*
X140007537Y-96321541D01*
X140013204Y-96316890D01*
X140019667Y-96313435D01*
X140026686Y-96311306D01*
X140040119Y-96309983D01*
X140353839Y-96309983D01*
X140367272Y-96311306D01*
X140367272Y-96311306D01*
G37*
G36*
X170737979Y-93051983D02*
X165535979Y-93051983D01*
X165535979Y-90449983D01*
X170737979Y-90449983D01*
X170737979Y-93051983D01*
X170737979Y-93051983D01*
G37*
G36*
X130097979Y-93051983D02*
X124895979Y-93051983D01*
X124895979Y-90449983D01*
X130097979Y-90449983D01*
X130097979Y-93051983D01*
X130097979Y-93051983D01*
G37*
M02*
