%FSLAX45Y45*%
G04 Gerber Fmt 4.5, Leading zero omitted, Abs format (unit mm)*
G04 Created by KiCad (PCBNEW 5.0.2+dfsg1-1+deb10u1) date Wed 11 Jan 2023 08:50:02 PM +08*
%MOMM*%
%LPD*%
G01*
G04 APERTURE LIST*
%ADD10C,0.150000*%
%ADD11C,0.200000*%
%ADD12C,0.300000*%
G04 APERTURE END LIST*
D10*
X9906000Y-7112000D02*
X9906000Y-3429000D01*
X15875000Y-7112000D02*
X9906000Y-7112000D01*
X15875000Y-3429000D02*
X15875000Y-7112000D01*
X9906000Y-3429000D02*
X15875000Y-3429000D01*
D11*
D12*
X10184928Y-7585214D02*
X10184928Y-7285214D01*
X10256357Y-7285214D01*
X10299214Y-7299500D01*
X10327786Y-7328071D01*
X10342071Y-7356643D01*
X10356357Y-7413786D01*
X10356357Y-7456643D01*
X10342071Y-7513786D01*
X10327786Y-7542357D01*
X10299214Y-7570929D01*
X10256357Y-7585214D01*
X10184928Y-7585214D01*
X10484928Y-7585214D02*
X10484928Y-7385214D01*
X10484928Y-7442357D02*
X10499214Y-7413786D01*
X10513500Y-7399500D01*
X10542071Y-7385214D01*
X10570643Y-7385214D01*
X10670643Y-7585214D02*
X10670643Y-7385214D01*
X10670643Y-7285214D02*
X10656357Y-7299500D01*
X10670643Y-7313786D01*
X10684928Y-7299500D01*
X10670643Y-7285214D01*
X10670643Y-7313786D01*
X10856357Y-7585214D02*
X10827786Y-7570929D01*
X10813500Y-7542357D01*
X10813500Y-7285214D01*
X11013500Y-7585214D02*
X10984928Y-7570929D01*
X10970643Y-7542357D01*
X10970643Y-7285214D01*
X11356357Y-7585214D02*
X11356357Y-7285214D01*
X11456357Y-7499500D01*
X11556357Y-7285214D01*
X11556357Y-7585214D01*
X11827786Y-7585214D02*
X11827786Y-7428071D01*
X11813500Y-7399500D01*
X11784928Y-7385214D01*
X11727786Y-7385214D01*
X11699214Y-7399500D01*
X11827786Y-7570929D02*
X11799214Y-7585214D01*
X11727786Y-7585214D01*
X11699214Y-7570929D01*
X11684928Y-7542357D01*
X11684928Y-7513786D01*
X11699214Y-7485214D01*
X11727786Y-7470929D01*
X11799214Y-7470929D01*
X11827786Y-7456643D01*
X11970643Y-7385214D02*
X11970643Y-7685214D01*
X11970643Y-7399500D02*
X11999214Y-7385214D01*
X12056357Y-7385214D01*
X12084928Y-7399500D01*
X12099214Y-7413786D01*
X12113500Y-7442357D01*
X12113500Y-7528071D01*
X12099214Y-7556643D01*
X12084928Y-7570929D01*
X12056357Y-7585214D01*
X11999214Y-7585214D01*
X11970643Y-7570929D01*
X12242071Y-7556643D02*
X12256357Y-7570929D01*
X12242071Y-7585214D01*
X12227786Y-7570929D01*
X12242071Y-7556643D01*
X12242071Y-7585214D01*
X12242071Y-7399500D02*
X12256357Y-7413786D01*
X12242071Y-7428071D01*
X12227786Y-7413786D01*
X12242071Y-7399500D01*
X12242071Y-7428071D01*
M02*
