M48
;DRILL file {KiCad 5.0.2+dfsg1-1+deb10u1} date Wed 11 Jan 2023 08:46:49 PM +08
;FORMAT={-:-/ absolute / inch / decimal}
FMAT,2
INCH,TZ
T1C0.0157
T2C0.0276
T3C0.0315
T4C0.0354
T5C0.0394
%
G90
G05
T1
X6.1Y-2.35
T2
X5.45Y-1.85
X5.65Y-1.85
X5.9Y-2.1
X6.1Y-2.1
X5.3Y-1.65
X5.5Y-1.65
X5.65Y-1.5
X5.85Y-1.5
T3
X4.95Y-1.95
X4.95Y-2.25
X5.05Y-1.95
X5.05Y-2.25
X5.15Y-1.95
X5.15Y-2.25
X5.25Y-1.95
X5.25Y-2.25
T4
X5.65Y-2.25
X5.65Y-2.35
X5.85Y-2.6
X5.95Y-2.6
T5
X4.1Y-2.05
X4.1Y-2.15
T0
M30
