%FSLAX45Y45*%
G04 Gerber Fmt 4.5, Leading zero omitted, Abs format (unit mm)*
G04 Created by KiCad (PCBNEW 5.0.2+dfsg1-1+deb10u1) date Wed 11 Jan 2023 08:50:02 PM +08*
%MOMM*%
%LPD*%
G01*
G04 APERTURE LIST*
%ADD10C,0.150000*%
%ADD11C,0.200000*%
%ADD12C,0.300000*%
G04 APERTURE END LIST*
D10*
X9906000Y-7112000D02*
X9906000Y-3429000D01*
X15875000Y-7112000D02*
X9906000Y-7112000D01*
X15875000Y-3429000D02*
X15875000Y-7112000D01*
X9906000Y-3429000D02*
X15875000Y-3429000D01*
D11*
X15474000Y-5949000D02*
X15514000Y-5989000D01*
X15514000Y-5949000D02*
X15474000Y-5989000D01*
X13878000Y-4699000D02*
G75*
G03X13878000Y-4699000I-35000J0D01*
G01*
X14386000Y-4699000D02*
G75*
G03X14386000Y-4699000I-35000J0D01*
G01*
X15021000Y-5334000D02*
G75*
G03X15021000Y-5334000I-35000J0D01*
G01*
X15529000Y-5334000D02*
G75*
G03X15529000Y-5334000I-35000J0D01*
G01*
X13497000Y-4191000D02*
G75*
G03X13497000Y-4191000I-35000J0D01*
G01*
X14005000Y-4191000D02*
G75*
G03X14005000Y-4191000I-35000J0D01*
G01*
X14386000Y-3810000D02*
G75*
G03X14386000Y-3810000I-35000J0D01*
G01*
X14894000Y-3810000D02*
G75*
G03X14894000Y-3810000I-35000J0D01*
G01*
X12573000Y-4913000D02*
X12573000Y-4993000D01*
X12533000Y-4953000D02*
X12613000Y-4953000D01*
X12573000Y-5675000D02*
X12573000Y-5755000D01*
X12533000Y-5715000D02*
X12613000Y-5715000D01*
X12827000Y-4913000D02*
X12827000Y-4993000D01*
X12787000Y-4953000D02*
X12867000Y-4953000D01*
X12827000Y-5675000D02*
X12827000Y-5755000D01*
X12787000Y-5715000D02*
X12867000Y-5715000D01*
X13081000Y-4913000D02*
X13081000Y-4993000D01*
X13041000Y-4953000D02*
X13121000Y-4953000D01*
X13081000Y-5675000D02*
X13081000Y-5755000D01*
X13041000Y-5715000D02*
X13121000Y-5715000D01*
X13335000Y-4913000D02*
X13335000Y-4993000D01*
X13295000Y-4953000D02*
X13375000Y-4953000D01*
X13335000Y-5675000D02*
X13335000Y-5755000D01*
X13295000Y-5715000D02*
X13375000Y-5715000D01*
X14382820Y-5746820D02*
X14382820Y-5683180D01*
X14319180Y-5683180D01*
X14319180Y-5746820D01*
X14382820Y-5746820D01*
X14382820Y-6000820D02*
X14382820Y-5937180D01*
X14319180Y-5937180D01*
X14319180Y-6000820D01*
X14382820Y-6000820D01*
X14890820Y-6635820D02*
X14890820Y-6572180D01*
X14827180Y-6572180D01*
X14827180Y-6635820D01*
X14890820Y-6635820D01*
X15144820Y-6635820D02*
X15144820Y-6572180D01*
X15081180Y-6572180D01*
X15081180Y-6635820D01*
X15144820Y-6635820D01*
X10414000Y-5257000D02*
X10464000Y-5207000D01*
X10414000Y-5157000D01*
X10364000Y-5207000D01*
X10414000Y-5257000D01*
X10414000Y-5511000D02*
X10464000Y-5461000D01*
X10414000Y-5411000D01*
X10364000Y-5461000D01*
X10414000Y-5511000D01*
D12*
X10184928Y-7585214D02*
X10184928Y-7285214D01*
X10256357Y-7285214D01*
X10299214Y-7299500D01*
X10327786Y-7328071D01*
X10342071Y-7356643D01*
X10356357Y-7413786D01*
X10356357Y-7456643D01*
X10342071Y-7513786D01*
X10327786Y-7542357D01*
X10299214Y-7570929D01*
X10256357Y-7585214D01*
X10184928Y-7585214D01*
X10484928Y-7585214D02*
X10484928Y-7385214D01*
X10484928Y-7442357D02*
X10499214Y-7413786D01*
X10513500Y-7399500D01*
X10542071Y-7385214D01*
X10570643Y-7385214D01*
X10670643Y-7585214D02*
X10670643Y-7385214D01*
X10670643Y-7285214D02*
X10656357Y-7299500D01*
X10670643Y-7313786D01*
X10684928Y-7299500D01*
X10670643Y-7285214D01*
X10670643Y-7313786D01*
X10856357Y-7585214D02*
X10827786Y-7570929D01*
X10813500Y-7542357D01*
X10813500Y-7285214D01*
X11013500Y-7585214D02*
X10984928Y-7570929D01*
X10970643Y-7542357D01*
X10970643Y-7285214D01*
X11356357Y-7585214D02*
X11356357Y-7285214D01*
X11456357Y-7499500D01*
X11556357Y-7285214D01*
X11556357Y-7585214D01*
X11827786Y-7585214D02*
X11827786Y-7428071D01*
X11813500Y-7399500D01*
X11784928Y-7385214D01*
X11727786Y-7385214D01*
X11699214Y-7399500D01*
X11827786Y-7570929D02*
X11799214Y-7585214D01*
X11727786Y-7585214D01*
X11699214Y-7570929D01*
X11684928Y-7542357D01*
X11684928Y-7513786D01*
X11699214Y-7485214D01*
X11727786Y-7470929D01*
X11799214Y-7470929D01*
X11827786Y-7456643D01*
X11970643Y-7385214D02*
X11970643Y-7685214D01*
X11970643Y-7399500D02*
X11999214Y-7385214D01*
X12056357Y-7385214D01*
X12084928Y-7399500D01*
X12099214Y-7413786D01*
X12113500Y-7442357D01*
X12113500Y-7528071D01*
X12099214Y-7556643D01*
X12084928Y-7570929D01*
X12056357Y-7585214D01*
X11999214Y-7585214D01*
X11970643Y-7570929D01*
X12242071Y-7556643D02*
X12256357Y-7570929D01*
X12242071Y-7585214D01*
X12227786Y-7570929D01*
X12242071Y-7556643D01*
X12242071Y-7585214D01*
X12242071Y-7399500D02*
X12256357Y-7413786D01*
X12242071Y-7428071D01*
X12227786Y-7413786D01*
X12242071Y-7399500D01*
X12242071Y-7428071D01*
X9858500Y-8059500D02*
X9898500Y-8099500D01*
X9898500Y-8059500D02*
X9858500Y-8099500D01*
X10242071Y-7915214D02*
X10270643Y-7915214D01*
X10299214Y-7929500D01*
X10313500Y-7943786D01*
X10327786Y-7972357D01*
X10342071Y-8029500D01*
X10342071Y-8100929D01*
X10327786Y-8158071D01*
X10313500Y-8186643D01*
X10299214Y-8200929D01*
X10270643Y-8215214D01*
X10242071Y-8215214D01*
X10213500Y-8200929D01*
X10199214Y-8186643D01*
X10184928Y-8158071D01*
X10170643Y-8100929D01*
X10170643Y-8029500D01*
X10184928Y-7972357D01*
X10199214Y-7943786D01*
X10213500Y-7929500D01*
X10242071Y-7915214D01*
X10470643Y-8186643D02*
X10484928Y-8200929D01*
X10470643Y-8215214D01*
X10456357Y-8200929D01*
X10470643Y-8186643D01*
X10470643Y-8215214D01*
X10742071Y-8015214D02*
X10742071Y-8215214D01*
X10670643Y-7900929D02*
X10599214Y-8115214D01*
X10784928Y-8115214D01*
X10956357Y-7915214D02*
X10984928Y-7915214D01*
X11013500Y-7929500D01*
X11027786Y-7943786D01*
X11042071Y-7972357D01*
X11056357Y-8029500D01*
X11056357Y-8100929D01*
X11042071Y-8158071D01*
X11027786Y-8186643D01*
X11013500Y-8200929D01*
X10984928Y-8215214D01*
X10956357Y-8215214D01*
X10927786Y-8200929D01*
X10913500Y-8186643D01*
X10899214Y-8158071D01*
X10884928Y-8100929D01*
X10884928Y-8029500D01*
X10899214Y-7972357D01*
X10913500Y-7943786D01*
X10927786Y-7929500D01*
X10956357Y-7915214D01*
X11184928Y-8215214D02*
X11184928Y-8015214D01*
X11184928Y-8043786D02*
X11199214Y-8029500D01*
X11227786Y-8015214D01*
X11270643Y-8015214D01*
X11299214Y-8029500D01*
X11313500Y-8058071D01*
X11313500Y-8215214D01*
X11313500Y-8058071D02*
X11327786Y-8029500D01*
X11356357Y-8015214D01*
X11399214Y-8015214D01*
X11427786Y-8029500D01*
X11442071Y-8058071D01*
X11442071Y-8215214D01*
X11584928Y-8215214D02*
X11584928Y-8015214D01*
X11584928Y-8043786D02*
X11599214Y-8029500D01*
X11627786Y-8015214D01*
X11670643Y-8015214D01*
X11699214Y-8029500D01*
X11713500Y-8058071D01*
X11713500Y-8215214D01*
X11713500Y-8058071D02*
X11727786Y-8029500D01*
X11756357Y-8015214D01*
X11799214Y-8015214D01*
X11827786Y-8029500D01*
X11842071Y-8058071D01*
X11842071Y-8215214D01*
X12427786Y-7900929D02*
X12170643Y-8286643D01*
X12813500Y-7915214D02*
X12842071Y-7915214D01*
X12870643Y-7929500D01*
X12884928Y-7943786D01*
X12899214Y-7972357D01*
X12913500Y-8029500D01*
X12913500Y-8100929D01*
X12899214Y-8158071D01*
X12884928Y-8186643D01*
X12870643Y-8200929D01*
X12842071Y-8215214D01*
X12813500Y-8215214D01*
X12784928Y-8200929D01*
X12770643Y-8186643D01*
X12756357Y-8158071D01*
X12742071Y-8100929D01*
X12742071Y-8029500D01*
X12756357Y-7972357D01*
X12770643Y-7943786D01*
X12784928Y-7929500D01*
X12813500Y-7915214D01*
X13042071Y-8186643D02*
X13056357Y-8200929D01*
X13042071Y-8215214D01*
X13027786Y-8200929D01*
X13042071Y-8186643D01*
X13042071Y-8215214D01*
X13242071Y-7915214D02*
X13270643Y-7915214D01*
X13299214Y-7929500D01*
X13313500Y-7943786D01*
X13327786Y-7972357D01*
X13342071Y-8029500D01*
X13342071Y-8100929D01*
X13327786Y-8158071D01*
X13313500Y-8186643D01*
X13299214Y-8200929D01*
X13270643Y-8215214D01*
X13242071Y-8215214D01*
X13213500Y-8200929D01*
X13199214Y-8186643D01*
X13184928Y-8158071D01*
X13170643Y-8100929D01*
X13170643Y-8029500D01*
X13184928Y-7972357D01*
X13199214Y-7943786D01*
X13213500Y-7929500D01*
X13242071Y-7915214D01*
X13627786Y-8215214D02*
X13456357Y-8215214D01*
X13542071Y-8215214D02*
X13542071Y-7915214D01*
X13513500Y-7958071D01*
X13484928Y-7986643D01*
X13456357Y-8000929D01*
X13884928Y-7915214D02*
X13827786Y-7915214D01*
X13799214Y-7929500D01*
X13784928Y-7943786D01*
X13756357Y-7986643D01*
X13742071Y-8043786D01*
X13742071Y-8158071D01*
X13756357Y-8186643D01*
X13770643Y-8200929D01*
X13799214Y-8215214D01*
X13856357Y-8215214D01*
X13884928Y-8200929D01*
X13899214Y-8186643D01*
X13913500Y-8158071D01*
X13913500Y-8086643D01*
X13899214Y-8058071D01*
X13884928Y-8043786D01*
X13856357Y-8029500D01*
X13799214Y-8029500D01*
X13770643Y-8043786D01*
X13756357Y-8058071D01*
X13742071Y-8086643D01*
X14027786Y-7915214D02*
X14027786Y-7972357D01*
X14142071Y-7915214D02*
X14142071Y-7972357D01*
X14584928Y-8329500D02*
X14570643Y-8315214D01*
X14542071Y-8272357D01*
X14527786Y-8243786D01*
X14513500Y-8200929D01*
X14499214Y-8129500D01*
X14499214Y-8072357D01*
X14513500Y-8000929D01*
X14527786Y-7958071D01*
X14542071Y-7929500D01*
X14570643Y-7886643D01*
X14584928Y-7872357D01*
X14856357Y-8215214D02*
X14684928Y-8215214D01*
X14770643Y-8215214D02*
X14770643Y-7915214D01*
X14742071Y-7958071D01*
X14713500Y-7986643D01*
X14684928Y-8000929D01*
X15213500Y-8215214D02*
X15213500Y-7915214D01*
X15342071Y-8215214D02*
X15342071Y-8058071D01*
X15327786Y-8029500D01*
X15299214Y-8015214D01*
X15256357Y-8015214D01*
X15227786Y-8029500D01*
X15213500Y-8043786D01*
X15527786Y-8215214D02*
X15499214Y-8200929D01*
X15484928Y-8186643D01*
X15470643Y-8158071D01*
X15470643Y-8072357D01*
X15484928Y-8043786D01*
X15499214Y-8029500D01*
X15527786Y-8015214D01*
X15570643Y-8015214D01*
X15599214Y-8029500D01*
X15613500Y-8043786D01*
X15627786Y-8072357D01*
X15627786Y-8158071D01*
X15613500Y-8186643D01*
X15599214Y-8200929D01*
X15570643Y-8215214D01*
X15527786Y-8215214D01*
X15799214Y-8215214D02*
X15770643Y-8200929D01*
X15756357Y-8172357D01*
X15756357Y-7915214D01*
X16027786Y-8200929D02*
X15999214Y-8215214D01*
X15942071Y-8215214D01*
X15913500Y-8200929D01*
X15899214Y-8172357D01*
X15899214Y-8058071D01*
X15913500Y-8029500D01*
X15942071Y-8015214D01*
X15999214Y-8015214D01*
X16027786Y-8029500D01*
X16042071Y-8058071D01*
X16042071Y-8086643D01*
X15899214Y-8115214D01*
X16142071Y-8329500D02*
X16156357Y-8315214D01*
X16184928Y-8272357D01*
X16199214Y-8243786D01*
X16213500Y-8200929D01*
X16227786Y-8129500D01*
X16227786Y-8072357D01*
X16213500Y-8000929D01*
X16199214Y-7958071D01*
X16184928Y-7929500D01*
X16156357Y-7886643D01*
X16142071Y-7872357D01*
X9898500Y-8475500D02*
G75*
G03X9898500Y-8475500I-35000J0D01*
G01*
X10242071Y-8311214D02*
X10270643Y-8311214D01*
X10299214Y-8325500D01*
X10313500Y-8339786D01*
X10327786Y-8368357D01*
X10342071Y-8425500D01*
X10342071Y-8496929D01*
X10327786Y-8554072D01*
X10313500Y-8582643D01*
X10299214Y-8596929D01*
X10270643Y-8611214D01*
X10242071Y-8611214D01*
X10213500Y-8596929D01*
X10199214Y-8582643D01*
X10184928Y-8554072D01*
X10170643Y-8496929D01*
X10170643Y-8425500D01*
X10184928Y-8368357D01*
X10199214Y-8339786D01*
X10213500Y-8325500D01*
X10242071Y-8311214D01*
X10470643Y-8582643D02*
X10484928Y-8596929D01*
X10470643Y-8611214D01*
X10456357Y-8596929D01*
X10470643Y-8582643D01*
X10470643Y-8611214D01*
X10584928Y-8311214D02*
X10784928Y-8311214D01*
X10656357Y-8611214D01*
X10956357Y-8311214D02*
X10984928Y-8311214D01*
X11013500Y-8325500D01*
X11027786Y-8339786D01*
X11042071Y-8368357D01*
X11056357Y-8425500D01*
X11056357Y-8496929D01*
X11042071Y-8554072D01*
X11027786Y-8582643D01*
X11013500Y-8596929D01*
X10984928Y-8611214D01*
X10956357Y-8611214D01*
X10927786Y-8596929D01*
X10913500Y-8582643D01*
X10899214Y-8554072D01*
X10884928Y-8496929D01*
X10884928Y-8425500D01*
X10899214Y-8368357D01*
X10913500Y-8339786D01*
X10927786Y-8325500D01*
X10956357Y-8311214D01*
X11184928Y-8611214D02*
X11184928Y-8411214D01*
X11184928Y-8439786D02*
X11199214Y-8425500D01*
X11227786Y-8411214D01*
X11270643Y-8411214D01*
X11299214Y-8425500D01*
X11313500Y-8454072D01*
X11313500Y-8611214D01*
X11313500Y-8454072D02*
X11327786Y-8425500D01*
X11356357Y-8411214D01*
X11399214Y-8411214D01*
X11427786Y-8425500D01*
X11442071Y-8454072D01*
X11442071Y-8611214D01*
X11584928Y-8611214D02*
X11584928Y-8411214D01*
X11584928Y-8439786D02*
X11599214Y-8425500D01*
X11627786Y-8411214D01*
X11670643Y-8411214D01*
X11699214Y-8425500D01*
X11713500Y-8454072D01*
X11713500Y-8611214D01*
X11713500Y-8454072D02*
X11727786Y-8425500D01*
X11756357Y-8411214D01*
X11799214Y-8411214D01*
X11827786Y-8425500D01*
X11842071Y-8454072D01*
X11842071Y-8611214D01*
X12427786Y-8296929D02*
X12170643Y-8682643D01*
X12813500Y-8311214D02*
X12842071Y-8311214D01*
X12870643Y-8325500D01*
X12884928Y-8339786D01*
X12899214Y-8368357D01*
X12913500Y-8425500D01*
X12913500Y-8496929D01*
X12899214Y-8554072D01*
X12884928Y-8582643D01*
X12870643Y-8596929D01*
X12842071Y-8611214D01*
X12813500Y-8611214D01*
X12784928Y-8596929D01*
X12770643Y-8582643D01*
X12756357Y-8554072D01*
X12742071Y-8496929D01*
X12742071Y-8425500D01*
X12756357Y-8368357D01*
X12770643Y-8339786D01*
X12784928Y-8325500D01*
X12813500Y-8311214D01*
X13042071Y-8582643D02*
X13056357Y-8596929D01*
X13042071Y-8611214D01*
X13027786Y-8596929D01*
X13042071Y-8582643D01*
X13042071Y-8611214D01*
X13242071Y-8311214D02*
X13270643Y-8311214D01*
X13299214Y-8325500D01*
X13313500Y-8339786D01*
X13327786Y-8368357D01*
X13342071Y-8425500D01*
X13342071Y-8496929D01*
X13327786Y-8554072D01*
X13313500Y-8582643D01*
X13299214Y-8596929D01*
X13270643Y-8611214D01*
X13242071Y-8611214D01*
X13213500Y-8596929D01*
X13199214Y-8582643D01*
X13184928Y-8554072D01*
X13170643Y-8496929D01*
X13170643Y-8425500D01*
X13184928Y-8368357D01*
X13199214Y-8339786D01*
X13213500Y-8325500D01*
X13242071Y-8311214D01*
X13456357Y-8339786D02*
X13470643Y-8325500D01*
X13499214Y-8311214D01*
X13570643Y-8311214D01*
X13599214Y-8325500D01*
X13613500Y-8339786D01*
X13627786Y-8368357D01*
X13627786Y-8396929D01*
X13613500Y-8439786D01*
X13442071Y-8611214D01*
X13627786Y-8611214D01*
X13799214Y-8439786D02*
X13770643Y-8425500D01*
X13756357Y-8411214D01*
X13742071Y-8382643D01*
X13742071Y-8368357D01*
X13756357Y-8339786D01*
X13770643Y-8325500D01*
X13799214Y-8311214D01*
X13856357Y-8311214D01*
X13884928Y-8325500D01*
X13899214Y-8339786D01*
X13913500Y-8368357D01*
X13913500Y-8382643D01*
X13899214Y-8411214D01*
X13884928Y-8425500D01*
X13856357Y-8439786D01*
X13799214Y-8439786D01*
X13770643Y-8454072D01*
X13756357Y-8468357D01*
X13742071Y-8496929D01*
X13742071Y-8554072D01*
X13756357Y-8582643D01*
X13770643Y-8596929D01*
X13799214Y-8611214D01*
X13856357Y-8611214D01*
X13884928Y-8596929D01*
X13899214Y-8582643D01*
X13913500Y-8554072D01*
X13913500Y-8496929D01*
X13899214Y-8468357D01*
X13884928Y-8454072D01*
X13856357Y-8439786D01*
X14027786Y-8311214D02*
X14027786Y-8368357D01*
X14142071Y-8311214D02*
X14142071Y-8368357D01*
X14584928Y-8725500D02*
X14570643Y-8711214D01*
X14542071Y-8668357D01*
X14527786Y-8639786D01*
X14513500Y-8596929D01*
X14499214Y-8525500D01*
X14499214Y-8468357D01*
X14513500Y-8396929D01*
X14527786Y-8354071D01*
X14542071Y-8325500D01*
X14570643Y-8282643D01*
X14584928Y-8268357D01*
X14742071Y-8439786D02*
X14713500Y-8425500D01*
X14699214Y-8411214D01*
X14684928Y-8382643D01*
X14684928Y-8368357D01*
X14699214Y-8339786D01*
X14713500Y-8325500D01*
X14742071Y-8311214D01*
X14799214Y-8311214D01*
X14827786Y-8325500D01*
X14842071Y-8339786D01*
X14856357Y-8368357D01*
X14856357Y-8382643D01*
X14842071Y-8411214D01*
X14827786Y-8425500D01*
X14799214Y-8439786D01*
X14742071Y-8439786D01*
X14713500Y-8454072D01*
X14699214Y-8468357D01*
X14684928Y-8496929D01*
X14684928Y-8554072D01*
X14699214Y-8582643D01*
X14713500Y-8596929D01*
X14742071Y-8611214D01*
X14799214Y-8611214D01*
X14827786Y-8596929D01*
X14842071Y-8582643D01*
X14856357Y-8554072D01*
X14856357Y-8496929D01*
X14842071Y-8468357D01*
X14827786Y-8454072D01*
X14799214Y-8439786D01*
X15213500Y-8611214D02*
X15213500Y-8311214D01*
X15342071Y-8611214D02*
X15342071Y-8454072D01*
X15327786Y-8425500D01*
X15299214Y-8411214D01*
X15256357Y-8411214D01*
X15227786Y-8425500D01*
X15213500Y-8439786D01*
X15527786Y-8611214D02*
X15499214Y-8596929D01*
X15484928Y-8582643D01*
X15470643Y-8554072D01*
X15470643Y-8468357D01*
X15484928Y-8439786D01*
X15499214Y-8425500D01*
X15527786Y-8411214D01*
X15570643Y-8411214D01*
X15599214Y-8425500D01*
X15613500Y-8439786D01*
X15627786Y-8468357D01*
X15627786Y-8554072D01*
X15613500Y-8582643D01*
X15599214Y-8596929D01*
X15570643Y-8611214D01*
X15527786Y-8611214D01*
X15799214Y-8611214D02*
X15770643Y-8596929D01*
X15756357Y-8568357D01*
X15756357Y-8311214D01*
X16027786Y-8596929D02*
X15999214Y-8611214D01*
X15942071Y-8611214D01*
X15913500Y-8596929D01*
X15899214Y-8568357D01*
X15899214Y-8454072D01*
X15913500Y-8425500D01*
X15942071Y-8411214D01*
X15999214Y-8411214D01*
X16027786Y-8425500D01*
X16042071Y-8454072D01*
X16042071Y-8482643D01*
X15899214Y-8511214D01*
X16156357Y-8596929D02*
X16184928Y-8611214D01*
X16242071Y-8611214D01*
X16270643Y-8596929D01*
X16284928Y-8568357D01*
X16284928Y-8554072D01*
X16270643Y-8525500D01*
X16242071Y-8511214D01*
X16199214Y-8511214D01*
X16170643Y-8496929D01*
X16156357Y-8468357D01*
X16156357Y-8454072D01*
X16170643Y-8425500D01*
X16199214Y-8411214D01*
X16242071Y-8411214D01*
X16270643Y-8425500D01*
X16384928Y-8725500D02*
X16399214Y-8711214D01*
X16427786Y-8668357D01*
X16442071Y-8639786D01*
X16456357Y-8596929D01*
X16470643Y-8525500D01*
X16470643Y-8468357D01*
X16456357Y-8396929D01*
X16442071Y-8354071D01*
X16427786Y-8325500D01*
X16399214Y-8282643D01*
X16384928Y-8268357D01*
X9858500Y-8831500D02*
X9858500Y-8911500D01*
X9818500Y-8871500D02*
X9898500Y-8871500D01*
X10242071Y-8707214D02*
X10270643Y-8707214D01*
X10299214Y-8721500D01*
X10313500Y-8735786D01*
X10327786Y-8764357D01*
X10342071Y-8821500D01*
X10342071Y-8892929D01*
X10327786Y-8950072D01*
X10313500Y-8978643D01*
X10299214Y-8992929D01*
X10270643Y-9007214D01*
X10242071Y-9007214D01*
X10213500Y-8992929D01*
X10199214Y-8978643D01*
X10184928Y-8950072D01*
X10170643Y-8892929D01*
X10170643Y-8821500D01*
X10184928Y-8764357D01*
X10199214Y-8735786D01*
X10213500Y-8721500D01*
X10242071Y-8707214D01*
X10470643Y-8978643D02*
X10484928Y-8992929D01*
X10470643Y-9007214D01*
X10456357Y-8992929D01*
X10470643Y-8978643D01*
X10470643Y-9007214D01*
X10656357Y-8835786D02*
X10627786Y-8821500D01*
X10613500Y-8807214D01*
X10599214Y-8778643D01*
X10599214Y-8764357D01*
X10613500Y-8735786D01*
X10627786Y-8721500D01*
X10656357Y-8707214D01*
X10713500Y-8707214D01*
X10742071Y-8721500D01*
X10756357Y-8735786D01*
X10770643Y-8764357D01*
X10770643Y-8778643D01*
X10756357Y-8807214D01*
X10742071Y-8821500D01*
X10713500Y-8835786D01*
X10656357Y-8835786D01*
X10627786Y-8850072D01*
X10613500Y-8864357D01*
X10599214Y-8892929D01*
X10599214Y-8950072D01*
X10613500Y-8978643D01*
X10627786Y-8992929D01*
X10656357Y-9007214D01*
X10713500Y-9007214D01*
X10742071Y-8992929D01*
X10756357Y-8978643D01*
X10770643Y-8950072D01*
X10770643Y-8892929D01*
X10756357Y-8864357D01*
X10742071Y-8850072D01*
X10713500Y-8835786D01*
X10956357Y-8707214D02*
X10984928Y-8707214D01*
X11013500Y-8721500D01*
X11027786Y-8735786D01*
X11042071Y-8764357D01*
X11056357Y-8821500D01*
X11056357Y-8892929D01*
X11042071Y-8950072D01*
X11027786Y-8978643D01*
X11013500Y-8992929D01*
X10984928Y-9007214D01*
X10956357Y-9007214D01*
X10927786Y-8992929D01*
X10913500Y-8978643D01*
X10899214Y-8950072D01*
X10884928Y-8892929D01*
X10884928Y-8821500D01*
X10899214Y-8764357D01*
X10913500Y-8735786D01*
X10927786Y-8721500D01*
X10956357Y-8707214D01*
X11184928Y-9007214D02*
X11184928Y-8807214D01*
X11184928Y-8835786D02*
X11199214Y-8821500D01*
X11227786Y-8807214D01*
X11270643Y-8807214D01*
X11299214Y-8821500D01*
X11313500Y-8850072D01*
X11313500Y-9007214D01*
X11313500Y-8850072D02*
X11327786Y-8821500D01*
X11356357Y-8807214D01*
X11399214Y-8807214D01*
X11427786Y-8821500D01*
X11442071Y-8850072D01*
X11442071Y-9007214D01*
X11584928Y-9007214D02*
X11584928Y-8807214D01*
X11584928Y-8835786D02*
X11599214Y-8821500D01*
X11627786Y-8807214D01*
X11670643Y-8807214D01*
X11699214Y-8821500D01*
X11713500Y-8850072D01*
X11713500Y-9007214D01*
X11713500Y-8850072D02*
X11727786Y-8821500D01*
X11756357Y-8807214D01*
X11799214Y-8807214D01*
X11827786Y-8821500D01*
X11842071Y-8850072D01*
X11842071Y-9007214D01*
X12427786Y-8692929D02*
X12170643Y-9078643D01*
X12813500Y-8707214D02*
X12842071Y-8707214D01*
X12870643Y-8721500D01*
X12884928Y-8735786D01*
X12899214Y-8764357D01*
X12913500Y-8821500D01*
X12913500Y-8892929D01*
X12899214Y-8950072D01*
X12884928Y-8978643D01*
X12870643Y-8992929D01*
X12842071Y-9007214D01*
X12813500Y-9007214D01*
X12784928Y-8992929D01*
X12770643Y-8978643D01*
X12756357Y-8950072D01*
X12742071Y-8892929D01*
X12742071Y-8821500D01*
X12756357Y-8764357D01*
X12770643Y-8735786D01*
X12784928Y-8721500D01*
X12813500Y-8707214D01*
X13042071Y-8978643D02*
X13056357Y-8992929D01*
X13042071Y-9007214D01*
X13027786Y-8992929D01*
X13042071Y-8978643D01*
X13042071Y-9007214D01*
X13242071Y-8707214D02*
X13270643Y-8707214D01*
X13299214Y-8721500D01*
X13313500Y-8735786D01*
X13327786Y-8764357D01*
X13342071Y-8821500D01*
X13342071Y-8892929D01*
X13327786Y-8950072D01*
X13313500Y-8978643D01*
X13299214Y-8992929D01*
X13270643Y-9007214D01*
X13242071Y-9007214D01*
X13213500Y-8992929D01*
X13199214Y-8978643D01*
X13184928Y-8950072D01*
X13170643Y-8892929D01*
X13170643Y-8821500D01*
X13184928Y-8764357D01*
X13199214Y-8735786D01*
X13213500Y-8721500D01*
X13242071Y-8707214D01*
X13442071Y-8707214D02*
X13627786Y-8707214D01*
X13527786Y-8821500D01*
X13570643Y-8821500D01*
X13599214Y-8835786D01*
X13613500Y-8850072D01*
X13627786Y-8878643D01*
X13627786Y-8950072D01*
X13613500Y-8978643D01*
X13599214Y-8992929D01*
X13570643Y-9007214D01*
X13484928Y-9007214D01*
X13456357Y-8992929D01*
X13442071Y-8978643D01*
X13913500Y-9007214D02*
X13742071Y-9007214D01*
X13827786Y-9007214D02*
X13827786Y-8707214D01*
X13799214Y-8750072D01*
X13770643Y-8778643D01*
X13742071Y-8792929D01*
X14027786Y-8707214D02*
X14027786Y-8764357D01*
X14142071Y-8707214D02*
X14142071Y-8764357D01*
X14584928Y-9121500D02*
X14570643Y-9107214D01*
X14542071Y-9064357D01*
X14527786Y-9035786D01*
X14513500Y-8992929D01*
X14499214Y-8921500D01*
X14499214Y-8864357D01*
X14513500Y-8792929D01*
X14527786Y-8750072D01*
X14542071Y-8721500D01*
X14570643Y-8678643D01*
X14584928Y-8664357D01*
X14742071Y-8835786D02*
X14713500Y-8821500D01*
X14699214Y-8807214D01*
X14684928Y-8778643D01*
X14684928Y-8764357D01*
X14699214Y-8735786D01*
X14713500Y-8721500D01*
X14742071Y-8707214D01*
X14799214Y-8707214D01*
X14827786Y-8721500D01*
X14842071Y-8735786D01*
X14856357Y-8764357D01*
X14856357Y-8778643D01*
X14842071Y-8807214D01*
X14827786Y-8821500D01*
X14799214Y-8835786D01*
X14742071Y-8835786D01*
X14713500Y-8850072D01*
X14699214Y-8864357D01*
X14684928Y-8892929D01*
X14684928Y-8950072D01*
X14699214Y-8978643D01*
X14713500Y-8992929D01*
X14742071Y-9007214D01*
X14799214Y-9007214D01*
X14827786Y-8992929D01*
X14842071Y-8978643D01*
X14856357Y-8950072D01*
X14856357Y-8892929D01*
X14842071Y-8864357D01*
X14827786Y-8850072D01*
X14799214Y-8835786D01*
X15213500Y-9007214D02*
X15213500Y-8707214D01*
X15342071Y-9007214D02*
X15342071Y-8850072D01*
X15327786Y-8821500D01*
X15299214Y-8807214D01*
X15256357Y-8807214D01*
X15227786Y-8821500D01*
X15213500Y-8835786D01*
X15527786Y-9007214D02*
X15499214Y-8992929D01*
X15484928Y-8978643D01*
X15470643Y-8950072D01*
X15470643Y-8864357D01*
X15484928Y-8835786D01*
X15499214Y-8821500D01*
X15527786Y-8807214D01*
X15570643Y-8807214D01*
X15599214Y-8821500D01*
X15613500Y-8835786D01*
X15627786Y-8864357D01*
X15627786Y-8950072D01*
X15613500Y-8978643D01*
X15599214Y-8992929D01*
X15570643Y-9007214D01*
X15527786Y-9007214D01*
X15799214Y-9007214D02*
X15770643Y-8992929D01*
X15756357Y-8964357D01*
X15756357Y-8707214D01*
X16027786Y-8992929D02*
X15999214Y-9007214D01*
X15942071Y-9007214D01*
X15913500Y-8992929D01*
X15899214Y-8964357D01*
X15899214Y-8850072D01*
X15913500Y-8821500D01*
X15942071Y-8807214D01*
X15999214Y-8807214D01*
X16027786Y-8821500D01*
X16042071Y-8850072D01*
X16042071Y-8878643D01*
X15899214Y-8907214D01*
X16156357Y-8992929D02*
X16184928Y-9007214D01*
X16242071Y-9007214D01*
X16270643Y-8992929D01*
X16284928Y-8964357D01*
X16284928Y-8950072D01*
X16270643Y-8921500D01*
X16242071Y-8907214D01*
X16199214Y-8907214D01*
X16170643Y-8892929D01*
X16156357Y-8864357D01*
X16156357Y-8850072D01*
X16170643Y-8821500D01*
X16199214Y-8807214D01*
X16242071Y-8807214D01*
X16270643Y-8821500D01*
X16384928Y-9121500D02*
X16399214Y-9107214D01*
X16427786Y-9064357D01*
X16442071Y-9035786D01*
X16456357Y-8992929D01*
X16470643Y-8921500D01*
X16470643Y-8864357D01*
X16456357Y-8792929D01*
X16442071Y-8750072D01*
X16427786Y-8721500D01*
X16399214Y-8678643D01*
X16384928Y-8664357D01*
X9885320Y-9299320D02*
X9885320Y-9235680D01*
X9821680Y-9235680D01*
X9821680Y-9299320D01*
X9885320Y-9299320D01*
X10242071Y-9103214D02*
X10270643Y-9103214D01*
X10299214Y-9117500D01*
X10313500Y-9131786D01*
X10327786Y-9160357D01*
X10342071Y-9217500D01*
X10342071Y-9288929D01*
X10327786Y-9346072D01*
X10313500Y-9374643D01*
X10299214Y-9388929D01*
X10270643Y-9403214D01*
X10242071Y-9403214D01*
X10213500Y-9388929D01*
X10199214Y-9374643D01*
X10184928Y-9346072D01*
X10170643Y-9288929D01*
X10170643Y-9217500D01*
X10184928Y-9160357D01*
X10199214Y-9131786D01*
X10213500Y-9117500D01*
X10242071Y-9103214D01*
X10470643Y-9374643D02*
X10484928Y-9388929D01*
X10470643Y-9403214D01*
X10456357Y-9388929D01*
X10470643Y-9374643D01*
X10470643Y-9403214D01*
X10627786Y-9403214D02*
X10684928Y-9403214D01*
X10713500Y-9388929D01*
X10727786Y-9374643D01*
X10756357Y-9331786D01*
X10770643Y-9274643D01*
X10770643Y-9160357D01*
X10756357Y-9131786D01*
X10742071Y-9117500D01*
X10713500Y-9103214D01*
X10656357Y-9103214D01*
X10627786Y-9117500D01*
X10613500Y-9131786D01*
X10599214Y-9160357D01*
X10599214Y-9231786D01*
X10613500Y-9260357D01*
X10627786Y-9274643D01*
X10656357Y-9288929D01*
X10713500Y-9288929D01*
X10742071Y-9274643D01*
X10756357Y-9260357D01*
X10770643Y-9231786D01*
X10956357Y-9103214D02*
X10984928Y-9103214D01*
X11013500Y-9117500D01*
X11027786Y-9131786D01*
X11042071Y-9160357D01*
X11056357Y-9217500D01*
X11056357Y-9288929D01*
X11042071Y-9346072D01*
X11027786Y-9374643D01*
X11013500Y-9388929D01*
X10984928Y-9403214D01*
X10956357Y-9403214D01*
X10927786Y-9388929D01*
X10913500Y-9374643D01*
X10899214Y-9346072D01*
X10884928Y-9288929D01*
X10884928Y-9217500D01*
X10899214Y-9160357D01*
X10913500Y-9131786D01*
X10927786Y-9117500D01*
X10956357Y-9103214D01*
X11184928Y-9403214D02*
X11184928Y-9203214D01*
X11184928Y-9231786D02*
X11199214Y-9217500D01*
X11227786Y-9203214D01*
X11270643Y-9203214D01*
X11299214Y-9217500D01*
X11313500Y-9246072D01*
X11313500Y-9403214D01*
X11313500Y-9246072D02*
X11327786Y-9217500D01*
X11356357Y-9203214D01*
X11399214Y-9203214D01*
X11427786Y-9217500D01*
X11442071Y-9246072D01*
X11442071Y-9403214D01*
X11584928Y-9403214D02*
X11584928Y-9203214D01*
X11584928Y-9231786D02*
X11599214Y-9217500D01*
X11627786Y-9203214D01*
X11670643Y-9203214D01*
X11699214Y-9217500D01*
X11713500Y-9246072D01*
X11713500Y-9403214D01*
X11713500Y-9246072D02*
X11727786Y-9217500D01*
X11756357Y-9203214D01*
X11799214Y-9203214D01*
X11827786Y-9217500D01*
X11842071Y-9246072D01*
X11842071Y-9403214D01*
X12427786Y-9088929D02*
X12170643Y-9474643D01*
X12813500Y-9103214D02*
X12842071Y-9103214D01*
X12870643Y-9117500D01*
X12884928Y-9131786D01*
X12899214Y-9160357D01*
X12913500Y-9217500D01*
X12913500Y-9288929D01*
X12899214Y-9346072D01*
X12884928Y-9374643D01*
X12870643Y-9388929D01*
X12842071Y-9403214D01*
X12813500Y-9403214D01*
X12784928Y-9388929D01*
X12770643Y-9374643D01*
X12756357Y-9346072D01*
X12742071Y-9288929D01*
X12742071Y-9217500D01*
X12756357Y-9160357D01*
X12770643Y-9131786D01*
X12784928Y-9117500D01*
X12813500Y-9103214D01*
X13042071Y-9374643D02*
X13056357Y-9388929D01*
X13042071Y-9403214D01*
X13027786Y-9388929D01*
X13042071Y-9374643D01*
X13042071Y-9403214D01*
X13242071Y-9103214D02*
X13270643Y-9103214D01*
X13299214Y-9117500D01*
X13313500Y-9131786D01*
X13327786Y-9160357D01*
X13342071Y-9217500D01*
X13342071Y-9288929D01*
X13327786Y-9346072D01*
X13313500Y-9374643D01*
X13299214Y-9388929D01*
X13270643Y-9403214D01*
X13242071Y-9403214D01*
X13213500Y-9388929D01*
X13199214Y-9374643D01*
X13184928Y-9346072D01*
X13170643Y-9288929D01*
X13170643Y-9217500D01*
X13184928Y-9160357D01*
X13199214Y-9131786D01*
X13213500Y-9117500D01*
X13242071Y-9103214D01*
X13442071Y-9103214D02*
X13627786Y-9103214D01*
X13527786Y-9217500D01*
X13570643Y-9217500D01*
X13599214Y-9231786D01*
X13613500Y-9246072D01*
X13627786Y-9274643D01*
X13627786Y-9346072D01*
X13613500Y-9374643D01*
X13599214Y-9388929D01*
X13570643Y-9403214D01*
X13484928Y-9403214D01*
X13456357Y-9388929D01*
X13442071Y-9374643D01*
X13899214Y-9103214D02*
X13756357Y-9103214D01*
X13742071Y-9246072D01*
X13756357Y-9231786D01*
X13784928Y-9217500D01*
X13856357Y-9217500D01*
X13884928Y-9231786D01*
X13899214Y-9246072D01*
X13913500Y-9274643D01*
X13913500Y-9346072D01*
X13899214Y-9374643D01*
X13884928Y-9388929D01*
X13856357Y-9403214D01*
X13784928Y-9403214D01*
X13756357Y-9388929D01*
X13742071Y-9374643D01*
X14027786Y-9103214D02*
X14027786Y-9160357D01*
X14142071Y-9103214D02*
X14142071Y-9160357D01*
X14584928Y-9517500D02*
X14570643Y-9503214D01*
X14542071Y-9460357D01*
X14527786Y-9431786D01*
X14513500Y-9388929D01*
X14499214Y-9317500D01*
X14499214Y-9260357D01*
X14513500Y-9188929D01*
X14527786Y-9146072D01*
X14542071Y-9117500D01*
X14570643Y-9074643D01*
X14584928Y-9060357D01*
X14827786Y-9203214D02*
X14827786Y-9403214D01*
X14756357Y-9088929D02*
X14684928Y-9303214D01*
X14870643Y-9303214D01*
X15213500Y-9403214D02*
X15213500Y-9103214D01*
X15342071Y-9403214D02*
X15342071Y-9246072D01*
X15327786Y-9217500D01*
X15299214Y-9203214D01*
X15256357Y-9203214D01*
X15227786Y-9217500D01*
X15213500Y-9231786D01*
X15527786Y-9403214D02*
X15499214Y-9388929D01*
X15484928Y-9374643D01*
X15470643Y-9346072D01*
X15470643Y-9260357D01*
X15484928Y-9231786D01*
X15499214Y-9217500D01*
X15527786Y-9203214D01*
X15570643Y-9203214D01*
X15599214Y-9217500D01*
X15613500Y-9231786D01*
X15627786Y-9260357D01*
X15627786Y-9346072D01*
X15613500Y-9374643D01*
X15599214Y-9388929D01*
X15570643Y-9403214D01*
X15527786Y-9403214D01*
X15799214Y-9403214D02*
X15770643Y-9388929D01*
X15756357Y-9360357D01*
X15756357Y-9103214D01*
X16027786Y-9388929D02*
X15999214Y-9403214D01*
X15942071Y-9403214D01*
X15913500Y-9388929D01*
X15899214Y-9360357D01*
X15899214Y-9246072D01*
X15913500Y-9217500D01*
X15942071Y-9203214D01*
X15999214Y-9203214D01*
X16027786Y-9217500D01*
X16042071Y-9246072D01*
X16042071Y-9274643D01*
X15899214Y-9303214D01*
X16156357Y-9388929D02*
X16184928Y-9403214D01*
X16242071Y-9403214D01*
X16270643Y-9388929D01*
X16284928Y-9360357D01*
X16284928Y-9346072D01*
X16270643Y-9317500D01*
X16242071Y-9303214D01*
X16199214Y-9303214D01*
X16170643Y-9288929D01*
X16156357Y-9260357D01*
X16156357Y-9246072D01*
X16170643Y-9217500D01*
X16199214Y-9203214D01*
X16242071Y-9203214D01*
X16270643Y-9217500D01*
X16384928Y-9517500D02*
X16399214Y-9503214D01*
X16427786Y-9460357D01*
X16442071Y-9431786D01*
X16456357Y-9388929D01*
X16470643Y-9317500D01*
X16470643Y-9260357D01*
X16456357Y-9188929D01*
X16442071Y-9146072D01*
X16427786Y-9117500D01*
X16399214Y-9074643D01*
X16384928Y-9060357D01*
X9848500Y-9713500D02*
X9898500Y-9663500D01*
X9848500Y-9613500D01*
X9798500Y-9663500D01*
X9848500Y-9713500D01*
X10342071Y-9799214D02*
X10170643Y-9799214D01*
X10256357Y-9799214D02*
X10256357Y-9499214D01*
X10227786Y-9542072D01*
X10199214Y-9570643D01*
X10170643Y-9584929D01*
X10470643Y-9770643D02*
X10484928Y-9784929D01*
X10470643Y-9799214D01*
X10456357Y-9784929D01*
X10470643Y-9770643D01*
X10470643Y-9799214D01*
X10670643Y-9499214D02*
X10699214Y-9499214D01*
X10727786Y-9513500D01*
X10742071Y-9527786D01*
X10756357Y-9556357D01*
X10770643Y-9613500D01*
X10770643Y-9684929D01*
X10756357Y-9742072D01*
X10742071Y-9770643D01*
X10727786Y-9784929D01*
X10699214Y-9799214D01*
X10670643Y-9799214D01*
X10642071Y-9784929D01*
X10627786Y-9770643D01*
X10613500Y-9742072D01*
X10599214Y-9684929D01*
X10599214Y-9613500D01*
X10613500Y-9556357D01*
X10627786Y-9527786D01*
X10642071Y-9513500D01*
X10670643Y-9499214D01*
X10956357Y-9499214D02*
X10984928Y-9499214D01*
X11013500Y-9513500D01*
X11027786Y-9527786D01*
X11042071Y-9556357D01*
X11056357Y-9613500D01*
X11056357Y-9684929D01*
X11042071Y-9742072D01*
X11027786Y-9770643D01*
X11013500Y-9784929D01*
X10984928Y-9799214D01*
X10956357Y-9799214D01*
X10927786Y-9784929D01*
X10913500Y-9770643D01*
X10899214Y-9742072D01*
X10884928Y-9684929D01*
X10884928Y-9613500D01*
X10899214Y-9556357D01*
X10913500Y-9527786D01*
X10927786Y-9513500D01*
X10956357Y-9499214D01*
X11184928Y-9799214D02*
X11184928Y-9599214D01*
X11184928Y-9627786D02*
X11199214Y-9613500D01*
X11227786Y-9599214D01*
X11270643Y-9599214D01*
X11299214Y-9613500D01*
X11313500Y-9642072D01*
X11313500Y-9799214D01*
X11313500Y-9642072D02*
X11327786Y-9613500D01*
X11356357Y-9599214D01*
X11399214Y-9599214D01*
X11427786Y-9613500D01*
X11442071Y-9642072D01*
X11442071Y-9799214D01*
X11584928Y-9799214D02*
X11584928Y-9599214D01*
X11584928Y-9627786D02*
X11599214Y-9613500D01*
X11627786Y-9599214D01*
X11670643Y-9599214D01*
X11699214Y-9613500D01*
X11713500Y-9642072D01*
X11713500Y-9799214D01*
X11713500Y-9642072D02*
X11727786Y-9613500D01*
X11756357Y-9599214D01*
X11799214Y-9599214D01*
X11827786Y-9613500D01*
X11842071Y-9642072D01*
X11842071Y-9799214D01*
X12427786Y-9484929D02*
X12170643Y-9870643D01*
X12813500Y-9499214D02*
X12842071Y-9499214D01*
X12870643Y-9513500D01*
X12884928Y-9527786D01*
X12899214Y-9556357D01*
X12913500Y-9613500D01*
X12913500Y-9684929D01*
X12899214Y-9742072D01*
X12884928Y-9770643D01*
X12870643Y-9784929D01*
X12842071Y-9799214D01*
X12813500Y-9799214D01*
X12784928Y-9784929D01*
X12770643Y-9770643D01*
X12756357Y-9742072D01*
X12742071Y-9684929D01*
X12742071Y-9613500D01*
X12756357Y-9556357D01*
X12770643Y-9527786D01*
X12784928Y-9513500D01*
X12813500Y-9499214D01*
X13042071Y-9770643D02*
X13056357Y-9784929D01*
X13042071Y-9799214D01*
X13027786Y-9784929D01*
X13042071Y-9770643D01*
X13042071Y-9799214D01*
X13242071Y-9499214D02*
X13270643Y-9499214D01*
X13299214Y-9513500D01*
X13313500Y-9527786D01*
X13327786Y-9556357D01*
X13342071Y-9613500D01*
X13342071Y-9684929D01*
X13327786Y-9742072D01*
X13313500Y-9770643D01*
X13299214Y-9784929D01*
X13270643Y-9799214D01*
X13242071Y-9799214D01*
X13213500Y-9784929D01*
X13199214Y-9770643D01*
X13184928Y-9742072D01*
X13170643Y-9684929D01*
X13170643Y-9613500D01*
X13184928Y-9556357D01*
X13199214Y-9527786D01*
X13213500Y-9513500D01*
X13242071Y-9499214D01*
X13442071Y-9499214D02*
X13627786Y-9499214D01*
X13527786Y-9613500D01*
X13570643Y-9613500D01*
X13599214Y-9627786D01*
X13613500Y-9642072D01*
X13627786Y-9670643D01*
X13627786Y-9742072D01*
X13613500Y-9770643D01*
X13599214Y-9784929D01*
X13570643Y-9799214D01*
X13484928Y-9799214D01*
X13456357Y-9784929D01*
X13442071Y-9770643D01*
X13770643Y-9799214D02*
X13827786Y-9799214D01*
X13856357Y-9784929D01*
X13870643Y-9770643D01*
X13899214Y-9727786D01*
X13913500Y-9670643D01*
X13913500Y-9556357D01*
X13899214Y-9527786D01*
X13884928Y-9513500D01*
X13856357Y-9499214D01*
X13799214Y-9499214D01*
X13770643Y-9513500D01*
X13756357Y-9527786D01*
X13742071Y-9556357D01*
X13742071Y-9627786D01*
X13756357Y-9656357D01*
X13770643Y-9670643D01*
X13799214Y-9684929D01*
X13856357Y-9684929D01*
X13884928Y-9670643D01*
X13899214Y-9656357D01*
X13913500Y-9627786D01*
X14027786Y-9499214D02*
X14027786Y-9556357D01*
X14142071Y-9499214D02*
X14142071Y-9556357D01*
X14584928Y-9913500D02*
X14570643Y-9899214D01*
X14542071Y-9856357D01*
X14527786Y-9827786D01*
X14513500Y-9784929D01*
X14499214Y-9713500D01*
X14499214Y-9656357D01*
X14513500Y-9584929D01*
X14527786Y-9542072D01*
X14542071Y-9513500D01*
X14570643Y-9470643D01*
X14584928Y-9456357D01*
X14684928Y-9527786D02*
X14699214Y-9513500D01*
X14727786Y-9499214D01*
X14799214Y-9499214D01*
X14827786Y-9513500D01*
X14842071Y-9527786D01*
X14856357Y-9556357D01*
X14856357Y-9584929D01*
X14842071Y-9627786D01*
X14670643Y-9799214D01*
X14856357Y-9799214D01*
X15213500Y-9799214D02*
X15213500Y-9499214D01*
X15342071Y-9799214D02*
X15342071Y-9642072D01*
X15327786Y-9613500D01*
X15299214Y-9599214D01*
X15256357Y-9599214D01*
X15227786Y-9613500D01*
X15213500Y-9627786D01*
X15527786Y-9799214D02*
X15499214Y-9784929D01*
X15484928Y-9770643D01*
X15470643Y-9742072D01*
X15470643Y-9656357D01*
X15484928Y-9627786D01*
X15499214Y-9613500D01*
X15527786Y-9599214D01*
X15570643Y-9599214D01*
X15599214Y-9613500D01*
X15613500Y-9627786D01*
X15627786Y-9656357D01*
X15627786Y-9742072D01*
X15613500Y-9770643D01*
X15599214Y-9784929D01*
X15570643Y-9799214D01*
X15527786Y-9799214D01*
X15799214Y-9799214D02*
X15770643Y-9784929D01*
X15756357Y-9756357D01*
X15756357Y-9499214D01*
X16027786Y-9784929D02*
X15999214Y-9799214D01*
X15942071Y-9799214D01*
X15913500Y-9784929D01*
X15899214Y-9756357D01*
X15899214Y-9642072D01*
X15913500Y-9613500D01*
X15942071Y-9599214D01*
X15999214Y-9599214D01*
X16027786Y-9613500D01*
X16042071Y-9642072D01*
X16042071Y-9670643D01*
X15899214Y-9699214D01*
X16156357Y-9784929D02*
X16184928Y-9799214D01*
X16242071Y-9799214D01*
X16270643Y-9784929D01*
X16284928Y-9756357D01*
X16284928Y-9742072D01*
X16270643Y-9713500D01*
X16242071Y-9699214D01*
X16199214Y-9699214D01*
X16170643Y-9684929D01*
X16156357Y-9656357D01*
X16156357Y-9642072D01*
X16170643Y-9613500D01*
X16199214Y-9599214D01*
X16242071Y-9599214D01*
X16270643Y-9613500D01*
X16384928Y-9913500D02*
X16399214Y-9899214D01*
X16427786Y-9856357D01*
X16442071Y-9827786D01*
X16456357Y-9784929D01*
X16470643Y-9713500D01*
X16470643Y-9656357D01*
X16456357Y-9584929D01*
X16442071Y-9542072D01*
X16427786Y-9513500D01*
X16399214Y-9470643D01*
X16384928Y-9456357D01*
M02*
