G04 #@! TF.GenerationSoftware,KiCad,Pcbnew,5.0.2+dfsg1-1+deb10u1*
G04 #@! TF.CreationDate,2023-01-12T16:54:00+08:00*
G04 #@! TF.ProjectId,555-blinker,3535352d-626c-4696-9e6b-65722e6b6963,1.0*
G04 #@! TF.SameCoordinates,Original*
G04 #@! TF.FileFunction,Copper,L1,Top*
G04 #@! TF.FilePolarity,Positive*
%FSLAX46Y46*%
G04 Gerber Fmt 4.6, Leading zero omitted, Abs format (unit mm)*
G04 Created by KiCad (PCBNEW 5.0.2+dfsg1-1+deb10u1) date Thu 12 Jan 2023 04:54:00 PM +08*
%MOMM*%
%LPD*%
G01*
G04 APERTURE LIST*
G04 #@! TA.AperFunction,ComponentPad*
%ADD10R,1.700000X1.700000*%
G04 #@! TD*
G04 #@! TA.AperFunction,ComponentPad*
%ADD11O,1.700000X1.700000*%
G04 #@! TD*
G04 #@! TA.AperFunction,ComponentPad*
%ADD12C,1.800000*%
G04 #@! TD*
G04 #@! TA.AperFunction,ComponentPad*
%ADD13R,1.800000X1.800000*%
G04 #@! TD*
G04 #@! TA.AperFunction,ComponentPad*
%ADD14R,1.600000X1.600000*%
G04 #@! TD*
G04 #@! TA.AperFunction,ComponentPad*
%ADD15O,1.600000X1.600000*%
G04 #@! TD*
G04 #@! TA.AperFunction,ComponentPad*
%ADD16O,1.400000X1.400000*%
G04 #@! TD*
G04 #@! TA.AperFunction,ComponentPad*
%ADD17C,1.400000*%
G04 #@! TD*
G04 #@! TA.AperFunction,ViaPad*
%ADD18C,0.800000*%
G04 #@! TD*
G04 #@! TA.AperFunction,Conductor*
%ADD19C,0.250000*%
G04 #@! TD*
G04 APERTURE END LIST*
D10*
G04 #@! TO.P,BT1,1*
G04 #@! TO.N,VCC*
X104140000Y-52070000D03*
D11*
G04 #@! TO.P,BT1,2*
G04 #@! TO.N,GND*
X104140000Y-54610000D03*
G04 #@! TD*
D12*
G04 #@! TO.P,D2,2*
G04 #@! TO.N,Net-(D2-Pad2)*
X151130000Y-66040000D03*
D13*
G04 #@! TO.P,D2,1*
G04 #@! TO.N,GND*
X148590000Y-66040000D03*
G04 #@! TD*
G04 #@! TO.P,D1,1*
G04 #@! TO.N,Net-(D1-Pad1)*
X143510000Y-59690000D03*
D12*
G04 #@! TO.P,D1,2*
G04 #@! TO.N,Net-(D1-Pad2)*
X143510000Y-57150000D03*
G04 #@! TD*
D14*
G04 #@! TO.P,U1,1*
G04 #@! TO.N,GND*
X125730000Y-57150000D03*
D15*
G04 #@! TO.P,U1,5*
G04 #@! TO.N,Net-(U1-Pad5)*
X133350000Y-49530000D03*
G04 #@! TO.P,U1,2*
G04 #@! TO.N,Net-(R1-Pad2)*
X128270000Y-57150000D03*
G04 #@! TO.P,U1,6*
X130810000Y-49530000D03*
G04 #@! TO.P,U1,3*
G04 #@! TO.N,Net-(D1-Pad1)*
X130810000Y-57150000D03*
G04 #@! TO.P,U1,7*
G04 #@! TO.N,Net-(R2-Pad2)*
X128270000Y-49530000D03*
G04 #@! TO.P,U1,4*
G04 #@! TO.N,VCC*
X133350000Y-57150000D03*
G04 #@! TO.P,U1,8*
X125730000Y-49530000D03*
G04 #@! TD*
D16*
G04 #@! TO.P,R4,2*
G04 #@! TO.N,Net-(D2-Pad2)*
X154940000Y-53340000D03*
D17*
G04 #@! TO.P,R4,1*
G04 #@! TO.N,Net-(D1-Pad1)*
X149860000Y-53340000D03*
G04 #@! TD*
G04 #@! TO.P,R3,1*
G04 #@! TO.N,VCC*
X143510000Y-38100000D03*
D16*
G04 #@! TO.P,R3,2*
G04 #@! TO.N,Net-(D1-Pad2)*
X148590000Y-38100000D03*
G04 #@! TD*
G04 #@! TO.P,R2,2*
G04 #@! TO.N,Net-(R2-Pad2)*
X138430000Y-46990000D03*
D17*
G04 #@! TO.P,R2,1*
G04 #@! TO.N,Net-(R1-Pad2)*
X143510000Y-46990000D03*
G04 #@! TD*
G04 #@! TO.P,R1,1*
G04 #@! TO.N,VCC*
X134620000Y-41910000D03*
D16*
G04 #@! TO.P,R1,2*
G04 #@! TO.N,Net-(R1-Pad2)*
X139700000Y-41910000D03*
G04 #@! TD*
D18*
G04 #@! TO.N,Net-(D2-Pad2)*
X154940000Y-59690000D03*
G04 #@! TD*
D19*
G04 #@! TO.N,VCC*
X104140000Y-52070000D02*
X104140000Y-50800000D01*
X104140000Y-50800000D02*
X105410000Y-49530000D01*
X105410000Y-49530000D02*
X125730000Y-49530000D01*
X143510000Y-38100000D02*
X134620000Y-38100000D01*
X134620000Y-38100000D02*
X134620000Y-41910000D01*
X134620000Y-41910000D02*
X127000000Y-41910000D01*
X127000000Y-41910000D02*
X125730000Y-43180000D01*
X125730000Y-43180000D02*
X125730000Y-49530000D01*
X133350000Y-54610000D02*
X133350000Y-57150000D01*
X127000000Y-53340000D02*
X132080000Y-53340000D01*
X125730000Y-49530000D02*
X125730000Y-52070000D01*
X132080000Y-53340000D02*
X133350000Y-54610000D01*
X125730000Y-52070000D02*
X127000000Y-53340000D01*
G04 #@! TO.N,GND*
X125730000Y-57150000D02*
X125730000Y-64770000D01*
X127000000Y-66040000D02*
X148590000Y-66040000D01*
X125730000Y-64770000D02*
X127000000Y-66040000D01*
X125730000Y-57150000D02*
X105410000Y-57150000D01*
X105410000Y-57150000D02*
X104140000Y-55880000D01*
X104140000Y-55880000D02*
X104140000Y-54610000D01*
G04 #@! TO.N,Net-(R1-Pad2)*
X139700000Y-41910000D02*
X143510000Y-41910000D01*
X143510000Y-41910000D02*
X143510000Y-43180000D01*
X143510000Y-43180000D02*
X143510000Y-46990000D01*
X139700000Y-41910000D02*
X137160000Y-41910000D01*
X137160000Y-41910000D02*
X137160000Y-44450000D01*
X137160000Y-44450000D02*
X132080000Y-44450000D01*
X132080000Y-44450000D02*
X130810000Y-45720000D01*
X130810000Y-45720000D02*
X130810000Y-49530000D01*
G04 #@! TO.N,Net-(D1-Pad2)*
X148590000Y-41910000D02*
X147320000Y-43180000D01*
X144780000Y-55880000D02*
X143510000Y-57150000D01*
X148590000Y-38100000D02*
X148590000Y-41910000D01*
X147320000Y-43180000D02*
X147320000Y-55880000D01*
X147320000Y-55880000D02*
X144780000Y-55880000D01*
G04 #@! TO.N,Net-(D2-Pad2)*
X154940000Y-53340000D02*
X154940000Y-59690000D01*
X154940000Y-59690000D02*
X154940000Y-59690000D01*
G04 #@! TO.N,Net-(D1-Pad1)*
X149860000Y-53340000D02*
X149860000Y-58420000D01*
X149860000Y-58420000D02*
X148590000Y-59690000D01*
X148590000Y-59690000D02*
X143510000Y-59690000D01*
X143510000Y-59690000D02*
X132080000Y-59690000D01*
X132080000Y-59690000D02*
X130810000Y-58420000D01*
X130810000Y-58420000D02*
X130810000Y-57150000D01*
G04 #@! TD*
M02*
